<?xml version="1.0" encoding="utf-8"?>
<!-- Generator: Adobe Illustrator 16.0.0, SVG Export Plug-In . SVG Version: 6.00 Build 0)  -->
<!DOCTYPE svg PUBLIC "-//W3C//DTD SVG 1.1//EN" "http://www.w3.org/Graphics/SVG/1.1/DTD/svg11.dtd">
<svg version="1.1" id="Layer_1" xmlns="http://www.w3.org/2000/svg" xmlns:xlink="http://www.w3.org/1999/xlink" x="0px" y="0px"
	 width="100px" height="100px" viewBox="24.435 24.714 100 100" enable-background="new 24.435 24.714 100 100"
	 xml:space="preserve">
<g id="Layer_2">
</g>
<g id="Layer_1_1_">
	<g>
		<path fill="#FFFFFF" d="M66.328,96.997h16.721c3.056,0,5.535,2.468,5.535,5.519v16.678c0,3.044-2.479,5.52-5.535,5.52H66.328
			c-3.056,0-5.534-2.476-5.534-5.52v-16.678C60.794,99.466,63.272,96.997,66.328,96.997z"/>
		<path fill="#FFFFFF" d="M66.328,65.986h16.661c0.429,0,0.797,0.06,1.229,0.123c-2.031,1.226-3.138,3.74-2.46,6.13
			c0.798,2.944,3.873,4.723,6.825,3.926v11.954c0,3.067-2.521,5.521-5.535,5.521h-16.66c-3.074,0-5.531-2.513-5.531-5.521V71.505
			c0-3.067,2.521-5.519,5.531-5.519H66.328L66.328,65.986z"/>
		<path fill="#FFFFFF" d="M50.647,41.201l12.64-10.884c2.327-1.978,5.868-1.745,7.851,0.579l10.916,12.608
			c1.988,2.321,1.753,5.854-0.573,7.832L68.84,62.219c-2.104,1.812-5.119,1.734-7.174,0.049l6.613-5.557
			c2.324-1.978,2.616-5.52,0.633-7.841c-1.985-2.321-5.538-2.615-7.862-0.637l-6.713,5.7l-4.203-4.911
			c-1.984-2.321-1.753-5.853,0.574-7.831L50.647,41.201z"/>
		<path fill="#FFFFFF" d="M32.796,24.714c4.609,0,8.358,4.17,8.358,9.382c0,5.15-3.749,9.38-8.358,9.38
			c-4.611,0-8.361-4.168-8.361-9.38C24.435,28.946,28.186,24.714,32.796,24.714z"/>
		<path fill="#FFFFFF" d="M27.384,90.941v29.381c0,2.27,1.907,4.169,4.182,4.169h2.521c2.275,0,4.181-1.899,4.181-4.169V90.941
			h2.887V61.816l5.918,5.4c2.106,1.862,4.583,1.237,5.603,0.487l14.197-11.619c1.967-1.165,2.643-3.679,1.538-5.703
			c-1.17-1.962-3.69-2.635-5.719-1.532l-11.93,10.023L39.62,48.694c-1.845-1.778-3.997-3.434-6.765-3.434
			c-4.61,0-8.359,3.74-8.359,8.339v37.403h2.889L27.384,90.941L27.384,90.941z"/>
		<path fill="#FFFFFF" d="M86.273,66.844l9.085-4.833l7.256-7.491l-0.064-0.43c-0.676-4.537,2.522-8.767,7.071-9.442
			c4.55-0.673,8.79,2.515,9.467,7.052l5.348,37.037l-2.827,0.428v31.381c0,2.27-1.905,4.171-4.182,4.171h-2.521
			c-2.271,0-4.181-1.901-4.181-4.171V90.758l-2.823,0.429l-3.813-26.366l-3.261,3.25c-0.552,0.674-1.287,1.167-2.15,1.411
			l-10.253,5.396c-2.212,0.613-4.487-0.735-5.102-2.943C82.707,69.726,84.06,67.457,86.273,66.844z"/>
		<path fill="#FFFFFF" d="M104.273,24.714c-4.613,0-8.362,4.169-8.362,9.38c0,5.151,3.749,9.383,8.362,9.383
			c4.61,0,8.361-4.168,8.361-9.383C112.635,28.945,108.884,24.714,104.273,24.714z"/>
	</g>
</g>
</svg>
