<?xml version="1.0" encoding="utf-8"?>
<!-- Generator: Adobe Illustrator 16.0.0, SVG Export Plug-In . SVG Version: 6.00 Build 0)  -->
<!DOCTYPE svg PUBLIC "-//W3C//DTD SVG 1.1//EN" "http://www.w3.org/Graphics/SVG/1.1/DTD/svg11.dtd">
<svg version="1.1" xmlns="http://www.w3.org/2000/svg" xmlns:xlink="http://www.w3.org/1999/xlink" x="0px" y="0px" width="150px"
	 height="150px" viewBox="-115.5 -26.954 150 150" enable-background="new -115.5 -26.954 150 150" xml:space="preserve">
<g id="Layer_2">
</g>
<g id="Layer_1">
	<g>
		<path fill="#6A7072" d="M-52.855,81.057h24.892c4.549,0,8.24,3.688,8.24,8.246v24.921c0,4.549-3.691,8.249-8.24,8.249h-24.892
			c-4.549,0-8.239-3.7-8.239-8.249V89.303C-61.094,84.746-57.404,81.057-52.855,81.057z"/>
		<path fill="#6A7072" d="M-52.855,34.718h24.804c0.639,0,1.186,0.089,1.83,0.183c-3.023,1.832-4.671,5.588-3.662,9.161
			c1.188,4.399,5.765,7.056,10.16,5.867v17.862c0,4.583-3.754,8.251-8.24,8.251h-24.801c-4.576,0-8.234-3.755-8.234-8.251V42.965
			c0-4.583,3.753-8.247,8.234-8.247H-52.855z"/>
		<path fill="#6A7072" d="M-76.199-2.318l18.817-16.264c3.464-2.955,8.736-2.607,11.687,0.864l16.251,18.841
			c2.959,3.469,2.609,8.747-0.853,11.702l-18.818,16.263c-3.133,2.708-7.62,2.592-10.68,0.074l9.845-8.303
			c3.46-2.955,3.894-8.249,0.942-11.717c-2.955-3.468-8.244-3.907-11.705-0.952l-9.993,8.517l-6.257-7.339
			c-2.954-3.468-2.61-8.746,0.854-11.701L-76.199-2.318z"/>
		<path fill="#6A7072" d="M-102.774-26.954c6.862,0,12.443,6.231,12.443,14.019c0,7.696-5.581,14.017-12.443,14.017
			c-6.864,0-12.447-6.229-12.447-14.017C-115.222-20.631-109.638-26.954-102.774-26.954z"/>
		<path fill="#6A7072" d="M-110.831,72.008v43.904c0,3.391,2.838,6.229,6.225,6.229h3.752c3.387,0,6.224-2.838,6.224-6.229V72.008
			h4.298V28.487l8.81,8.069c3.136,2.782,6.822,1.849,8.341,0.727l21.135-17.362c2.929-1.741,3.935-5.497,2.29-8.521
			c-1.742-2.932-5.493-3.938-8.514-2.289l-17.76,14.977L-92.616,8.879c-2.747-2.657-5.95-5.131-10.071-5.131
			c-6.864,0-12.444,5.589-12.444,12.461V72.1h4.301V72.008z"/>
		<path fill="#6A7072" d="M-23.163,35.999l13.526-7.222l10.8-11.194L1.069,16.94C0.063,10.161,4.824,3.84,11.595,2.83
			c6.773-1.006,13.086,3.758,14.093,10.538l7.961,55.344l-4.208,0.638v46.893c0,3.392-2.836,6.231-6.224,6.231h-3.754
			c-3.382,0-6.224-2.84-6.224-6.231v-44.51l-4.205,0.641L3.358,32.976l-4.854,4.856c-0.821,1.007-1.916,1.743-3.201,2.108
			l-15.264,8.063c-3.293,0.917-6.68-1.098-7.594-4.398C-28.471,40.306-26.458,36.915-23.163,35.999z"/>
		<path fill="#6A7072" d="M3.635-26.954c-6.868,0-12.45,6.23-12.45,14.017c0,7.698,5.582,14.021,12.45,14.021
			c6.862,0,12.446-6.229,12.446-14.021C16.081-20.632,10.497-26.954,3.635-26.954z"/>
	</g>
</g>
</svg>
