<?xml version="1.0" encoding="utf-8"?>
<!-- Generator: Adobe Illustrator 16.0.0, SVG Export Plug-In . SVG Version: 6.00 Build 0)  -->
<!DOCTYPE svg PUBLIC "-//W3C//DTD SVG 1.1//EN" "http://www.w3.org/Graphics/SVG/1.1/DTD/svg11.dtd">
<svg version="1.1" xmlns="http://www.w3.org/2000/svg" xmlns:xlink="http://www.w3.org/1999/xlink" x="0px" y="0px" width="150px"
	 height="150px" viewBox="64.5 -26.954 150 150" enable-background="new 64.5 -26.954 150 150" xml:space="preserve">
<g id="Layer_2">
</g>
<g id="Layer_1">
	<g>
		<path fill="#6A7072" d="M214.551,117.991c0,2.584-2.088,4.67-4.668,4.67H69.419c-2.583,0-4.669-2.086-4.669-4.67V-22.048
			c0-2.582,2.086-4.668,4.669-4.668c2.579,0,4.667,2.086,4.667,4.668v23.34h4.669c2.579,0,4.668,2.086,4.668,4.669
			c0,2.58-2.089,4.667-4.668,4.667h-4.669v18.671h4.669c2.579,0,4.668,2.087,4.668,4.668s-2.089,4.668-4.668,4.668h-4.669v18.672
			h4.669c2.579,0,4.668,2.086,4.668,4.667s-2.089,4.668-4.668,4.668h-4.669v18.674h4.669c2.579,0,4.668,2.085,4.668,4.669
			c0,2.581-2.089,4.666-4.668,4.666h-4.669v18.673h135.797C212.463,113.324,214.551,115.411,214.551,117.991z"/>
		<path fill="#6A7072" d="M101.854,107.265c5.155,0,9.336-4.174,9.336-9.337V69.917c0-5.158-4.181-9.335-9.336-9.335
			c-5.154,0-9.337,4.177-9.337,9.335v28.012C92.517,103.091,96.699,107.265,101.854,107.265z"/>
		<path fill="#6A7072" d="M212.8,87.986l-17.071-26.309c4.136-4.437,7.604-9.679,10.088-15.603
			c11.241-26.808-1.377-57.653-28.186-68.897c-3.348-1.403-6.801-2.411-10.229-3.091c-24.018-4.746-48.835,7.824-58.669,31.278
			c-8.604,20.516-3.219,43.39,11.795,58.039c4.603,4.492,10.102,8.22,16.394,10.857c0.756,0.317,1.516,0.612,2.277,0.896
			c3.08,1.128,6.204,1.949,9.337,2.481c6.283,1.063,12.599,0.951,18.672-0.222c2.164-0.422,4.297-0.969,6.387-1.652l17.197,26.498
			c3.259,5.021,9.927,6.442,14.951,3.184l3.876-2.501C214.643,99.68,216.06,93.013,212.8,87.986z M185.642,61.74V1.453
			c0-7.198-5.822-13.022-13.023-13.022c-7.202,0-13.024,5.824-13.024,13.022v70.081c-3.658,0.192-7.367-0.043-11.059-0.759
			c-0.656-0.129-1.311-0.276-1.963-0.433V27.5c0-7.202-5.83-13.024-13.023-13.024s-13.021,5.822-13.021,13.024v25.692
			c-9.395-12.598-12.081-29.69-5.569-45.224c8.571-20.444,30.243-31.38,51.174-27.243c2.988,0.592,5.932,1.483,8.851,2.708
			c23.366,9.797,34.367,36.671,24.572,60.034C196.433,50.912,191.564,57.083,185.642,61.74z"/>
		<path fill="#6A7072" d="M120.527,67.302v30.626c0,5.163,4.18,9.337,9.337,9.337c5.154,0,9.334-4.174,9.334-9.337V79.055
			c-0.762-0.279-1.521-0.579-2.277-0.897C130.629,75.523,125.13,71.795,120.527,67.302z"/>
		<path fill="#6A7072" d="M148.535,81.538v16.391c0,5.163,4.174,9.337,9.336,9.337s9.336-4.174,9.336-9.337V81.315
			C161.134,82.489,154.818,82.602,148.535,81.538z"/>
	</g>
</g>
</svg>
