<?xml version="1.0" encoding="utf-8"?>
<!-- Generator: Adobe Illustrator 16.0.0, SVG Export Plug-In . SVG Version: 6.00 Build 0)  -->
<!DOCTYPE svg PUBLIC "-//W3C//DTD SVG 1.1//EN" "http://www.w3.org/Graphics/SVG/1.1/DTD/svg11.dtd">
<svg version="1.1" id="Layer_1" xmlns="http://www.w3.org/2000/svg" xmlns:xlink="http://www.w3.org/1999/xlink" x="0px" y="0px"
	 width="100px" height="99.842px" viewBox="260 -1.5 100 99.842" enable-background="new 260 -1.5 100 99.842" xml:space="preserve"
	>
<g id="Layer_2">
</g>
<g id="Layer_1_1_">
	<path fill="#FFFFFF" d="M360,95.227c0,1.725-1.394,3.116-3.116,3.116h-93.768c-1.724,0-3.116-1.393-3.116-3.116V1.743
		c0-1.723,1.393-3.116,3.116-3.116c1.723,0,3.116,1.393,3.116,3.116v15.581h3.115c1.723,0,3.116,1.393,3.116,3.117
		c0,1.722-1.394,3.116-3.116,3.116h-3.115V36.02h3.115c1.723,0,3.116,1.393,3.116,3.116c0,1.723-1.394,3.116-3.116,3.116h-3.115
		v12.465h3.115c1.723,0,3.116,1.393,3.116,3.115c0,1.725-1.394,3.116-3.116,3.116h-3.115v12.466h3.115
		c1.723,0,3.116,1.393,3.116,3.116c0,1.723-1.394,3.116-3.116,3.116h-3.115v12.463h90.65C358.606,92.111,360,93.504,360,95.227z"/>
	<path fill="#FFFFFF" d="M284.77,88.066c3.44,0,6.231-2.785,6.231-6.232V63.135c0-3.443-2.791-6.232-6.231-6.232
		s-6.232,2.789-6.232,6.232v18.698C278.536,85.281,281.328,88.066,284.77,88.066z"/>
	<path fill="none" d="M303.467,36.921c3.441,0,6.231,2.786,6.231,6.232v18.63c0.071,0.029,0.142,0.064,0.215,0.097
		c1.977,0.829,3.993,1.435,6.018,1.827V30.689c0-3.445,2.786-6.232,6.232-6.232s6.231,2.787,6.231,6.232v32.834
		c9.361-2.09,17.604-8.527,21.595-18.045c6.538-15.596-0.807-33.536-16.403-40.076c-1.948-0.818-3.913-1.413-5.908-1.808
		c-13.972-2.762-28.438,4.539-34.16,18.186c-4.348,10.369-2.555,21.78,3.717,30.189v-8.816
		C297.234,39.707,300.023,36.921,303.467,36.921z"/>
	<path fill="#FFFFFF" d="M358.831,75.198l-11.396-17.563c2.762-2.961,5.076-6.461,6.735-10.415
		c7.503-17.896-0.92-38.487-18.816-45.993c-2.233-0.937-4.538-1.609-6.827-2.064c-16.033-3.168-32.601,5.223-39.165,20.879
		c-5.743,13.696-2.148,28.965,7.873,38.745c3.072,2.999,6.744,5.486,10.943,7.247c0.505,0.213,1.012,0.409,1.521,0.599
		c2.057,0.753,4.142,1.301,6.231,1.656c4.194,0.711,8.411,0.635,12.465-0.148c1.444-0.281,2.868-0.646,4.265-1.103l11.479,17.688
		c2.176,3.352,6.627,4.301,9.98,2.125l2.588-1.67C360.061,83.004,361.007,78.552,358.831,75.198z M340.701,57.676V17.432
		c0-4.805-3.887-8.693-8.693-8.693c-4.808,0-8.693,3.888-8.693,8.693v46.782c-2.442,0.129-4.918-0.026-7.384-0.506
		c-0.438-0.086-0.874-0.185-1.311-0.289v-28.6c0-4.808-3.893-8.694-8.693-8.694s-8.692,3.886-8.692,8.694V51.97
		c-6.271-8.41-8.063-19.82-3.717-30.188c5.723-13.647,20.188-20.948,34.16-18.187c1.995,0.396,3.96,0.99,5.908,1.808
		c15.598,6.54,22.941,24.48,16.403,40.076C347.905,50.448,344.655,54.566,340.701,57.676z"/>
	<path fill="#FFFFFF" d="M297.234,61.391v20.442c0,3.447,2.789,6.231,6.231,6.231c3.441,0,6.231-2.784,6.231-6.231V69.234
		c-0.51-0.187-1.017-0.385-1.521-0.599C303.979,66.877,300.307,64.389,297.234,61.391z"/>
	<path fill="#FFFFFF" d="M315.931,70.893v10.94c0,3.447,2.786,6.231,6.232,6.231s6.231-2.784,6.231-6.231v-11.09
		C324.342,71.527,320.125,71.604,315.931,70.893z"/>
</g>
</svg>
