<?xml version="1.0" encoding="utf-8"?>
<!-- Generator: Adobe Illustrator 16.0.0, SVG Export Plug-In . SVG Version: 6.00 Build 0)  -->
<!DOCTYPE svg PUBLIC "-//W3C//DTD SVG 1.1//EN" "http://www.w3.org/Graphics/SVG/1.1/DTD/svg11.dtd">
<svg version="1.1" id="Layer_1" xmlns="http://www.w3.org/2000/svg" xmlns:xlink="http://www.w3.org/1999/xlink" x="0px" y="0px"
	  viewBox="0 -1.491 100 99.868" enable-background="new 0 -1.491 100 99.868" xml:space="preserve"
	>
<g id="Layer_2">
</g>
<g id="Layer_1_1_">
	<polygon fill="#FFFFFF" points="94.934,15.977 94.492,-1.454 77.059,-1.155 69.848,6.371 82.143,6.157 63.001,26.128 68.271,31.18 
		87.413,11.209 87.721,23.503 	"/>
	<path fill="#FFFFFF" d="M41.191,53.532c2.282-0.024,5.731-0.06,8.825-3.288c3-3.129,2.868-6.529,2.781-8.778
		c-0.074-1.989-0.055-2.726,0.874-3.695c0.918-0.958,1.646-1.015,3.619-1.035c2.282-0.025,5.729-0.062,8.825-3.289l-5.286-5.066
		c-0.918,0.958-1.646,1.014-3.616,1.035c-2.283,0.025-5.732,0.061-8.828,3.291c-3.125,3.259-2.991,6.739-2.902,9.041
		c0.075,1.933,0.06,2.584-0.753,3.431c-0.918,0.957-1.646,1.014-3.617,1.033c-2.282,0.025-5.731,0.062-8.826,3.29
		c-3.125,3.262-2.993,6.742-2.903,9.041c0.074,1.934,0.059,2.586-0.752,3.432l5.286,5.066c2.998-3.13,2.868-6.527,2.781-8.777
		c-0.076-1.988-0.055-2.728,0.874-3.695C38.491,53.609,39.219,53.553,41.191,53.532z"/>
	<polygon fill="#FFFFFF" points="41.969,13.73 33.465,-1.491 18.174,6.889 15.294,16.907 26.077,10.994 18.432,37.579 25.45,39.598 
		33.094,13.012 39.09,23.749 	"/>
	<polygon fill="#FFFFFF" points="90.314,85.113 100,70.615 85.583,60.811 75.35,62.803 85.521,69.715 74.378,72.167 75.773,79.334 
		86.916,76.882 80.083,87.107 	"/>
	<path fill="#FFFFFF" d="M40.989,81.963c1.88,1.295,4.72,3.254,9.107,2.398c4.253-0.828,6.107-3.682,7.335-5.569
		c1.082-1.67,1.523-2.259,2.84-2.517c1.306-0.256,1.932,0.121,3.556,1.24c1.879,1.293,4.719,3.254,9.106,2.396l-1.397-7.184
		c-1.304,0.252-1.931-0.121-3.554-1.24c-1.879-1.297-4.719-3.254-9.108-2.398c-4.433,0.863-6.33,3.782-7.584,5.717
		c-1.053,1.62-1.441,2.145-2.592,2.368c-1.303,0.255-1.929-0.12-3.552-1.239c-1.88-1.295-4.721-3.254-9.11-2.398
		c-4.432,0.863-6.33,3.783-7.583,5.717c-1.054,1.621-1.441,2.145-2.592,2.371l1.398,7.184c4.254-0.828,6.107-3.681,7.334-5.569
		c1.083-1.671,1.524-2.259,2.842-2.517C38.739,80.469,39.366,80.843,40.989,81.963z"/>
	<path fill="#FFFFFF" d="M18.268,64.723l-7.047-1.986c0.318-1.127,0.024-1.711-0.95-3.381c-1.161-1.989-2.915-4.998-1.689-9.345
		c1.212-4.306,4.24-5.959,6.242-7.055c1.73-0.946,2.346-1.337,2.708-2.613l7.045,1.984c-1.212,4.303-4.239,5.957-6.241,7.052
		c-1.73,0.946-2.347,1.339-2.708,2.616c-0.364,1.293-0.036,1.952,0.967,3.672C17.728,57.613,19.442,60.55,18.268,64.723z"/>
	<path fill="#FFFFFF" d="M6.242,92.135h90.505c1.726,0,3.121,1.396,3.121,3.121s-1.396,3.121-3.121,3.121H3.121
		C1.396,98.377,0,96.98,0,95.256V1.63c0-1.726,1.396-3.121,3.121-3.121S6.242-0.095,6.242,1.63V92.135z"/>
	
		<rect x="-2.136" y="76.839" transform="matrix(-0.6817 0.7316 -0.7316 -0.6817 86.4222 123.3994)" fill="#FFFFFF" width="37.01" height="7.32"/>
	
		<rect x="5.769" y="84.002" transform="matrix(-0.9802 0.1979 -0.1979 -0.9802 47.4516 170.5826)" fill="#FFFFFF" width="18.868" height="7.32"/>
	
		<rect x="-4.543" y="77.151" transform="matrix(-0.2686 0.9633 -0.9633 -0.2686 90.4468 92.9458)" fill="#FFFFFF" width="28.958" height="7.322"/>
</g>
</svg>
