<?xml version="1.0" encoding="utf-8"?>
<!-- Generator: Adobe Illustrator 16.0.0, SVG Export Plug-In . SVG Version: 6.00 Build 0)  -->
<!DOCTYPE svg PUBLIC "-//W3C//DTD SVG 1.1//EN" "http://www.w3.org/Graphics/SVG/1.1/DTD/svg11.dtd">
<svg version="1.1" xmlns="http://www.w3.org/2000/svg" xmlns:xlink="http://www.w3.org/1999/xlink" x="0px" y="0px" width="150px"
	 height="150px" viewBox="-295.5 -26.954 150 150" enable-background="new -295.5 -26.954 150 150" xml:space="preserve">
<g id="Layer_2">
</g>
<g id="Layer_1">
	<polygon fill="#6A7072" points="-153.862,-0.84 -154.521,-26.897 -180.584,-26.451 -191.366,-15.2 -172.985,-15.52 -201.6,14.336 
		-193.719,21.889 -165.104,-7.967 -164.645,10.412 	"/>
	<path fill="#6A7072" d="M-234.205,55.303c3.411-0.036,8.568-0.089,13.192-4.915c4.483-4.679,4.288-9.761,4.158-13.124
		c-0.112-2.974-0.082-4.075,1.307-5.523c1.373-1.433,2.461-1.517,5.411-1.548c3.412-0.037,8.565-0.093,13.193-4.917l-7.903-7.573
		c-1.372,1.433-2.461,1.516-5.406,1.547c-3.414,0.037-8.571,0.09-13.197,4.92c-4.671,4.873-4.472,10.075-4.339,13.516
		c0.113,2.889,0.09,3.863-1.125,5.129c-1.372,1.431-2.46,1.515-5.407,1.544c-3.412,0.038-8.568,0.092-13.195,4.918
		c-4.672,4.875-4.474,10.08-4.34,13.517c0.111,2.891,0.088,3.865-1.125,5.13l7.902,7.574c4.481-4.679,4.288-9.76,4.158-13.123
		c-0.114-2.973-0.083-4.076,1.307-5.523C-238.241,55.418-237.153,55.335-234.205,55.303z"/>
	<polygon fill="#6A7072" points="-233.042,-4.198 -245.755,-26.954 -268.614,-14.426 -272.919,0.55 -256.799,-8.289 
		-268.229,31.455 -257.737,34.473 -246.31,-5.272 -237.345,10.779 	"/>
	<polygon fill="#6A7072" points="-160.767,102.516 -146.288,80.841 -167.84,66.184 -183.139,69.164 -167.933,79.498 
		-184.591,83.162 -182.505,93.876 -165.848,90.212 -176.062,105.498 	"/>
	<path fill="#6A7072" d="M-234.507,97.807c2.811,1.936,7.056,4.864,13.614,3.588c6.359-1.24,9.13-5.504,10.966-8.327
		c1.617-2.496,2.279-3.378,4.247-3.761c1.951-0.383,2.886,0.178,5.314,1.852c2.809,1.936,7.054,4.864,13.614,3.585l-2.089-10.739
		c-1.949,0.378-2.885-0.182-5.311-1.854c-2.811-1.938-7.056-4.864-13.618-3.586c-6.627,1.291-9.463,5.654-11.338,8.545
		c-1.574,2.423-2.154,3.206-3.875,3.541c-1.948,0.38-2.884-0.178-5.31-1.854c-2.811-1.934-7.057-4.862-13.619-3.585
		c-6.625,1.292-9.463,5.655-11.336,8.546c-1.575,2.423-2.155,3.206-3.875,3.544l2.09,10.739c6.36-1.237,9.13-5.501,10.965-8.327
		c1.619-2.496,2.279-3.375,4.249-3.761C-237.87,95.573-236.933,96.133-234.507,97.807z"/>
	<path fill="#6A7072" d="M-268.474,72.033l-10.535-2.968c0.475-1.687,0.036-2.559-1.42-5.056c-1.736-2.975-4.358-7.473-2.525-13.969
		c1.812-6.437,6.339-8.909,9.331-10.546c2.587-1.415,3.507-2,4.047-3.907l10.532,2.966c-1.812,6.433-6.336,8.905-9.33,10.542
		c-2.587,1.414-3.508,2.001-4.048,3.911c-0.543,1.933-0.053,2.918,1.446,5.489C-269.281,61.405-266.718,65.795-268.474,72.033z"/>
	<path fill="#6A7072" d="M-285.914,113.145h135.375c2.581,0,4.668,2.089,4.668,4.669c0,2.579-2.087,4.668-4.668,4.668h-140.043
		c-2.581,0-4.668-2.089-4.668-4.668V-22.229c0-2.581,2.087-4.668,4.668-4.668c2.58,0,4.667,2.087,4.667,4.668V113.145z"/>
	
		<rect x="-298.974" y="90.147" transform="matrix(0.6817 -0.7316 0.7316 0.6817 -156.3055 -168.0588)" fill="#6A7072" width="55.33" height="10.943"/>
	
		<rect x="-287.156" y="100.857" transform="matrix(0.9802 -0.1979 0.1979 0.9802 -26.4473 -51.9409)" fill="#6A7072" width="28.207" height="10.944"/>
	
		<rect x="-302.58" y="90.615" transform="matrix(0.2686 -0.9633 0.9633 0.2686 -298.0323 -200.3344)" fill="#6A7072" width="43.287" height="10.945"/>
</g>
</svg>
