<?xml version="1.0" encoding="utf-8"?>
<!-- Generator: Adobe Illustrator 16.0.0, SVG Export Plug-In . SVG Version: 6.00 Build 0)  -->
<!DOCTYPE svg PUBLIC "-//W3C//DTD SVG 1.1//EN" "http://www.w3.org/Graphics/SVG/1.1/DTD/svg11.dtd">
<svg version="1.1" id="Layer_1" xmlns="http://www.w3.org/2000/svg" xmlns:xlink="http://www.w3.org/1999/xlink" x="0px" y="0px"
	 width="100px" height="100px" viewBox="25 25 100 100" enable-background="new 25 25 100 100" xml:space="preserve">
<g id="Layer_2">
</g>
<g id="Layer_1_1_">
	<g>
		<polygon fill="#FFFFFF" points="44.318,75.588 44.318,80.321 95.747,80.321 95.222,75.588 		"/>
		<path fill="#FFFFFF" d="M98.128,58.44c-0.312,0.019-0.648,0.153-0.897,0.394c-0.242,0.238-0.391,0.579-0.399,0.893
			c-0.008,0.314,0.095,0.587,0.223,0.837c0.257,0.502,0.648,0.944,1.021,1.376c0.372,0.432,0.726,0.858,0.877,1.155
			c0.075,0.147,0.095,0.252,0.095,0.295c-0.002,0.042,0.008,0.035-0.055,0.094c-0.066,0.063-0.089,0.074-0.168,0.08
			s-0.213-0.016-0.39-0.083c-0.353-0.136-0.84-0.448-1.336-0.779c-0.497-0.333-1.011-0.688-1.559-0.898
			c-0.274-0.105-0.562-0.176-0.878-0.153c-0.313,0.023-0.648,0.165-0.892,0.409c-0.241,0.24-0.383,0.578-0.386,0.893
			c-0.001,0.313,0.106,0.589,0.236,0.838c0.265,0.496,0.663,0.93,1.043,1.355c0.377,0.426,0.733,0.839,0.888,1.129
			c0.075,0.145,0.099,0.249,0.099,0.286c-0.001,0.037,0.012,0.025-0.05,0.083c-0.062,0.062-0.084,0.069-0.158,0.073
			c-0.071,0.004-0.204-0.019-0.375-0.088c-0.342-0.139-0.807-0.455-1.29-0.794c-0.486-0.339-0.99-0.702-1.529-0.922
			c-0.271-0.11-0.557-0.187-0.869-0.172c-0.312,0.014-0.646,0.144-0.897,0.38c-0.249,0.235-0.402,0.571-0.414,0.887
			c-0.013,0.316,0.08,0.599,0.203,0.854c0.246,0.509,0.644,0.962,1.011,1.406c0.367,0.442,0.706,0.873,0.853,1.173
			c0.073,0.15,0.091,0.258,0.089,0.301c-0.002,0.042,0.012,0.039-0.054,0.099c-0.063,0.06-0.088,0.065-0.162,0.069
			c-0.075,0.003-0.205-0.023-0.376-0.094c-0.342-0.143-0.804-0.462-1.281-0.804c-0.478-0.341-0.976-0.705-1.51-0.927
			c-0.268-0.111-0.55-0.191-0.863-0.177c-0.312,0.014-0.644,0.144-0.894,0.38c-0.248,0.235-0.401,0.566-0.413,0.882
			s0.087,0.596,0.212,0.848c0.252,0.504,0.649,0.954,1.022,1.392c0.37,0.437,0.715,0.864,0.865,1.164
			c0.077,0.148,0.095,0.253,0.094,0.296c0,0.042,0.014,0.04-0.048,0.098c-0.064,0.062-0.091,0.065-0.169,0.069
			c-0.076,0.004-0.206-0.019-0.379-0.087c-0.346-0.14-0.82-0.457-1.307-0.795c-0.485-0.337-0.986-0.694-1.528-0.913
			c-0.271-0.108-0.56-0.185-0.873-0.167c-0.313,0.017-0.644,0.15-0.893,0.389c-0.489,0.473-0.533,1.168-0.404,1.759
			c0.129,0.593,0.417,1.174,0.731,1.711c0.627,1.072,1.4,1.964,1.4,1.964l0.867-0.745c0,0-0.716-0.839-1.276-1.794
			c-0.28-0.48-0.518-0.988-0.601-1.377c-0.086-0.39-0.045-0.573,0.078-0.69c0.064-0.062,0.088-0.071,0.161-0.075
			c0.075-0.004,0.207,0.019,0.38,0.09c0.346,0.137,0.82,0.45,1.308,0.789c0.488,0.337,0.987,0.697,1.529,0.916
			c0.269,0.108,0.56,0.185,0.872,0.168c0.312-0.019,0.643-0.152,0.892-0.39c0.247-0.237,0.396-0.572,0.404-0.889
			c0.009-0.314-0.085-0.596-0.212-0.848c-0.254-0.505-0.65-0.953-1.021-1.39c-0.37-0.439-0.719-0.862-0.866-1.159
			c-0.075-0.149-0.096-0.252-0.094-0.292c0.001-0.04-0.009-0.034,0.053-0.094c0.065-0.06,0.086-0.065,0.159-0.069
			c0.072-0.002,0.204,0.018,0.374,0.089c0.34,0.142,0.803,0.462,1.281,0.804c0.479,0.343,0.97,0.708,1.505,0.932
			c0.268,0.112,0.556,0.189,0.869,0.178c0.312-0.014,0.646-0.14,0.896-0.375c0.25-0.234,0.399-0.571,0.414-0.888
			c0.014-0.316-0.078-0.593-0.201-0.847c-0.249-0.511-0.639-0.963-1.007-1.407c-0.367-0.443-0.711-0.876-0.858-1.178
			c-0.072-0.151-0.09-0.257-0.089-0.301c0.001-0.043-0.01-0.043,0.056-0.104c0.062-0.061,0.089-0.065,0.168-0.069
			c0.075-0.003,0.206,0.019,0.38,0.088c0.345,0.141,0.814,0.46,1.302,0.798c0.483,0.34,0.983,0.699,1.521,0.918
			c0.271,0.109,0.555,0.191,0.868,0.172c0.315-0.018,0.646-0.153,0.894-0.394c0.244-0.237,0.39-0.577,0.396-0.893
			c0.004-0.314-0.1-0.585-0.233-0.833c-0.263-0.496-0.661-0.931-1.041-1.356c-0.379-0.425-0.732-0.841-0.887-1.134
			c-0.078-0.146-0.099-0.251-0.099-0.291l0.044-0.093c0.065-0.065,0.091-0.069,0.167-0.075c0.078-0.005,0.214,0.012,0.39,0.079
			c0.352,0.135,0.83,0.447,1.327,0.779s1.009,0.686,1.558,0.897c0.276,0.105,0.569,0.179,0.883,0.157
			c0.315-0.02,0.646-0.161,0.893-0.404c0.243-0.239,0.388-0.573,0.395-0.888s-0.095-0.592-0.222-0.843
			c-0.256-0.501-0.653-0.943-1.024-1.375c-0.372-0.433-0.719-0.854-0.868-1.149c-0.075-0.148-0.096-0.255-0.095-0.296
			c0.001-0.042-0.013-0.034,0.05-0.094c0.062-0.062,0.085-0.069,0.162-0.074c0.077-0.004,0.214,0.021,0.39,0.089
			c0.35,0.139,0.825,0.453,1.315,0.79c0.492,0.335,1.001,0.693,1.544,0.907c0.273,0.108,0.561,0.183,0.873,0.164
			c0.314-0.021,0.648-0.162,0.894-0.405l-0.804-0.813c-0.063,0.062-0.09,0.069-0.163,0.073c-0.074,0.005-0.206-0.015-0.379-0.083
			c-0.348-0.137-0.823-0.452-1.318-0.789c-0.489-0.336-0.997-0.692-1.542-0.907C98.729,58.501,98.443,58.422,98.128,58.44z"/>
		<path fill="#FFFFFF" d="M98.128,58.44l-0.014-0.243c-0.371,0.023-0.757,0.177-1.053,0.462l-0.001,0.001
			c-0.289,0.285-0.46,0.674-0.473,1.061v0v0.038c0,0.356,0.118,0.659,0.249,0.917c0.277,0.54,0.684,0.993,1.055,1.424
			c0.369,0.428,0.719,0.856,0.844,1.106c0.031,0.061,0.05,0.11,0.059,0.144l0.009,0.037l0.002,0.008l0.037-0.003h-0.037v0.003
			l0.037-0.003h-0.037h0.243l-0.243-0.011l-0.001,0.021v0.001l0.198,0.01l-0.156-0.123l-0.041,0.113l0.197,0.01l-0.156-0.123
			l0.093,0.072l-0.085-0.08l-0.008,0.007l0.093,0.072l-0.085-0.08l-0.026,0.025l-0.002,0.002l-0.024,0.022l0.025,0.033l-0.02-0.036
			l-0.006,0.003l0.025,0.033l-0.02-0.036l0.042,0.078l-0.019-0.087l-0.023,0.01l0.042,0.078l-0.019-0.087l-0.021,0.002h-0.008
			c-0.034,0-0.14-0.015-0.277-0.068c-0.31-0.118-0.795-0.425-1.288-0.753c-0.495-0.332-1.021-0.698-1.606-0.923
			c-0.256-0.098-0.537-0.173-0.846-0.173l-0.137,0.005c-0.374,0.028-0.757,0.191-1.047,0.48c-0.287,0.287-0.452,0.677-0.456,1.063
			V62.95v0.012c0,0.368,0.125,0.681,0.264,0.943l0.001,0.001c0.284,0.533,0.696,0.979,1.074,1.403
			c0.376,0.421,0.729,0.837,0.855,1.082l0.216-0.115l-0.217,0.112l0.061,0.143l0.009,0.037l0.001,0.005l0.091-0.01h-0.091v0.01
			l0.091-0.01h-0.091h0.243l-0.243-0.009l0.104,0.004l-0.104-0.005v0l0.104,0.004l-0.104-0.006v0.014v0.021v0.002l0.143-0.004
			h-0.143v0.004l0.143-0.004h-0.143h0.216l-0.201-0.077l-0.015,0.077h0.216l-0.201-0.077l0.175,0.066l-0.138-0.129l-0.037,0.063
			l0.175,0.066l-0.138-0.129l-0.027,0.027l-0.002,0.001l-0.021,0.02l0.041,0.05l-0.031-0.056l-0.01,0.005l0.041,0.05l-0.031-0.056
			l0.051,0.093l-0.02-0.104l-0.031,0.011l0.051,0.093l-0.02-0.104h-0.002l-0.017,0.001h-0.005c-0.024,0.001-0.131-0.015-0.265-0.071
			c-0.299-0.12-0.763-0.43-1.243-0.768c-0.484-0.337-1-0.711-1.576-0.948c-0.264-0.108-0.559-0.192-0.883-0.192L91.37,64.5
			c-0.37,0.018-0.755,0.167-1.053,0.446c-0.297,0.282-0.475,0.669-0.491,1.056l-0.001,0.067c0,0.343,0.103,0.643,0.229,0.902
			c0.268,0.551,0.679,1.015,1.043,1.455c0.363,0.437,0.697,0.869,0.822,1.125l-0.001-0.001l0.055,0.14l0.009,0.039l0.001,0.01
			l0.011-0.001h-0.011v0.001l0.011-0.001h-0.011h0.097l-0.097-0.002v0.002h0.097l-0.097-0.002v0.014l0.243-0.005l-0.243-0.013
			l-0.001,0.023v0.013h0.189l-0.182-0.046l-0.008,0.046h0.189l-0.182-0.046l0.179,0.046l-0.142-0.122l-0.037,0.075l0.179,0.046
			l-0.142-0.122l0.029,0.025l-0.027-0.026l-0.002,0.001l0.029,0.025l-0.027-0.026l-0.021,0.02l-0.002,0.002l-0.018,0.015l0.053,0.07
			l-0.022-0.083l-0.03,0.013l0.052,0.07l-0.021-0.083l0.015,0.06l-0.011-0.062l-0.004,0.001l0.015,0.06l-0.011-0.062l-0.024,0.002
			l0.013,0.243l-0.009-0.243h-0.003c-0.022,0.001-0.129-0.016-0.271-0.075c-0.298-0.123-0.76-0.437-1.232-0.777
			c-0.478-0.34-0.988-0.715-1.558-0.954c-0.265-0.11-0.557-0.198-0.887-0.198l-0.083,0.002c-0.37,0.018-0.752,0.167-1.048,0.446
			c-0.293,0.28-0.475,0.663-0.488,1.051v-0.001l-0.002,0.063c0,0.347,0.111,0.647,0.238,0.903c0.272,0.544,0.684,1.004,1.055,1.44
			c0.367,0.431,0.708,0.861,0.833,1.115l0.002,0.003l0.057,0.136l0.008,0.037l0.001,0.008l0.027-0.002h-0.027v0.002l0.027-0.002
			h-0.027h0.111l-0.111-0.002v0.002h0.111l-0.111-0.002v0.014l0.244-0.004h-0.244l0.002,0.034v0.004l0.146-0.009h-0.146v0.009
			l0.146-0.009h-0.146h0.199l-0.163-0.115l-0.036,0.115h0.199l-0.163-0.115l0.07,0.05l-0.062-0.06l-0.009,0.011l0.071,0.05
			l-0.064-0.06l-0.015,0.015l-0.005,0.005l-0.014,0.013l0.054,0.076l-0.021-0.09l-0.033,0.015l0.054,0.076l-0.021-0.09l0,0
			l-0.03,0.002h-0.005c-0.03,0-0.133-0.015-0.271-0.07l0.001,0c-0.303-0.121-0.776-0.433-1.259-0.769
			c-0.483-0.336-0.998-0.705-1.576-0.939c-0.26-0.104-0.548-0.187-0.869-0.187l-0.109,0.004h0.001
			c-0.372,0.02-0.753,0.174-1.048,0.457c-0.401,0.387-0.543,0.901-0.541,1.382c0,0.208,0.024,0.412,0.067,0.605
			c0.14,0.634,0.438,1.235,0.76,1.783c0.641,1.096,1.421,1.994,1.427,2c0.088,0.101,0.241,0.112,0.343,0.024l0.867-0.745
			c0.103-0.088,0.114-0.241,0.027-0.343c0-0.001-0.042-0.05-0.118-0.143c-0.223-0.274-0.726-0.919-1.134-1.618
			c-0.273-0.465-0.501-0.962-0.573-1.306l-0.001,0c-0.028-0.129-0.04-0.227-0.04-0.295c0.005-0.125,0.021-0.135,0.048-0.166
			l0.003-0.002l0.021-0.019l-0.036-0.046l0.027,0.051l0.009-0.004l-0.036-0.046l0.027,0.051l-0.047-0.087l0.019,0.097l0.028-0.01
			l-0.047-0.087l0.019,0.097h0.002l0.018-0.001h0.006c0.027-0.001,0.131,0.015,0.269,0.072l0.002,0.001
			c0.303,0.118,0.776,0.426,1.26,0.763c0.485,0.335,0.996,0.708,1.576,0.942c0.263,0.105,0.557,0.189,0.879,0.189l0.097-0.003h0.003
			c0.37-0.023,0.749-0.176,1.045-0.457c0.294-0.285,0.466-0.671,0.48-1.058V72.91v-0.045c0-0.35-0.107-0.657-0.238-0.918
			c-0.275-0.544-0.685-1.003-1.054-1.438c-0.368-0.434-0.713-0.86-0.834-1.109l-0.001-0.002l-0.058-0.14l-0.01-0.036l0,0h-0.189
			l0.188,0.019l0.001-0.019h-0.189l0.188,0.019l0.001-0.017v-0.018v-0.009l-0.179,0.005h0.179v-0.005l-0.179,0.005h0.179h-0.097
			l0.097,0.005v-0.005h-0.097l0.097,0.005l-0.197-0.012l0.156,0.121l0.041-0.109l-0.197-0.012l0.156,0.121l-0.083-0.064l0.078,0.07
			l0.005-0.006l-0.083-0.064l0.078,0.07l0.024-0.024l-0.169-0.175l0.165,0.178l0.021-0.018l-0.057-0.076l0.023,0.091l0.033-0.015
			l-0.057-0.076l0.023,0.091l-0.012-0.042l0.005,0.043l0.007-0.001l-0.012-0.042l0.005,0.043l0.022-0.001h0.002
			c0.03,0,0.132,0.014,0.267,0.07c0.296,0.123,0.76,0.438,1.234,0.778c0.477,0.34,0.979,0.718,1.551,0.958
			c0.267,0.112,0.568,0.197,0.897,0.197l0.076-0.001c0.369-0.017,0.755-0.163,1.053-0.441c0.3-0.281,0.472-0.67,0.491-1.054
			l0.001-0.077c0-0.339-0.104-0.634-0.226-0.888l-0.002-0.001c-0.268-0.549-0.672-1.014-1.038-1.455
			c-0.364-0.437-0.703-0.873-0.826-1.129l0.001,0.001c-0.029-0.061-0.047-0.111-0.056-0.145l-0.009-0.04l-0.001-0.009h-0.003h0.003
			l0,0h-0.003h0.003h-0.143l0.143,0.002v-0.002h-0.143l0.143,0.002l-0.236-0.003l0.232,0.038l0.004-0.035l-0.236-0.003l0.232,0.038
			l0.004-0.028v-0.024v-0.003l-0.187-0.006l0.154,0.105l0.032-0.099l-0.187-0.006l0.154,0.105l-0.07-0.048l0.062,0.059l0.009-0.011
			l-0.069-0.048l0.062,0.059l0.02-0.019l0.004-0.005l0.014-0.013l-0.056-0.074l0.021,0.088l0.032-0.014l-0.053-0.074l0.021,0.088
			l-0.001-0.003v0.003h0.001l-0.001-0.003v0.003l0.027-0.001h0.005c0.03,0,0.134,0.014,0.272,0.071
			c0.301,0.122,0.771,0.436,1.255,0.772c0.481,0.338,0.994,0.71,1.568,0.943c0.26,0.104,0.547,0.193,0.871,0.193l0.103-0.002
			c0.376-0.021,0.757-0.179,1.05-0.463c0.292-0.286,0.46-0.677,0.469-1.063v-0.003V66.56c0-0.363-0.123-0.67-0.262-0.93
			c-0.283-0.533-0.697-0.979-1.074-1.404c-0.376-0.42-0.726-0.838-0.854-1.086c-0.031-0.06-0.051-0.109-0.061-0.142l-0.01-0.036
			l-0.005,0h0.005v0l-0.005,0h0.005h-0.243l0.22,0.105l0.045-0.093l-0.221-0.105l0.172,0.172l0.018-0.016l-0.052-0.069l0.021,0.083
			l0.03-0.014l-0.052-0.069l0.021,0.083l-0.015-0.052l0.01,0.053l0.005-0.001l-0.015-0.052l0.01,0.053l0.03-0.002h0.008
			c0.042-0.001,0.145,0.013,0.276,0.063c0.308,0.116,0.786,0.422,1.279,0.753c0.495,0.331,1.018,0.696,1.605,0.923
			c0.26,0.099,0.546,0.177,0.859,0.177l0.128-0.004c0.375-0.025,0.754-0.188,1.045-0.473c0.29-0.286,0.459-0.671,0.468-1.057v-0.001
			l0.001-0.033c0-0.357-0.116-0.665-0.249-0.925c-0.277-0.541-0.688-0.993-1.057-1.424c-0.37-0.427-0.712-0.851-0.836-1.1v-0.001
			L98.233,59.8l-0.01-0.038l-0.001-0.007l-0.049,0.004h0.049v-0.004l-0.049,0.004h0.049h-0.188l0.187,0.018l0.001-0.018h-0.188
			l0.187,0.018l0.001-0.024V59.75v-0.027v-0.003l-0.145,0.007h0.145v-0.007l-0.145,0.007h0.145H98.02l0.164,0.121l0.039-0.121H98.02
			l0.163,0.121l-0.1-0.074l0.093,0.083l0.008-0.009l-0.101-0.074l0.095,0.083l0.004-0.003l0.017-0.017l0.003-0.003l0.02-0.019
			l-0.054-0.069l0.023,0.083l0.03-0.014l-0.054-0.069l0.023,0.083l-0.011-0.036l0.006,0.038l0.005-0.001l-0.011-0.036l0.006,0.038
			l0.021-0.002h-0.002h0.004c0.03-0.001,0.143,0.016,0.284,0.073c0.306,0.12,0.78,0.429,1.268,0.764
			c0.489,0.334,1.011,0.703,1.591,0.933c0.26,0.102,0.545,0.184,0.861,0.184l0.116-0.003c0.375-0.027,0.759-0.187,1.049-0.476
			c0.096-0.094,0.096-0.249,0.002-0.344l-0.804-0.813c-0.046-0.046-0.106-0.073-0.173-0.073c-0.065,0-0.126,0.025-0.173,0.072
			l-0.018,0.016l0.054,0.069l-0.021-0.083l-0.032,0.014l0.054,0.069l-0.021-0.083l0.016,0.062l-0.012-0.063l-0.006,0.001
			l0.017,0.062l-0.011-0.063l-0.024,0.002h-0.003h-0.007c-0.03,0-0.132-0.014-0.266-0.068c-0.303-0.117-0.779-0.428-1.27-0.764
			c-0.487-0.333-1.008-0.701-1.589-0.932c-0.262-0.103-0.551-0.187-0.873-0.187L98.111,58.2L98.128,58.44l0.016,0.244l0.075-0.002
			c0.236,0,0.462,0.062,0.693,0.153c0.508,0.199,1.002,0.543,1.493,0.881c0.499,0.338,0.976,0.659,1.366,0.815
			c0.179,0.069,0.32,0.101,0.444,0.101l0.042-0.001l-0.017-0.243l0.014,0.244c0.039-0.003,0.097-0.006,0.165-0.034
			c0.069-0.029,0.116-0.072,0.155-0.111l-0.173-0.172l-0.174,0.171l0.805,0.813l0.173-0.171l-0.173-0.172
			c-0.197,0.199-0.481,0.318-0.737,0.334l-0.084,0.003c-0.231,0-0.455-0.06-0.683-0.15c-0.506-0.199-1.002-0.544-1.494-0.881
			c-0.495-0.338-0.973-0.658-1.364-0.815c-0.187-0.072-0.334-0.105-0.462-0.107l-0.03,0h-0.001
			c-0.044,0.003-0.103,0.006-0.172,0.037c-0.068,0.031-0.11,0.072-0.147,0.108l0.171,0.174l-0.168-0.176l-0.069,0.075l-0.057,0.169
			l0.001,0.024l0.01-0.001h-0.01v0.001l0.01-0.001h-0.01v0.003h0.244l-0.242-0.024l-0.002,0.029
			c0.003,0.111,0.035,0.229,0.121,0.401l-0.001-0.001c0.175,0.341,0.526,0.759,0.902,1.198c0.373,0.435,0.756,0.865,0.991,1.327
			c0.115,0.226,0.195,0.454,0.195,0.704v0.025v-0.001c-0.003,0.244-0.125,0.527-0.322,0.719c-0.202,0.2-0.481,0.319-0.736,0.334
			l-0.096,0.003c-0.23,0-0.459-0.057-0.686-0.145c-0.512-0.196-1.01-0.538-1.509-0.873c-0.501-0.334-0.979-0.651-1.376-0.805
			c-0.182-0.069-0.331-0.096-0.451-0.096l-0.041,0.001c-0.041,0.004-0.096,0.005-0.165,0.033c-0.069,0.029-0.119,0.073-0.158,0.112
			l-0.048,0.067l-0.044,0.093l-0.023,0.105c0.002,0.109,0.035,0.228,0.126,0.405c0.182,0.337,0.538,0.751,0.921,1.182
			c0.381,0.426,0.766,0.851,1.008,1.309c0.121,0.227,0.204,0.45,0.204,0.701v0.016l0.244,0.001l-0.244-0.005
			c-0.002,0.245-0.124,0.535-0.32,0.723c-0.202,0.197-0.481,0.312-0.738,0.325l-0.075,0.002c-0.232,0-0.457-0.064-0.688-0.157
			c-0.499-0.202-0.987-0.55-1.472-0.891c-0.491-0.341-0.961-0.665-1.351-0.825c-0.186-0.074-0.332-0.106-0.456-0.107l-0.029,0
			c-0.04,0.002-0.093,0.002-0.164,0.029c-0.07,0.027-0.122,0.071-0.16,0.11l0.17,0.174L91.1,65.776
			c-0.035,0.035-0.068,0.056-0.108,0.138l-0.024,0.107l-0.001,0.026l0.243,0.011l-0.239-0.039l-0.004,0.037v0.006l0.174-0.001
			h-0.174v0.001l0.174-0.001h-0.174c0.002,0.101,0.03,0.229,0.114,0.405v0.001c0.172,0.346,0.519,0.777,0.889,1.226
			c0.372,0.445,0.746,0.886,0.977,1.358v0c0.105,0.218,0.178,0.437,0.178,0.676l-0.002,0.054c-0.01,0.249-0.135,0.535-0.337,0.72
			c-0.201,0.191-0.487,0.299-0.739,0.31l-0.056,0c-0.245,0-0.479-0.062-0.709-0.16c-0.497-0.207-0.977-0.561-1.458-0.905
			c-0.482-0.343-0.946-0.669-1.328-0.831c-0.185-0.077-0.334-0.107-0.455-0.108h-0.024c-0.039,0.002-0.096,0.003-0.165,0.032
			c-0.069,0.029-0.111,0.068-0.15,0.103l-0.002,0.002l-0.08,0.089l-0.042,0.1l-0.006,0.065v0.009l0.175-0.005h-0.175v0.005
			l0.175-0.005h-0.175v0.004l0.244,0.007l-0.242-0.024l-0.002,0.03c0.003,0.112,0.037,0.226,0.121,0.396l0.217-0.11l-0.218,0.108
			c0.174,0.345,0.525,0.765,0.898,1.208c0.375,0.439,0.756,0.875,0.99,1.342c0.11,0.221,0.187,0.451,0.187,0.699l-0.001,0.034
			v-0.001c-0.006,0.246-0.13,0.53-0.33,0.721c-0.202,0.195-0.482,0.308-0.737,0.323h0.003l-0.072,0.001
			c-0.237,0-0.469-0.062-0.697-0.153c-0.504-0.202-0.991-0.551-1.481-0.891c-0.492-0.342-0.969-0.659-1.356-0.815l-0.09,0.227
			l0.093-0.226c-0.183-0.073-0.327-0.106-0.454-0.108l-0.032,0c-0.041,0.002-0.102,0.005-0.17,0.036
			c-0.069,0.031-0.111,0.071-0.149,0.108l0.171,0.173l-0.168-0.177c-0.13,0.118-0.204,0.312-0.2,0.519
			c0,0.119,0.018,0.249,0.052,0.4l-0.001-0.001c0.097,0.436,0.343,0.954,0.63,1.449c0.573,0.979,1.297,1.825,1.301,1.83l0.186-0.158
			l-0.158-0.185l-0.867,0.745l0.158,0.185l0.185-0.16c0,0-0.046-0.052-0.127-0.15c-0.242-0.295-0.789-0.989-1.247-1.776
			c-0.31-0.527-0.584-1.088-0.704-1.641c-0.037-0.163-0.057-0.333-0.057-0.501c0.001-0.393,0.109-0.757,0.392-1.03
			c0.203-0.196,0.482-0.309,0.737-0.321h0.002l0.08-0.002c0.234,0,0.46,0.061,0.688,0.152c0.504,0.203,0.992,0.547,1.479,0.887
			c0.491,0.341,0.967,0.662,1.354,0.821l0.002,0c0.181,0.07,0.323,0.104,0.45,0.105l0.031,0c0.038-0.003,0.089-0.001,0.16-0.027
			c0.07-0.026,0.126-0.071,0.165-0.112l-0.17-0.174l0.166,0.179l0.073-0.081l0.054-0.167l-0.002-0.03l-0.013,0h0.013v0l-0.013,0
			h0.013v-0.004v-0.002c-0.002-0.107-0.033-0.23-0.12-0.401l-0.216,0.111l0.218-0.109c-0.176-0.345-0.525-0.77-0.897-1.212
			c-0.377-0.44-0.759-0.877-0.99-1.343c-0.11-0.22-0.187-0.444-0.187-0.685l0.001-0.044v-0.001c0.007-0.244,0.133-0.524,0.337-0.714
			c0.202-0.193,0.482-0.303,0.735-0.313l0.061-0.001c0.241,0,0.467,0.064,0.699,0.161c0.497,0.207,0.983,0.558,1.462,0.9
			c0.481,0.343,0.944,0.668,1.328,0.831c0.185,0.075,0.327,0.112,0.459,0.113h0.021h0.004c0.039-0.002,0.095-0.004,0.163-0.031
			c0.068-0.027,0.115-0.068,0.153-0.104l-0.168-0.177l0.165,0.179l0.081-0.088l0.051-0.167v-0.013h-0.045l0.045,0.002v-0.002h-0.045
			l0.045,0.002v-0.017l-0.167,0.002l0.167,0.004v-0.007l-0.167,0.002l0.167,0.004v-0.009c-0.001-0.105-0.031-0.229-0.112-0.401
			v-0.001c-0.171-0.345-0.515-0.774-0.884-1.222c-0.371-0.446-0.754-0.887-0.979-1.356c-0.106-0.221-0.181-0.447-0.181-0.69
			l0.001-0.048c0.008-0.245,0.136-0.531,0.339-0.718c0.205-0.194,0.487-0.303,0.741-0.314l0.065-0.001c0.24,0,0.469,0.062,0.7,0.156
			c0.502,0.205,0.994,0.556,1.481,0.896s0.953,0.662,1.339,0.82c0.18,0.072,0.323,0.105,0.448,0.107l0.031,0
			c0.041-0.002,0.102-0.005,0.172-0.037c0.068-0.032,0.107-0.071,0.144-0.106l-0.171-0.174l0.169,0.175l0.062-0.063l0.046-0.079
			l0.018-0.096l-0.001-0.018l0,0h-0.213l0.213,0.011v-0.012h-0.213l0.213,0.011v-0.004v-0.009c-0.002-0.062-0.012-0.107-0.03-0.174
			c-0.021-0.064-0.05-0.139-0.095-0.224l-0.001-0.003c-0.182-0.335-0.541-0.745-0.922-1.176c-0.382-0.427-0.766-0.85-1.009-1.309
			l0.001,0.001c-0.121-0.23-0.208-0.464-0.208-0.717v-0.005v-0.002c0-0.244,0.117-0.529,0.313-0.722
			c0.197-0.2,0.483-0.322,0.738-0.339l0.101-0.003c0.229,0,0.448,0.056,0.672,0.141c0.51,0.194,1.012,0.538,1.51,0.873
			c0.501,0.334,0.989,0.65,1.384,0.804c0.18,0.068,0.324,0.1,0.452,0.101l0.043-0.001c0.044-0.003,0.106-0.009,0.175-0.04
			c0.067-0.032,0.107-0.071,0.145-0.107l-0.169-0.175l0.167,0.177c0.031-0.033,0.052-0.039,0.098-0.116l0.032-0.115l0.002-0.028
			v-0.011c-0.003-0.104-0.033-0.229-0.122-0.407c-0.177-0.342-0.534-0.764-0.908-1.203c-0.376-0.433-0.754-0.863-0.99-1.328
			c-0.115-0.226-0.195-0.449-0.195-0.696v-0.026v0c0.004-0.243,0.13-0.535,0.326-0.726l-0.001,0.001
			c0.201-0.197,0.489-0.312,0.742-0.326L98.128,58.44z"/>
		<path fill="#FFFFFF" d="M116.434,24.769H39.351v0.002c-3.111,0-5.797,1.73-7.228,4.264c-4.131,0.49-7.355,3.974-7.355,8.234
			c0,2.499,1.128,4.722,2.877,6.248c-1.749,1.529-2.877,3.751-2.877,6.251c0,2.5,1.128,4.722,2.877,6.25
			c-1.749,1.527-2.877,3.75-2.877,6.249c0,2.501,1.128,4.723,2.877,6.251c-1.749,1.526-2.877,3.751-2.877,6.25
			c0,2.501,1.128,4.722,2.877,6.25c-1.749,1.527-2.877,3.748-2.877,6.25c0,2.501,1.128,4.722,2.877,6.249
			c-1.749,1.529-2.877,3.749-2.877,6.252c0,2.499,1.128,4.722,2.877,6.248c-1.749,1.528-2.877,3.75-2.877,6.249
			c0,4.262,3.224,7.745,7.354,8.233c1.433,2.535,4.12,4.269,7.229,4.269h77.084v-0.003c4.595,0,8.329-3.732,8.333-8.331V33.103
			C124.767,28.506,121.028,24.769,116.434,24.769z M31.016,103.354c-1.239-0.723-2.081-2.051-2.081-3.585
			c0-1.535,0.842-2.864,2.081-3.588V103.354z M31.016,90.854c-1.239-0.723-2.081-2.05-2.081-3.586c0-1.535,0.842-2.864,2.081-3.587
			V90.854z M31.016,78.355c-1.239-0.722-2.081-2.053-2.081-3.588c0-1.535,0.842-2.866,2.081-3.585V78.355z M31.016,65.854
			c-1.239-0.723-2.081-2.053-2.081-3.587c0-1.533,0.842-2.866,2.081-3.585V65.854z M31.016,53.355
			c-1.239-0.722-2.081-2.053-2.081-3.587s0.842-2.866,2.081-3.587V53.355z M31.016,33.681v7.174
			c-1.239-0.721-2.081-2.052-2.081-3.585C28.934,35.734,29.777,34.404,31.016,33.681z M28.934,112.265
			c0-1.53,0.843-2.862,2.082-3.585v7.176C29.777,115.131,28.934,113.801,28.934,112.265z M116.434,120.597v0.003H39.351
			c-2.296,0-4.167-1.87-4.167-4.165v-7.755c1.239,0.723,2.082,2.054,2.082,3.585c0,1.152,0.934,2.085,2.083,2.085
			c1.151,0,2.084-0.934,2.084-2.085c0-3.871-2.665-7.104-6.252-8.036v-8.05c1.241,0.724,2.086,2.054,2.086,3.59
			c0,1.15,0.932,2.082,2.082,2.082c1.152,0,2.083-0.933,2.083-2.082c0-3.873-2.666-7.105-6.25-8.038v-8.05
			c1.239,0.723,2.082,2.052,2.082,3.587c0,1.149,0.934,2.082,2.083,2.082c1.15,0,2.083-0.933,2.083-2.082
			c0-3.871-2.665-7.105-6.251-8.038v-8.047c1.24,0.72,2.086,2.051,2.086,3.585c0,1.151,0.932,2.084,2.082,2.084
			c1.152,0,2.083-0.933,2.083-2.084c0-3.872-2.666-7.106-6.25-8.039v-8.047c1.239,0.72,2.082,2.051,2.082,3.585
			c0,1.152,0.934,2.083,2.083,2.083c1.151,0,2.084-0.932,2.084-2.083c0-3.871-2.665-7.104-6.252-8.038v-8.048
			c1.24,0.722,2.086,2.054,2.086,3.587c0,1.15,0.932,2.083,2.082,2.083c1.152,0,2.083-0.933,2.083-2.083
			c0-3.872-2.666-7.106-6.25-8.038v-8.049c1.239,0.723,2.083,2.053,2.083,3.588c0,1.15,0.933,2.083,2.083,2.083
			c1.151,0,2.083-0.932,2.083-2.083c0-3.264-1.901-6.064-4.64-7.43c0.708-0.556,1.59-0.902,2.557-0.902v-0.002h77.084
			c2.295,0,4.165,1.87,4.165,4.167v83.331C120.6,118.729,118.729,120.597,116.434,120.597z"/>
		<path fill="#FFFFFF" d="M118.332,115.178c0-1.66,0-27.859,0-27.859c-0.056-0.113-18.387-18.222-18.387-18.222
			c-0.405-0.317-0.782-0.406-1.085-0.321l-0.009-0.016l-0.034,0.026l-0.043,0.007l0.009,0.019c-0.26,0.176-0.431,0.521-0.453,1.037
			c0,0,2.176,27.193,2.228,27.308l9.624,20.836c0,0,4.452,0,6.265,0 M115.122,86.134c-1.296,0.604-1.624,2.707-1.206,4.196
			c-0.984-1.36-3.789-2.867-5.952-1.987l-0.005-0.006l-0.034,0.02l-0.042,0.016l0.002,0.004c-2.067,1.091-2.723,4.208-2.317,5.837
			c-0.864-1.279-2.687-2.384-3.986-1.78c-0.221,0.102-0.403,0.259-0.568,0.434L99.755,78.95l3.077-1.436l0.077-0.033l3.079-1.435
			l9.832,9.932C115.582,85.991,115.347,86.03,115.122,86.134z M116.446,117.992c0,0,0.901,0.107,1.521-0.962
			c0.287-0.493,0.365-1.853,0.365-1.853"/>
		<path fill="#FFFFFF" d="M63.695,33.258c0-1.189-0.964-2.153-2.154-2.153c-1.187,0-2.152,0.963-2.152,2.153v2.152
			c0,1.189,0.965,2.153,2.152,2.153c1.189,0,2.154-0.964,2.154-2.153V33.258z"/>
		<path fill="#FFFFFF" d="M49.886,39.717c-0.84-0.841-0.84-2.204,0-3.045c0.841-0.84,2.205-0.84,3.044,0l0.894,0.892
			c0.84,0.84,0.84,2.203,0,3.045c-0.842,0.84-2.206,0.84-3.047,0L49.886,39.717z"/>
		<path fill="#FFFFFF" d="M70.155,36.671c0.841-0.84,2.205-0.84,3.045,0c0.841,0.841,0.841,2.204,0,3.045l-0.893,0.891
			c-0.841,0.84-2.205,0.84-3.044,0c-0.841-0.841-0.841-2.204,0-3.045L70.155,36.671z"/>
		<path fill="#FFFFFF" d="M49.886,56.941c-0.84,0.84-0.84,2.204,0,3.044c0.841,0.841,2.205,0.841,3.044,0l0.894-0.892
			c0.84-0.84,0.84-2.204,0-3.044c-0.842-0.841-2.206-0.841-3.047,0L49.886,56.941z"/>
		<path fill="#FFFFFF" d="M46.472,50.482c-1.189,0-2.154-0.964-2.154-2.153c0-1.188,0.964-2.153,2.154-2.153h2.152
			c1.191,0,2.152,0.965,2.152,2.153c0,1.189-0.961,2.153-2.152,2.153H46.472z"/>
		<path fill="#FFFFFF" d="M74.46,50.315c-1.188,0-2.153-0.963-2.153-2.153c0-1.188,0.964-2.152,2.153-2.152h2.154
			c1.188,0,2.154,0.964,2.154,2.152c0,1.189-0.964,2.153-2.154,2.153H74.46z"/>
		<path fill="#FFFFFF" d="M61.542,50.482"/>
		<path fill="#FFFFFF" d="M61.874,54.622c0.258,0,0.51,0.022,0.755,0.063c0.254-0.804,1.006-1.388,1.896-1.388
			c0.249,0,0.485,0.049,0.705,0.131c0.254-1.576,1.621-2.78,3.271-2.78c0.449,0,0.875,0.092,1.264,0.252
			c0.253-0.812,0.392-1.676,0.392-2.572c0-4.756-3.856-8.611-8.613-8.611c-4.756,0-8.612,3.855-8.612,8.611
			c0,3.608,2.221,6.697,5.368,7.978C59.149,55.278,60.435,54.622,61.874,54.622z"/>
		<path fill="#FFFFFF" d="M71.754,63.234c1.574-0.529,2.707-2.223,2.707-3.975c0-1.742-1.121-3.221-2.679-3.758
			c-0.219-1.618-1.604-2.866-3.282-2.866c-1.65,0-3.017,1.204-3.27,2.781c-0.221-0.084-0.457-0.132-0.706-0.132
			c-0.889,0-1.641,0.583-1.896,1.387c-0.246-0.041-0.498-0.062-0.754-0.062c-2.561,0-4.639,2.076-4.639,4.637
			c0,0.165-0.015-0.161,0,0c-0.025,1.664,1.03,1.987,2.062,1.987"/>
		<path fill="#FFFFFF" d="M82.597,76.532c-0.203-0.046-0.396-0.148-0.558-0.303l-2.897-2.791c-0.479-0.46-0.493-1.22-0.032-1.699
			c0.46-0.477,1.22-0.492,1.697-0.031l2.899,2.791c0.478,0.46,0.492,1.22,0.032,1.698C83.434,76.515,82.995,76.627,82.597,76.532z
			 M76.8,70.951c-0.204-0.047-0.396-0.148-0.558-0.303l-2.898-2.791c-0.478-0.46-0.494-1.22-0.032-1.698
			c0.459-0.479,1.218-0.494,1.696-0.034l2.901,2.79c0.478,0.46,0.49,1.221,0.029,1.699C77.636,70.933,77.197,71.045,76.8,70.951z
			 M71,65.37c-0.202-0.047-0.395-0.148-0.556-0.304l-2.9-2.791c-0.477-0.459-0.491-1.221-0.03-1.699
			c0.46-0.478,1.219-0.492,1.697-0.032l2.899,2.791c0.479,0.46,0.492,1.219,0.032,1.698C71.837,65.351,71.4,65.463,71,65.37z"/>
	</g>
</g>
</svg>
