<?xml version="1.0" encoding="utf-8"?>
<!-- Generator: Adobe Illustrator 16.0.0, SVG Export Plug-In . SVG Version: 6.00 Build 0)  -->
<!DOCTYPE svg PUBLIC "-//W3C//DTD SVG 1.1//EN" "http://www.w3.org/Graphics/SVG/1.1/DTD/svg11.dtd">
<svg version="1.1" xmlns="http://www.w3.org/2000/svg" xmlns:xlink="http://www.w3.org/1999/xlink" x="0px" y="0px" width="150px"
	 height="150px" viewBox="244.5 -26.954 150 150" enable-background="new 244.5 -26.954 150 150" xml:space="preserve">
<g id="Layer_2">
</g>
<g id="Layer_1">
	<g>
		<polygon fill="#6A7072" points="273.985,49.272 273.985,56.349 350.888,56.349 350.104,49.272 		"/>
		<path fill="#6A7072" d="M354.45,23.63c-0.467,0.028-0.97,0.229-1.342,0.589c-0.363,0.356-0.585,0.865-0.598,1.335
			c-0.011,0.47,0.142,0.878,0.333,1.252c0.384,0.751,0.97,1.412,1.527,2.058c0.557,0.647,1.086,1.283,1.312,1.727
			c0.113,0.221,0.142,0.378,0.142,0.442c-0.003,0.063,0.011,0.052-0.082,0.14c-0.099,0.095-0.133,0.11-0.252,0.119
			c-0.117,0.009-0.318-0.024-0.582-0.125c-0.527-0.203-1.256-0.669-1.998-1.165c-0.743-0.499-1.512-1.03-2.33-1.343
			c-0.411-0.157-0.842-0.263-1.312-0.229c-0.47,0.034-0.97,0.247-1.334,0.612c-0.361,0.359-0.573,0.864-0.576,1.335
			c-0.003,0.469,0.158,0.882,0.353,1.253c0.395,0.741,0.99,1.391,1.558,2.027c0.565,0.637,1.098,1.255,1.329,1.688
			c0.112,0.217,0.146,0.373,0.146,0.428c-0.001,0.055,0.017,0.038-0.074,0.125c-0.094,0.092-0.125,0.104-0.236,0.11
			c-0.107,0.006-0.306-0.028-0.561-0.132c-0.511-0.208-1.206-0.68-1.93-1.188c-0.726-0.507-1.48-1.049-2.286-1.379
			c-0.404-0.165-0.832-0.279-1.299-0.257c-0.468,0.021-0.966,0.214-1.342,0.568c-0.374,0.351-0.602,0.854-0.62,1.326
			c-0.019,0.473,0.119,0.895,0.303,1.276c0.369,0.762,0.963,1.439,1.513,2.102c0.548,0.662,1.055,1.305,1.275,1.755
			c0.108,0.224,0.135,0.386,0.132,0.45c-0.003,0.063,0.017,0.058-0.081,0.147c-0.094,0.089-0.131,0.098-0.242,0.104
			c-0.112,0.004-0.306-0.035-0.562-0.141c-0.511-0.213-1.202-0.691-1.915-1.202c-0.715-0.51-1.46-1.053-2.259-1.386
			c-0.4-0.167-0.822-0.286-1.291-0.265c-0.467,0.021-0.962,0.215-1.335,0.568c-0.371,0.352-0.601,0.847-0.617,1.32
			c-0.019,0.472,0.128,0.891,0.316,1.267c0.377,0.755,0.97,1.426,1.528,2.081c0.554,0.654,1.07,1.292,1.295,1.741
			c0.114,0.221,0.142,0.379,0.139,0.442c0,0.062,0.021,0.059-0.072,0.146c-0.096,0.094-0.135,0.097-0.251,0.103
			c-0.115,0.006-0.309-0.028-0.567-0.13c-0.517-0.209-1.227-0.683-1.954-1.189c-0.726-0.504-1.476-1.038-2.286-1.365
			c-0.404-0.161-0.836-0.277-1.305-0.249c-0.469,0.025-0.963,0.224-1.335,0.582c-0.732,0.707-0.798,1.747-0.605,2.631
			c0.194,0.887,0.623,1.756,1.095,2.559c0.937,1.604,2.094,2.937,2.094,2.937l1.297-1.114c0,0-1.072-1.255-1.909-2.684
			c-0.419-0.717-0.773-1.477-0.899-2.059c-0.129-0.583-0.066-0.856,0.117-1.031c0.096-0.094,0.131-0.106,0.242-0.112
			c0.112-0.006,0.31,0.028,0.567,0.134c0.517,0.205,1.227,0.673,1.956,1.18c0.729,0.504,1.476,1.043,2.286,1.37
			c0.403,0.162,0.837,0.277,1.305,0.252c0.467-0.028,0.961-0.228,1.333-0.583c0.369-0.354,0.591-0.856,0.605-1.329
			c0.013-0.47-0.128-0.891-0.317-1.268c-0.381-0.756-0.972-1.425-1.527-2.079c-0.555-0.656-1.076-1.289-1.296-1.733
			c-0.113-0.223-0.144-0.377-0.141-0.437c0.002-0.059-0.012-0.051,0.08-0.14c0.097-0.09,0.127-0.098,0.237-0.103
			c0.109-0.004,0.306,0.026,0.56,0.133c0.508,0.212,1.201,0.691,1.916,1.202c0.717,0.513,1.45,1.059,2.25,1.394
			c0.399,0.168,0.831,0.284,1.3,0.266c0.465-0.02,0.966-0.209,1.34-0.561c0.375-0.35,0.598-0.854,0.619-1.328
			c0.021-0.473-0.116-0.887-0.3-1.267c-0.373-0.764-0.955-1.44-1.507-2.103c-0.549-0.663-1.062-1.311-1.282-1.762
			c-0.109-0.226-0.135-0.385-0.134-0.451c0.003-0.064-0.013-0.064,0.084-0.154c0.093-0.091,0.133-0.098,0.25-0.103
			c0.113-0.005,0.309,0.027,0.568,0.132c0.517,0.211,1.22,0.688,1.947,1.194c0.724,0.508,1.472,1.045,2.274,1.372
			c0.405,0.163,0.831,0.286,1.299,0.258c0.472-0.026,0.966-0.229,1.336-0.589c0.365-0.354,0.582-0.863,0.591-1.335
			c0.006-0.47-0.15-0.875-0.348-1.245c-0.394-0.741-0.99-1.392-1.558-2.028c-0.566-0.636-1.095-1.258-1.326-1.696
			c-0.116-0.218-0.147-0.375-0.147-0.435l0.066-0.139c0.097-0.097,0.135-0.104,0.25-0.112c0.116-0.007,0.32,0.018,0.582,0.118
			c0.526,0.201,1.242,0.668,1.985,1.165s1.508,1.026,2.329,1.342c0.413,0.158,0.852,0.268,1.321,0.235
			c0.471-0.03,0.964-0.241,1.334-0.604c0.363-0.357,0.58-0.857,0.59-1.328c0.01-0.471-0.141-0.886-0.332-1.261
			c-0.383-0.749-0.977-1.41-1.531-2.057c-0.558-0.647-1.076-1.277-1.299-1.718c-0.113-0.221-0.144-0.382-0.141-0.442
			c0.001-0.062-0.019-0.052,0.074-0.141c0.094-0.092,0.127-0.104,0.243-0.111c0.115-0.006,0.319,0.03,0.582,0.133
			c0.522,0.208,1.233,0.677,1.968,1.181c0.735,0.502,1.495,1.036,2.308,1.356c0.408,0.161,0.838,0.274,1.306,0.245
			c0.47-0.032,0.969-0.241,1.335-0.606l-1.202-1.216c-0.094,0.094-0.133,0.103-0.243,0.11c-0.111,0.008-0.308-0.023-0.567-0.125
			c-0.519-0.204-1.231-0.676-1.971-1.18c-0.732-0.502-1.491-1.035-2.306-1.356C355.349,23.72,354.921,23.603,354.45,23.63z"/>
		<path fill="#6A7072" d="M354.45,23.63l-0.021-0.364c-0.555,0.035-1.131,0.265-1.573,0.691l-0.002,0.002
			c-0.433,0.427-0.688,1.009-0.707,1.586v0.001l-0.001,0.056c0,0.533,0.177,0.986,0.374,1.372c0.413,0.807,1.021,1.485,1.575,2.13
			c0.553,0.639,1.076,1.28,1.263,1.654c0.047,0.091,0.073,0.164,0.088,0.214l0.013,0.056l0.002,0.012l0.057-0.005h-0.057v0.005
			l0.057-0.005h-0.057h0.364l-0.364-0.017l-0.001,0.032v0.001l0.296,0.015l-0.233-0.183l-0.062,0.168l0.296,0.015l-0.233-0.183
			l0.138,0.107l-0.128-0.119l-0.01,0.011l0.138,0.107l-0.128-0.119l-0.039,0.038l-0.003,0.003l-0.037,0.034l0.039,0.049l-0.03-0.054
			l-0.009,0.005l0.039,0.049l-0.03-0.054l0.064,0.116l-0.028-0.13l-0.036,0.014l0.064,0.116l-0.028-0.13l-0.032,0.003l-0.013,0
			c-0.051,0.001-0.208-0.022-0.414-0.102c-0.463-0.176-1.19-0.635-1.926-1.127c-0.74-0.496-1.527-1.044-2.402-1.38
			c-0.383-0.146-0.803-0.26-1.265-0.26l-0.205,0.008c-0.559,0.042-1.131,0.286-1.564,0.718c-0.43,0.43-0.677,1.012-0.683,1.59
			v-0.003v0.018c0,0.55,0.188,1.018,0.394,1.41l0.002,0.002c0.425,0.797,1.042,1.464,1.606,2.099
			c0.562,0.629,1.089,1.252,1.28,1.618l0.321-0.172l-0.323,0.167l0.09,0.214l0.014,0.055l0.001,0.007l0.136-0.015h-0.136v0.015
			l0.136-0.015h-0.136h0.364l-0.364-0.014l0.157,0.006l-0.157-0.008v0.001l0.157,0.006l-0.157-0.008v0.02v0.031v0.004l0.214-0.007
			h-0.214v0.007l0.214-0.007h-0.214h0.323l-0.302-0.114l-0.021,0.114h0.323l-0.302-0.114l0.262,0.099l-0.205-0.193l-0.057,0.095
			l0.262,0.099l-0.205-0.193l-0.041,0.04l-0.003,0.002l-0.032,0.03l0.06,0.074l-0.046-0.083l-0.014,0.008l0.06,0.074l-0.046-0.083
			l0.076,0.139l-0.03-0.156l-0.046,0.017l0.076,0.139l-0.03-0.156h-0.001l-0.026,0.002h-0.007c-0.036,0.002-0.196-0.022-0.396-0.106
			c-0.446-0.179-1.141-0.643-1.858-1.148c-0.725-0.505-1.496-1.064-2.357-1.418c-0.396-0.162-0.836-0.287-1.321-0.287l-0.133,0.003
			c-0.554,0.027-1.128,0.249-1.574,0.667c-0.444,0.421-0.709,1-0.734,1.578l-0.002,0.1c0,0.513,0.154,0.962,0.341,1.349
			c0.4,0.824,1.016,1.518,1.561,2.176c0.543,0.653,1.043,1.299,1.229,1.683l-0.001-0.002l0.081,0.209l0.013,0.059l0.002,0.014
			l0.016-0.001h-0.016v0.001l0.016-0.001h-0.016h0.144l-0.144-0.003v0.003h0.144l-0.144-0.003v0.02l0.364-0.007l-0.364-0.02
			l-0.001,0.035v0.019h0.282l-0.272-0.07l-0.01,0.07h0.282l-0.272-0.07l0.268,0.069l-0.211-0.182l-0.057,0.112l0.268,0.069
			l-0.211-0.182l0.043,0.038l-0.041-0.04l-0.002,0.002l0.043,0.038l-0.041-0.04l-0.031,0.03l-0.004,0.003l-0.025,0.023l0.077,0.105
			l-0.032-0.125l-0.045,0.02l0.077,0.105l-0.032-0.125l0.022,0.09l-0.016-0.092l-0.007,0.001l0.022,0.09l-0.016-0.092l-0.037,0.003
			l0.02,0.364l-0.014-0.364h-0.004c-0.033,0.002-0.193-0.024-0.404-0.113c-0.445-0.183-1.136-0.653-1.843-1.162
			c-0.714-0.509-1.477-1.069-2.33-1.426c-0.395-0.164-0.832-0.296-1.325-0.296l-0.124,0.003c-0.554,0.026-1.125,0.25-1.568,0.667
			c-0.438,0.419-0.708,0.991-0.73,1.572v-0.002l-0.002,0.095c0,0.519,0.166,0.968,0.356,1.35c0.408,0.814,1.022,1.502,1.577,2.154
			c0.549,0.645,1.059,1.287,1.246,1.667l0.002,0.004l0.084,0.203l0.013,0.055l0.002,0.011l0.041-0.003h-0.041v0.003l0.041-0.003
			h-0.041h0.166l-0.166-0.004v0.004h0.166l-0.166-0.004v0.021l0.364-0.007h-0.364l0.002,0.051v0.006l0.22-0.014h-0.22v0.014
			l0.22-0.014h-0.22h0.298l-0.244-0.172l-0.054,0.172h0.298l-0.244-0.172l0.106,0.075l-0.095-0.09l-0.012,0.016l0.106,0.075
			l-0.095-0.09l-0.023,0.023l-0.007,0.007l-0.021,0.019l0.081,0.113l-0.03-0.135l-0.051,0.022l0.081,0.113l-0.03-0.135h-0.001
			l-0.045,0.003h-0.008c-0.045,0.001-0.198-0.022-0.406-0.105l0.003,0.001c-0.453-0.181-1.162-0.647-1.883-1.15
			c-0.724-0.503-1.492-1.054-2.357-1.404c-0.389-0.155-0.82-0.279-1.3-0.279l-0.164,0.005h0.003c-0.557,0.03-1.127,0.26-1.568,0.683
			c-0.601,0.579-0.812,1.348-0.81,2.066c0,0.311,0.038,0.617,0.101,0.906c0.209,0.948,0.656,1.847,1.137,2.666
			c0.958,1.639,2.125,2.981,2.133,2.991c0.132,0.151,0.361,0.168,0.513,0.037l1.297-1.114c0.153-0.131,0.171-0.36,0.04-0.513
			c0-0.001-0.063-0.074-0.175-0.212c-0.334-0.411-1.086-1.375-1.697-2.42c-0.408-0.695-0.749-1.439-0.857-1.952l-0.001-0.001
			c-0.043-0.193-0.06-0.339-0.06-0.441c0.007-0.187,0.032-0.201,0.072-0.247l0.004-0.004l0.032-0.029l-0.054-0.069l0.041,0.076
			l0.013-0.007l-0.054-0.069l0.041,0.076l-0.07-0.13l0.028,0.145l0.042-0.015l-0.07-0.13l0.028,0.145h0.003l0.026-0.002h0.008
			c0.042-0.002,0.197,0.022,0.401,0.107l0.004,0.002c0.453,0.177,1.161,0.637,1.883,1.141c0.726,0.501,1.491,1.058,2.357,1.409
			c0.394,0.157,0.832,0.282,1.315,0.282l0.145-0.004h0.004c0.553-0.035,1.121-0.264,1.562-0.683
			c0.439-0.425,0.697-1.004,0.718-1.582v-0.002l0.001-0.068c0-0.522-0.16-0.981-0.356-1.373c-0.412-0.814-1.024-1.5-1.576-2.151
			c-0.551-0.648-1.066-1.286-1.247-1.658l-0.001-0.003l-0.087-0.209l-0.014-0.054h-0.001h-0.283l0.281,0.028l0.002-0.028h-0.283
			l0.281,0.028l0.002-0.025v-0.027v-0.014l-0.267,0.008h0.267v-0.008l-0.267,0.008h0.267h-0.144l0.144,0.008v-0.008h-0.144
			l0.144,0.008l-0.295-0.017l0.235,0.18l0.06-0.164l-0.295-0.017l0.235,0.18l-0.125-0.095l0.117,0.104l0.008-0.009l-0.125-0.095
			l0.117,0.104l0.036-0.036l-0.253-0.262l0.249,0.266l0.03-0.027l-0.084-0.114l0.035,0.136l0.049-0.022l-0.084-0.114l0.035,0.136
			l-0.017-0.062l0.007,0.064l0.01-0.002l-0.017-0.062l0.007,0.064l0.034-0.002l0.003,0c0.045-0.001,0.197,0.02,0.398,0.105
			c0.443,0.183,1.137,0.655,1.845,1.163c0.714,0.509,1.465,1.073,2.321,1.433c0.398,0.168,0.848,0.295,1.342,0.295l0.112-0.002
			c0.553-0.025,1.129-0.243,1.575-0.659c0.448-0.421,0.706-1.002,0.734-1.577l0.002-0.114c0-0.508-0.154-0.949-0.338-1.328
			l-0.001-0.001c-0.402-0.821-1.006-1.516-1.554-2.176c-0.544-0.654-1.051-1.305-1.235-1.688l0.001,0.001
			c-0.044-0.091-0.069-0.165-0.083-0.216l-0.013-0.059l-0.002-0.014h-0.004h0.004l0,0h-0.004h0.004h-0.213l0.213,0.003v-0.003
			h-0.213l0.213,0.003l-0.353-0.004l0.348,0.056l0.005-0.052l-0.353-0.004l0.348,0.056l0.005-0.042l0.001-0.036v-0.005l-0.28-0.009
			l0.23,0.158l0.05-0.148l-0.28-0.009l0.23,0.158l-0.104-0.072l0.092,0.089l0.013-0.017l-0.104-0.072l0.092,0.089l0.029-0.028
			l0.007-0.007l0.021-0.019L344.385,35l0.03,0.132l0.049-0.021L344.385,35l0.03,0.132l-0.001-0.005v0.005l0.001,0l-0.001-0.005
			v0.005l0.041-0.002l0.008,0c0.045-0.001,0.199,0.021,0.407,0.106c0.451,0.182,1.154,0.651,1.876,1.155
			c0.721,0.505,1.487,1.061,2.346,1.411c0.388,0.156,0.818,0.288,1.302,0.288l0.154-0.004c0.561-0.032,1.131-0.267,1.569-0.692
			c0.437-0.427,0.688-1.012,0.701-1.59v-0.004v-0.028c0-0.543-0.184-1.002-0.391-1.391c-0.424-0.797-1.043-1.465-1.607-2.1
			c-0.561-0.627-1.083-1.253-1.275-1.624c-0.048-0.09-0.076-0.163-0.091-0.212l-0.014-0.054l-0.009,0.001h0.008l0.001-0.001
			l-0.009,0.001h0.008h-0.364l0.329,0.157l0.066-0.139l-0.329-0.157l0.258,0.258l0.026-0.024l-0.078-0.103l0.032,0.124l0.046-0.021
			l-0.078-0.103l0.032,0.124l-0.021-0.078l0.014,0.08l0.007-0.001l-0.021-0.078l0.014,0.08l0.045-0.004h0.013
			c0.062-0.001,0.215,0.019,0.413,0.095c0.46,0.173,1.175,0.632,1.912,1.127c0.741,0.494,1.523,1.041,2.401,1.38
			c0.389,0.148,0.817,0.265,1.286,0.265l0.19-0.006c0.561-0.038,1.128-0.281,1.564-0.707c0.432-0.427,0.685-1.004,0.699-1.581
			v-0.001l0.001-0.049c0-0.534-0.174-0.994-0.373-1.383c-0.414-0.808-1.028-1.485-1.579-2.129c-0.554-0.639-1.065-1.273-1.25-1.645
			l-0.001-0.002l-0.086-0.208l-0.014-0.056l-0.001-0.011l-0.074,0.007h0.074v-0.007l-0.074,0.007h0.074h-0.281l0.279,0.027
			l0.002-0.027h-0.281l0.279,0.027l0.002-0.036v-0.005l-0.001-0.04v-0.005l-0.216,0.01h0.216v-0.01l-0.216,0.01h0.216h-0.303
			l0.244,0.181l0.059-0.181h-0.303l0.244,0.181l-0.15-0.111l0.14,0.124l0.011-0.013l-0.15-0.111l0.14,0.124l0.006-0.005l0.025-0.025
			l0.005-0.004l0.03-0.028l-0.081-0.104l0.035,0.125l0.046-0.021l-0.081-0.104l0.035,0.125l-0.016-0.054l0.008,0.056l0.008-0.002
			l-0.016-0.054l0.008,0.056l0.033-0.003h-0.003h0.005c0.046-0.002,0.213,0.024,0.425,0.109c0.457,0.179,1.167,0.641,1.895,1.142
			c0.733,0.5,1.512,1.052,2.38,1.395c0.388,0.152,0.815,0.274,1.289,0.274l0.173-0.005c0.561-0.04,1.134-0.279,1.569-0.712
			c0.143-0.141,0.143-0.372,0.002-0.514l-1.202-1.216c-0.068-0.069-0.16-0.108-0.258-0.108c-0.098,0-0.189,0.038-0.259,0.107
			l-0.025,0.024l0.079,0.104l-0.033-0.125l-0.046,0.021l0.079,0.104l-0.033-0.125l0.024,0.093l-0.017-0.095l-0.008,0.002
			l0.024,0.093l-0.017-0.095l-0.036,0.003l-0.004,0h-0.01c-0.046,0.001-0.197-0.021-0.398-0.101
			c-0.452-0.175-1.165-0.64-1.898-1.142c-0.729-0.499-1.507-1.049-2.377-1.394c-0.39-0.154-0.821-0.28-1.304-0.28l-0.159,0.005
			L354.45,23.63l0.022,0.364l0.114-0.003c0.353,0,0.689,0.093,1.036,0.229c0.759,0.298,1.499,0.813,2.233,1.318
			c0.746,0.506,1.459,0.986,2.043,1.219c0.267,0.103,0.479,0.15,0.665,0.151l0.062-0.002l-0.026-0.363l0.022,0.364
			c0.059-0.004,0.144-0.008,0.247-0.05c0.103-0.044,0.173-0.107,0.231-0.166l-0.258-0.258l-0.26,0.256l1.203,1.216l0.259-0.256
			l-0.258-0.258c-0.296,0.298-0.721,0.476-1.103,0.5l-0.125,0.004c-0.347,0-0.681-0.089-1.021-0.224
			c-0.757-0.297-1.499-0.813-2.236-1.318c-0.74-0.506-1.452-0.983-2.038-1.219c-0.279-0.108-0.5-0.158-0.692-0.16l-0.044,0.001
			h-0.003c-0.064,0.004-0.152,0.009-0.256,0.055c-0.103,0.046-0.166,0.107-0.221,0.161l0.256,0.26l-0.251-0.264l-0.104,0.112
			l-0.085,0.253l0.002,0.036l0.015-0.001h-0.015v0.001l0.015-0.001h-0.015v0.005h0.364l-0.362-0.036l-0.003,0.044
			c0.005,0.166,0.054,0.343,0.182,0.6l-0.001-0.002c0.261,0.51,0.786,1.136,1.348,1.792c0.559,0.65,1.132,1.294,1.483,1.985
			c0.172,0.337,0.292,0.679,0.292,1.052v0.037v-0.001c-0.005,0.365-0.186,0.788-0.481,1.075c-0.303,0.299-0.722,0.477-1.102,0.5
			l-0.143,0.005c-0.346,0-0.686-0.086-1.025-0.217c-0.765-0.293-1.511-0.805-2.257-1.305c-0.748-0.499-1.465-0.974-2.058-1.203
			c-0.271-0.103-0.494-0.143-0.673-0.144l-0.062,0.002c-0.061,0.005-0.143,0.007-0.247,0.049c-0.104,0.043-0.178,0.109-0.237,0.168
			l-0.071,0.101l-0.066,0.139l-0.035,0.157c0.004,0.163,0.054,0.341,0.189,0.606c0.271,0.504,0.805,1.123,1.376,1.767
			c0.57,0.638,1.146,1.272,1.508,1.957c0.181,0.339,0.306,0.673,0.306,1.049v0.023l0.364,0.002l-0.364-0.007
			c-0.004,0.367-0.187,0.8-0.48,1.081c-0.302,0.295-0.72,0.467-1.103,0.487l-0.113,0.003c-0.348,0-0.683-0.096-1.029-0.235
			c-0.746-0.302-1.476-0.822-2.2-1.332c-0.735-0.51-1.438-0.993-2.02-1.233c-0.277-0.111-0.496-0.159-0.682-0.16l-0.043,0.001
			c-0.059,0.004-0.139,0.004-0.245,0.043c-0.105,0.04-0.183,0.106-0.241,0.164l0.255,0.26l-0.248-0.267
			c-0.053,0.053-0.102,0.084-0.162,0.206l-0.037,0.161l-0.001,0.038l0.364,0.017l-0.359-0.058l-0.005,0.055v0.009l0.259-0.002
			h-0.259v0.002l0.259-0.002h-0.259c0.002,0.151,0.044,0.341,0.17,0.606l0.001,0.001c0.257,0.518,0.775,1.163,1.328,1.834
			c0.557,0.665,1.117,1.324,1.461,2.03l-0.001-0.001c0.158,0.327,0.266,0.653,0.266,1.011l-0.002,0.081
			c-0.015,0.372-0.202,0.8-0.504,1.077c-0.302,0.286-0.729,0.448-1.106,0.463l-0.083,0.001c-0.367,0-0.717-0.094-1.06-0.239
			c-0.744-0.31-1.46-0.838-2.18-1.354c-0.722-0.513-1.415-1-1.987-1.242c-0.276-0.115-0.499-0.16-0.68-0.161l-0.036,0
			c-0.06,0.004-0.143,0.005-0.247,0.047c-0.103,0.043-0.167,0.102-0.224,0.154l-0.004,0.004l-0.119,0.133l-0.063,0.149l-0.009,0.097
			v0.014l0.261-0.008h-0.261v0.008l0.261-0.008h-0.261v0.006l0.364,0.011l-0.362-0.036l-0.003,0.044
			c0.005,0.168,0.056,0.338,0.181,0.593l0.325-0.165l-0.326,0.162c0.259,0.516,0.786,1.144,1.344,1.807
			c0.56,0.657,1.13,1.309,1.48,2.007c0.166,0.331,0.279,0.674,0.279,1.045l-0.001,0.05v-0.002c-0.009,0.368-0.194,0.793-0.494,1.078
			c-0.302,0.291-0.722,0.46-1.103,0.482h0.004l-0.107,0.002c-0.356,0-0.701-0.092-1.043-0.229c-0.754-0.302-1.482-0.824-2.215-1.332
			c-0.736-0.511-1.448-0.986-2.028-1.219l-0.135,0.339l0.139-0.337c-0.272-0.11-0.49-0.16-0.679-0.162l-0.049,0.001
			c-0.061,0.003-0.151,0.008-0.254,0.054c-0.102,0.046-0.165,0.106-0.222,0.161l0.255,0.26l-0.251-0.265
			c-0.195,0.177-0.306,0.467-0.299,0.776c0,0.177,0.026,0.371,0.077,0.598l-0.001-0.001c0.144,0.652,0.511,1.427,0.941,2.166
			c0.858,1.464,1.939,2.728,1.946,2.736l0.277-0.236l-0.237-0.276l-1.297,1.114l0.237,0.276l0.275-0.239
			c0,0-0.068-0.078-0.189-0.226c-0.361-0.44-1.179-1.479-1.865-2.655c-0.463-0.788-0.873-1.627-1.053-2.454
			c-0.054-0.244-0.085-0.499-0.085-0.75c0.002-0.587,0.164-1.132,0.587-1.541c0.303-0.293,0.721-0.461,1.102-0.48h0.003l0.119-0.003
			c0.351,0,0.688,0.091,1.028,0.227c0.754,0.303,1.485,0.819,2.213,1.326c0.734,0.51,1.445,0.99,2.025,1.228l0.003,0.001
			c0.271,0.105,0.483,0.155,0.674,0.157l0.046-0.001c0.057-0.004,0.133-0.002,0.239-0.04c0.107-0.039,0.188-0.106,0.248-0.167
			l-0.255-0.26l0.248,0.267l0.11-0.121l0.08-0.249l-0.002-0.045l-0.02,0.001h0.02v-0.001l-0.02,0.001h0.02v-0.007v-0.002
			c-0.003-0.161-0.05-0.345-0.18-0.601l-0.323,0.167l0.326-0.163c-0.262-0.516-0.785-1.151-1.343-1.813
			c-0.563-0.658-1.135-1.312-1.48-2.008c-0.165-0.329-0.28-0.664-0.28-1.024l0.002-0.066v-0.002c0.011-0.365,0.2-0.784,0.504-1.068
			c0.303-0.289,0.722-0.453,1.1-0.468l0.091-0.002c0.36,0,0.698,0.096,1.045,0.24c0.743,0.31,1.471,0.834,2.187,1.347
			c0.719,0.513,1.411,0.999,1.986,1.242c0.276,0.112,0.489,0.167,0.685,0.169l0.031,0l0.006,0c0.059-0.003,0.142-0.006,0.244-0.046
			c0.102-0.041,0.172-0.102,0.229-0.156l-0.251-0.265l0.247,0.268l0.121-0.131l0.077-0.25v-0.019h-0.068l0.068,0.003v-0.003h-0.068
			l0.068,0.003v-0.026l-0.251,0.004l0.251,0.006v-0.01l-0.251,0.004l0.251,0.006v-0.013c-0.003-0.157-0.047-0.342-0.168-0.599
			l-0.001-0.002c-0.256-0.516-0.77-1.157-1.322-1.827c-0.555-0.667-1.127-1.327-1.465-2.028c-0.159-0.331-0.269-0.668-0.269-1.032
			l0.002-0.071c0.012-0.366,0.202-0.794,0.505-1.075c0.307-0.29,0.729-0.453,1.109-0.469l0.099-0.002c0.358,0,0.7,0.092,1.046,0.233
			c0.75,0.306,1.487,0.831,2.215,1.34c0.729,0.51,1.426,0.99,2.002,1.227c0.27,0.108,0.484,0.158,0.671,0.16l0.047-0.001
			c0.062-0.003,0.152-0.008,0.256-0.055c0.102-0.048,0.161-0.107,0.216-0.159l-0.256-0.26l0.253,0.262l0.091-0.094l0.069-0.119
			l0.026-0.143l-0.001-0.027v0h-0.318l0.318,0.016V35.78h-0.318l0.318,0.016V35.79v-0.014c-0.002-0.093-0.018-0.161-0.046-0.26
			c-0.03-0.096-0.074-0.208-0.141-0.335l-0.002-0.004c-0.271-0.501-0.809-1.114-1.378-1.759c-0.571-0.638-1.145-1.271-1.509-1.957
			l0.002,0.002c-0.181-0.345-0.312-0.694-0.312-1.072v-0.007V30.38c0-0.364,0.177-0.791,0.469-1.079
			c0.296-0.299,0.724-0.481,1.104-0.507l0.151-0.005c0.342,0,0.67,0.083,1.005,0.211c0.762,0.29,1.512,0.804,2.257,1.305
			c0.75,0.499,1.479,0.973,2.07,1.202c0.269,0.101,0.484,0.149,0.675,0.15l0.065-0.002c0.066-0.004,0.159-0.013,0.261-0.06
			c0.101-0.048,0.161-0.106,0.217-0.16l-0.253-0.262l0.25,0.265c0.046-0.049,0.077-0.058,0.146-0.173l0.048-0.172l0.002-0.042
			v-0.017c-0.003-0.155-0.048-0.341-0.182-0.608c-0.265-0.512-0.799-1.143-1.359-1.798c-0.561-0.648-1.126-1.291-1.479-1.986
			c-0.173-0.338-0.293-0.671-0.293-1.04v-0.039v0.001c0.007-0.364,0.194-0.8,0.488-1.085l-0.002,0.002
			c0.302-0.294,0.731-0.467,1.11-0.488L354.45,23.63z"/>
		<path fill="#6A7072" d="M381.823-26.722H266.556v0.003c-4.651,0-8.667,2.588-10.808,6.377
			c-6.177,0.733-10.998,5.942-10.998,12.313c0,3.737,1.688,7.061,4.303,9.344c-2.615,2.286-4.303,5.609-4.303,9.347
			c0,3.738,1.688,7.061,4.303,9.346c-2.615,2.284-4.303,5.608-4.303,9.345c0,3.74,1.688,7.062,4.303,9.347
			c-2.615,2.282-4.303,5.609-4.303,9.346c0,3.74,1.688,7.061,4.303,9.347c-2.615,2.283-4.303,5.604-4.303,9.346
			c0,3.739,1.688,7.061,4.303,9.344c-2.615,2.286-4.303,5.607-4.303,9.348c0,3.738,1.688,7.062,4.303,9.345
			c-2.615,2.284-4.303,5.608-4.303,9.344c0,6.373,4.821,11.581,10.996,12.312c2.143,3.79,6.16,6.382,10.81,6.382h115.268v-0.003
			c6.871,0,12.456-5.583,12.461-12.459V-14.26C394.284-21.134,388.694-26.722,381.823-26.722z M254.094,90.791
			c-1.853-1.08-3.112-3.067-3.112-5.361c0-2.295,1.26-4.284,3.112-5.366V90.791z M254.094,72.099
			c-1.853-1.08-3.112-3.066-3.112-5.361c0-2.296,1.26-4.284,3.112-5.365V72.099z M254.094,53.411
			c-1.853-1.081-3.112-3.071-3.112-5.366c0-2.295,1.26-4.286,3.112-5.362V53.411z M254.094,34.717
			c-1.853-1.081-3.112-3.07-3.112-5.365c0-2.293,1.26-4.285,3.112-5.362V34.717z M254.094,16.025
			c-1.853-1.079-3.112-3.07-3.112-5.364c0-2.293,1.26-4.285,3.112-5.364V16.025z M254.094-13.395v10.727
			c-1.853-1.077-3.112-3.069-3.112-5.361C250.981-10.324,252.241-12.314,254.094-13.395z M250.981,104.118
			c0-2.29,1.26-4.281,3.112-5.361v10.729C252.241,108.402,250.981,106.414,250.981,104.118z M381.823,116.577v0.003H266.556
			c-3.433,0-6.23-2.796-6.23-6.229V98.756c1.853,1.08,3.114,3.071,3.114,5.361c0,1.723,1.396,3.117,3.114,3.117
			c1.722,0,3.117-1.395,3.117-3.117c0-5.788-3.986-10.622-9.349-12.017V80.063c1.855,1.082,3.119,3.071,3.119,5.366
			c0,1.721,1.394,3.114,3.114,3.114c1.722,0,3.115-1.394,3.115-3.114c0-5.791-3.986-10.624-9.346-12.019V61.373
			c1.853,1.081,3.114,3.069,3.114,5.365c0,1.718,1.396,3.112,3.114,3.112c1.722,0,3.117-1.395,3.117-3.112
			c0-5.79-3.986-10.626-9.349-12.021V42.683c1.855,1.077,3.119,3.067,3.119,5.362c0,1.721,1.394,3.116,3.114,3.116
			c1.722,0,3.115-1.395,3.115-3.116c0-5.79-3.986-10.626-9.346-12.021V23.99c1.853,1.077,3.114,3.068,3.114,5.362
			c0,1.722,1.396,3.116,3.114,3.116c1.722,0,3.117-1.394,3.117-3.116c0-5.788-3.986-10.624-9.349-12.02V5.297
			c1.855,1.079,3.119,3.071,3.119,5.364c0,1.72,1.394,3.115,3.114,3.115c1.722,0,3.115-1.395,3.115-3.115
			c0-5.79-3.986-10.626-9.346-12.02v-12.036c1.853,1.08,3.116,3.07,3.116,5.365c0,1.72,1.394,3.114,3.114,3.114
			c1.722,0,3.115-1.394,3.115-3.114c0-4.88-2.843-9.068-6.939-11.111c1.059-0.831,2.378-1.348,3.824-1.348v-0.003h115.268
			c3.433,0,6.229,2.796,6.229,6.231v124.61C388.053,113.784,385.256,116.577,381.823,116.577z"/>
		<path fill="#6A7072" d="M384.662,108.473c0-2.483,0-41.66,0-41.66c-0.083-0.169-27.495-27.248-27.495-27.248
			c-0.607-0.474-1.17-0.607-1.622-0.48l-0.013-0.024l-0.051,0.039l-0.065,0.011l0.014,0.028c-0.389,0.263-0.645,0.779-0.678,1.55
			c0,0,3.254,40.665,3.331,40.835l14.392,31.157c0,0,6.657,0,9.367,0 M379.862,65.042c-1.938,0.904-2.428,4.048-1.803,6.274
			c-1.472-2.034-5.666-4.287-8.902-2.971l-0.006-0.009l-0.052,0.03l-0.063,0.022l0.004,0.007c-3.093,1.631-4.071,6.292-3.466,8.728
			c-1.293-1.914-4.018-3.565-5.96-2.661c-0.331,0.151-0.604,0.386-0.851,0.647l-1.881-20.81l4.602-2.146l0.115-0.05l4.604-2.145
			l14.704,14.852C380.549,64.828,380.197,64.887,379.862,65.042z M381.842,112.681c0,0,1.347,0.161,2.274-1.438
			c0.429-0.737,0.546-2.77,0.546-2.77"/>
		<path fill="#6A7072" d="M302.961-14.028c0-1.778-1.442-3.219-3.221-3.219c-1.775,0-3.218,1.441-3.218,3.219v3.219
			c0,1.778,1.442,3.219,3.218,3.219c1.778,0,3.221-1.441,3.221-3.219V-14.028z"/>
		<path fill="#6A7072" d="M282.31-4.369c-1.255-1.257-1.255-3.296,0-4.554c1.258-1.256,3.298-1.256,4.553,0l1.336,1.333
			c1.256,1.257,1.256,3.295,0,4.554c-1.259,1.256-3.298,1.256-4.556,0L282.31-4.369z"/>
		<path fill="#6A7072" d="M312.62-8.923c1.257-1.256,3.297-1.256,4.554,0c1.257,1.258,1.257,3.296,0,4.554l-1.335,1.333
			c-1.258,1.256-3.297,1.256-4.552,0c-1.258-1.258-1.258-3.296,0-4.554L312.62-8.923z"/>
		<path fill="#6A7072" d="M282.31,21.388c-1.255,1.257-1.255,3.295,0,4.552c1.258,1.258,3.298,1.258,4.553,0l1.336-1.333
			c1.256-1.257,1.256-3.296,0-4.553c-1.259-1.258-3.298-1.258-4.556,0L282.31,21.388z"/>
		<path fill="#6A7072" d="M277.206,11.729c-1.778,0-3.221-1.442-3.221-3.22c0-1.777,1.442-3.22,3.221-3.22h3.218
			c1.781,0,3.219,1.443,3.219,3.22c0,1.778-1.438,3.22-3.219,3.22H277.206z"/>
		<path fill="#6A7072" d="M319.059,11.48c-1.777,0-3.22-1.441-3.22-3.219c0-1.777,1.442-3.219,3.22-3.219h3.22
			c1.778,0,3.221,1.442,3.221,3.219c0,1.778-1.442,3.219-3.221,3.219H319.059z"/>
		<path fill="#6A7072" d="M299.74,11.729L299.74,11.729z"/>
		<path fill="#6A7072" d="M300.236,17.92c0.386,0,0.763,0.033,1.13,0.094c0.38-1.202,1.505-2.075,2.834-2.075
			c0.372,0,0.726,0.073,1.054,0.197c0.38-2.357,2.424-4.158,4.89-4.158c0.672,0,1.309,0.137,1.891,0.377
			c0.379-1.215,0.586-2.507,0.586-3.847c0-7.112-5.765-12.877-12.88-12.877c-7.111,0-12.878,5.765-12.878,12.877
			c0,5.396,3.321,10.015,8.027,11.93C296.162,18.901,298.085,17.92,300.236,17.92z"/>
		<path fill="#6A7072" d="M315.011,30.798c2.354-0.791,4.048-3.325,4.048-5.944c0-2.605-1.676-4.817-4.007-5.62
			c-0.327-2.419-2.398-4.285-4.907-4.285c-2.467,0-4.511,1.8-4.889,4.158c-0.33-0.125-0.683-0.197-1.056-0.197
			c-1.329,0-2.454,0.872-2.834,2.074c-0.367-0.061-0.744-0.093-1.128-0.093c-3.829,0-6.936,3.104-6.936,6.934
			c0,0.247-0.023-0.24,0,0c-0.039,2.488,1.54,2.972,3.083,2.972"/>
		<path fill="#6A7072" d="M331.225,50.684c-0.304-0.069-0.592-0.223-0.834-0.453l-4.333-4.173c-0.715-0.688-0.737-1.824-0.048-2.541
			c0.688-0.713,1.824-0.735,2.539-0.047l4.335,4.173c0.713,0.688,0.735,1.824,0.048,2.539
			C332.476,50.657,331.821,50.825,331.225,50.684z M322.557,42.337c-0.306-0.07-0.592-0.222-0.835-0.453l-4.333-4.173
			c-0.715-0.688-0.738-1.824-0.048-2.539c0.686-0.716,1.822-0.738,2.536-0.05l4.338,4.172c0.714,0.688,0.733,1.825,0.045,2.54
			C323.807,42.31,323.15,42.479,322.557,42.337z M313.885,33.992c-0.303-0.07-0.591-0.221-0.832-0.454l-4.336-4.173
			c-0.713-0.687-0.735-1.825-0.045-2.54c0.687-0.714,1.823-0.735,2.537-0.048l4.335,4.173c0.716,0.688,0.736,1.824,0.048,2.539
			C315.136,33.963,314.482,34.132,313.885,33.992z"/>
	</g>
</g>
</svg>
