<?xml version="1.0" encoding="utf-8"?>
<!-- Generator: Adobe Illustrator 16.0.0, SVG Export Plug-In . SVG Version: 6.00 Build 0)  -->
<!DOCTYPE svg PUBLIC "-//W3C//DTD SVG 1.1//EN" "http://www.w3.org/Graphics/SVG/1.1/DTD/svg11.dtd">
<svg version="1.1" id="Layer_1" xmlns="http://www.w3.org/2000/svg" xmlns:xlink="http://www.w3.org/1999/xlink" x="0px" y="0px"
	 width="576px" height="82.8px" viewBox="246.853 15.253 576 82.8" enable-background="new 246.853 15.253 576 82.8"
	 xml:space="preserve">
<g>
	<g>
		<path fill="#96A73A" d="M267.055,57.602c-0.446,0-0.899-0.104-1.321-0.327c-1.397-0.731-1.934-2.455-1.203-3.851l7.472-14.263
			c0.464-0.885,1.357-1.463,2.354-1.524c0.977-0.059,1.951,0.403,2.521,1.225l2.934,4.245l5.232-13.297
			c0.394-1.002,1.32-1.697,2.393-1.797c1.073-0.101,2.108,0.414,2.68,1.327l6.026,9.621l4.285-4.456
			c1.09-1.135,2.896-1.173,4.035-0.079c1.135,1.091,1.172,2.897,0.081,4.035l-6.82,7.092c-0.61,0.634-1.476,0.953-2.352,0.861
			c-0.874-0.09-1.659-0.579-2.124-1.324l-4.964-7.925l-5.118,13.012c-0.385,0.98-1.281,1.668-2.329,1.79
			c-1.044,0.119-2.075-0.345-2.673-1.212l-3.295-4.765l-5.283,10.082C269.076,57.045,268.082,57.602,267.055,57.602L267.055,57.602z
			"/>
		<g>
			<path fill="#6A7072" d="M294.626,64.988c0,4.219-3.418,7.64-7.638,7.64c-4.221,0-7.64-3.421-7.64-7.64
				c0-4.218,3.419-7.639,7.64-7.639C291.208,57.349,294.626,60.769,294.626,64.988z"/>
			<path fill="#6A7072" d="M285.794,85.306c-11.223,0-20.356-9.131-20.356-20.354c0-1.576,1.278-2.854,2.855-2.854
				c1.575,0,2.853,1.276,2.853,2.854c0,8.075,6.571,14.647,14.648,14.647c7.955,0,13.38-3.341,16.12-9.923
				c2.078-4.988,0.241-12.985-1.285-15.695c-0.774-1.374-0.287-3.113,1.086-3.888c1.376-0.773,3.114-0.286,3.886,1.088
				c2.396,4.253,4.338,14.069,1.582,20.688C303.576,80.535,295.98,85.306,285.794,85.306L285.794,85.306z"/>
		</g>
	</g>
	<g>
		<path fill="#6A7072" d="M352.725,50.593c-0.19,0.333-0.392,0.575-0.606,0.725s-0.479,0.225-0.796,0.225
			c-0.332,0-0.692-0.122-1.08-0.368c-0.389-0.246-0.852-0.52-1.39-0.82c-0.539-0.301-1.168-0.574-1.889-0.82
			c-0.721-0.244-1.572-0.368-2.553-0.368c-0.887,0-1.663,0.106-2.329,0.32c-0.664,0.213-1.224,0.511-1.675,0.891
			c-0.451,0.38-0.787,0.835-1.009,1.366c-0.222,0.53-0.332,1.112-0.332,1.746c0,0.808,0.225,1.481,0.676,2.019
			c0.452,0.538,1.049,0.998,1.794,1.377c0.744,0.38,1.591,0.721,2.541,1.021c0.95,0.301,1.924,0.622,2.921,0.962
			c0.998,0.341,1.971,0.736,2.921,1.188c0.95,0.451,1.797,1.021,2.541,1.71c0.745,0.688,1.343,1.531,1.793,2.529
			c0.451,0.998,0.677,2.209,0.677,3.635c0,1.551-0.265,3.004-0.796,4.358c-0.53,1.354-1.306,2.533-2.328,3.539
			c-1.021,1.006-2.268,1.797-3.741,2.375c-1.473,0.578-3.159,0.866-5.06,0.866c-1.092,0-2.169-0.105-3.23-0.319
			c-1.061-0.215-2.078-0.519-3.052-0.915c-0.974-0.396-1.889-0.871-2.744-1.425c-0.854-0.555-1.615-1.172-2.28-1.853l1.876-3.065
			c0.158-0.221,0.365-0.406,0.618-0.558c0.252-0.15,0.522-0.226,0.807-0.226c0.396,0,0.823,0.163,1.283,0.486
			c0.459,0.326,1.005,0.686,1.639,1.081c0.633,0.396,1.374,0.757,2.22,1.081c0.848,0.325,1.865,0.487,3.053,0.487
			c1.82,0,3.23-0.432,4.227-1.295c0.998-0.863,1.497-2.102,1.497-3.718c0-0.902-0.226-1.639-0.677-2.208
			c-0.452-0.57-1.049-1.05-1.793-1.438s-1.591-0.717-2.541-0.985c-0.95-0.27-1.916-0.562-2.897-0.879
			c-0.982-0.317-1.948-0.697-2.897-1.141c-0.95-0.442-1.797-1.021-2.542-1.734c-0.745-0.712-1.342-1.604-1.793-2.672
			c-0.451-1.068-0.677-2.387-0.677-3.954c0-1.251,0.249-2.471,0.748-3.658c0.498-1.188,1.223-2.241,2.173-3.16
			c0.951-0.917,2.121-1.654,3.515-2.208s2.994-0.832,4.798-0.832c2.027,0,3.895,0.317,5.605,0.95
			c1.711,0.634,3.167,1.52,4.372,2.661L352.725,50.593z"/>
		<path fill="#6A7072" d="M364.199,44.383c0.198,0.024,0.371,0.071,0.522,0.142c0.151,0.072,0.297,0.175,0.439,0.309
			c0.143,0.135,0.301,0.313,0.476,0.535l18.003,22.992c-0.047-0.555-0.087-1.101-0.118-1.639s-0.047-1.037-0.047-1.496V44.346h5.63
			v34.347h-3.278c-0.506,0-0.93-0.083-1.271-0.25c-0.34-0.166-0.668-0.447-0.985-0.843l-17.933-22.875
			c0.047,0.508,0.083,1.01,0.107,1.509c0.023,0.499,0.035,0.954,0.035,1.366v21.092h-5.629V44.346h3.349
			C363.767,44.346,364,44.358,364.199,44.383z"/>
		<path fill="#6A7072" d="M426.556,78.693h-4.94c-0.555,0-1.005-0.139-1.354-0.416c-0.348-0.277-0.609-0.621-0.783-1.033
			l-2.565-7.007h-14.228l-2.565,7.007c-0.126,0.364-0.372,0.697-0.736,0.997c-0.365,0.302-0.816,0.452-1.354,0.452h-4.988
			l13.516-34.346h6.508L426.556,78.693z M404.324,65.723h10.95l-4.181-11.425c-0.206-0.506-0.42-1.104-0.642-1.793
			c-0.222-0.689-0.444-1.438-0.664-2.245c-0.222,0.808-0.44,1.56-0.654,2.257c-0.213,0.697-0.423,1.306-0.629,1.828L404.324,65.723z
			"/>
		<path fill="#6A7072" d="M436.508,66.602v12.091h-6.39V44.346h11.164c2.295,0,4.283,0.27,5.962,0.808
			c1.678,0.539,3.064,1.291,4.156,2.256c1.093,0.966,1.904,2.122,2.435,3.468s0.795,2.818,0.795,4.417
			c0,1.663-0.277,3.187-0.831,4.573s-1.385,2.577-2.495,3.574c-1.108,0.998-2.497,1.774-4.167,2.328
			c-1.672,0.555-3.623,0.831-5.855,0.831H436.508z M436.508,61.614h4.774c1.17,0,2.192-0.146,3.064-0.439
			c0.871-0.292,1.595-0.712,2.173-1.258c0.579-0.547,1.01-1.212,1.295-1.996c0.285-0.783,0.428-1.658,0.428-2.624
			c0-0.918-0.143-1.75-0.428-2.495c-0.285-0.744-0.712-1.378-1.282-1.9c-0.57-0.523-1.291-0.922-2.162-1.2
			c-0.871-0.276-1.9-0.416-3.087-0.416h-4.774L436.508,61.614L436.508,61.614z"/>
	</g>
</g>
<g>
	<path fill="#6A7072" d="M551.1,46.516c-0.065,0.106-0.134,0.186-0.205,0.236c-0.071,0.051-0.16,0.076-0.269,0.076
		c-0.113,0-0.24-0.048-0.38-0.143c-0.14-0.096-0.312-0.202-0.518-0.318c-0.206-0.116-0.448-0.223-0.728-0.321
		c-0.281-0.098-0.615-0.148-1.001-0.148c-0.358,0-0.672,0.044-0.943,0.135c-0.271,0.089-0.499,0.214-0.684,0.375
		s-0.324,0.35-0.416,0.568c-0.092,0.217-0.138,0.454-0.138,0.71c0,0.328,0.086,0.601,0.259,0.818c0.173,0.218,0.4,0.404,0.684,0.559
		c0.284,0.155,0.606,0.29,0.971,0.406c0.363,0.116,0.733,0.24,1.112,0.371c0.378,0.131,0.749,0.281,1.113,0.448
		c0.362,0.167,0.686,0.378,0.969,0.634s0.511,0.569,0.684,0.938c0.173,0.37,0.26,0.82,0.26,1.35c0,0.572-0.098,1.108-0.295,1.609
		c-0.196,0.5-0.481,0.937-0.854,1.309c-0.371,0.373-0.831,0.667-1.376,0.881c-0.546,0.215-1.167,0.321-1.864,0.321
		c-0.41,0-0.812-0.04-1.201-0.12c-0.391-0.081-0.764-0.194-1.117-0.34c-0.354-0.146-0.687-0.323-0.997-0.531
		c-0.31-0.209-0.587-0.441-0.831-0.697l0.607-1.001c0.054-0.083,0.122-0.148,0.205-0.196c0.084-0.047,0.176-0.072,0.277-0.072
		c0.138,0,0.289,0.064,0.456,0.192c0.166,0.128,0.368,0.268,0.603,0.42c0.236,0.152,0.52,0.292,0.854,0.42s0.733,0.192,1.198,0.192
		c0.757,0,1.342-0.185,1.756-0.555c0.414-0.369,0.621-0.878,0.621-1.528c0-0.363-0.086-0.659-0.259-0.889
		c-0.173-0.229-0.401-0.421-0.685-0.577c-0.283-0.155-0.605-0.286-0.969-0.393c-0.364-0.107-0.733-0.222-1.108-0.344
		s-0.745-0.265-1.108-0.429c-0.363-0.164-0.687-0.378-0.97-0.644c-0.283-0.264-0.511-0.592-0.684-0.983
		c-0.174-0.39-0.26-0.877-0.26-1.461c0-0.465,0.092-0.915,0.273-1.35c0.182-0.434,0.446-0.82,0.795-1.157
		c0.348-0.337,0.779-0.606,1.291-0.81c0.513-0.202,1.097-0.304,1.752-0.304c0.739,0,1.417,0.116,2.034,0.348
		c0.616,0.232,1.148,0.563,1.595,0.992L551.1,46.516z"/>
	<path fill="#6A7072" d="M564.488,54.318c0.113,0,0.21,0.044,0.294,0.133l0.832,0.903c-0.524,0.632-1.168,1.119-1.931,1.461
		c-0.762,0.343-1.674,0.514-2.734,0.514c-0.941,0-1.792-0.162-2.552-0.487c-0.76-0.325-1.407-0.777-1.944-1.359
		c-0.536-0.581-0.948-1.274-1.237-2.077c-0.289-0.805-0.433-1.689-0.433-2.654c0-0.966,0.153-1.853,0.46-2.659
		c0.307-0.808,0.738-1.501,1.295-2.083c0.558-0.581,1.225-1.033,2.002-1.354c0.778-0.322,1.635-0.483,2.57-0.483
		c0.929,0,1.75,0.151,2.462,0.451c0.712,0.301,1.33,0.701,1.854,1.202l-0.688,0.974c-0.048,0.065-0.104,0.123-0.17,0.169
		c-0.065,0.049-0.154,0.072-0.268,0.072c-0.119,0-0.255-0.055-0.407-0.166c-0.151-0.11-0.345-0.232-0.58-0.366
		c-0.235-0.134-0.531-0.256-0.885-0.367c-0.354-0.11-0.797-0.166-1.327-0.166c-0.614,0-1.177,0.107-1.689,0.322
		s-0.953,0.527-1.322,0.938c-0.37,0.411-0.658,0.911-0.862,1.501c-0.206,0.589-0.309,1.26-0.309,2.012
		c0,0.756,0.106,1.431,0.321,2.023c0.215,0.593,0.51,1.094,0.885,1.502c0.375,0.408,0.816,0.719,1.323,0.934
		c0.506,0.215,1.051,0.322,1.635,0.322c0.357,0,0.679-0.019,0.961-0.058c0.283-0.039,0.543-0.102,0.782-0.188
		c0.238-0.086,0.463-0.194,0.675-0.326c0.211-0.131,0.421-0.292,0.629-0.481C564.249,54.371,564.368,54.318,564.488,54.318z"/>
	<path fill="#6A7072" d="M576.884,44.316v1.69h-5.926v3.878h4.736v1.636h-4.736v3.977h5.935l-0.01,1.689h-8.024V44.316H576.884z"/>
	<path fill="#6A7072" d="M581.901,44.33c0.062,0.009,0.12,0.024,0.175,0.049c0.053,0.024,0.104,0.059,0.151,0.107
		c0.048,0.048,0.099,0.107,0.152,0.179l7.078,9.089c-0.018-0.185-0.031-0.367-0.04-0.545s-0.013-0.345-0.013-0.5v-8.393h1.832v12.87
		h-1.064c-0.16,0-0.298-0.028-0.41-0.085c-0.114-0.057-0.222-0.15-0.322-0.282l-7.069-9.081c0.018,0.173,0.031,0.344,0.04,0.514
		s0.013,0.327,0.013,0.47v8.463h-1.841V44.316h1.091C581.763,44.316,581.839,44.322,581.901,44.33z"/>
	<path fill="#6A7072" d="M606.501,57.186h-1.617c-0.185,0-0.333-0.045-0.446-0.138c-0.114-0.093-0.2-0.207-0.26-0.344l-1.072-2.843
		h-5.542l-1.072,2.843c-0.047,0.119-0.131,0.229-0.249,0.33c-0.119,0.102-0.269,0.152-0.448,0.152h-1.617l5.104-12.87h2.118
		L606.501,57.186z M598.128,52.361h4.414l-1.77-4.701c-0.071-0.173-0.145-0.379-0.219-0.617c-0.075-0.238-0.147-0.494-0.22-0.769
		c-0.071,0.281-0.144,0.538-0.219,0.773c-0.075,0.236-0.145,0.443-0.21,0.622L598.128,52.361z"/>
	<path fill="#6A7072" d="M611.524,52.003v5.184h-2.092v-12.87h3.789c0.846,0,1.574,0.087,2.186,0.26
		c0.61,0.173,1.112,0.418,1.506,0.737c0.394,0.318,0.684,0.701,0.872,1.148c0.188,0.446,0.281,0.945,0.281,1.492
		c0,0.448-0.067,0.864-0.201,1.252s-0.327,0.739-0.58,1.054c-0.253,0.316-0.566,0.59-0.938,0.822
		c-0.372,0.232-0.794,0.414-1.265,0.545c0.263,0.155,0.485,0.373,0.67,0.652l3.478,4.907h-1.868c-0.369,0-0.638-0.143-0.805-0.429
		l-3.003-4.335c-0.102-0.149-0.211-0.256-0.331-0.321c-0.118-0.065-0.298-0.099-0.536-0.099H611.524z M611.524,50.483h1.645
		c0.477,0,0.894-0.058,1.251-0.174c0.357-0.116,0.655-0.278,0.894-0.487c0.239-0.209,0.417-0.458,0.537-0.747
		c0.119-0.289,0.179-0.61,0.179-0.961c0-0.703-0.232-1.239-0.697-1.609c-0.465-0.369-1.168-0.554-2.109-0.554h-1.697L611.524,50.483
		L611.524,50.483z"/>
	<path fill="#6A7072" d="M624.313,57.186h-2.1v-12.87h2.1V57.186z"/>
	<path fill="#6A7072" d="M640.892,50.752c0,0.953-0.154,1.832-0.464,2.636c-0.311,0.804-0.747,1.497-1.31,2.078
		c-0.562,0.58-1.239,1.035-2.028,1.362c-0.791,0.328-1.668,0.492-2.633,0.492c-0.959,0-1.833-0.164-2.623-0.492
		c-0.789-0.327-1.468-0.782-2.033-1.362c-0.566-0.582-1.004-1.274-1.314-2.078c-0.31-0.805-0.465-1.684-0.465-2.636
		c0-0.954,0.155-1.833,0.465-2.637c0.31-0.804,0.748-1.499,1.314-2.082c0.565-0.584,1.244-1.04,2.033-1.368
		c0.79-0.328,1.664-0.492,2.623-0.492c0.965,0,1.843,0.164,2.633,0.492c0.789,0.328,1.465,0.783,2.028,1.368
		c0.562,0.583,0.999,1.278,1.31,2.082C640.737,48.92,640.892,49.799,640.892,50.752z M638.756,50.752c0-0.739-0.1-1.404-0.299-1.994
		c-0.2-0.59-0.486-1.09-0.857-1.501c-0.373-0.41-0.824-0.727-1.354-0.947c-0.531-0.22-1.127-0.332-1.788-0.332
		c-0.655,0-1.249,0.111-1.778,0.332c-0.531,0.221-0.982,0.537-1.358,0.947c-0.376,0.412-0.664,0.912-0.867,1.501
		c-0.203,0.59-0.304,1.254-0.304,1.994c0,0.744,0.101,1.412,0.304,2.001c0.202,0.59,0.491,1.089,0.867,1.497
		c0.375,0.408,0.827,0.721,1.358,0.938c0.529,0.218,1.123,0.327,1.778,0.327c0.662,0,1.257-0.108,1.788-0.327
		c0.53-0.217,0.98-0.53,1.354-0.938c0.371-0.408,0.657-0.907,0.857-1.497C638.656,52.164,638.756,51.496,638.756,50.752z"/>
	<path fill="#6A7072" d="M651.34,46.516c-0.065,0.106-0.134,0.186-0.205,0.236c-0.071,0.051-0.161,0.076-0.269,0.076
		c-0.112,0-0.239-0.048-0.38-0.143c-0.14-0.096-0.312-0.202-0.518-0.318c-0.206-0.116-0.448-0.223-0.729-0.321
		c-0.279-0.098-0.613-0.148-1-0.148c-0.358,0-0.673,0.044-0.943,0.135c-0.271,0.089-0.499,0.214-0.684,0.375
		s-0.324,0.35-0.416,0.568c-0.093,0.217-0.139,0.454-0.139,0.71c0,0.328,0.087,0.601,0.26,0.818
		c0.173,0.218,0.401,0.404,0.684,0.559c0.283,0.155,0.606,0.29,0.97,0.406c0.363,0.116,0.734,0.24,1.113,0.371
		c0.378,0.131,0.748,0.281,1.112,0.448c0.363,0.167,0.687,0.378,0.97,0.634s0.511,0.569,0.684,0.938c0.173,0.37,0.26,0.82,0.26,1.35
		c0,0.572-0.098,1.108-0.296,1.609c-0.195,0.5-0.48,0.937-0.853,1.309s-0.831,0.667-1.377,0.881
		c-0.545,0.215-1.167,0.321-1.863,0.321c-0.411,0-0.812-0.04-1.202-0.12c-0.391-0.081-0.764-0.194-1.117-0.34
		c-0.354-0.146-0.687-0.323-0.997-0.531c-0.31-0.209-0.587-0.441-0.831-0.697l0.607-1.001c0.054-0.083,0.122-0.148,0.205-0.196
		c0.084-0.047,0.176-0.072,0.277-0.072c0.138,0,0.289,0.064,0.456,0.192s0.368,0.268,0.603,0.42c0.235,0.152,0.52,0.292,0.854,0.42
		s0.733,0.192,1.198,0.192c0.756,0,1.341-0.185,1.756-0.555c0.414-0.369,0.621-0.878,0.621-1.528c0-0.363-0.087-0.659-0.26-0.889
		c-0.172-0.229-0.4-0.421-0.684-0.577c-0.283-0.155-0.606-0.286-0.969-0.393c-0.365-0.107-0.733-0.222-1.108-0.344
		c-0.376-0.122-0.745-0.265-1.109-0.429c-0.362-0.164-0.686-0.378-0.969-0.644c-0.283-0.264-0.511-0.592-0.684-0.983
		c-0.173-0.39-0.26-0.877-0.26-1.461c0-0.465,0.092-0.915,0.272-1.35c0.182-0.434,0.447-0.82,0.795-1.157
		c0.349-0.337,0.779-0.606,1.293-0.81c0.512-0.202,1.096-0.304,1.751-0.304c0.739,0,1.417,0.116,2.033,0.348
		c0.617,0.232,1.149,0.563,1.596,0.992L651.34,46.516z"/>
	<path fill="#6A7072" d="M662.988,44.33c0.063,0.009,0.121,0.024,0.175,0.049c0.053,0.024,0.104,0.059,0.152,0.107
		c0.048,0.048,0.099,0.107,0.151,0.179l7.078,9.089c-0.018-0.185-0.03-0.367-0.04-0.545c-0.009-0.179-0.013-0.345-0.013-0.5v-8.393
		h1.832v12.87h-1.063c-0.161,0-0.299-0.028-0.411-0.085c-0.113-0.057-0.221-0.15-0.322-0.282l-7.069-9.081
		c0.018,0.173,0.031,0.344,0.04,0.514c0.01,0.169,0.014,0.327,0.014,0.47v8.463h-1.842V44.316h1.091
		C662.851,44.316,662.927,44.322,662.988,44.33z"/>
	<path fill="#6A7072" d="M684.845,44.316v1.69h-5.925v3.878h4.735v1.636h-4.735v3.977h5.934l-0.009,1.689h-8.025V44.316H684.845z"/>
	<path fill="#6A7072" d="M697.401,44.316v1.743h-4.014v11.127h-2.082V46.059h-4.021v-1.743H697.401z"/>
	<path fill="#6A7072" d="M699.296,44.316h1.753c0.179,0,0.328,0.044,0.451,0.13c0.122,0.086,0.204,0.204,0.245,0.353l2.413,8.249
		c0.048,0.179,0.092,0.371,0.13,0.577c0.038,0.205,0.079,0.421,0.12,0.648c0.048-0.227,0.098-0.444,0.147-0.652
		c0.051-0.208,0.106-0.4,0.166-0.572l2.762-8.249c0.041-0.119,0.125-0.23,0.25-0.331c0.125-0.102,0.274-0.153,0.447-0.153h0.607
		c0.185,0,0.333,0.047,0.446,0.139c0.114,0.092,0.2,0.208,0.26,0.344l2.753,8.249c0.059,0.173,0.112,0.359,0.16,0.558
		c0.047,0.2,0.096,0.413,0.143,0.64c0.043-0.221,0.082-0.432,0.12-0.636c0.039-0.202,0.083-0.39,0.13-0.562l2.404-8.249
		c0.036-0.131,0.117-0.244,0.246-0.34c0.128-0.095,0.278-0.143,0.451-0.143h1.636l-4.004,12.87h-1.886l-3.021-9.24
		c-0.035-0.102-0.07-0.211-0.103-0.331c-0.032-0.119-0.064-0.247-0.095-0.384c-0.029,0.138-0.062,0.265-0.098,0.384
		c-0.035,0.119-0.068,0.229-0.098,0.331l-3.048,9.24H703.3L699.296,44.316z"/>
	<path fill="#6A7072" d="M732.551,50.752c0,0.953-0.154,1.832-0.464,2.636s-0.747,1.497-1.31,2.078
		c-0.562,0.58-1.239,1.035-2.028,1.362c-0.79,0.328-1.667,0.492-2.633,0.492c-0.959,0-1.834-0.164-2.623-0.492
		c-0.789-0.327-1.467-0.782-2.033-1.362c-0.566-0.582-1.005-1.274-1.314-2.078c-0.31-0.805-0.465-1.684-0.465-2.636
		c0-0.954,0.155-1.833,0.465-2.637c0.31-0.804,0.748-1.499,1.314-2.082c0.565-0.584,1.244-1.04,2.033-1.368
		c0.789-0.328,1.664-0.492,2.623-0.492c0.966,0,1.843,0.164,2.633,0.492c0.789,0.328,1.466,0.783,2.028,1.368
		c0.562,0.583,1,1.278,1.31,2.082C732.396,48.92,732.551,49.799,732.551,50.752z M730.416,50.752c0-0.739-0.101-1.404-0.299-1.994
		c-0.2-0.59-0.486-1.09-0.858-1.501c-0.372-0.41-0.824-0.727-1.354-0.947s-1.126-0.332-1.787-0.332
		c-0.655,0-1.249,0.111-1.779,0.332c-0.53,0.221-0.982,0.537-1.358,0.947c-0.375,0.412-0.664,0.912-0.866,1.501
		c-0.203,0.59-0.305,1.254-0.305,1.994c0,0.744,0.102,1.412,0.305,2.001c0.202,0.59,0.491,1.089,0.866,1.497
		c0.375,0.408,0.828,0.721,1.358,0.938c0.53,0.218,1.124,0.327,1.779,0.327c0.662,0,1.257-0.108,1.787-0.327
		c0.53-0.217,0.981-0.53,1.354-0.938c0.372-0.408,0.658-0.907,0.858-1.497C730.315,52.164,730.416,51.496,730.416,50.752z"/>
	<path fill="#6A7072" d="M738.361,52.003v5.184h-2.091v-12.87h3.789c0.846,0,1.574,0.087,2.186,0.26
		c0.61,0.173,1.112,0.418,1.506,0.737c0.394,0.318,0.684,0.701,0.871,1.148c0.188,0.446,0.282,0.945,0.282,1.492
		c0,0.448-0.067,0.864-0.201,1.252s-0.328,0.739-0.581,1.054c-0.253,0.316-0.566,0.59-0.938,0.822
		c-0.373,0.232-0.795,0.414-1.266,0.545c0.263,0.155,0.485,0.373,0.671,0.652l3.477,4.907h-1.868c-0.368,0-0.638-0.143-0.805-0.429
		l-3.002-4.335c-0.102-0.149-0.212-0.256-0.331-0.321s-0.298-0.099-0.537-0.099H738.361z M738.361,50.483h1.645
		c0.477,0,0.895-0.058,1.252-0.174c0.357-0.116,0.655-0.278,0.894-0.487c0.238-0.209,0.417-0.458,0.536-0.747
		c0.119-0.289,0.179-0.61,0.179-0.961c0-0.703-0.231-1.239-0.696-1.609c-0.465-0.369-1.169-0.554-2.109-0.554h-1.698L738.361,50.483
		L738.361,50.483z"/>
	<path fill="#6A7072" d="M751.142,49.823h0.599c0.227,0,0.411-0.032,0.555-0.094c0.143-0.063,0.271-0.162,0.385-0.299l3.896-4.647
		c0.137-0.173,0.278-0.293,0.425-0.362c0.146-0.068,0.328-0.103,0.55-0.103h1.787l-4.604,5.434
		c-0.125,0.156-0.246,0.285-0.362,0.389c-0.116,0.104-0.242,0.19-0.379,0.255c0.179,0.065,0.34,0.157,0.482,0.273
		c0.143,0.116,0.282,0.27,0.42,0.46l4.772,6.059h-1.822c-0.132,0-0.243-0.008-0.336-0.026c-0.093-0.018-0.173-0.044-0.241-0.081
		c-0.068-0.036-0.129-0.08-0.179-0.133c-0.052-0.054-0.098-0.114-0.139-0.179l-4.022-4.916c-0.059-0.078-0.118-0.143-0.178-0.196
		c-0.061-0.054-0.13-0.099-0.21-0.134c-0.081-0.036-0.172-0.062-0.273-0.076c-0.102-0.015-0.221-0.022-0.357-0.022h-0.769v5.764
		h-2.092V44.316h2.092V49.823L751.142,49.823z"/>
	<path fill="#6A7072" d="M776.443,44.316v1.69h-5.926v4.12h5.032v1.688h-5.032v5.371h-2.1V44.316H776.443z"/>
	<path fill="#6A7072" d="M791.931,50.752c0,0.953-0.155,1.832-0.465,2.636s-0.746,1.497-1.309,2.078
		c-0.563,0.58-1.239,1.035-2.029,1.362c-0.79,0.328-1.667,0.492-2.632,0.492c-0.959,0-1.834-0.164-2.623-0.492
		c-0.79-0.327-1.468-0.782-2.033-1.362c-0.566-0.582-1.005-1.274-1.314-2.078c-0.31-0.805-0.465-1.684-0.465-2.636
		c0-0.954,0.155-1.833,0.465-2.637c0.31-0.804,0.748-1.499,1.314-2.082c0.565-0.584,1.243-1.04,2.033-1.368
		c0.789-0.328,1.663-0.492,2.623-0.492c0.965,0,1.843,0.164,2.632,0.492c0.79,0.328,1.465,0.783,2.029,1.368
		c0.562,0.583,0.999,1.278,1.309,2.082C791.775,48.92,791.931,49.799,791.931,50.752z M789.795,50.752
		c0-0.739-0.1-1.404-0.299-1.994c-0.2-0.59-0.486-1.09-0.858-1.501c-0.373-0.41-0.823-0.727-1.354-0.947
		c-0.531-0.22-1.127-0.332-1.788-0.332c-0.655,0-1.248,0.111-1.779,0.332c-0.53,0.221-0.982,0.537-1.358,0.947
		c-0.375,0.412-0.664,0.912-0.867,1.501c-0.202,0.59-0.304,1.254-0.304,1.994c0,0.744,0.102,1.412,0.304,2.001
		c0.203,0.59,0.492,1.089,0.867,1.497c0.375,0.408,0.828,0.721,1.358,0.938c0.531,0.218,1.124,0.327,1.779,0.327
		c0.661,0,1.257-0.108,1.788-0.327c0.53-0.217,0.98-0.53,1.354-0.938c0.372-0.408,0.658-0.907,0.858-1.497
		C789.695,52.164,789.795,51.496,789.795,50.752z"/>
	<path fill="#6A7072" d="M797.741,52.003v5.184h-2.092v-12.87h3.789c0.846,0,1.574,0.087,2.185,0.26s1.112,0.418,1.507,0.737
		c0.393,0.318,0.684,0.701,0.872,1.148c0.188,0.446,0.281,0.945,0.281,1.492c0,0.448-0.067,0.864-0.201,1.252
		c-0.135,0.388-0.328,0.739-0.581,1.054c-0.253,0.316-0.565,0.59-0.938,0.822c-0.373,0.232-0.794,0.414-1.265,0.545
		c0.263,0.155,0.485,0.373,0.67,0.652l3.477,4.907h-1.868c-0.368,0-0.638-0.143-0.804-0.429l-3.003-4.335
		c-0.102-0.149-0.212-0.256-0.331-0.321s-0.298-0.099-0.537-0.099H797.741z M797.741,50.483h1.644c0.477,0,0.895-0.058,1.251-0.174
		c0.357-0.116,0.655-0.278,0.895-0.487c0.238-0.209,0.417-0.458,0.536-0.747c0.119-0.289,0.18-0.61,0.18-0.961
		c0-0.703-0.232-1.239-0.697-1.609c-0.465-0.369-1.169-0.554-2.109-0.554h-1.697L797.741,50.483L797.741,50.483z"/>
	<path fill="#6A7072" d="M539.768,78.636h-1.617c-0.185,0-0.334-0.046-0.447-0.139s-0.199-0.206-0.259-0.344l-1.073-2.843h-5.541
		l-1.072,2.843c-0.048,0.118-0.131,0.229-0.25,0.33s-0.268,0.152-0.447,0.152h-1.617l5.103-12.87h2.118L539.768,78.636z
		 M531.394,73.81h4.414l-1.768-4.701c-0.072-0.173-0.145-0.378-0.22-0.617c-0.074-0.238-0.148-0.494-0.219-0.769
		c-0.072,0.28-0.145,0.538-0.219,0.772c-0.074,0.236-0.145,0.443-0.21,0.622L531.394,73.81z"/>
	<path fill="#6A7072" d="M544.79,76.885h5.344v1.752h-7.436v-12.87h2.092V76.885z"/>
	<path fill="#6A7072" d="M564.13,78.636h-1.617c-0.185,0-0.333-0.046-0.447-0.139c-0.113-0.093-0.199-0.206-0.259-0.344
		l-1.073-2.843h-5.541l-1.072,2.843c-0.047,0.118-0.131,0.229-0.249,0.33c-0.12,0.102-0.269,0.152-0.448,0.152h-1.616l5.103-12.87
		h2.118L564.13,78.636z M555.756,73.81h4.415l-1.769-4.701c-0.072-0.173-0.146-0.378-0.22-0.617
		c-0.074-0.238-0.147-0.494-0.22-0.769c-0.071,0.28-0.145,0.538-0.219,0.772c-0.074,0.236-0.145,0.443-0.21,0.622L555.756,73.81z"/>
	<path fill="#6A7072" d="M573.791,67.966c-0.066,0.106-0.134,0.186-0.205,0.236c-0.072,0.051-0.161,0.076-0.269,0.076
		c-0.113,0-0.24-0.048-0.38-0.144c-0.14-0.095-0.312-0.201-0.518-0.317c-0.206-0.116-0.448-0.223-0.729-0.321
		c-0.28-0.098-0.614-0.148-1.001-0.148c-0.357,0-0.671,0.046-0.942,0.136c-0.271,0.089-0.499,0.214-0.684,0.375
		c-0.185,0.16-0.324,0.35-0.416,0.567c-0.093,0.218-0.139,0.454-0.139,0.71c0,0.328,0.086,0.601,0.259,0.818
		c0.175,0.217,0.401,0.403,0.685,0.559c0.283,0.154,0.606,0.29,0.97,0.406c0.363,0.115,0.734,0.239,1.113,0.37
		c0.378,0.132,0.748,0.281,1.112,0.448c0.364,0.166,0.686,0.378,0.97,0.634c0.283,0.257,0.511,0.569,0.685,0.938
		c0.172,0.369,0.259,0.819,0.259,1.349c0,0.572-0.099,1.109-0.295,1.609c-0.197,0.5-0.48,0.937-0.854,1.309
		c-0.372,0.373-0.831,0.666-1.376,0.88c-0.546,0.216-1.167,0.322-1.864,0.322c-0.41,0-0.812-0.04-1.202-0.12
		c-0.39-0.08-0.763-0.193-1.117-0.34c-0.354-0.146-0.686-0.323-0.996-0.531c-0.31-0.209-0.587-0.441-0.832-0.697l0.607-1.001
		c0.055-0.084,0.122-0.148,0.206-0.196c0.083-0.048,0.176-0.072,0.277-0.072c0.137,0,0.289,0.064,0.456,0.192
		c0.166,0.128,0.367,0.269,0.603,0.42c0.235,0.152,0.52,0.292,0.854,0.42s0.733,0.193,1.197,0.193c0.757,0,1.342-0.186,1.757-0.555
		c0.414-0.369,0.621-0.879,0.621-1.528c0-0.363-0.087-0.66-0.259-0.89c-0.173-0.229-0.401-0.421-0.685-0.576
		s-0.605-0.286-0.97-0.394c-0.363-0.107-0.732-0.222-1.108-0.344c-0.375-0.122-0.744-0.265-1.107-0.43
		c-0.364-0.164-0.687-0.378-0.97-0.644c-0.283-0.264-0.512-0.592-0.685-0.982s-0.259-0.878-0.259-1.462
		c0-0.465,0.091-0.914,0.272-1.35c0.182-0.435,0.447-0.82,0.795-1.157c0.349-0.337,0.779-0.605,1.293-0.809
		c0.512-0.202,1.096-0.305,1.751-0.305c0.738,0,1.417,0.116,2.033,0.349c0.617,0.232,1.148,0.563,1.596,0.992L573.791,67.966z"/>
	<path fill="#6A7072" d="M580.334,71.272h0.599c0.227,0,0.411-0.032,0.554-0.094c0.144-0.063,0.271-0.163,0.385-0.3l3.896-4.647
		c0.138-0.173,0.278-0.293,0.425-0.362c0.146-0.068,0.329-0.103,0.55-0.103h1.788l-4.604,5.434
		c-0.125,0.156-0.246,0.285-0.362,0.389c-0.116,0.104-0.242,0.189-0.38,0.255c0.179,0.065,0.34,0.156,0.482,0.273
		c0.143,0.115,0.283,0.269,0.42,0.459l4.773,6.06h-1.823c-0.131,0-0.243-0.009-0.335-0.026c-0.093-0.019-0.173-0.045-0.242-0.081
		c-0.068-0.035-0.128-0.08-0.179-0.134s-0.097-0.113-0.138-0.18l-4.022-4.915c-0.06-0.077-0.119-0.143-0.178-0.196
		c-0.061-0.054-0.131-0.099-0.211-0.134c-0.08-0.036-0.171-0.062-0.272-0.076s-0.221-0.022-0.357-0.022h-0.769v5.765h-2.092V65.766
		h2.092V71.272L580.334,71.272z"/>
	<path fill="#6A7072" d="M602.497,78.636h-1.617c-0.184,0-0.334-0.046-0.446-0.139c-0.113-0.093-0.2-0.206-0.26-0.344l-1.072-2.843
		h-5.541l-1.073,2.843c-0.047,0.118-0.131,0.229-0.249,0.33c-0.119,0.102-0.269,0.152-0.447,0.152h-1.618l5.104-12.87h2.118
		L602.497,78.636z M594.124,73.81h4.414l-1.77-4.701c-0.071-0.173-0.145-0.378-0.219-0.617c-0.074-0.238-0.147-0.494-0.22-0.769
		c-0.071,0.28-0.145,0.538-0.219,0.772c-0.074,0.236-0.145,0.443-0.21,0.622L594.124,73.81z"/>
	<path fill="#6A7072" d="M615.144,68.179v3.735h3.549v1.448h-3.549v3.744h-1.564v-3.744h-3.529v-1.448h3.529v-3.735H615.144z"/>
	<path fill="#6A7072" d="M638.56,78.636h-1.617c-0.185,0-0.334-0.046-0.447-0.139s-0.2-0.206-0.259-0.344l-1.073-2.843h-5.541
		l-1.072,2.843c-0.048,0.118-0.132,0.229-0.25,0.33c-0.119,0.102-0.269,0.152-0.447,0.152h-1.617l5.104-12.87h2.117L638.56,78.636z
		 M630.186,73.81h4.414l-1.77-4.701c-0.071-0.173-0.145-0.378-0.219-0.617c-0.074-0.238-0.147-0.494-0.22-0.769
		c-0.072,0.28-0.145,0.538-0.219,0.772c-0.074,0.236-0.145,0.443-0.21,0.622L630.186,73.81z"/>
	<path fill="#6A7072" d="M643.582,73.452v5.185h-2.092v-12.87h3.789c0.846,0,1.575,0.087,2.186,0.26s1.112,0.418,1.506,0.737
		c0.394,0.318,0.684,0.701,0.872,1.148c0.188,0.446,0.281,0.944,0.281,1.492c0,0.447-0.067,0.864-0.201,1.251
		c-0.135,0.388-0.327,0.739-0.58,1.055c-0.254,0.316-0.566,0.59-0.938,0.822s-0.794,0.414-1.265,0.545
		c0.262,0.155,0.485,0.373,0.67,0.652l3.477,4.907h-1.868c-0.368,0-0.638-0.144-0.804-0.43l-3.003-4.334
		c-0.102-0.149-0.212-0.256-0.331-0.321s-0.298-0.099-0.536-0.099L643.582,73.452L643.582,73.452z M643.582,71.933h1.645
		c0.476,0,0.894-0.058,1.251-0.174s0.655-0.279,0.894-0.487c0.238-0.209,0.417-0.458,0.536-0.746c0.12-0.29,0.179-0.61,0.179-0.961
		c0-0.703-0.231-1.24-0.696-1.609s-1.168-0.554-2.109-0.554h-1.697L643.582,71.933L643.582,71.933z"/>
	<path fill="#6A7072" d="M663.029,75.767c0.113,0,0.212,0.045,0.295,0.134l0.831,0.902c-0.523,0.633-1.168,1.118-1.931,1.461
		s-1.674,0.515-2.733,0.515c-0.941,0-1.792-0.162-2.553-0.486c-0.76-0.326-1.407-0.778-1.943-1.359
		c-0.537-0.581-0.949-1.273-1.238-2.077c-0.288-0.806-0.433-1.69-0.433-2.655c0-0.966,0.153-1.853,0.46-2.659
		c0.307-0.808,0.739-1.501,1.296-2.082c0.558-0.581,1.225-1.033,2.002-1.354c0.777-0.322,1.634-0.482,2.569-0.482
		c0.929,0,1.75,0.15,2.462,0.451s1.331,0.701,1.854,1.202l-0.688,0.974c-0.047,0.065-0.104,0.122-0.169,0.169
		c-0.066,0.049-0.155,0.072-0.269,0.072c-0.118,0-0.254-0.056-0.406-0.166c-0.152-0.109-0.346-0.231-0.581-0.366
		c-0.235-0.134-0.53-0.256-0.885-0.366s-0.797-0.166-1.327-0.166c-0.614,0-1.176,0.107-1.688,0.321
		c-0.514,0.216-0.954,0.527-1.323,0.939c-0.37,0.41-0.658,0.911-0.862,1.501c-0.205,0.589-0.309,1.26-0.309,2.012
		c0,0.756,0.107,1.432,0.322,2.023c0.215,0.593,0.51,1.094,0.885,1.501c0.375,0.408,0.816,0.72,1.322,0.935
		c0.506,0.214,1.052,0.321,1.636,0.321c0.357,0,0.678-0.019,0.96-0.058c0.283-0.039,0.544-0.102,0.782-0.188
		c0.239-0.086,0.463-0.194,0.675-0.326c0.212-0.131,0.422-0.292,0.63-0.482C662.792,75.82,662.91,75.767,663.029,75.767z"/>
	<path fill="#6A7072" d="M676.256,65.766v1.743h-4.013v11.127h-2.082V67.51h-4.021v-1.743H676.256z"/>
	<path fill="#6A7072" d="M681.574,78.636h-2.101v-12.87h2.101V78.636z"/>
	<path fill="#6A7072" d="M694.997,75.767c0.114,0,0.212,0.045,0.296,0.134l0.831,0.902c-0.524,0.633-1.168,1.118-1.931,1.461
		s-1.674,0.515-2.733,0.515c-0.941,0-1.793-0.162-2.553-0.486c-0.76-0.326-1.407-0.778-1.944-1.359
		c-0.536-0.58-0.948-1.273-1.237-2.077c-0.289-0.806-0.433-1.69-0.433-2.655c0-0.966,0.153-1.853,0.459-2.659
		c0.308-0.808,0.74-1.501,1.296-2.082c0.558-0.581,1.225-1.033,2.002-1.354c0.778-0.322,1.635-0.482,2.57-0.482
		c0.929,0,1.75,0.15,2.462,0.451c0.711,0.301,1.33,0.701,1.854,1.202l-0.688,0.974c-0.048,0.065-0.104,0.122-0.17,0.169
		c-0.065,0.049-0.155,0.072-0.268,0.072c-0.119,0-0.255-0.056-0.407-0.166c-0.151-0.109-0.346-0.231-0.58-0.366
		c-0.236-0.134-0.531-0.256-0.885-0.366c-0.354-0.11-0.798-0.166-1.327-0.166c-0.614,0-1.177,0.107-1.689,0.321
		c-0.513,0.216-0.954,0.527-1.322,0.939c-0.37,0.41-0.658,0.911-0.862,1.501c-0.206,0.589-0.31,1.26-0.31,2.012
		c0,0.756,0.108,1.432,0.322,2.023c0.215,0.593,0.51,1.094,0.885,1.501c0.375,0.408,0.816,0.72,1.322,0.935
		c0.507,0.214,1.053,0.321,1.636,0.321c0.358,0,0.678-0.019,0.961-0.058s0.543-0.102,0.782-0.188
		c0.238-0.086,0.463-0.194,0.675-0.326c0.212-0.131,0.422-0.292,0.63-0.482C694.759,75.82,694.878,75.767,694.997,75.767z"/>
	<path fill="#6A7072" d="M707.339,73.979v4.657h-2.091v-12.87h4.004c0.84,0,1.568,0.099,2.186,0.295
		c0.616,0.196,1.125,0.473,1.527,0.827c0.402,0.354,0.701,0.78,0.898,1.277c0.196,0.498,0.295,1.048,0.295,1.649
		c0,0.613-0.104,1.175-0.312,1.685c-0.209,0.51-0.519,0.947-0.93,1.314c-0.411,0.366-0.922,0.652-1.533,0.857
		c-0.61,0.206-1.321,0.308-2.131,0.308H707.339z M707.339,72.327h1.913c0.464,0,0.874-0.06,1.228-0.18
		c0.355-0.119,0.65-0.287,0.886-0.505s0.413-0.481,0.531-0.791c0.12-0.31,0.18-0.655,0.18-1.037c0-0.375-0.058-0.712-0.174-1.01
		s-0.291-0.551-0.523-0.76c-0.232-0.208-0.525-0.367-0.88-0.478c-0.355-0.11-0.771-0.166-1.247-0.166h-1.912L707.339,72.327
		L707.339,72.327z"/>
	<path fill="#6A7072" d="M719.682,76.885h5.344v1.752h-7.435v-12.87h2.091V76.885z"/>
	<path fill="#6A7072" d="M739.021,78.636h-1.617c-0.185,0-0.334-0.046-0.447-0.139s-0.2-0.206-0.259-0.344l-1.073-2.843h-5.541
		l-1.072,2.843c-0.048,0.118-0.131,0.229-0.249,0.33c-0.12,0.102-0.269,0.152-0.448,0.152h-1.617l5.104-12.87h2.117L739.021,78.636z
		 M730.648,73.81h4.415l-1.77-4.701c-0.072-0.173-0.146-0.378-0.22-0.617c-0.074-0.238-0.147-0.494-0.22-0.769
		c-0.071,0.28-0.145,0.538-0.219,0.772c-0.074,0.236-0.145,0.443-0.21,0.622L730.648,73.81z"/>
	<path fill="#6A7072" d="M743.271,65.78c0.062,0.009,0.12,0.024,0.176,0.049c0.053,0.024,0.103,0.06,0.15,0.107
		c0.049,0.048,0.099,0.106,0.153,0.179l7.078,9.09c-0.019-0.186-0.032-0.367-0.041-0.546s-0.013-0.346-0.013-0.5v-8.393h1.831v12.87
		h-1.062c-0.161,0-0.298-0.029-0.411-0.086c-0.114-0.055-0.221-0.149-0.322-0.281l-7.07-9.08c0.019,0.173,0.032,0.344,0.041,0.514
		c0.01,0.169,0.014,0.326,0.014,0.469v8.464h-1.841V65.766h1.09C743.132,65.766,743.208,65.771,743.271,65.78z"/>
	<path fill="#6A7072" d="M758.42,65.78c0.062,0.009,0.12,0.024,0.175,0.049c0.053,0.024,0.104,0.06,0.152,0.107
		s0.098,0.106,0.151,0.179l7.078,9.09c-0.018-0.186-0.031-0.367-0.04-0.546s-0.013-0.346-0.013-0.5v-8.393h1.831v12.87h-1.062
		c-0.161,0-0.299-0.029-0.412-0.086c-0.113-0.055-0.22-0.149-0.321-0.281l-7.07-9.08c0.018,0.173,0.032,0.344,0.041,0.514
		c0.01,0.169,0.014,0.326,0.014,0.469v8.464h-1.842V65.766h1.091C758.282,65.766,758.357,65.771,758.42,65.78z"/>
	<path fill="#6A7072" d="M774.35,78.636h-2.1v-12.87h2.1V78.636z"/>
	<path fill="#6A7072" d="M780.154,65.78c0.063,0.009,0.121,0.024,0.176,0.049c0.053,0.024,0.104,0.06,0.151,0.107
		c0.048,0.048,0.099,0.106,0.152,0.179l7.078,9.09c-0.018-0.186-0.031-0.367-0.04-0.546s-0.013-0.346-0.013-0.5v-8.393h1.831v12.87
		h-1.063c-0.16,0-0.298-0.029-0.41-0.086c-0.114-0.055-0.221-0.149-0.322-0.281l-7.07-9.08c0.019,0.173,0.031,0.344,0.041,0.514
		c0.009,0.169,0.013,0.326,0.013,0.469v8.464h-1.841V65.766h1.091C780.017,65.766,780.093,65.771,780.154,65.78z"/>
	<path fill="#6A7072" d="M800.053,78.779c-1.043,0-1.986-0.162-2.829-0.486c-0.843-0.326-1.562-0.778-2.158-1.359
		s-1.055-1.273-1.376-2.077c-0.322-0.806-0.483-1.69-0.483-2.655c0-0.971,0.155-1.861,0.465-2.668s0.754-1.502,1.332-2.083
		s1.274-1.03,2.091-1.35c0.817-0.318,1.734-0.478,2.753-0.478c0.519,0,1,0.04,1.443,0.12c0.444,0.081,0.856,0.192,1.237,0.335
		c0.382,0.144,0.732,0.316,1.055,0.52c0.322,0.202,0.617,0.429,0.885,0.679l-0.599,0.956c-0.096,0.149-0.218,0.242-0.367,0.278
		c-0.148,0.034-0.309,0-0.481-0.108c-0.174-0.101-0.356-0.208-0.551-0.321c-0.193-0.112-0.415-0.219-0.665-0.317
		c-0.25-0.098-0.539-0.179-0.867-0.241s-0.715-0.095-1.162-0.095c-0.68,0-1.291,0.112-1.837,0.336
		c-0.545,0.223-1.012,0.542-1.398,0.956c-0.388,0.414-0.686,0.916-0.894,1.507c-0.209,0.589-0.313,1.248-0.313,1.975
		c0,0.769,0.11,1.456,0.331,2.06c0.221,0.605,0.533,1.117,0.938,1.538c0.405,0.42,0.896,0.74,1.471,0.96
		c0.575,0.221,1.217,0.331,1.926,0.331c0.53,0,1.003-0.057,1.417-0.17s0.82-0.271,1.22-0.474V73.89h-1.797
		c-0.137,0-0.244-0.037-0.321-0.112c-0.077-0.073-0.116-0.171-0.116-0.29V72.3h4.12v5.095
		C803.24,78.317,801.751,78.779,800.053,78.779z"/>
</g>
</svg>
