<?xml version="1.0" encoding="utf-8"?>
<!-- Generator: Adobe Illustrator 16.0.0, SVG Export Plug-In . SVG Version: 6.00 Build 0)  -->
<!DOCTYPE svg PUBLIC "-//W3C//DTD SVG 1.1//EN" "http://www.w3.org/Graphics/SVG/1.1/DTD/svg11.dtd">
<svg version="1.1" id="Layer_1" xmlns="http://www.w3.org/2000/svg" xmlns:xlink="http://www.w3.org/1999/xlink" x="0px" y="0px"
	 width="518.4px" height="126px" viewBox="21.349 32.688 518.4 126" enable-background="new 21.349 32.688 518.4 126"
	 xml:space="preserve">
<g>
	<g>
		<path fill="#96A73A" d="M160.555,258.873c-0.579,0-1.167-0.137-1.715-0.427c-1.815-0.949-2.513-3.188-1.563-5.002l9.707-18.529
			c0.603-1.15,1.765-1.901,3.059-1.98c1.269-0.075,2.535,0.523,3.275,1.592l3.812,5.515l6.797-17.275
			c0.511-1.302,1.715-2.204,3.109-2.335c1.394-0.131,2.738,0.537,3.481,1.725l7.829,12.499l5.567-5.79
			c1.417-1.475,3.763-1.522,5.241-0.102c1.475,1.418,1.523,3.765,0.105,5.242l-8.861,9.214c-0.792,0.825-1.916,1.238-3.054,1.119
			c-1.135-0.118-2.155-0.753-2.76-1.721l-6.448-10.296l-6.649,16.905c-0.501,1.273-1.665,2.167-3.026,2.325
			c-1.356,0.154-2.696-0.448-3.473-1.574l-4.281-6.191l-6.863,13.098C163.181,258.147,161.889,258.873,160.555,258.873
			L160.555,258.873z"/>
		<g>
			<path fill="#6A7072" d="M196.375,268.468c0,5.481-4.442,9.926-9.923,9.926c-5.483,0-9.924-4.445-9.924-9.926
				c0-5.479,4.441-9.924,9.924-9.924C191.934,258.544,196.375,262.987,196.375,268.468z"/>
			<path fill="#6A7072" d="M184.901,294.864c-14.581,0-26.446-11.862-26.446-26.442c0-2.048,1.66-3.708,3.709-3.708
				c2.046,0,3.708,1.658,3.708,3.708c0,10.491,8.537,19.029,19.03,19.029c10.334,0,17.383-4.34,20.943-12.892
				c2.699-6.48,0.313-16.87-1.669-20.391c-1.006-1.783-0.373-4.045,1.412-5.051c1.787-1.004,4.045-0.371,5.049,1.414
				c3.113,5.525,5.636,18.279,2.054,26.876C208.002,288.666,198.135,294.864,184.901,294.864L184.901,294.864z"/>
		</g>
	</g>
	<g>
		<path fill="#6A7072" d="M271.855,249.767c-0.249,0.432-0.511,0.747-0.788,0.941c-0.277,0.195-0.622,0.293-1.034,0.293
			c-0.43,0-0.898-0.159-1.403-0.479c-0.505-0.318-1.105-0.674-1.805-1.064c-0.7-0.391-1.517-0.745-2.454-1.064
			c-0.936-0.317-2.043-0.479-3.315-0.479c-1.153,0-2.162,0.139-3.026,0.416c-0.862,0.277-1.591,0.664-2.176,1.157
			c-0.585,0.494-1.023,1.085-1.311,1.774c-0.289,0.689-0.432,1.445-0.432,2.27c0,1.049,0.292,1.924,0.878,2.622
			c0.588,0.699,1.362,1.296,2.33,1.79s2.067,0.937,3.302,1.327c1.235,0.392,2.5,0.808,3.796,1.249
			c1.296,0.442,2.561,0.956,3.794,1.545c1.235,0.585,2.337,1.326,3.303,2.221c0.967,0.895,1.744,1.99,2.329,3.285
			c0.586,1.297,0.88,2.871,0.88,4.723c0,2.016-0.344,3.902-1.034,5.662c-0.689,1.758-1.697,3.292-3.024,4.598
			s-2.945,2.335-4.859,3.086c-1.913,0.751-4.105,1.125-6.573,1.125c-1.419,0-2.817-0.138-4.197-0.416
			c-1.379-0.279-2.7-0.673-3.965-1.188c-1.265-0.516-2.454-1.132-3.564-1.852c-1.11-0.721-2.097-1.523-2.963-2.407l2.438-3.981
			c0.204-0.287,0.474-0.528,0.802-0.725c0.329-0.195,0.68-0.294,1.052-0.294c0.513,0,1.068,0.212,1.666,0.633
			c0.597,0.423,1.306,0.89,2.128,1.404c0.823,0.515,1.785,0.982,2.885,1.404c1.102,0.423,2.424,0.633,3.968,0.633
			c2.364,0,4.195-0.562,5.491-1.683s1.944-2.73,1.944-4.828c0-1.174-0.293-2.13-0.88-2.871c-0.587-0.74-1.363-1.362-2.33-1.867
			c-0.967-0.504-2.067-0.93-3.3-1.279c-1.235-0.352-2.49-0.729-3.765-1.143c-1.276-0.412-2.53-0.906-3.765-1.48
			c-1.234-0.576-2.335-1.327-3.301-2.254c-0.969-0.926-1.744-2.083-2.331-3.471c-0.585-1.389-0.878-3.102-0.878-5.137
			c0-1.627,0.323-3.211,0.971-4.752c0.646-1.543,1.589-2.912,2.823-4.105c1.235-1.191,2.757-2.149,4.566-2.869
			c1.812-0.721,3.891-1.08,6.234-1.08c2.633,0,5.061,0.41,7.282,1.233c2.223,0.824,4.115,1.975,5.679,3.457L271.855,249.767z"/>
		<path fill="#6A7072" d="M286.762,241.698c0.258,0.031,0.481,0.092,0.679,0.185c0.194,0.093,0.385,0.228,0.57,0.4
			c0.185,0.175,0.39,0.407,0.617,0.694l23.391,29.871c-0.062-0.721-0.113-1.43-0.154-2.129c-0.04-0.698-0.062-1.348-0.062-1.943
			v-27.125h7.315v44.62h-4.259c-0.659,0-1.21-0.106-1.652-0.324c-0.441-0.215-0.869-0.58-1.279-1.096l-23.298-29.716
			c0.06,0.659,0.106,1.312,0.138,1.959c0.03,0.648,0.047,1.24,0.047,1.775v27.401H281.5v-44.62h4.35
			C286.2,241.651,286.503,241.666,286.762,241.698z"/>
		<path fill="#6A7072" d="M367.773,286.271h-6.419c-0.72,0-1.305-0.179-1.759-0.539c-0.451-0.359-0.792-0.808-1.018-1.343
			l-3.333-9.104h-18.483l-3.333,9.104c-0.165,0.475-0.484,0.906-0.956,1.296c-0.474,0.393-1.061,0.588-1.76,0.588h-6.481
			l17.56-44.622h8.455L367.773,286.271z M338.891,269.423h14.225l-5.432-14.843c-0.269-0.657-0.545-1.435-0.833-2.329
			c-0.288-0.896-0.576-1.867-0.863-2.916c-0.288,1.049-0.572,2.026-0.849,2.932c-0.279,0.906-0.552,1.697-0.818,2.375
			L338.891,269.423z"/>
		<path fill="#6A7072" d="M380.702,270.565v15.706h-8.301v-44.62h14.504c2.981,0,5.564,0.35,7.745,1.049
			c2.18,0.7,3.98,1.677,5.399,2.932c1.421,1.256,2.474,2.756,3.163,4.506c0.689,1.749,1.033,3.662,1.033,5.738
			c0,2.16-0.36,4.141-1.079,5.941c-0.721,1.801-1.801,3.348-3.241,4.645c-1.44,1.295-3.244,2.303-5.414,3.024
			c-2.172,0.72-4.707,1.079-7.607,1.079H380.702z M380.702,264.084h6.203c1.521,0,2.849-0.188,3.98-0.569s2.072-0.926,2.824-1.636
			c0.751-0.71,1.311-1.575,1.682-2.593c0.37-1.018,0.556-2.154,0.556-3.408c0-1.193-0.185-2.273-0.556-3.241
			c-0.369-0.966-0.926-1.79-1.667-2.468c-0.74-0.681-1.676-1.199-2.807-1.561c-1.132-0.358-2.47-0.54-4.011-0.54h-6.204
			L380.702,264.084L380.702,264.084L380.702,264.084z"/>
	</g>
</g>
<g>
	<g>
		<path fill="#6A7072" d="M43.789,307.366c-0.059,0.096-0.12,0.166-0.183,0.21c-0.063,0.046-0.142,0.068-0.238,0.068
			c-0.101,0-0.213-0.043-0.338-0.126c-0.124-0.085-0.276-0.181-0.458-0.282c-0.183-0.103-0.398-0.199-0.647-0.286
			c-0.249-0.086-0.545-0.13-0.888-0.13c-0.317,0-0.596,0.039-0.837,0.118c-0.24,0.08-0.442,0.19-0.607,0.333
			c-0.164,0.143-0.287,0.312-0.369,0.504c-0.081,0.193-0.124,0.403-0.124,0.63c0,0.292,0.077,0.533,0.231,0.727
			c0.153,0.192,0.355,0.357,0.607,0.495c0.251,0.138,0.538,0.258,0.86,0.361c0.323,0.102,0.651,0.213,0.987,0.328
			c0.335,0.117,0.666,0.249,0.988,0.397c0.322,0.147,0.608,0.335,0.86,0.562c0.252,0.229,0.454,0.505,0.607,0.833
			c0.152,0.328,0.229,0.727,0.229,1.197c0,0.508-0.086,0.983-0.261,1.427c-0.175,0.445-0.428,0.832-0.758,1.162
			c-0.33,0.33-0.737,0.592-1.221,0.782c-0.485,0.19-1.036,0.285-1.655,0.285c-0.364,0-0.72-0.035-1.066-0.107
			c-0.346-0.07-0.678-0.171-0.992-0.301c-0.314-0.129-0.609-0.286-0.884-0.472s-0.521-0.392-0.738-0.619l0.54-0.888
			c0.047-0.074,0.108-0.133,0.183-0.174c0.074-0.042,0.155-0.064,0.246-0.064c0.122,0,0.256,0.057,0.403,0.171
			c0.148,0.113,0.328,0.238,0.536,0.372c0.208,0.136,0.46,0.261,0.757,0.374c0.296,0.113,0.651,0.17,1.063,0.17
			c0.671,0,1.191-0.164,1.558-0.491c0.367-0.328,0.552-0.779,0.552-1.356c0-0.322-0.077-0.584-0.23-0.789
			c-0.153-0.203-0.356-0.374-0.607-0.513c-0.252-0.137-0.537-0.252-0.859-0.348c-0.323-0.095-0.65-0.197-0.984-0.306
			c-0.333-0.107-0.662-0.234-0.983-0.381c-0.323-0.145-0.609-0.336-0.86-0.571c-0.252-0.233-0.454-0.524-0.608-0.872
			c-0.153-0.346-0.229-0.778-0.229-1.297c0-0.412,0.08-0.812,0.242-1.197c0.161-0.386,0.396-0.729,0.707-1.026
			c0.307-0.299,0.69-0.538,1.145-0.719c0.455-0.18,0.973-0.27,1.555-0.27c0.655,0,1.257,0.103,1.804,0.309
			c0.547,0.206,1.019,0.5,1.416,0.881L43.789,307.366z"/>
		<path fill="#6A7072" d="M55.669,314.29c0.101,0,0.188,0.04,0.261,0.118l0.738,0.802c-0.466,0.561-1.036,0.992-1.713,1.297
			c-0.676,0.304-1.485,0.456-2.427,0.456c-0.835,0-1.59-0.144-2.264-0.431c-0.674-0.289-1.25-0.691-1.726-1.207
			c-0.476-0.516-0.843-1.131-1.099-1.844c-0.257-0.715-0.384-1.499-0.384-2.355c0-0.857,0.136-1.644,0.408-2.36
			c0.272-0.717,0.655-1.332,1.15-1.848c0.494-0.516,1.086-0.916,1.776-1.201c0.691-0.287,1.452-0.429,2.281-0.429
			c0.825,0,1.553,0.134,2.185,0.399c0.632,0.268,1.181,0.623,1.646,1.066l-0.611,0.864c-0.042,0.059-0.093,0.11-0.15,0.151
			c-0.058,0.042-0.137,0.062-0.238,0.062c-0.105,0-0.226-0.049-0.361-0.146c-0.135-0.098-0.307-0.206-0.516-0.326
			c-0.208-0.118-0.47-0.227-0.784-0.325c-0.315-0.098-0.708-0.147-1.179-0.147c-0.544,0-1.043,0.097-1.499,0.286
			c-0.455,0.191-0.845,0.468-1.173,0.833c-0.328,0.364-0.584,0.809-0.766,1.332c-0.182,0.522-0.273,1.117-0.273,1.786
			c0,0.67,0.095,1.27,0.285,1.795c0.191,0.526,0.453,0.971,0.785,1.333c0.333,0.361,0.725,0.638,1.174,0.827
			c0.45,0.191,0.933,0.286,1.452,0.286c0.317,0,0.602-0.017,0.853-0.052s0.481-0.089,0.693-0.167
			c0.212-0.076,0.411-0.173,0.599-0.29c0.188-0.115,0.375-0.258,0.559-0.427C55.458,314.338,55.564,314.29,55.669,314.29z"/>
		<path fill="#6A7072" d="M66.671,305.415v1.499h-5.258v3.441h4.203v1.453h-4.203v3.528h5.266l-0.008,1.499h-7.123v-11.421H66.671z"
			/>
		<path fill="#6A7072" d="M71.125,305.427c0.054,0.008,0.105,0.022,0.154,0.044c0.047,0.021,0.093,0.052,0.135,0.095
			c0.042,0.042,0.088,0.096,0.135,0.159l6.282,8.066c-0.017-0.164-0.028-0.326-0.036-0.484c-0.008-0.158-0.011-0.306-0.011-0.443
			v-7.448h1.625v11.421h-0.944c-0.143,0-0.265-0.025-0.364-0.076c-0.102-0.05-0.196-0.132-0.287-0.249l-6.273-8.059
			c0.016,0.153,0.028,0.305,0.035,0.455c0.008,0.15,0.012,0.29,0.012,0.417v7.511h-1.634v-11.42h0.968
			C71,305.415,71.069,305.419,71.125,305.427z"/>
		<path fill="#6A7072" d="M92.956,316.836H91.52c-0.165,0-0.296-0.04-0.396-0.122c-0.101-0.082-0.177-0.186-0.229-0.307
			l-0.953-2.522h-4.918l-0.951,2.522c-0.042,0.106-0.117,0.204-0.222,0.293c-0.106,0.09-0.238,0.136-0.396,0.136h-1.436
			l4.529-11.421h1.879L92.956,316.836z M85.524,312.555h3.917l-1.57-4.173c-0.064-0.153-0.128-0.336-0.194-0.548
			c-0.067-0.211-0.132-0.438-0.195-0.683c-0.064,0.25-0.127,0.478-0.194,0.686c-0.066,0.21-0.128,0.394-0.186,0.553L85.524,312.555z
			"/>
		<path fill="#6A7072" d="M97.413,312.236v4.6h-1.856v-11.421h3.362c0.752,0,1.397,0.077,1.939,0.23
			c0.543,0.153,0.986,0.371,1.337,0.654c0.349,0.282,0.606,0.622,0.774,1.019c0.165,0.396,0.25,0.839,0.25,1.325
			c0,0.397-0.06,0.766-0.179,1.111c-0.119,0.344-0.291,0.656-0.514,0.936c-0.225,0.281-0.503,0.523-0.833,0.729
			c-0.331,0.207-0.705,0.368-1.123,0.483c0.234,0.138,0.431,0.331,0.596,0.578l3.085,4.355h-1.658c-0.329,0-0.566-0.127-0.714-0.381
			l-2.665-3.847c-0.089-0.132-0.188-0.227-0.294-0.285c-0.105-0.059-0.264-0.087-0.476-0.087L97.413,312.236L97.413,312.236z
			 M97.413,310.888h1.458c0.424,0,0.794-0.052,1.111-0.154c0.318-0.104,0.582-0.248,0.793-0.433c0.213-0.186,0.37-0.407,0.476-0.662
			c0.107-0.257,0.159-0.541,0.159-0.854c0-0.624-0.206-1.1-0.617-1.428c-0.414-0.328-1.038-0.491-1.873-0.491h-1.506v4.021H97.413z"
			/>
		<path fill="#6A7072" d="M108.764,316.836h-1.865v-11.421h1.865V316.836z"/>
		<path fill="#6A7072" d="M123.477,311.127c0,0.845-0.138,1.624-0.413,2.338c-0.274,0.714-0.663,1.329-1.162,1.845
			c-0.5,0.515-1.1,0.918-1.801,1.209s-1.48,0.438-2.335,0.438c-0.852,0-1.628-0.147-2.329-0.438c-0.7-0.289-1.302-0.693-1.804-1.209
			c-0.503-0.516-0.892-1.131-1.167-1.845s-0.413-1.493-0.413-2.338c0-0.847,0.138-1.627,0.413-2.341s0.664-1.33,1.167-1.849
			c0.502-0.518,1.104-0.922,1.804-1.213c0.701-0.291,1.477-0.436,2.329-0.436c0.854,0,1.634,0.145,2.335,0.436
			c0.7,0.291,1.301,0.695,1.801,1.213c0.499,0.518,0.887,1.135,1.162,1.849C123.339,309.5,123.477,310.28,123.477,311.127z
			 M121.58,311.127c0-0.656-0.089-1.246-0.265-1.77c-0.177-0.523-0.432-0.967-0.762-1.333c-0.33-0.364-0.731-0.645-1.201-0.84
			c-0.471-0.195-1-0.295-1.586-0.295c-0.582,0-1.11,0.1-1.579,0.295c-0.471,0.195-0.873,0.476-1.205,0.84
			c-0.333,0.366-0.59,0.811-0.77,1.333c-0.18,0.523-0.27,1.113-0.27,1.77c0,0.66,0.089,1.252,0.27,1.776
			c0.18,0.523,0.437,0.966,0.77,1.327c0.332,0.362,0.734,0.641,1.205,0.833c0.469,0.193,0.997,0.289,1.579,0.289
			c0.585,0,1.115-0.096,1.586-0.289c0.47-0.192,0.87-0.471,1.201-0.833c0.33-0.362,0.584-0.805,0.762-1.327
			C121.491,312.379,121.58,311.787,121.58,311.127z"/>
		<path fill="#6A7072" d="M132.749,307.366c-0.058,0.096-0.119,0.166-0.182,0.21c-0.064,0.046-0.143,0.068-0.238,0.068
			c-0.101,0-0.212-0.043-0.336-0.126c-0.125-0.085-0.278-0.181-0.459-0.282c-0.184-0.103-0.399-0.199-0.647-0.286
			c-0.249-0.086-0.544-0.13-0.889-0.13c-0.317,0-0.596,0.039-0.837,0.118c-0.24,0.08-0.443,0.19-0.606,0.333
			c-0.165,0.143-0.288,0.312-0.368,0.504c-0.083,0.193-0.125,0.403-0.125,0.63c0,0.292,0.077,0.533,0.231,0.727
			c0.153,0.192,0.355,0.357,0.606,0.495c0.252,0.138,0.539,0.258,0.861,0.361c0.323,0.102,0.651,0.213,0.987,0.328
			c0.335,0.117,0.664,0.249,0.987,0.397c0.323,0.147,0.608,0.335,0.86,0.562c0.251,0.229,0.454,0.505,0.607,0.833
			s0.23,0.727,0.23,1.197c0,0.508-0.087,0.983-0.261,1.427c-0.174,0.445-0.426,0.832-0.758,1.162
			c-0.33,0.33-0.737,0.592-1.222,0.782c-0.484,0.19-1.035,0.285-1.655,0.285c-0.363,0-0.719-0.035-1.066-0.107
			c-0.347-0.07-0.676-0.171-0.99-0.301c-0.314-0.129-0.609-0.286-0.884-0.472c-0.276-0.186-0.521-0.392-0.738-0.619l0.539-0.888
			c0.047-0.074,0.108-0.133,0.182-0.174c0.074-0.042,0.156-0.064,0.246-0.064c0.122,0,0.256,0.057,0.405,0.171
			c0.147,0.113,0.326,0.238,0.534,0.372c0.208,0.136,0.461,0.261,0.758,0.374c0.296,0.113,0.649,0.17,1.062,0.17
			c0.671,0,1.191-0.164,1.558-0.491c0.368-0.328,0.551-0.779,0.551-1.356c0-0.322-0.077-0.584-0.229-0.789
			c-0.153-0.203-0.355-0.374-0.607-0.513c-0.252-0.137-0.538-0.252-0.86-0.348c-0.323-0.095-0.649-0.197-0.984-0.306
			c-0.333-0.107-0.661-0.234-0.984-0.381c-0.323-0.145-0.609-0.336-0.86-0.571c-0.251-0.233-0.454-0.524-0.607-0.872
			c-0.154-0.346-0.23-0.778-0.23-1.297c0-0.412,0.081-0.812,0.241-1.197c0.161-0.386,0.396-0.729,0.707-1.026
			c0.308-0.299,0.691-0.538,1.146-0.719c0.454-0.18,0.972-0.27,1.555-0.27c0.655,0,1.257,0.103,1.804,0.309
			c0.547,0.206,1.019,0.5,1.416,0.881L132.749,307.366z"/>
		<path fill="#6A7072" d="M143.086,305.427c0.056,0.008,0.107,0.022,0.155,0.044c0.046,0.021,0.092,0.052,0.134,0.095
			c0.043,0.042,0.088,0.096,0.135,0.159l6.282,8.066c-0.015-0.164-0.028-0.326-0.035-0.484c-0.008-0.158-0.011-0.306-0.011-0.443
			v-7.448h1.626v11.421h-0.944c-0.143,0-0.265-0.025-0.364-0.076c-0.101-0.05-0.196-0.132-0.286-0.249l-6.274-8.059
			c0.016,0.153,0.027,0.305,0.036,0.455c0.008,0.15,0.011,0.29,0.011,0.417v7.511h-1.634v-11.42h0.968
			C142.963,305.415,143.031,305.419,143.086,305.427z"/>
		<path fill="#6A7072" d="M162.483,305.415v1.499h-5.26v3.441h4.205v1.453h-4.205v3.528h5.267l-0.008,1.499h-7.122v-11.421H162.483z
			"/>
		<path fill="#6A7072" d="M173.626,305.415v1.547h-3.562v9.875h-1.849v-9.875h-3.569v-1.547H173.626L173.626,305.415z"/>
		<path fill="#6A7072" d="M175.308,305.415h1.555c0.159,0,0.292,0.039,0.401,0.115c0.107,0.076,0.181,0.181,0.218,0.312l2.141,7.321
			c0.042,0.159,0.082,0.328,0.115,0.512c0.034,0.183,0.07,0.373,0.106,0.575c0.043-0.202,0.087-0.396,0.132-0.58
			c0.045-0.185,0.094-0.354,0.146-0.507l2.451-7.321c0.037-0.104,0.111-0.204,0.222-0.294s0.243-0.134,0.396-0.134h0.54
			c0.164,0,0.295,0.041,0.396,0.122c0.101,0.082,0.178,0.184,0.231,0.306l2.442,7.321c0.053,0.152,0.102,0.318,0.144,0.495
			c0.042,0.178,0.084,0.366,0.125,0.567c0.038-0.196,0.073-0.384,0.107-0.563s0.073-0.347,0.115-0.5l2.133-7.32
			c0.034-0.116,0.104-0.217,0.219-0.302c0.114-0.084,0.248-0.126,0.4-0.126h1.451l-3.552,11.421h-1.674l-2.681-8.2
			c-0.033-0.091-0.062-0.188-0.091-0.295c-0.029-0.105-0.057-0.218-0.084-0.34c-0.027,0.122-0.055,0.235-0.087,0.34
			c-0.03,0.106-0.06,0.204-0.087,0.295l-2.704,8.2h-1.674L175.308,305.415z"/>
		<path fill="#6A7072" d="M204.82,311.127c0,0.845-0.138,1.624-0.412,2.338s-0.663,1.329-1.163,1.845
			c-0.499,0.515-1.1,0.918-1.8,1.209c-0.701,0.291-1.48,0.438-2.336,0.438c-0.851,0-1.627-0.147-2.328-0.438
			c-0.701-0.289-1.303-0.693-1.804-1.209c-0.503-0.516-0.892-1.131-1.166-1.845c-0.276-0.714-0.414-1.493-0.414-2.338
			c0-0.847,0.138-1.627,0.414-2.341c0.274-0.714,0.663-1.33,1.166-1.849c0.502-0.518,1.103-0.922,1.804-1.213
			c0.7-0.291,1.477-0.436,2.328-0.436c0.856,0,1.636,0.145,2.336,0.436c0.701,0.291,1.301,0.695,1.8,1.213
			c0.5,0.518,0.888,1.135,1.163,1.849C204.684,309.5,204.82,310.28,204.82,311.127z M202.925,311.127
			c0-0.656-0.089-1.246-0.264-1.77c-0.178-0.523-0.431-0.967-0.762-1.333c-0.33-0.364-0.731-0.645-1.202-0.84
			c-0.47-0.195-0.999-0.295-1.585-0.295c-0.582,0-1.108,0.1-1.579,0.295c-0.471,0.195-0.873,0.476-1.207,0.84
			c-0.332,0.366-0.589,0.811-0.769,1.333c-0.18,0.523-0.27,1.113-0.27,1.77c0,0.66,0.09,1.252,0.27,1.776
			c0.179,0.523,0.437,0.966,0.769,1.327c0.333,0.362,0.736,0.641,1.207,0.833c0.47,0.193,0.997,0.289,1.579,0.289
			c0.587,0,1.115-0.096,1.585-0.289c0.471-0.192,0.872-0.471,1.202-0.833c0.331-0.362,0.584-0.805,0.762-1.327
			C202.836,312.379,202.925,311.787,202.925,311.127z"/>
		<path fill="#6A7072" d="M209.977,312.236v4.6h-1.855v-11.421h3.362c0.75,0,1.397,0.077,1.938,0.23
			c0.542,0.153,0.987,0.371,1.337,0.654c0.35,0.282,0.607,0.622,0.773,1.019c0.167,0.396,0.251,0.839,0.251,1.325
			c0,0.397-0.06,0.766-0.179,1.111c-0.12,0.344-0.291,0.656-0.516,0.936c-0.224,0.281-0.502,0.523-0.833,0.729
			c-0.33,0.207-0.705,0.368-1.122,0.483c0.233,0.138,0.43,0.331,0.595,0.578l3.085,4.355h-1.658c-0.328,0-0.566-0.127-0.714-0.381
			l-2.665-3.847c-0.09-0.132-0.188-0.227-0.293-0.285s-0.265-0.087-0.477-0.087L209.977,312.236L209.977,312.236z M209.977,310.888
			h1.46c0.422,0,0.793-0.052,1.11-0.154c0.318-0.104,0.581-0.248,0.793-0.433c0.211-0.186,0.37-0.407,0.475-0.662
			c0.106-0.257,0.159-0.541,0.159-0.854c0-0.624-0.205-1.1-0.619-1.428c-0.412-0.328-1.037-0.491-1.871-0.491h-1.507v4.021H209.977z
			"/>
		<path fill="#6A7072" d="M221.319,310.301h0.531c0.201,0,0.364-0.028,0.491-0.083c0.127-0.057,0.241-0.145,0.342-0.267l3.457-4.124
			c0.124-0.154,0.248-0.261,0.378-0.321c0.129-0.061,0.292-0.091,0.488-0.091h1.586l-4.085,4.822
			c-0.111,0.139-0.218,0.252-0.322,0.346c-0.103,0.092-0.216,0.168-0.337,0.226c0.159,0.058,0.302,0.14,0.429,0.242
			c0.127,0.104,0.251,0.239,0.373,0.408l4.235,5.377h-1.617c-0.117,0-0.216-0.007-0.298-0.023c-0.082-0.017-0.153-0.038-0.215-0.071
			c-0.06-0.033-0.114-0.072-0.159-0.119c-0.045-0.048-0.086-0.102-0.123-0.159l-3.57-4.362c-0.052-0.068-0.104-0.127-0.158-0.174
			c-0.053-0.048-0.116-0.087-0.187-0.118c-0.072-0.032-0.151-0.056-0.242-0.069c-0.09-0.012-0.195-0.019-0.317-0.019h-0.682v5.115
			h-1.856v-11.421h1.856L221.319,310.301L221.319,310.301z"/>
		<path fill="#6A7072" d="M243.771,305.415v1.499h-5.257v3.656h4.466v1.499h-4.466v4.767h-1.864v-11.421H243.771z"/>
		<path fill="#6A7072" d="M257.518,311.127c0,0.845-0.138,1.624-0.412,2.338c-0.275,0.714-0.664,1.329-1.163,1.845
			c-0.5,0.515-1.099,0.918-1.8,1.209s-1.48,0.438-2.336,0.438c-0.852,0-1.627-0.147-2.329-0.438c-0.7-0.289-1.301-0.693-1.803-1.209
			c-0.503-0.516-0.893-1.131-1.167-1.845c-0.275-0.714-0.412-1.493-0.412-2.338c0-0.847,0.137-1.627,0.412-2.341
			c0.274-0.714,0.664-1.33,1.167-1.849c0.503-0.518,1.103-0.922,1.803-1.213c0.702-0.291,1.477-0.436,2.329-0.436
			c0.855,0,1.635,0.145,2.336,0.436s1.3,0.695,1.8,1.213c0.499,0.518,0.888,1.135,1.163,1.849
			C257.38,309.5,257.518,310.28,257.518,311.127z M255.622,311.127c0-0.656-0.089-1.246-0.266-1.77
			c-0.178-0.523-0.431-0.967-0.762-1.333c-0.33-0.364-0.729-0.645-1.2-0.84s-1.001-0.295-1.587-0.295
			c-0.582,0-1.108,0.1-1.578,0.295c-0.471,0.195-0.873,0.476-1.206,0.84c-0.333,0.366-0.591,0.811-0.771,1.333
			c-0.18,0.523-0.27,1.113-0.27,1.77c0,0.66,0.09,1.252,0.27,1.776c0.18,0.523,0.438,0.966,0.771,1.327
			c0.333,0.362,0.734,0.641,1.206,0.833c0.47,0.193,0.996,0.289,1.578,0.289c0.587,0,1.115-0.096,1.587-0.289
			c0.471-0.192,0.87-0.471,1.2-0.833c0.331-0.362,0.584-0.805,0.762-1.327C255.533,312.379,255.622,311.787,255.622,311.127z"/>
		<path fill="#6A7072" d="M262.674,312.236v4.6h-1.855v-11.421h3.361c0.752,0,1.397,0.077,1.939,0.23s0.986,0.371,1.337,0.654
			c0.35,0.282,0.606,0.622,0.774,1.019c0.166,0.396,0.249,0.839,0.249,1.325c0,0.397-0.06,0.766-0.179,1.111
			c-0.119,0.344-0.291,0.656-0.515,0.936c-0.225,0.281-0.503,0.523-0.832,0.729c-0.33,0.207-0.705,0.368-1.123,0.483
			c0.233,0.138,0.432,0.331,0.596,0.578l3.086,4.355h-1.659c-0.327,0-0.565-0.127-0.714-0.381l-2.664-3.847
			c-0.09-0.132-0.188-0.227-0.295-0.285c-0.104-0.059-0.263-0.087-0.476-0.087L262.674,312.236L262.674,312.236z M262.674,310.888
			h1.459c0.423,0,0.794-0.052,1.11-0.154c0.317-0.104,0.581-0.248,0.794-0.433c0.211-0.186,0.371-0.407,0.476-0.662
			c0.106-0.257,0.158-0.541,0.158-0.854c0-0.624-0.206-1.1-0.617-1.428c-0.413-0.328-1.037-0.491-1.873-0.491h-1.506
			L262.674,310.888L262.674,310.888z"/>
	</g>
	<g>
		<path fill="#6A7072" d="M289.243,316.837h-1.434c-0.164,0-0.296-0.042-0.396-0.123c-0.102-0.082-0.177-0.185-0.23-0.307
			l-0.952-2.522h-4.917l-0.951,2.522c-0.043,0.106-0.117,0.204-0.223,0.294s-0.238,0.135-0.397,0.135h-1.435l4.528-11.421h1.88
			L289.243,316.837z M281.812,312.554h3.917l-1.569-4.172c-0.064-0.153-0.128-0.336-0.193-0.548
			c-0.066-0.212-0.133-0.439-0.195-0.683c-0.063,0.249-0.129,0.478-0.194,0.686c-0.065,0.21-0.128,0.394-0.186,0.553
			L281.812,312.554z"/>
		<path fill="#6A7072" d="M293.702,315.282h4.743v1.554h-6.6v-11.421h1.856V315.282z"/>
		<path fill="#6A7072" d="M310.864,316.837h-1.435c-0.164,0-0.296-0.042-0.396-0.123c-0.103-0.082-0.178-0.185-0.23-0.307
			l-0.953-2.522h-4.916l-0.952,2.522c-0.043,0.106-0.116,0.204-0.222,0.294s-0.238,0.135-0.396,0.135h-1.436l4.529-11.421h1.879
			L310.864,316.837z M303.434,312.554h3.919l-1.571-4.172c-0.063-0.153-0.128-0.336-0.193-0.548
			c-0.066-0.212-0.132-0.439-0.195-0.683c-0.063,0.249-0.128,0.478-0.193,0.686c-0.065,0.21-0.129,0.394-0.186,0.553
			L303.434,312.554z"/>
		<path fill="#6A7072" d="M319.44,307.366c-0.06,0.095-0.12,0.165-0.184,0.21c-0.064,0.045-0.143,0.068-0.238,0.068
			c-0.1,0-0.213-0.044-0.337-0.128s-0.276-0.18-0.459-0.282c-0.184-0.102-0.398-0.198-0.647-0.285
			c-0.248-0.087-0.545-0.13-0.888-0.13c-0.318,0-0.597,0.038-0.837,0.118s-0.442,0.19-0.605,0.334
			c-0.164,0.143-0.288,0.311-0.369,0.503c-0.083,0.193-0.123,0.403-0.123,0.63c0,0.292,0.076,0.533,0.229,0.728
			c0.154,0.192,0.355,0.357,0.606,0.494c0.252,0.138,0.538,0.258,0.86,0.361c0.323,0.103,0.652,0.214,0.987,0.328
			c0.335,0.116,0.665,0.25,0.987,0.397c0.322,0.148,0.608,0.335,0.86,0.562c0.252,0.227,0.454,0.505,0.607,0.833
			s0.229,0.727,0.229,1.196c0,0.509-0.086,0.984-0.261,1.429c-0.174,0.443-0.428,0.831-0.758,1.161
			c-0.331,0.33-0.737,0.591-1.221,0.781c-0.484,0.191-1.036,0.286-1.654,0.286c-0.365,0-0.721-0.035-1.067-0.106
			c-0.346-0.072-0.677-0.172-0.992-0.302c-0.313-0.129-0.607-0.287-0.883-0.473c-0.275-0.185-0.521-0.391-0.738-0.618l0.539-0.889
			c0.049-0.074,0.108-0.132,0.183-0.174c0.074-0.043,0.154-0.063,0.245-0.063c0.122,0,0.258,0.057,0.405,0.17
			c0.147,0.114,0.326,0.238,0.535,0.373c0.209,0.136,0.46,0.26,0.757,0.373c0.296,0.113,0.65,0.171,1.063,0.171
			c0.672,0,1.19-0.165,1.56-0.492c0.367-0.327,0.551-0.779,0.551-1.356c0-0.323-0.078-0.586-0.231-0.788
			c-0.152-0.204-0.355-0.375-0.605-0.513c-0.251-0.137-0.538-0.253-0.861-0.35c-0.322-0.094-0.65-0.195-0.983-0.305
			c-0.334-0.108-0.661-0.234-0.983-0.381c-0.323-0.146-0.61-0.336-0.86-0.572c-0.252-0.233-0.453-0.524-0.607-0.871
			c-0.154-0.348-0.229-0.779-0.229-1.298c0-0.412,0.079-0.811,0.241-1.196c0.161-0.387,0.396-0.729,0.707-1.028
			c0.309-0.298,0.689-0.536,1.146-0.717c0.454-0.181,0.972-0.271,1.554-0.271c0.657,0,1.258,0.103,1.804,0.31
			c0.549,0.206,1.02,0.499,1.418,0.879L319.44,307.366z"/>
		<path fill="#6A7072" d="M325.246,310.301h0.531c0.2,0,0.364-0.028,0.491-0.083c0.126-0.057,0.24-0.146,0.342-0.267l3.458-4.123
			c0.122-0.153,0.247-0.261,0.377-0.322c0.129-0.06,0.291-0.09,0.487-0.09h1.586l-4.085,4.821c-0.11,0.139-0.217,0.252-0.321,0.346
			c-0.102,0.092-0.215,0.167-0.337,0.226c0.159,0.058,0.303,0.139,0.429,0.241c0.126,0.104,0.251,0.239,0.374,0.408l4.234,5.378
			h-1.618c-0.116,0-0.216-0.009-0.297-0.023c-0.083-0.017-0.153-0.039-0.215-0.071c-0.061-0.033-0.113-0.073-0.159-0.119
			c-0.045-0.048-0.086-0.103-0.123-0.16l-3.568-4.361c-0.055-0.069-0.106-0.127-0.159-0.176c-0.054-0.047-0.116-0.086-0.188-0.117
			c-0.07-0.032-0.15-0.055-0.241-0.068c-0.09-0.013-0.195-0.02-0.316-0.02h-0.683v5.116h-1.856v-11.421h1.856L325.246,310.301
			L325.246,310.301z"/>
		<path fill="#6A7072" d="M344.915,316.837h-1.435c-0.165,0-0.297-0.042-0.398-0.123c-0.1-0.082-0.178-0.185-0.229-0.307
			l-0.952-2.522h-4.917l-0.952,2.522c-0.042,0.106-0.117,0.204-0.222,0.294s-0.237,0.135-0.396,0.135h-1.436l4.529-11.421h1.879
			L344.915,316.837z M337.483,312.554h3.918l-1.57-4.172c-0.063-0.153-0.129-0.336-0.194-0.548c-0.066-0.212-0.13-0.439-0.194-0.683
			c-0.063,0.249-0.128,0.478-0.194,0.686c-0.065,0.21-0.128,0.394-0.186,0.553L337.483,312.554z"/>
		<path fill="#6A7072" d="M356.138,307.557v3.314h3.149v1.284h-3.149v3.323h-1.388v-3.323h-3.134v-1.284h3.134v-3.314H356.138z"/>
		<path fill="#6A7072" d="M376.919,316.837h-1.436c-0.164,0-0.296-0.042-0.396-0.123c-0.101-0.082-0.177-0.185-0.229-0.307
			l-0.953-2.522h-4.918l-0.952,2.522c-0.041,0.106-0.114,0.204-0.221,0.294c-0.105,0.09-0.237,0.135-0.396,0.135h-1.436
			l4.529-11.421h1.879L376.919,316.837z M369.486,312.554h3.918l-1.57-4.172c-0.063-0.153-0.128-0.336-0.193-0.548
			c-0.067-0.212-0.131-0.439-0.195-0.683c-0.063,0.249-0.127,0.478-0.194,0.686c-0.065,0.21-0.127,0.394-0.186,0.553
			L369.486,312.554z"/>
		<path fill="#6A7072" d="M381.376,312.235v4.602h-1.855v-11.422h3.361c0.752,0,1.398,0.076,1.94,0.229
			c0.541,0.155,0.986,0.373,1.336,0.656c0.351,0.282,0.606,0.622,0.774,1.019c0.165,0.396,0.249,0.838,0.249,1.324
			c0,0.397-0.06,0.767-0.178,1.111c-0.12,0.344-0.291,0.655-0.516,0.935c-0.226,0.282-0.503,0.525-0.832,0.73
			c-0.33,0.207-0.705,0.368-1.123,0.484c0.232,0.138,0.431,0.33,0.595,0.578l3.086,4.355h-1.658c-0.327,0-0.566-0.127-0.713-0.382
			l-2.665-3.847c-0.09-0.132-0.188-0.227-0.295-0.284c-0.105-0.059-0.264-0.088-0.475-0.088L381.376,312.235L381.376,312.235z
			 M381.376,310.888h1.459c0.423,0,0.794-0.052,1.11-0.153c0.317-0.104,0.582-0.249,0.794-0.434c0.212-0.186,0.37-0.406,0.476-0.662
			c0.106-0.258,0.158-0.541,0.158-0.853c0-0.624-0.206-1.1-0.617-1.429c-0.414-0.327-1.037-0.49-1.873-0.49h-1.506L381.376,310.888
			L381.376,310.888L381.376,310.888z"/>
		<path fill="#6A7072" d="M398.635,314.29c0.101,0,0.188,0.04,0.262,0.118l0.737,0.802c-0.465,0.562-1.037,0.992-1.714,1.297
			s-1.485,0.456-2.425,0.456c-0.836,0-1.591-0.144-2.267-0.431c-0.673-0.289-1.248-0.691-1.725-1.207
			c-0.477-0.515-0.843-1.13-1.098-1.844c-0.257-0.715-0.384-1.499-0.384-2.355c0-0.857,0.135-1.645,0.406-2.361
			c0.273-0.716,0.657-1.331,1.15-1.849c0.494-0.514,1.087-0.916,1.777-1.2c0.69-0.286,1.45-0.428,2.279-0.428
			c0.825,0,1.555,0.133,2.186,0.398c0.632,0.268,1.182,0.623,1.646,1.067l-0.61,0.864c-0.043,0.059-0.093,0.109-0.15,0.15
			c-0.058,0.042-0.138,0.063-0.238,0.063c-0.104,0-0.227-0.05-0.362-0.146c-0.134-0.099-0.306-0.207-0.514-0.327
			c-0.21-0.118-0.472-0.226-0.784-0.324c-0.315-0.099-0.708-0.147-1.179-0.147c-0.545,0-1.044,0.095-1.499,0.285
			c-0.454,0.191-0.847,0.468-1.174,0.833c-0.328,0.364-0.584,0.809-0.765,1.333c-0.184,0.522-0.274,1.117-0.274,1.784
			c0,0.671,0.097,1.271,0.286,1.796c0.189,0.526,0.452,0.971,0.784,1.333c0.333,0.361,0.725,0.638,1.174,0.828
			s0.934,0.284,1.451,0.284c0.317,0,0.602-0.016,0.852-0.051c0.253-0.034,0.483-0.09,0.695-0.166c0.212-0.078,0.41-0.173,0.599-0.29
			s0.374-0.261,0.559-0.429C398.424,314.338,398.53,314.29,398.635,314.29z"/>
		<path fill="#6A7072" d="M410.373,305.415v1.547h-3.562v9.875h-1.848v-9.875h-3.569v-1.547H410.373z"/>
		<path fill="#6A7072" d="M415.093,316.837h-1.863v-11.422h1.863V316.837z"/>
		<path fill="#6A7072" d="M427.006,314.29c0.102,0,0.188,0.04,0.262,0.118l0.737,0.802c-0.466,0.562-1.036,0.992-1.713,1.297
			c-0.678,0.305-1.486,0.456-2.427,0.456c-0.836,0-1.591-0.144-2.266-0.431c-0.674-0.289-1.249-0.691-1.726-1.207
			c-0.476-0.515-0.841-1.13-1.099-1.844c-0.256-0.715-0.383-1.499-0.383-2.355c0-0.857,0.137-1.645,0.408-2.361
			c0.271-0.716,0.655-1.331,1.148-1.849c0.496-0.514,1.087-0.916,1.778-1.2c0.69-0.286,1.449-0.428,2.279-0.428
			c0.825,0,1.554,0.133,2.186,0.398c0.632,0.268,1.181,0.623,1.646,1.067l-0.611,0.864c-0.042,0.059-0.093,0.109-0.15,0.15
			c-0.058,0.042-0.137,0.063-0.238,0.063c-0.104,0-0.225-0.05-0.36-0.146c-0.135-0.099-0.306-0.207-0.515-0.327
			c-0.21-0.118-0.472-0.226-0.785-0.324c-0.315-0.099-0.708-0.147-1.178-0.147c-0.545,0-1.044,0.095-1.499,0.285
			c-0.456,0.191-0.848,0.468-1.174,0.833c-0.329,0.364-0.583,0.809-0.766,1.333c-0.183,0.522-0.274,1.117-0.274,1.784
			c0,0.671,0.096,1.271,0.286,1.796c0.19,0.526,0.452,0.971,0.784,1.333c0.333,0.361,0.726,0.638,1.175,0.828
			s0.934,0.284,1.45,0.284c0.318,0,0.603-0.016,0.854-0.051c0.252-0.034,0.481-0.09,0.693-0.166c0.212-0.078,0.412-0.173,0.6-0.29
			s0.374-0.261,0.558-0.429C426.795,314.338,426.899,314.29,427.006,314.29z"/>
		<path fill="#6A7072" d="M437.958,312.704v4.133h-1.855v-11.422h3.553c0.744,0,1.393,0.087,1.939,0.262
			c0.546,0.173,0.999,0.42,1.355,0.732c0.356,0.315,0.623,0.693,0.797,1.135c0.174,0.442,0.262,0.931,0.262,1.464
			c0,0.544-0.092,1.043-0.278,1.495c-0.185,0.452-0.459,0.84-0.823,1.166c-0.366,0.325-0.819,0.577-1.361,0.762
			c-0.542,0.182-1.172,0.272-1.892,0.272L437.958,312.704L437.958,312.704z M437.958,311.237h1.697c0.412,0,0.776-0.053,1.09-0.16
			c0.315-0.104,0.577-0.254,0.787-0.447c0.208-0.193,0.365-0.427,0.471-0.701c0.105-0.276,0.159-0.582,0.159-0.921
			c0-0.333-0.052-0.632-0.154-0.896c-0.104-0.264-0.258-0.489-0.464-0.674c-0.208-0.185-0.468-0.326-0.782-0.424
			c-0.315-0.1-0.684-0.147-1.107-0.147h-1.696V311.237L437.958,311.237z"/>
		<path fill="#6A7072" d="M448.913,315.282h4.741v1.554h-6.598v-11.421h1.856V315.282L448.913,315.282z"/>
		<path fill="#6A7072" d="M466.076,316.837h-1.437c-0.163,0-0.296-0.042-0.396-0.123c-0.101-0.082-0.177-0.185-0.229-0.307
			l-0.953-2.522h-4.917l-0.951,2.522c-0.042,0.106-0.116,0.204-0.221,0.294c-0.106,0.09-0.238,0.135-0.397,0.135h-1.436
			l4.529-11.421h1.879L466.076,316.837z M458.645,312.554h3.918l-1.571-4.172c-0.063-0.153-0.128-0.336-0.194-0.548
			c-0.065-0.212-0.13-0.439-0.193-0.683c-0.064,0.249-0.129,0.478-0.195,0.686c-0.065,0.21-0.127,0.394-0.186,0.553L458.645,312.554
			z"/>
		<path fill="#6A7072" d="M469.846,305.427c0.057,0.008,0.106,0.022,0.156,0.044c0.046,0.021,0.091,0.052,0.134,0.095
			c0.043,0.042,0.086,0.095,0.135,0.159l6.282,8.065c-0.018-0.163-0.028-0.325-0.035-0.484c-0.01-0.158-0.013-0.306-0.013-0.442
			v-7.448h1.626v11.421h-0.943c-0.142,0-0.265-0.025-0.365-0.076c-0.101-0.049-0.195-0.132-0.286-0.25l-6.274-8.058
			c0.017,0.152,0.028,0.305,0.037,0.455s0.012,0.29,0.012,0.417v7.512h-1.634v-11.421h0.968
			C469.723,305.415,469.791,305.419,469.846,305.427z"/>
		<path fill="#6A7072" d="M483.291,305.427c0.056,0.008,0.106,0.022,0.155,0.044c0.046,0.021,0.092,0.052,0.134,0.095
			c0.043,0.042,0.088,0.095,0.136,0.159l6.281,8.065c-0.015-0.163-0.027-0.325-0.035-0.484c-0.008-0.158-0.012-0.306-0.012-0.442
			v-7.448h1.625v11.421h-0.943c-0.143,0-0.266-0.025-0.365-0.076c-0.101-0.049-0.194-0.132-0.284-0.25l-6.274-8.058
			c0.015,0.152,0.028,0.305,0.035,0.455c0.009,0.15,0.012,0.29,0.012,0.417v7.512h-1.634v-11.421h0.967
			C483.168,305.415,483.235,305.419,483.291,305.427z"/>
		<path fill="#6A7072" d="M497.428,316.837h-1.863v-11.422h1.863V316.837z"/>
		<path fill="#6A7072" d="M502.579,305.427c0.057,0.008,0.107,0.022,0.156,0.044c0.047,0.021,0.092,0.052,0.135,0.095
			c0.042,0.042,0.087,0.095,0.134,0.159l6.282,8.065c-0.016-0.163-0.027-0.325-0.036-0.484c-0.007-0.158-0.011-0.306-0.011-0.442
			v-7.448h1.626v11.421h-0.943c-0.144,0-0.265-0.025-0.364-0.076c-0.102-0.049-0.197-0.132-0.286-0.25l-6.274-8.058
			c0.017,0.152,0.027,0.305,0.036,0.455s0.012,0.29,0.012,0.417v7.512h-1.634v-11.421h0.967
			C502.457,305.415,502.524,305.419,502.579,305.427z"/>
		<path fill="#6A7072" d="M520.238,316.963c-0.925,0-1.762-0.145-2.51-0.431c-0.749-0.29-1.387-0.692-1.916-1.207
			c-0.529-0.516-0.936-1.131-1.221-1.845c-0.286-0.714-0.43-1.499-0.43-2.355c0-0.861,0.139-1.651,0.413-2.368
			c0.275-0.716,0.669-1.333,1.182-1.849s1.132-0.915,1.856-1.197c0.725-0.283,1.538-0.425,2.442-0.425
			c0.461,0,0.888,0.036,1.282,0.107c0.393,0.071,0.758,0.171,1.098,0.297c0.337,0.127,0.648,0.281,0.935,0.462
			c0.287,0.179,0.55,0.379,0.786,0.602l-0.531,0.849c-0.085,0.132-0.193,0.215-0.326,0.247c-0.132,0.031-0.275,0-0.428-0.097
			c-0.154-0.089-0.315-0.185-0.488-0.284c-0.172-0.101-0.369-0.195-0.591-0.282c-0.221-0.089-0.479-0.158-0.77-0.215
			c-0.291-0.056-0.634-0.083-1.03-0.083c-0.604,0-1.146,0.1-1.63,0.298c-0.485,0.197-0.899,0.481-1.243,0.849
			s-0.607,0.812-0.793,1.337c-0.185,0.523-0.276,1.107-0.276,1.753c0,0.683,0.097,1.291,0.293,1.827
			c0.194,0.537,0.474,0.992,0.831,1.364c0.36,0.374,0.795,0.658,1.306,0.854s1.08,0.293,1.708,0.293c0.472,0,0.891-0.051,1.259-0.15
			c0.368-0.101,0.729-0.241,1.082-0.421v-2.268h-1.595c-0.121,0-0.216-0.033-0.285-0.099c-0.068-0.065-0.103-0.152-0.103-0.259
			v-1.055h3.655v4.522C523.067,316.554,521.745,316.963,520.238,316.963z"/>
	</g>
</g>
<g>
	<g>
		<path fill="#96A73A" d="M40.465,98.096c-0.819,0-1.653-0.192-2.43-0.602c-2.572-1.344-3.56-4.518-2.214-7.087l13.75-26.246
			c0.854-1.629,2.496-2.692,4.333-2.805c1.797-0.108,3.59,0.742,4.638,2.254l5.4,7.812l9.627-24.469
			c0.724-1.844,2.428-3.124,4.404-3.307c1.973-0.186,3.878,0.761,4.932,2.441l11.088,17.705l7.886-8.2
			c2.005-2.088,5.33-2.158,7.425-0.146c2.088,2.008,2.157,5.332,0.149,7.426L96.905,75.922c-1.125,1.168-2.717,1.754-4.329,1.585
			c-1.608-0.166-3.053-1.064-3.909-2.437l-9.135-14.583l-9.418,23.945c-0.708,1.804-2.358,3.069-4.286,3.292
			c-1.921,0.219-3.819-0.633-4.918-2.229l-6.063-8.77L45.124,95.28C44.186,97.07,42.356,98.096,40.465,98.096L40.465,98.096z"/>
		<g>
			<path fill="#6A7072" d="M91.203,111.688c0,7.764-6.29,14.062-14.055,14.062c-7.767,0-14.06-6.299-14.06-14.062
				c0-7.761,6.293-14.057,14.06-14.057C84.913,97.631,91.203,103.924,91.203,111.688z"/>
			<path fill="#6A7072" d="M74.95,149.08c-20.654,0-37.46-16.803-37.46-37.457c0-2.9,2.353-5.253,5.255-5.253
				c2.898,0,5.251,2.349,5.251,5.253c0,14.86,12.091,26.955,26.955,26.955c14.639,0,24.622-6.15,29.665-18.265
				c3.824-9.178,0.444-23.894-2.365-28.881c-1.423-2.528-0.528-5.727,1.999-7.154c2.532-1.423,5.73-0.526,7.152,2.002
				c4.408,7.827,7.982,25.889,2.909,38.07C107.673,140.3,93.695,149.08,74.95,149.08L74.95,149.08z"/>
		</g>
	</g>
	<g>
		<path fill="#6A7072" d="M198.117,85.199c-0.349,0.611-0.721,1.057-1.114,1.333s-0.883,0.413-1.465,0.413
			c-0.61,0-1.274-0.223-1.987-0.676c-0.715-0.453-1.569-0.958-2.558-1.509c-0.991-0.554-2.15-1.057-3.478-1.51
			c-1.326-0.449-2.893-0.676-4.697-0.676c-1.632,0-3.061,0.194-4.286,0.588c-1.222,0.394-2.252,0.94-3.082,1.641
			c-0.83,0.697-1.448,1.535-1.856,2.512c-0.409,0.976-0.61,2.047-0.61,3.213c0,1.488,0.413,2.726,1.243,3.716
			c0.832,0.988,1.93,1.837,3.301,2.534c1.37,0.699,2.928,1.326,4.677,1.879c1.748,0.554,3.54,1.143,5.375,1.769
			c1.837,0.629,3.626,1.355,5.375,2.187c1.749,0.829,3.307,1.878,4.676,3.146c1.371,1.266,2.472,2.818,3.3,4.654
			c0.83,1.837,1.245,4.065,1.245,6.689c0,2.854-0.487,5.527-1.465,8.021c-0.976,2.49-2.402,4.661-4.284,6.513
			c-1.878,1.851-4.173,3.307-6.883,4.37c-2.712,1.063-5.813,1.593-9.312,1.593c-2.009,0-3.991-0.191-5.942-0.586
			c-1.954-0.396-3.824-0.956-5.618-1.683c-1.792-0.729-3.476-1.603-5.05-2.624c-1.57-1.021-2.971-2.156-4.194-3.41l3.452-5.642
			c0.291-0.406,0.672-0.747,1.138-1.026c0.464-0.274,0.96-0.415,1.484-0.415c0.729,0,1.515,0.299,2.361,0.894
			c0.845,0.601,1.85,1.265,3.016,1.991c1.164,0.729,2.528,1.395,4.085,1.987c1.562,0.601,3.433,0.898,5.619,0.898
			c3.348,0,5.943-0.794,7.778-2.383c1.836-1.59,2.755-3.871,2.755-6.845c0-1.661-0.415-3.016-1.246-4.062
			c-0.832-1.05-1.93-1.934-3.299-2.647c-1.37-0.713-2.928-1.32-4.677-1.813c-1.748-0.495-3.525-1.033-5.332-1.617
			c-1.806-0.582-3.583-1.283-5.33-2.099c-1.748-0.814-3.307-1.88-4.678-3.192c-1.371-1.31-2.469-2.951-3.299-4.917
			c-0.831-1.966-1.248-4.393-1.248-7.277c0-2.302,0.459-4.546,1.377-6.73c0.917-2.187,2.252-4.126,4-5.815
			c1.749-1.689,3.902-3.044,6.468-4.065c2.564-1.017,5.511-1.531,8.829-1.531c3.731,0,7.169,0.584,10.315,1.75
			c3.148,1.165,5.828,2.796,8.046,4.896L198.117,85.199z"/>
		<path fill="#6A7072" d="M219.233,73.769c0.364,0.047,0.683,0.133,0.959,0.263c0.278,0.133,0.547,0.323,0.809,0.568
			c0.263,0.248,0.554,0.577,0.876,0.984l33.129,42.311c-0.086-1.021-0.16-2.026-0.216-3.015c-0.058-0.99-0.088-1.909-0.088-2.754
			V73.703h10.36v63.208h-6.031c-0.931,0-1.711-0.154-2.34-0.46c-0.625-0.306-1.229-0.823-1.812-1.553l-33.002-42.095
			c0.087,0.935,0.153,1.858,0.198,2.776c0.041,0.918,0.064,1.756,0.064,2.514v38.813h-10.358V73.703h6.162
			C218.437,73.703,218.866,73.724,219.233,73.769z"/>
		<path fill="#6A7072" d="M333.982,136.91h-9.09c-1.022,0-1.849-0.255-2.492-0.766c-0.64-0.511-1.119-1.143-1.441-1.901
			l-4.719-12.896h-26.184l-4.72,12.896c-0.231,0.669-0.685,1.283-1.354,1.837c-0.672,0.553-1.501,0.83-2.491,0.83h-9.18
			l24.872-63.206h11.978L333.982,136.91z M293.072,113.041h20.15l-7.695-21.024c-0.379-0.931-0.772-2.032-1.181-3.299
			c-0.408-1.269-0.817-2.647-1.222-4.133c-0.408,1.488-0.811,2.872-1.204,4.155c-0.392,1.283-0.778,2.405-1.157,3.364
			L293.072,113.041z"/>
		<path fill="#6A7072" d="M352.297,114.658v22.252h-11.759V73.703h20.545c4.223,0,7.882,0.498,10.971,1.486
			c3.088,0.992,5.638,2.375,7.648,4.151c2.012,1.779,3.503,3.907,4.48,6.383c0.978,2.476,1.463,5.185,1.463,8.126
			c0,3.062-0.511,5.866-1.529,8.417c-1.019,2.548-2.548,4.74-4.592,6.575c-2.038,1.837-4.595,3.266-7.668,4.284
			c-3.077,1.022-6.667,1.529-10.773,1.529h-8.786V114.658z M352.297,105.48h8.786c2.152,0,4.032-0.27,5.638-0.809
			c1.603-0.539,2.937-1.312,3.998-2.314c1.065-1.006,1.86-2.232,2.385-3.673c0.523-1.441,0.787-3.051,0.787-4.831
			c0-1.689-0.264-3.22-0.787-4.59c-0.524-1.369-1.312-2.538-2.359-3.497c-1.05-0.963-2.376-1.696-3.979-2.207
			c-1.604-0.51-3.497-0.766-5.681-0.766h-8.786L352.297,105.48L352.297,105.48z"/>
	</g>
</g>
<g>
	<path fill="#6A7072" d="M626.663-87.976c-0.064,0.105-0.134,0.186-0.205,0.234c-0.07,0.051-0.159,0.076-0.269,0.076
		c-0.113,0-0.24-0.047-0.38-0.143c-0.141-0.096-0.312-0.201-0.519-0.318c-0.206-0.115-0.447-0.223-0.728-0.32
		c-0.281-0.098-0.615-0.148-1.001-0.148c-0.358,0-0.672,0.045-0.943,0.135c-0.271,0.09-0.499,0.215-0.684,0.375
		c-0.186,0.162-0.324,0.35-0.416,0.568c-0.092,0.217-0.138,0.455-0.138,0.711c0,0.328,0.086,0.6,0.259,0.816
		c0.173,0.219,0.399,0.404,0.684,0.561c0.284,0.154,0.606,0.289,0.972,0.404c0.362,0.117,0.732,0.24,1.111,0.371
		c0.378,0.133,0.749,0.281,1.113,0.449c0.362,0.166,0.686,0.377,0.969,0.633s0.511,0.57,0.685,0.939
		c0.173,0.369,0.26,0.82,0.26,1.35c0,0.572-0.099,1.107-0.295,1.609c-0.196,0.5-0.481,0.936-0.854,1.309
		c-0.371,0.373-0.831,0.666-1.376,0.881c-0.546,0.215-1.167,0.32-1.864,0.32c-0.409,0-0.812-0.039-1.2-0.119
		c-0.392-0.082-0.765-0.193-1.117-0.34c-0.354-0.146-0.688-0.324-0.997-0.531c-0.311-0.209-0.587-0.441-0.831-0.697l0.607-1
		c0.054-0.084,0.122-0.148,0.204-0.197c0.084-0.047,0.177-0.072,0.277-0.072c0.138,0,0.289,0.064,0.456,0.193
		c0.166,0.127,0.368,0.268,0.604,0.42s0.52,0.291,0.854,0.42c0.334,0.127,0.733,0.191,1.198,0.191c0.757,0,1.342-0.186,1.756-0.555
		s0.621-0.879,0.621-1.527c0-0.363-0.086-0.66-0.259-0.891c-0.173-0.229-0.401-0.42-0.686-0.576
		c-0.283-0.154-0.604-0.285-0.969-0.393s-0.733-0.223-1.108-0.344c-0.375-0.123-0.744-0.266-1.107-0.43s-0.688-0.379-0.97-0.645
		c-0.283-0.264-0.512-0.592-0.685-0.982c-0.174-0.391-0.26-0.877-0.26-1.461c0-0.465,0.092-0.916,0.272-1.35
		c0.183-0.436,0.446-0.82,0.796-1.158c0.348-0.336,0.778-0.605,1.291-0.809s1.097-0.305,1.752-0.305
		c0.738,0,1.417,0.115,2.033,0.348s1.148,0.562,1.596,0.992L626.663-87.976z"/>
	<path fill="#6A7072" d="M640.052-80.175c0.112,0,0.21,0.045,0.294,0.133l0.832,0.904c-0.524,0.631-1.168,1.119-1.932,1.461
		c-0.762,0.342-1.674,0.514-2.733,0.514c-0.941,0-1.792-0.162-2.553-0.488c-0.76-0.324-1.406-0.775-1.943-1.357
		c-0.536-0.582-0.948-1.275-1.237-2.078c-0.289-0.805-0.433-1.689-0.433-2.654s0.152-1.852,0.46-2.658
		c0.307-0.809,0.737-1.502,1.295-2.084c0.558-0.58,1.225-1.031,2.002-1.354c0.778-0.322,1.635-0.482,2.57-0.482
		c0.929,0,1.75,0.15,2.462,0.451s1.33,0.701,1.854,1.201l-0.688,0.975c-0.048,0.064-0.104,0.123-0.17,0.168
		c-0.065,0.051-0.154,0.072-0.269,0.072c-0.119,0-0.255-0.055-0.407-0.166c-0.15-0.109-0.345-0.23-0.58-0.365
		c-0.234-0.135-0.53-0.256-0.885-0.367c-0.354-0.109-0.797-0.166-1.327-0.166c-0.613,0-1.177,0.107-1.688,0.322
		s-0.953,0.527-1.322,0.938c-0.37,0.412-0.658,0.912-0.862,1.502c-0.206,0.588-0.309,1.26-0.309,2.012
		c0,0.756,0.106,1.432,0.321,2.023s0.51,1.094,0.885,1.502s0.815,0.719,1.323,0.934c0.506,0.215,1.051,0.322,1.635,0.322
		c0.356,0,0.679-0.02,0.961-0.059c0.283-0.039,0.543-0.102,0.782-0.188c0.237-0.086,0.463-0.195,0.675-0.326
		c0.211-0.131,0.421-0.293,0.629-0.48C639.812-80.123,639.932-80.175,640.052-80.175z"/>
	<path fill="#6A7072" d="M652.447-90.177v1.689h-5.926v3.879h4.736v1.637h-4.736v3.977h5.935l-0.01,1.689h-8.023v-12.871H652.447z"
		/>
	<path fill="#6A7072" d="M657.465-90.164c0.062,0.01,0.12,0.025,0.175,0.049c0.053,0.025,0.104,0.061,0.15,0.107
		c0.049,0.049,0.1,0.107,0.152,0.18l7.078,9.088c-0.018-0.184-0.031-0.365-0.04-0.545c-0.009-0.178-0.013-0.344-0.013-0.5v-8.393
		h1.832v12.871h-1.064c-0.16,0-0.298-0.029-0.41-0.086c-0.113-0.057-0.222-0.15-0.322-0.281l-7.068-9.082
		c0.018,0.174,0.031,0.344,0.04,0.514s0.013,0.328,0.013,0.471v8.463h-1.841v-12.869h1.091
		C657.326-90.177,657.402-90.171,657.465-90.164z"/>
	<path fill="#6A7072" d="M682.064-77.306h-1.617c-0.185,0-0.333-0.045-0.446-0.139s-0.199-0.207-0.26-0.344l-1.072-2.844h-5.541
		l-1.072,2.844c-0.047,0.119-0.131,0.229-0.249,0.33c-0.119,0.102-0.27,0.152-0.448,0.152h-1.617l5.104-12.871h2.118L682.064-77.306
		z M673.691-82.132h4.414l-1.771-4.701c-0.07-0.172-0.145-0.379-0.219-0.617c-0.075-0.236-0.146-0.494-0.22-0.768
		c-0.071,0.281-0.144,0.537-0.219,0.771c-0.075,0.236-0.146,0.443-0.21,0.623L673.691-82.132z"/>
	<path fill="#6A7072" d="M687.088-82.49v5.184h-2.093v-12.869h3.789c0.847,0,1.574,0.086,2.187,0.26
		c0.609,0.172,1.111,0.418,1.506,0.736c0.394,0.318,0.684,0.701,0.872,1.148c0.188,0.445,0.281,0.945,0.281,1.492
		c0,0.447-0.067,0.863-0.201,1.252c-0.134,0.387-0.327,0.738-0.58,1.053c-0.253,0.316-0.566,0.592-0.938,0.822
		c-0.372,0.232-0.794,0.414-1.265,0.545c0.263,0.156,0.485,0.373,0.67,0.652l3.479,4.908h-1.868c-0.369,0-0.639-0.145-0.806-0.43
		l-3.003-4.336c-0.102-0.148-0.211-0.256-0.331-0.32c-0.117-0.064-0.298-0.1-0.535-0.1h-1.163V-82.49z M687.088-84.009h1.645
		c0.478,0,0.894-0.059,1.251-0.174c0.357-0.117,0.655-0.279,0.895-0.488c0.238-0.209,0.416-0.457,0.536-0.746
		c0.119-0.289,0.18-0.611,0.18-0.961c0-0.703-0.232-1.24-0.697-1.609s-1.168-0.555-2.109-0.555h-1.696L687.088-84.009
		L687.088-84.009z"/>
	<path fill="#6A7072" d="M699.876-77.306h-2.1v-12.871h2.1V-77.306z"/>
	<path fill="#6A7072" d="M716.455-83.742c0,0.953-0.153,1.832-0.464,2.637s-0.747,1.496-1.31,2.078
		c-0.562,0.58-1.239,1.035-2.028,1.361c-0.791,0.328-1.668,0.492-2.633,0.492c-0.959,0-1.833-0.164-2.623-0.492
		c-0.789-0.326-1.468-0.781-2.033-1.361c-0.565-0.582-1.004-1.273-1.313-2.078c-0.311-0.805-0.466-1.684-0.466-2.637
		s0.155-1.832,0.466-2.637c0.31-0.803,0.748-1.498,1.313-2.082s1.244-1.039,2.033-1.367c0.79-0.328,1.664-0.492,2.623-0.492
		c0.965,0,1.843,0.164,2.633,0.492c0.789,0.328,1.465,0.783,2.028,1.367c0.562,0.584,0.999,1.279,1.31,2.082
		C716.301-85.574,716.455-84.695,716.455-83.742z M714.319-83.742c0-0.738-0.1-1.402-0.299-1.994c-0.2-0.59-0.486-1.09-0.857-1.5
		c-0.373-0.41-0.823-0.727-1.354-0.947c-0.531-0.221-1.127-0.332-1.788-0.332c-0.655,0-1.249,0.111-1.778,0.332
		c-0.531,0.221-0.981,0.537-1.357,0.947c-0.376,0.412-0.664,0.912-0.867,1.5c-0.203,0.592-0.304,1.256-0.304,1.994
		c0,0.744,0.101,1.412,0.304,2.002c0.202,0.59,0.491,1.088,0.867,1.496c0.375,0.408,0.827,0.723,1.357,0.939
		c0.529,0.217,1.123,0.326,1.778,0.326c0.662,0,1.257-0.107,1.788-0.326c0.53-0.217,0.979-0.531,1.354-0.939
		c0.371-0.408,0.657-0.906,0.857-1.496C714.22-82.33,714.319-82.998,714.319-83.742z"/>
	<path fill="#6A7072" d="M726.903-87.976c-0.064,0.105-0.134,0.186-0.205,0.234c-0.07,0.051-0.161,0.076-0.269,0.076
		c-0.112,0-0.239-0.047-0.38-0.143s-0.312-0.201-0.519-0.318c-0.206-0.115-0.448-0.223-0.729-0.32c-0.279-0.098-0.613-0.148-1-0.148
		c-0.358,0-0.673,0.045-0.943,0.135s-0.499,0.215-0.684,0.375c-0.186,0.162-0.324,0.35-0.416,0.568
		c-0.094,0.217-0.14,0.455-0.14,0.711c0,0.328,0.087,0.6,0.261,0.816c0.173,0.219,0.4,0.404,0.684,0.561
		c0.283,0.154,0.606,0.289,0.97,0.404c0.363,0.117,0.734,0.24,1.113,0.371c0.378,0.133,0.748,0.281,1.112,0.449
		c0.362,0.166,0.687,0.377,0.97,0.633s0.511,0.57,0.684,0.939c0.174,0.369,0.261,0.82,0.261,1.35c0,0.572-0.099,1.107-0.296,1.609
		c-0.195,0.5-0.48,0.936-0.854,1.309c-0.373,0.371-0.831,0.666-1.377,0.881c-0.545,0.215-1.167,0.32-1.863,0.32
		c-0.411,0-0.812-0.039-1.202-0.119c-0.391-0.082-0.764-0.193-1.116-0.34c-0.354-0.146-0.688-0.324-0.997-0.531
		c-0.311-0.209-0.587-0.441-0.831-0.697l0.606-1c0.055-0.084,0.122-0.148,0.205-0.197c0.084-0.047,0.176-0.072,0.277-0.072
		c0.138,0,0.289,0.064,0.456,0.193c0.167,0.127,0.368,0.268,0.603,0.42c0.235,0.152,0.521,0.291,0.854,0.42
		c0.334,0.127,0.732,0.191,1.197,0.191c0.757,0,1.342-0.186,1.757-0.555c0.414-0.369,0.62-0.879,0.62-1.527
		c0-0.363-0.087-0.66-0.26-0.891c-0.172-0.229-0.399-0.42-0.684-0.576c-0.283-0.154-0.606-0.285-0.969-0.393
		c-0.365-0.107-0.733-0.223-1.108-0.344c-0.376-0.123-0.745-0.266-1.109-0.43c-0.361-0.164-0.686-0.379-0.969-0.645
		c-0.283-0.264-0.511-0.592-0.684-0.982s-0.261-0.877-0.261-1.461c0-0.465,0.093-0.916,0.272-1.35
		c0.182-0.436,0.447-0.82,0.795-1.158c0.349-0.336,0.779-0.605,1.293-0.809c0.512-0.203,1.096-0.305,1.751-0.305
		c0.739,0,1.417,0.115,2.033,0.348c0.617,0.232,1.148,0.562,1.596,0.992L726.903-87.976z"/>
	<path fill="#6A7072" d="M738.552-90.164c0.062,0.01,0.121,0.025,0.175,0.049c0.053,0.025,0.104,0.061,0.151,0.107
		c0.049,0.049,0.1,0.107,0.151,0.18l7.078,9.088c-0.018-0.184-0.03-0.365-0.04-0.545c-0.009-0.178-0.013-0.344-0.013-0.5v-8.393
		h1.832v12.871h-1.063c-0.161,0-0.299-0.029-0.411-0.086s-0.221-0.15-0.321-0.281l-7.069-9.082c0.018,0.174,0.031,0.344,0.04,0.514
		c0.01,0.17,0.014,0.328,0.014,0.471v8.463h-1.842v-12.869h1.091C738.414-90.177,738.49-90.171,738.552-90.164z"/>
	<path fill="#6A7072" d="M760.408-90.177v1.689h-5.925v3.879h4.735v1.637h-4.735v3.977h5.934l-0.009,1.689h-8.024v-12.871H760.408z"
		/>
	<path fill="#6A7072" d="M772.965-90.177v1.744h-4.015v11.127h-2.082v-11.127h-4.021v-1.744H772.965z"/>
	<path fill="#6A7072" d="M774.859-90.177h1.753c0.18,0,0.328,0.045,0.451,0.131c0.122,0.086,0.204,0.203,0.245,0.352l2.413,8.25
		c0.048,0.18,0.092,0.371,0.13,0.576s0.079,0.422,0.12,0.648c0.048-0.227,0.098-0.443,0.146-0.652
		c0.052-0.207,0.106-0.398,0.166-0.572l2.763-8.248c0.041-0.119,0.125-0.23,0.25-0.332s0.273-0.152,0.446-0.152h0.607
		c0.185,0,0.333,0.047,0.446,0.139s0.199,0.209,0.26,0.344l2.753,8.25c0.059,0.174,0.112,0.359,0.16,0.559
		c0.047,0.199,0.096,0.412,0.143,0.639c0.043-0.221,0.082-0.432,0.12-0.635c0.039-0.203,0.083-0.391,0.13-0.562l2.404-8.25
		c0.036-0.131,0.117-0.242,0.246-0.34c0.128-0.094,0.277-0.143,0.451-0.143h1.636l-4.004,12.871h-1.887l-3.021-9.24
		c-0.035-0.104-0.07-0.211-0.104-0.332c-0.031-0.119-0.063-0.246-0.095-0.383c-0.028,0.137-0.062,0.264-0.098,0.383
		c-0.035,0.119-0.068,0.229-0.099,0.332l-3.048,9.24h-1.883L774.859-90.177z"/>
	<path fill="#6A7072" d="M808.114-83.742c0,0.953-0.153,1.832-0.464,2.637c-0.31,0.805-0.747,1.496-1.31,2.078
		c-0.562,0.58-1.239,1.035-2.028,1.361c-0.79,0.328-1.667,0.492-2.633,0.492c-0.959,0-1.834-0.164-2.623-0.492
		c-0.789-0.326-1.467-0.781-2.033-1.361c-0.565-0.582-1.005-1.273-1.313-2.078c-0.311-0.805-0.466-1.684-0.466-2.637
		s0.155-1.832,0.466-2.637c0.31-0.803,0.747-1.498,1.313-2.082c0.565-0.584,1.244-1.039,2.033-1.367s1.664-0.492,2.623-0.492
		c0.966,0,1.843,0.164,2.633,0.492c0.789,0.328,1.466,0.783,2.028,1.367c0.562,0.584,1,1.279,1.31,2.082
		C807.96-85.574,808.114-84.695,808.114-83.742z M805.979-83.742c0-0.738-0.101-1.402-0.299-1.994c-0.2-0.59-0.486-1.09-0.858-1.5
		s-0.823-0.727-1.354-0.947s-1.126-0.332-1.787-0.332c-0.655,0-1.249,0.111-1.779,0.332s-0.981,0.537-1.357,0.947
		c-0.375,0.412-0.664,0.912-0.866,1.5c-0.203,0.592-0.305,1.256-0.305,1.994c0,0.744,0.102,1.412,0.305,2.002
		c0.202,0.59,0.491,1.088,0.866,1.496s0.827,0.723,1.357,0.939s1.124,0.326,1.779,0.326c0.662,0,1.257-0.107,1.787-0.326
		c0.53-0.217,0.98-0.531,1.354-0.939c0.372-0.408,0.658-0.906,0.858-1.496C805.879-82.33,805.979-82.998,805.979-83.742z"/>
	<path fill="#6A7072" d="M813.925-82.49v5.184h-2.092v-12.869h3.789c0.847,0,1.574,0.086,2.187,0.26
		c0.61,0.172,1.112,0.418,1.506,0.736s0.684,0.701,0.871,1.148c0.188,0.445,0.282,0.945,0.282,1.492
		c0,0.447-0.067,0.863-0.201,1.252c-0.134,0.387-0.328,0.738-0.581,1.053c-0.253,0.316-0.566,0.592-0.938,0.822
		c-0.373,0.232-0.795,0.414-1.266,0.545c0.263,0.156,0.485,0.373,0.671,0.652l3.478,4.908h-1.868c-0.368,0-0.639-0.145-0.806-0.43
		l-3.002-4.336c-0.102-0.148-0.212-0.256-0.331-0.32c-0.118-0.064-0.298-0.1-0.536-0.1h-1.162V-82.49z M813.925-84.009h1.645
		c0.478,0,0.896-0.059,1.252-0.174c0.357-0.117,0.655-0.279,0.895-0.488c0.237-0.209,0.417-0.457,0.536-0.746
		c0.118-0.289,0.179-0.611,0.179-0.961c0-0.703-0.231-1.24-0.696-1.609s-1.169-0.555-2.108-0.555h-1.698L813.925-84.009
		L813.925-84.009z"/>
	<path fill="#6A7072" d="M826.705-84.669h0.6c0.227,0,0.411-0.033,0.555-0.094c0.144-0.064,0.271-0.162,0.385-0.299l3.896-4.648
		c0.137-0.172,0.278-0.293,0.425-0.361s0.328-0.104,0.55-0.104h1.787l-4.604,5.434c-0.125,0.156-0.246,0.285-0.362,0.391
		c-0.116,0.104-0.242,0.189-0.379,0.254c0.179,0.064,0.34,0.156,0.481,0.273c0.144,0.115,0.282,0.27,0.42,0.459l4.772,6.061h-1.822
		c-0.132,0-0.243-0.008-0.336-0.027c-0.093-0.018-0.173-0.043-0.241-0.08c-0.067-0.037-0.129-0.08-0.179-0.133
		c-0.052-0.055-0.098-0.115-0.139-0.18l-4.022-4.916c-0.059-0.078-0.118-0.143-0.178-0.195c-0.062-0.055-0.13-0.1-0.21-0.135
		c-0.081-0.035-0.172-0.062-0.273-0.076s-0.221-0.021-0.356-0.021h-0.77v5.764h-2.092v-12.873h2.092V-84.669L826.705-84.669z"/>
	<path fill="#6A7072" d="M852.007-90.177v1.689h-5.927v4.121h5.032v1.688h-5.032v5.371h-2.1v-12.869H852.007z"/>
	<path fill="#6A7072" d="M867.494-83.742c0,0.953-0.154,1.832-0.465,2.637c-0.31,0.805-0.746,1.496-1.309,2.078
		c-0.563,0.58-1.239,1.035-2.029,1.361c-0.79,0.328-1.667,0.492-2.632,0.492c-0.959,0-1.834-0.164-2.623-0.492
		c-0.79-0.326-1.468-0.781-2.033-1.361c-0.565-0.582-1.005-1.273-1.313-2.078c-0.311-0.805-0.466-1.684-0.466-2.637
		s0.155-1.832,0.466-2.637c0.31-0.803,0.747-1.498,1.313-2.082c0.565-0.584,1.243-1.039,2.033-1.367
		c0.789-0.328,1.663-0.492,2.623-0.492c0.965,0,1.843,0.164,2.632,0.492c0.79,0.328,1.465,0.783,2.029,1.367
		c0.562,0.584,0.999,1.279,1.309,2.082C867.339-85.574,867.494-84.695,867.494-83.742z M865.358-83.742
		c0-0.738-0.1-1.402-0.299-1.994c-0.2-0.59-0.486-1.09-0.858-1.5c-0.373-0.41-0.822-0.727-1.354-0.947s-1.127-0.332-1.788-0.332
		c-0.655,0-1.248,0.111-1.779,0.332c-0.53,0.221-0.981,0.537-1.357,0.947c-0.375,0.412-0.664,0.912-0.867,1.5
		c-0.202,0.592-0.305,1.256-0.305,1.994c0,0.744,0.103,1.412,0.305,2.002c0.203,0.59,0.492,1.088,0.867,1.496
		s0.828,0.723,1.357,0.939c0.531,0.217,1.124,0.326,1.779,0.326c0.661,0,1.257-0.107,1.788-0.326
		c0.53-0.217,0.979-0.531,1.354-0.939c0.372-0.408,0.658-0.906,0.858-1.496C865.259-82.33,865.358-82.998,865.358-83.742z"/>
	<path fill="#6A7072" d="M873.305-82.49v5.184h-2.092v-12.869h3.789c0.846,0,1.573,0.086,2.185,0.26
		c0.611,0.172,1.112,0.418,1.507,0.736c0.394,0.318,0.685,0.701,0.872,1.148c0.188,0.445,0.281,0.945,0.281,1.492
		c0,0.447-0.067,0.863-0.201,1.252c-0.135,0.387-0.328,0.738-0.581,1.053c-0.253,0.316-0.564,0.592-0.938,0.822
		c-0.373,0.232-0.794,0.414-1.266,0.545c0.264,0.156,0.485,0.373,0.67,0.652l3.478,4.908h-1.868c-0.368,0-0.638-0.145-0.804-0.43
		l-3.003-4.336c-0.103-0.148-0.212-0.256-0.331-0.32s-0.299-0.1-0.537-0.1h-1.161V-82.49z M873.305-84.009h1.644
		c0.478,0,0.896-0.059,1.251-0.174c0.357-0.117,0.655-0.279,0.896-0.488c0.237-0.209,0.417-0.457,0.536-0.746
		c0.118-0.289,0.18-0.611,0.18-0.961c0-0.703-0.232-1.24-0.697-1.609s-1.169-0.555-2.108-0.555h-1.697L873.305-84.009
		L873.305-84.009z"/>
	<path fill="#6A7072" d="M615.331-55.856h-1.616c-0.186,0-0.334-0.047-0.447-0.139c-0.113-0.094-0.199-0.207-0.259-0.346
		l-1.073-2.842h-5.541l-1.072,2.842c-0.048,0.119-0.131,0.23-0.25,0.33c-0.119,0.102-0.268,0.152-0.447,0.152h-1.616l5.103-12.87
		h2.118L615.331-55.856z M606.957-60.682h4.414l-1.768-4.702c-0.072-0.172-0.146-0.377-0.22-0.617
		c-0.074-0.238-0.148-0.494-0.22-0.768c-0.071,0.279-0.145,0.537-0.219,0.771c-0.074,0.236-0.145,0.443-0.21,0.621L606.957-60.682z"
		/>
	<path fill="#6A7072" d="M620.354-57.608h5.344v1.752h-7.436v-12.87h2.092V-57.608z"/>
	<path fill="#6A7072" d="M639.693-55.856h-1.617c-0.185,0-0.333-0.047-0.446-0.139c-0.113-0.094-0.199-0.207-0.26-0.346
		l-1.072-2.842h-5.541l-1.072,2.842c-0.047,0.119-0.131,0.23-0.249,0.33c-0.12,0.104-0.27,0.152-0.448,0.152h-1.616l5.104-12.87
		h2.118L639.693-55.856z M631.319-60.682h4.415l-1.769-4.702c-0.072-0.172-0.146-0.377-0.221-0.617
		c-0.073-0.238-0.146-0.494-0.22-0.768c-0.071,0.279-0.145,0.537-0.219,0.771c-0.074,0.236-0.146,0.443-0.21,0.621L631.319-60.682z"
		/>
	<path fill="#6A7072" d="M649.354-66.527c-0.066,0.105-0.134,0.186-0.205,0.236c-0.072,0.051-0.161,0.076-0.269,0.076
		c-0.113,0-0.24-0.049-0.38-0.145c-0.141-0.096-0.312-0.201-0.519-0.316c-0.206-0.117-0.448-0.225-0.729-0.322
		s-0.614-0.146-1.001-0.146c-0.357,0-0.672,0.045-0.942,0.135c-0.271,0.09-0.499,0.215-0.685,0.375
		c-0.185,0.16-0.323,0.35-0.416,0.566c-0.093,0.219-0.139,0.455-0.139,0.711c0,0.328,0.086,0.602,0.259,0.818
		c0.176,0.217,0.401,0.402,0.686,0.559c0.283,0.154,0.605,0.289,0.97,0.406c0.363,0.115,0.734,0.238,1.113,0.369
		c0.378,0.133,0.748,0.281,1.111,0.449c0.364,0.165,0.687,0.378,0.971,0.634c0.283,0.258,0.511,0.568,0.685,0.938
		c0.172,0.369,0.259,0.82,0.259,1.35c0,0.572-0.099,1.109-0.295,1.609c-0.197,0.5-0.479,0.938-0.854,1.309
		c-0.372,0.373-0.831,0.666-1.376,0.881c-0.546,0.215-1.167,0.32-1.864,0.32c-0.41,0-0.812-0.039-1.202-0.119
		s-0.763-0.193-1.117-0.34c-0.354-0.146-0.686-0.322-0.996-0.531c-0.31-0.209-0.587-0.441-0.831-0.697l0.606-1
		c0.055-0.084,0.122-0.148,0.206-0.197c0.083-0.047,0.176-0.072,0.277-0.072c0.137,0,0.289,0.064,0.456,0.193
		c0.166,0.127,0.366,0.27,0.603,0.42c0.235,0.152,0.521,0.291,0.854,0.42c0.334,0.127,0.732,0.193,1.196,0.193
		c0.758,0,1.342-0.188,1.758-0.555c0.413-0.369,0.62-0.881,0.62-1.529c0-0.363-0.087-0.66-0.259-0.889
		c-0.173-0.23-0.4-0.422-0.685-0.576c-0.284-0.156-0.605-0.287-0.97-0.395c-0.363-0.107-0.732-0.223-1.108-0.344
		c-0.375-0.123-0.744-0.266-1.107-0.43s-0.687-0.379-0.97-0.646c-0.283-0.264-0.512-0.592-0.685-0.982
		c-0.173-0.389-0.259-0.877-0.259-1.461c0-0.465,0.091-0.914,0.271-1.35c0.182-0.436,0.447-0.82,0.795-1.158
		c0.349-0.336,0.779-0.605,1.293-0.809c0.512-0.201,1.096-0.305,1.751-0.305c0.738,0,1.417,0.115,2.033,0.348
		c0.617,0.232,1.147,0.564,1.596,0.992L649.354-66.527z"/>
	<path fill="#6A7072" d="M655.897-63.22h0.599c0.228,0,0.411-0.033,0.555-0.096s0.271-0.162,0.385-0.299l3.896-4.646
		c0.139-0.174,0.278-0.293,0.426-0.363c0.146-0.068,0.328-0.102,0.55-0.102h1.788l-4.604,5.434
		c-0.125,0.156-0.246,0.285-0.361,0.389c-0.116,0.104-0.242,0.189-0.381,0.254c0.18,0.067,0.341,0.157,0.482,0.274
		c0.143,0.115,0.283,0.27,0.42,0.459l4.773,6.061h-1.823c-0.131,0-0.243-0.01-0.335-0.027c-0.093-0.018-0.173-0.045-0.242-0.08
		c-0.068-0.035-0.128-0.08-0.179-0.135c-0.052-0.053-0.098-0.111-0.139-0.18l-4.021-4.914c-0.061-0.078-0.119-0.143-0.178-0.197
		c-0.062-0.053-0.131-0.098-0.211-0.133c-0.08-0.037-0.172-0.062-0.272-0.076s-0.221-0.021-0.356-0.021h-0.77v5.764h-2.092v-12.87
		h2.092V-63.22L655.897-63.22z"/>
	<path fill="#6A7072" d="M678.061-55.856h-1.617c-0.184,0-0.334-0.047-0.446-0.139c-0.112-0.094-0.199-0.207-0.26-0.346
		l-1.072-2.842h-5.541l-1.072,2.842c-0.047,0.119-0.131,0.23-0.249,0.33c-0.119,0.104-0.27,0.152-0.447,0.152h-1.618l5.104-12.87
		h2.117L678.061-55.856z M669.688-60.682h4.414l-1.771-4.702c-0.07-0.172-0.145-0.377-0.219-0.617
		c-0.074-0.238-0.146-0.494-0.22-0.768c-0.071,0.279-0.146,0.537-0.219,0.771c-0.074,0.236-0.146,0.443-0.21,0.621L669.688-60.682z"
		/>
	<path fill="#6A7072" d="M690.707-66.314v3.735h3.55v1.447h-3.55v3.744h-1.563v-3.744h-3.529v-1.447h3.529v-3.735H690.707z"/>
	<path fill="#6A7072" d="M714.123-55.856h-1.616c-0.186,0-0.334-0.047-0.447-0.139c-0.113-0.094-0.2-0.207-0.259-0.346l-1.073-2.842
		h-5.541l-1.072,2.842c-0.048,0.119-0.132,0.23-0.25,0.33c-0.119,0.104-0.269,0.152-0.447,0.152h-1.616l5.104-12.87h2.117
		L714.123-55.856z M705.749-60.682h4.414l-1.77-4.702c-0.071-0.172-0.146-0.377-0.219-0.617c-0.074-0.238-0.147-0.494-0.221-0.768
		c-0.071,0.279-0.145,0.537-0.219,0.771c-0.074,0.236-0.145,0.443-0.21,0.621L705.749-60.682z"/>
	<path fill="#6A7072" d="M719.146-61.04v5.184h-2.092v-12.87h3.789c0.846,0,1.574,0.088,2.186,0.26
		c0.611,0.174,1.112,0.418,1.506,0.738c0.395,0.316,0.685,0.699,0.872,1.146c0.188,0.447,0.281,0.945,0.281,1.492
		c0,0.447-0.067,0.865-0.201,1.252c-0.135,0.387-0.327,0.738-0.58,1.055c-0.254,0.315-0.565,0.591-0.938,0.823
		c-0.372,0.23-0.794,0.412-1.266,0.545c0.263,0.154,0.485,0.373,0.67,0.65l3.478,4.908h-1.868c-0.368,0-0.638-0.145-0.804-0.43
		l-3.003-4.334c-0.103-0.15-0.212-0.256-0.331-0.322c-0.119-0.064-0.298-0.098-0.536-0.098H719.146L719.146-61.04z M719.146-62.559
		h1.645c0.477,0,0.895-0.059,1.251-0.175c0.357-0.115,0.655-0.279,0.895-0.486c0.238-0.209,0.417-0.459,0.536-0.746
		c0.12-0.291,0.179-0.611,0.179-0.961c0-0.703-0.231-1.24-0.696-1.609s-1.168-0.555-2.108-0.555h-1.697L719.146-62.559
		L719.146-62.559z"/>
	<path fill="#6A7072" d="M738.593-58.725c0.112,0,0.212,0.045,0.295,0.133l0.831,0.902c-0.523,0.633-1.168,1.119-1.932,1.461
		c-0.763,0.344-1.674,0.516-2.732,0.516c-0.941,0-1.792-0.162-2.554-0.486c-0.76-0.326-1.406-0.777-1.942-1.359
		c-0.537-0.58-0.949-1.271-1.238-2.076c-0.288-0.807-0.433-1.689-0.433-2.654c0-0.968,0.152-1.854,0.46-2.661
		c0.307-0.807,0.739-1.5,1.296-2.082c0.558-0.58,1.225-1.033,2.002-1.354c0.777-0.322,1.634-0.482,2.569-0.482
		c0.929,0,1.75,0.15,2.462,0.451s1.331,0.701,1.854,1.203l-0.688,0.973c-0.047,0.066-0.104,0.123-0.169,0.17
		c-0.066,0.049-0.155,0.072-0.27,0.072c-0.118,0-0.254-0.057-0.405-0.166c-0.152-0.109-0.347-0.23-0.581-0.367
		c-0.235-0.133-0.53-0.256-0.886-0.365c-0.354-0.109-0.797-0.166-1.327-0.166c-0.613,0-1.176,0.107-1.688,0.32
		c-0.514,0.217-0.954,0.527-1.323,0.939c-0.37,0.41-0.658,0.912-0.861,1.502c-0.205,0.588-0.31,1.26-0.31,2.013
		c0,0.756,0.107,1.432,0.322,2.021c0.215,0.594,0.51,1.094,0.885,1.502s0.816,0.719,1.322,0.936c0.506,0.213,1.052,0.32,1.636,0.32
		c0.357,0,0.678-0.02,0.96-0.059c0.283-0.039,0.544-0.102,0.782-0.188c0.239-0.086,0.463-0.193,0.675-0.326
		c0.212-0.131,0.422-0.291,0.63-0.482C738.355-58.672,738.474-58.725,738.593-58.725z"/>
	<path fill="#6A7072" d="M751.819-68.726v1.742h-4.013v11.128h-2.082v-11.128h-4.021v-1.742H751.819L751.819-68.726z"/>
	<path fill="#6A7072" d="M757.138-55.856h-2.102v-12.87h2.102V-55.856z"/>
	<path fill="#6A7072" d="M770.561-58.725c0.114,0,0.212,0.045,0.296,0.133l0.831,0.902c-0.524,0.633-1.168,1.119-1.931,1.461
		c-0.764,0.344-1.675,0.516-2.733,0.516c-0.94,0-1.793-0.162-2.553-0.486c-0.76-0.326-1.407-0.777-1.944-1.359
		c-0.536-0.58-0.948-1.271-1.236-2.076c-0.289-0.807-0.434-1.689-0.434-2.654c0-0.968,0.153-1.854,0.459-2.661
		c0.309-0.807,0.74-1.5,1.296-2.082c0.559-0.58,1.226-1.033,2.002-1.354c0.778-0.322,1.636-0.482,2.57-0.482
		c0.929,0,1.75,0.15,2.462,0.451c0.711,0.301,1.33,0.701,1.854,1.203l-0.688,0.973c-0.048,0.066-0.104,0.123-0.17,0.17
		c-0.065,0.049-0.155,0.072-0.268,0.072c-0.119,0-0.256-0.057-0.407-0.166s-0.347-0.23-0.58-0.367
		c-0.236-0.133-0.531-0.256-0.885-0.365c-0.354-0.109-0.798-0.166-1.327-0.166c-0.614,0-1.178,0.107-1.689,0.32
		c-0.513,0.217-0.954,0.527-1.322,0.939c-0.369,0.41-0.657,0.912-0.861,1.502c-0.206,0.588-0.311,1.26-0.311,2.013
		c0,0.756,0.108,1.432,0.322,2.021c0.215,0.594,0.51,1.094,0.885,1.502s0.816,0.719,1.322,0.936c0.507,0.213,1.053,0.32,1.636,0.32
		c0.358,0,0.679-0.02,0.961-0.059c0.283-0.039,0.543-0.102,0.782-0.188c0.238-0.086,0.463-0.193,0.675-0.326
		c0.212-0.131,0.422-0.291,0.63-0.482C770.322-58.672,770.441-58.725,770.561-58.725z"/>
	<path fill="#6A7072" d="M782.902-60.514v4.658h-2.091v-12.87h4.004c0.84,0,1.568,0.098,2.186,0.295
		c0.616,0.195,1.125,0.473,1.527,0.826s0.701,0.779,0.898,1.277c0.195,0.498,0.295,1.047,0.295,1.648
		c0,0.613-0.104,1.176-0.312,1.686c-0.209,0.511-0.519,0.946-0.93,1.313s-0.922,0.652-1.533,0.857
		c-0.609,0.207-1.321,0.309-2.131,0.309H782.902L782.902-60.514z M782.902-62.165h1.913c0.464,0,0.874-0.061,1.229-0.182
		c0.354-0.119,0.649-0.286,0.886-0.505c0.235-0.219,0.413-0.48,0.531-0.791c0.119-0.311,0.18-0.654,0.18-1.037
		c0-0.375-0.058-0.711-0.174-1.01s-0.291-0.551-0.523-0.76c-0.231-0.209-0.524-0.367-0.88-0.479
		c-0.355-0.109-0.771-0.166-1.247-0.166h-1.912L782.902-62.165L782.902-62.165z"/>
	<path fill="#6A7072" d="M795.245-57.608h5.345v1.752h-7.436v-12.87h2.091V-57.608z"/>
	<path fill="#6A7072" d="M814.585-55.856h-1.617c-0.186,0-0.334-0.047-0.447-0.139c-0.113-0.094-0.2-0.207-0.259-0.346l-1.073-2.842
		h-5.541l-1.072,2.842c-0.048,0.119-0.131,0.23-0.249,0.33c-0.12,0.104-0.269,0.152-0.448,0.152h-1.616l5.104-12.87h2.117
		L814.585-55.856z M806.212-60.682h4.414l-1.77-4.702c-0.072-0.172-0.146-0.377-0.22-0.617c-0.074-0.238-0.147-0.494-0.22-0.768
		c-0.071,0.279-0.146,0.537-0.22,0.771c-0.073,0.236-0.145,0.443-0.21,0.621L806.212-60.682z"/>
	<path fill="#6A7072" d="M818.835-68.712c0.062,0.008,0.119,0.023,0.176,0.049c0.053,0.023,0.103,0.061,0.149,0.107
		c0.05,0.047,0.1,0.105,0.153,0.178l7.078,9.091c-0.02-0.186-0.032-0.367-0.041-0.545c-0.009-0.18-0.013-0.348-0.013-0.5v-8.394
		h1.831v12.87h-1.062c-0.161,0-0.298-0.029-0.411-0.086c-0.114-0.055-0.221-0.15-0.322-0.281l-7.069-9.081
		c0.019,0.174,0.031,0.344,0.041,0.514s0.014,0.326,0.014,0.469v8.466h-1.841v-12.87h1.09
		C818.695-68.726,818.771-68.722,818.835-68.712z"/>
	<path fill="#6A7072" d="M833.983-68.712c0.062,0.008,0.12,0.023,0.175,0.049c0.054,0.023,0.104,0.061,0.152,0.107
		s0.098,0.105,0.151,0.178l7.077,9.091c-0.018-0.186-0.03-0.367-0.04-0.545c-0.009-0.18-0.013-0.348-0.013-0.5v-8.394h1.831v12.87
		h-1.062c-0.161,0-0.3-0.029-0.412-0.086c-0.113-0.055-0.221-0.15-0.321-0.281l-7.07-9.081c0.019,0.174,0.032,0.344,0.041,0.514
		c0.011,0.17,0.015,0.326,0.015,0.469v8.466h-1.843v-12.87h1.092C833.846-68.726,833.921-68.722,833.983-68.712z"/>
	<path fill="#6A7072" d="M849.913-55.856h-2.1v-12.87h2.1V-55.856z"/>
	<path fill="#6A7072" d="M855.718-68.712c0.062,0.008,0.121,0.023,0.176,0.049c0.053,0.023,0.104,0.061,0.151,0.107
		s0.099,0.105,0.151,0.178l7.078,9.091c-0.018-0.186-0.031-0.367-0.04-0.545c-0.009-0.18-0.013-0.348-0.013-0.5v-8.394h1.831v12.87
		h-1.063c-0.16,0-0.298-0.029-0.41-0.086c-0.113-0.055-0.221-0.15-0.321-0.281l-7.07-9.081c0.019,0.174,0.031,0.344,0.041,0.514
		c0.009,0.17,0.013,0.326,0.013,0.469v8.466H854.4v-12.87h1.091C855.58-68.726,855.656-68.722,855.718-68.712z"/>
	<path fill="#6A7072" d="M875.616-55.713c-1.043,0-1.985-0.162-2.829-0.486c-0.843-0.326-1.562-0.777-2.157-1.359
		c-0.597-0.58-1.056-1.271-1.376-2.076c-0.322-0.807-0.483-1.689-0.483-2.654c0-0.972,0.155-1.862,0.465-2.669
		c0.311-0.807,0.754-1.502,1.332-2.084c0.578-0.58,1.274-1.029,2.091-1.35c0.817-0.318,1.734-0.479,2.753-0.479
		c0.52,0,1,0.041,1.443,0.121c0.444,0.08,0.856,0.191,1.237,0.334c0.382,0.145,0.731,0.316,1.055,0.521
		c0.322,0.201,0.617,0.428,0.885,0.678l-0.599,0.957c-0.096,0.148-0.218,0.242-0.367,0.277c-0.148,0.033-0.309,0-0.48-0.107
		c-0.175-0.102-0.356-0.209-0.552-0.322c-0.192-0.111-0.415-0.219-0.665-0.316s-0.539-0.18-0.867-0.24
		c-0.327-0.062-0.715-0.096-1.161-0.096c-0.681,0-1.291,0.111-1.837,0.336c-0.545,0.223-1.013,0.543-1.398,0.957
		c-0.388,0.412-0.686,0.916-0.894,1.506c-0.209,0.59-0.313,1.248-0.313,1.976c0,0.77,0.11,1.457,0.331,2.061
		c0.221,0.605,0.533,1.117,0.938,1.537c0.404,0.42,0.896,0.74,1.471,0.961s1.217,0.33,1.926,0.33c0.53,0,1.003-0.057,1.417-0.17
		s0.82-0.271,1.22-0.473v-2.559h-1.797c-0.137,0-0.244-0.037-0.32-0.113c-0.077-0.072-0.116-0.17-0.116-0.289v-1.188h4.12v5.094
		C878.804-56.176,877.314-55.713,875.616-55.713z"/>
</g>
<g>
	<path fill="#6A7072" d="M424.731,49.123c-0.066,0.108-0.136,0.188-0.207,0.239c-0.072,0.051-0.162,0.076-0.271,0.076
		c-0.114,0-0.241-0.048-0.383-0.144c-0.141-0.096-0.314-0.202-0.521-0.319s-0.451-0.225-0.733-0.324
		c-0.282-0.099-0.618-0.149-1.008-0.149c-0.36,0-0.677,0.045-0.95,0.135c-0.272,0.09-0.502,0.216-0.688,0.378
		c-0.186,0.162-0.325,0.353-0.418,0.571c-0.094,0.219-0.14,0.458-0.14,0.716c0,0.33,0.087,0.604,0.261,0.823
		c0.174,0.219,0.403,0.407,0.688,0.562c0.285,0.156,0.61,0.292,0.977,0.41s0.739,0.242,1.121,0.374
		c0.381,0.132,0.754,0.282,1.12,0.45c0.366,0.168,0.691,0.381,0.977,0.639c0.285,0.258,0.515,0.573,0.688,0.945
		s0.261,0.825,0.261,1.359c0,0.576-0.099,1.116-0.297,1.62c-0.198,0.504-0.484,0.943-0.859,1.318s-0.837,0.67-1.386,0.886
		c-0.55,0.216-1.175,0.324-1.877,0.324c-0.414,0-0.817-0.041-1.21-0.122c-0.394-0.081-0.769-0.195-1.125-0.342
		c-0.357-0.147-0.692-0.326-1.004-0.536c-0.312-0.21-0.591-0.444-0.837-0.702l0.612-1.008c0.054-0.084,0.122-0.15,0.207-0.198
		c0.084-0.048,0.177-0.072,0.278-0.072c0.138,0,0.291,0.064,0.459,0.193c0.168,0.129,0.371,0.27,0.607,0.423
		c0.237,0.153,0.523,0.294,0.859,0.423s0.738,0.193,1.206,0.193c0.763,0,1.352-0.186,1.769-0.558
		c0.417-0.372,0.626-0.885,0.626-1.539c0-0.366-0.087-0.664-0.261-0.896c-0.175-0.23-0.404-0.424-0.688-0.58
		c-0.285-0.156-0.611-0.288-0.977-0.396c-0.366-0.108-0.738-0.224-1.116-0.347s-0.75-0.267-1.116-0.432s-0.691-0.381-0.977-0.648
		s-0.515-0.597-0.688-0.99s-0.261-0.884-0.261-1.472c0-0.468,0.091-0.921,0.274-1.359c0.183-0.438,0.45-0.827,0.801-1.166
		c0.352-0.339,0.784-0.61,1.301-0.814c0.516-0.204,1.104-0.306,1.764-0.306c0.744,0,1.427,0.117,2.048,0.351
		s1.156,0.567,1.606,0.999L424.731,49.123z"/>
	<path fill="#6A7072" d="M438.213,56.98c0.114,0,0.213,0.045,0.297,0.135l0.837,0.909c-0.528,0.636-1.176,1.127-1.944,1.472
		c-0.768,0.345-1.686,0.518-2.754,0.518c-0.947,0-1.804-0.164-2.569-0.491c-0.765-0.327-1.417-0.783-1.957-1.368
		s-0.956-1.283-1.247-2.093s-0.437-1.701-0.437-2.673s0.154-1.864,0.464-2.678c0.309-0.812,0.744-1.512,1.305-2.097
		c0.562-0.585,1.233-1.04,2.017-1.364c0.782-0.324,1.646-0.486,2.587-0.486c0.937,0,1.763,0.151,2.479,0.455
		c0.717,0.303,1.34,0.707,1.868,1.21l-0.693,0.981c-0.048,0.066-0.105,0.123-0.171,0.171c-0.066,0.048-0.156,0.072-0.271,0.072
		c-0.12,0-0.256-0.056-0.409-0.167c-0.153-0.111-0.348-0.234-0.585-0.369c-0.237-0.135-0.534-0.258-0.891-0.369
		c-0.357-0.111-0.803-0.167-1.337-0.167c-0.618,0-1.185,0.108-1.701,0.324c-0.516,0.216-0.96,0.531-1.332,0.945
		s-0.661,0.918-0.868,1.512c-0.207,0.594-0.311,1.269-0.311,2.025c0,0.762,0.108,1.441,0.324,2.039s0.513,1.101,0.891,1.512
		c0.378,0.411,0.822,0.725,1.332,0.941c0.51,0.216,1.059,0.324,1.647,0.324c0.359,0,0.682-0.02,0.967-0.059s0.548-0.102,0.788-0.189
		c0.239-0.087,0.466-0.196,0.68-0.329c0.213-0.132,0.424-0.293,0.634-0.486C437.973,57.034,438.093,56.98,438.213,56.98z"/>
	<path fill="#6A7072" d="M450.695,46.909v1.701h-5.967v3.906h4.77v1.647h-4.77v4.005h5.976l-0.009,1.701h-8.082v-12.96H450.695z"/>
	<path fill="#6A7072" d="M455.749,46.923c0.063,0.009,0.122,0.025,0.176,0.049s0.104,0.06,0.153,0.108
		c0.048,0.048,0.099,0.108,0.152,0.18l7.128,9.153c-0.018-0.186-0.031-0.369-0.04-0.549c-0.009-0.18-0.014-0.348-0.014-0.504v-8.451
		h1.845v12.96h-1.07c-0.162,0-0.301-0.028-0.414-0.085c-0.114-0.057-0.223-0.151-0.324-0.284l-7.119-9.144
		c0.019,0.174,0.031,0.347,0.041,0.518c0.009,0.171,0.013,0.329,0.013,0.473v8.523h-1.854v-12.96h1.098
		C455.609,46.909,455.687,46.914,455.749,46.923z"/>
	<path fill="#6A7072" d="M480.521,59.869h-1.629c-0.186,0-0.336-0.046-0.45-0.14c-0.113-0.093-0.201-0.208-0.261-0.346l-1.08-2.862
		h-5.58l-1.08,2.862c-0.048,0.12-0.132,0.231-0.252,0.333s-0.27,0.153-0.45,0.153h-1.629l5.14-12.96h2.133L480.521,59.869z
		 M472.088,55.009h4.446l-1.782-4.734c-0.072-0.174-0.146-0.381-0.221-0.621c-0.075-0.24-0.148-0.498-0.221-0.774
		c-0.072,0.282-0.146,0.542-0.221,0.778s-0.146,0.445-0.211,0.625L472.088,55.009z"/>
	<path fill="#6A7072" d="M485.578,54.649v5.22h-2.105v-12.96h3.816c0.852,0,1.585,0.087,2.2,0.261
		c0.615,0.174,1.12,0.422,1.517,0.743c0.396,0.321,0.688,0.707,0.877,1.157c0.189,0.45,0.284,0.951,0.284,1.503
		c0,0.45-0.068,0.87-0.203,1.26c-0.135,0.39-0.33,0.744-0.585,1.062c-0.255,0.318-0.57,0.594-0.944,0.828
		c-0.376,0.234-0.8,0.417-1.274,0.549c0.265,0.156,0.489,0.375,0.676,0.657l3.501,4.941h-1.881c-0.372,0-0.643-0.144-0.811-0.432
		l-3.023-4.365c-0.103-0.15-0.214-0.258-0.333-0.324c-0.12-0.066-0.301-0.099-0.54-0.099H485.578z M485.578,53.119h1.656
		c0.48,0,0.9-0.059,1.26-0.175c0.36-0.117,0.66-0.281,0.9-0.491s0.42-0.46,0.54-0.751s0.18-0.613,0.18-0.967
		c0-0.708-0.233-1.248-0.702-1.62c-0.468-0.372-1.176-0.558-2.123-0.558h-1.711V53.119z"/>
	<path fill="#6A7072" d="M498.457,59.869h-2.115v-12.96h2.115V59.869z"/>
	<path fill="#6A7072" d="M515.152,53.389c0,0.96-0.156,1.845-0.468,2.655c-0.312,0.81-0.752,1.508-1.318,2.093
		c-0.567,0.585-1.248,1.042-2.043,1.373s-1.679,0.495-2.65,0.495c-0.967,0-1.847-0.165-2.642-0.495s-1.478-0.788-2.048-1.373
		s-1.011-1.283-1.323-2.093c-0.312-0.81-0.468-1.695-0.468-2.655s0.156-1.845,0.468-2.655c0.312-0.81,0.753-1.509,1.323-2.097
		s1.253-1.047,2.048-1.377s1.675-0.495,2.642-0.495c0.972,0,1.855,0.165,2.65,0.495s1.476,0.789,2.043,1.377
		c0.566,0.588,1.006,1.287,1.318,2.097C514.996,51.544,515.152,52.429,515.152,53.389z M513.002,53.389
		c0-0.744-0.101-1.413-0.302-2.007c-0.201-0.594-0.489-1.098-0.864-1.512s-0.829-0.732-1.363-0.954
		c-0.534-0.222-1.134-0.333-1.8-0.333c-0.66,0-1.258,0.111-1.791,0.333c-0.534,0.222-0.99,0.54-1.368,0.954
		s-0.669,0.918-0.873,1.512c-0.204,0.594-0.306,1.263-0.306,2.007c0,0.75,0.102,1.422,0.306,2.016
		c0.204,0.594,0.495,1.097,0.873,1.507c0.378,0.411,0.834,0.726,1.368,0.945c0.533,0.219,1.131,0.329,1.791,0.329
		c0.666,0,1.266-0.109,1.8-0.329c0.534-0.219,0.988-0.534,1.363-0.945c0.375-0.411,0.663-0.914,0.864-1.507
		C512.901,54.811,513.002,54.139,513.002,53.389z"/>
	<path fill="#6A7072" d="M525.673,49.123c-0.066,0.108-0.136,0.188-0.207,0.239c-0.072,0.051-0.162,0.076-0.271,0.076
		c-0.114,0-0.241-0.048-0.383-0.144c-0.141-0.096-0.314-0.202-0.521-0.319s-0.451-0.225-0.733-0.324
		c-0.282-0.099-0.618-0.149-1.008-0.149c-0.36,0-0.677,0.045-0.95,0.135c-0.272,0.09-0.502,0.216-0.688,0.378
		c-0.186,0.162-0.325,0.353-0.418,0.571c-0.094,0.219-0.14,0.458-0.14,0.716c0,0.33,0.087,0.604,0.261,0.823
		c0.174,0.219,0.403,0.407,0.688,0.562c0.285,0.156,0.61,0.292,0.977,0.41s0.739,0.242,1.121,0.374
		c0.381,0.132,0.754,0.282,1.12,0.45c0.366,0.168,0.691,0.381,0.977,0.639c0.285,0.258,0.515,0.573,0.688,0.945
		s0.261,0.825,0.261,1.359c0,0.576-0.099,1.116-0.297,1.62c-0.198,0.504-0.484,0.943-0.859,1.318s-0.837,0.67-1.386,0.886
		c-0.55,0.216-1.175,0.324-1.877,0.324c-0.414,0-0.817-0.041-1.21-0.122c-0.394-0.081-0.769-0.195-1.125-0.342
		c-0.357-0.147-0.692-0.326-1.004-0.536c-0.312-0.21-0.591-0.444-0.837-0.702l0.612-1.008c0.054-0.084,0.122-0.15,0.207-0.198
		c0.084-0.048,0.177-0.072,0.278-0.072c0.138,0,0.291,0.064,0.459,0.193c0.168,0.129,0.371,0.27,0.607,0.423
		c0.237,0.153,0.523,0.294,0.859,0.423s0.738,0.193,1.206,0.193c0.763,0,1.352-0.186,1.769-0.558
		c0.417-0.372,0.626-0.885,0.626-1.539c0-0.366-0.087-0.664-0.261-0.896c-0.175-0.23-0.404-0.424-0.688-0.58
		c-0.285-0.156-0.611-0.288-0.977-0.396c-0.366-0.108-0.738-0.224-1.116-0.347s-0.75-0.267-1.116-0.432s-0.691-0.381-0.977-0.648
		s-0.515-0.597-0.688-0.99s-0.261-0.884-0.261-1.472c0-0.468,0.091-0.921,0.274-1.359c0.183-0.438,0.45-0.827,0.801-1.166
		c0.352-0.339,0.784-0.61,1.301-0.814c0.516-0.204,1.104-0.306,1.764-0.306c0.744,0,1.427,0.117,2.048,0.351
		s1.156,0.567,1.606,0.999L525.673,49.123z"/>
	<path fill="#6A7072" d="M429.91,68.523c0.063,0.009,0.122,0.025,0.176,0.049s0.104,0.06,0.153,0.108
		c0.048,0.048,0.099,0.108,0.152,0.18l7.128,9.153c-0.018-0.186-0.031-0.369-0.04-0.549c-0.009-0.18-0.014-0.348-0.014-0.504v-8.451
		h1.845v12.96h-1.07c-0.162,0-0.301-0.028-0.414-0.085c-0.114-0.057-0.223-0.151-0.324-0.284l-7.119-9.144
		c0.019,0.174,0.031,0.347,0.041,0.518c0.009,0.171,0.013,0.329,0.013,0.473v8.523h-1.854v-12.96h1.098
		C429.771,68.509,429.848,68.514,429.91,68.523z"/>
	<path fill="#6A7072" d="M451.92,68.509v1.701h-5.967v3.906h4.77v1.647h-4.77v4.005h5.976l-0.009,1.701h-8.082v-12.96H451.92z"/>
	<path fill="#6A7072" d="M464.564,68.509v1.755h-4.041v11.205h-2.097V70.264h-4.051v-1.755H464.564z"/>
	<path fill="#6A7072" d="M466.473,68.509h1.764c0.181,0,0.332,0.043,0.455,0.13s0.205,0.206,0.247,0.355l2.43,8.307
		c0.049,0.18,0.092,0.374,0.131,0.581s0.079,0.424,0.122,0.652c0.048-0.228,0.097-0.447,0.148-0.657
		c0.051-0.21,0.106-0.402,0.166-0.576l2.781-8.307c0.042-0.12,0.126-0.231,0.252-0.333s0.275-0.153,0.45-0.153h0.611
		c0.187,0,0.336,0.046,0.45,0.14c0.114,0.093,0.201,0.208,0.261,0.346l2.772,8.307c0.06,0.174,0.114,0.361,0.162,0.562
		s0.096,0.416,0.144,0.644c0.042-0.222,0.083-0.435,0.122-0.639c0.039-0.204,0.082-0.393,0.13-0.567l2.421-8.307
		c0.036-0.132,0.119-0.246,0.248-0.342s0.28-0.144,0.454-0.144h1.647l-4.032,12.96h-1.899l-3.042-9.306
		c-0.035-0.102-0.07-0.213-0.104-0.333c-0.032-0.12-0.064-0.249-0.094-0.387c-0.03,0.138-0.063,0.267-0.1,0.387
		c-0.036,0.12-0.068,0.231-0.099,0.333l-3.069,9.306h-1.898L466.473,68.509z"/>
	<path fill="#6A7072" d="M499.961,74.989c0,0.96-0.156,1.845-0.468,2.655c-0.312,0.81-0.752,1.508-1.318,2.093
		c-0.567,0.585-1.248,1.042-2.043,1.373s-1.679,0.495-2.65,0.495c-0.967,0-1.847-0.165-2.642-0.495s-1.478-0.788-2.048-1.373
		s-1.011-1.283-1.323-2.093c-0.312-0.81-0.468-1.695-0.468-2.655s0.156-1.845,0.468-2.655c0.312-0.81,0.753-1.509,1.323-2.097
		s1.253-1.047,2.048-1.377s1.675-0.495,2.642-0.495c0.972,0,1.855,0.165,2.65,0.495s1.476,0.789,2.043,1.377
		c0.566,0.588,1.006,1.287,1.318,2.097C499.805,73.144,499.961,74.029,499.961,74.989z M497.811,74.989
		c0-0.744-0.101-1.413-0.302-2.007c-0.201-0.594-0.489-1.098-0.864-1.512s-0.829-0.732-1.363-0.954
		c-0.534-0.222-1.134-0.333-1.8-0.333c-0.66,0-1.258,0.111-1.791,0.333c-0.534,0.222-0.99,0.54-1.368,0.954
		s-0.669,0.918-0.873,1.512c-0.204,0.594-0.306,1.263-0.306,2.007c0,0.75,0.102,1.422,0.306,2.016
		c0.204,0.594,0.495,1.097,0.873,1.507c0.378,0.411,0.834,0.726,1.368,0.945c0.533,0.219,1.131,0.329,1.791,0.329
		c0.666,0,1.266-0.109,1.8-0.329c0.534-0.219,0.988-0.534,1.363-0.945c0.375-0.411,0.663-0.914,0.864-1.507
		C497.71,76.411,497.811,75.739,497.811,74.989z"/>
	<path fill="#6A7072" d="M505.811,76.249v5.22h-2.105v-12.96h3.816c0.852,0,1.585,0.087,2.2,0.261
		c0.615,0.174,1.12,0.422,1.517,0.743c0.396,0.321,0.688,0.707,0.877,1.157c0.189,0.45,0.284,0.951,0.284,1.503
		c0,0.45-0.068,0.87-0.203,1.26c-0.135,0.39-0.33,0.744-0.585,1.062c-0.255,0.318-0.57,0.594-0.944,0.828
		c-0.376,0.234-0.8,0.417-1.274,0.549c0.265,0.156,0.489,0.375,0.676,0.657l3.501,4.941h-1.881c-0.372,0-0.643-0.144-0.811-0.432
		l-3.023-4.365c-0.103-0.15-0.214-0.258-0.333-0.324c-0.12-0.066-0.301-0.099-0.54-0.099H505.811z M505.811,74.719h1.656
		c0.48,0,0.9-0.059,1.26-0.175c0.36-0.117,0.66-0.281,0.9-0.491s0.42-0.46,0.54-0.751s0.18-0.613,0.18-0.967
		c0-0.708-0.233-1.248-0.702-1.62c-0.468-0.372-1.176-0.558-2.123-0.558h-1.711V74.719z"/>
	<path fill="#6A7072" d="M518.68,74.053h0.604c0.228,0,0.414-0.031,0.558-0.095c0.145-0.063,0.273-0.163,0.388-0.301l3.924-4.68
		c0.138-0.174,0.28-0.295,0.428-0.364c0.146-0.069,0.331-0.104,0.553-0.104h1.801l-4.636,5.472
		c-0.126,0.156-0.247,0.287-0.364,0.391c-0.117,0.105-0.244,0.191-0.383,0.257c0.181,0.066,0.343,0.157,0.486,0.274
		c0.145,0.117,0.285,0.271,0.423,0.463l4.807,6.102h-1.837c-0.132,0-0.244-0.009-0.337-0.027s-0.174-0.045-0.243-0.081
		s-0.129-0.081-0.18-0.135c-0.052-0.054-0.098-0.114-0.14-0.18l-4.05-4.95c-0.061-0.078-0.12-0.144-0.181-0.198
		c-0.06-0.054-0.13-0.099-0.211-0.135s-0.173-0.062-0.274-0.077c-0.103-0.015-0.223-0.022-0.36-0.022h-0.774v5.805h-2.105v-12.96
		h2.105V74.053z"/>
	<path fill="#6A7072" d="M416.262,90.109v1.701h-5.967v4.149h5.066v1.701h-5.066v5.409h-2.115v-12.96H416.262z"/>
	<path fill="#6A7072" d="M431.858,96.589c0,0.96-0.156,1.845-0.468,2.655c-0.312,0.81-0.752,1.508-1.318,2.093
		c-0.567,0.585-1.248,1.042-2.043,1.373s-1.679,0.495-2.65,0.495c-0.967,0-1.847-0.165-2.642-0.495s-1.478-0.788-2.048-1.373
		s-1.011-1.283-1.323-2.093c-0.312-0.81-0.468-1.695-0.468-2.655s0.156-1.845,0.468-2.655c0.312-0.81,0.753-1.509,1.323-2.097
		s1.253-1.047,2.048-1.377s1.675-0.495,2.642-0.495c0.972,0,1.855,0.165,2.65,0.495s1.476,0.789,2.043,1.377
		c0.566,0.588,1.006,1.287,1.318,2.097C431.702,94.744,431.858,95.629,431.858,96.589z M429.708,96.589
		c0-0.744-0.101-1.413-0.302-2.007c-0.201-0.594-0.489-1.098-0.864-1.512s-0.829-0.732-1.363-0.954
		c-0.534-0.222-1.134-0.333-1.8-0.333c-0.66,0-1.258,0.111-1.791,0.333c-0.534,0.222-0.99,0.54-1.368,0.954
		s-0.669,0.918-0.873,1.512c-0.204,0.594-0.306,1.263-0.306,2.007c0,0.75,0.102,1.422,0.306,2.016
		c0.204,0.594,0.495,1.097,0.873,1.507c0.378,0.411,0.834,0.726,1.368,0.945c0.533,0.219,1.131,0.329,1.791,0.329
		c0.666,0,1.266-0.109,1.8-0.329c0.534-0.219,0.988-0.534,1.363-0.945c0.375-0.411,0.663-0.914,0.864-1.507
		C429.607,98.011,429.708,97.339,429.708,96.589z"/>
	<path fill="#6A7072" d="M437.707,97.849v5.22h-2.105v-12.96h3.816c0.852,0,1.585,0.087,2.2,0.261
		c0.615,0.174,1.12,0.422,1.517,0.743c0.396,0.321,0.688,0.707,0.877,1.157c0.189,0.45,0.284,0.951,0.284,1.503
		c0,0.45-0.068,0.87-0.203,1.26c-0.135,0.39-0.33,0.744-0.585,1.062c-0.255,0.318-0.57,0.594-0.944,0.828
		c-0.376,0.234-0.8,0.417-1.274,0.549c0.265,0.156,0.489,0.375,0.676,0.657l3.501,4.941h-1.881c-0.372,0-0.643-0.144-0.811-0.432
		l-3.023-4.365c-0.103-0.15-0.214-0.258-0.333-0.324c-0.12-0.066-0.301-0.099-0.54-0.099H437.707z M437.707,96.319h1.656
		c0.48,0,0.9-0.059,1.26-0.175c0.36-0.117,0.66-0.281,0.9-0.491s0.42-0.46,0.54-0.751s0.18-0.613,0.18-0.967
		c0-0.708-0.233-1.248-0.702-1.62c-0.468-0.372-1.176-0.558-2.123-0.558h-1.711V96.319z"/>
	<path fill="#6A7072" d="M464.635,103.069h-1.629c-0.186,0-0.336-0.046-0.45-0.14c-0.113-0.093-0.201-0.208-0.261-0.346l-1.08-2.862
		h-5.58l-1.08,2.862c-0.048,0.12-0.132,0.231-0.252,0.333s-0.27,0.153-0.45,0.153h-1.629l5.14-12.96h2.133L464.635,103.069z
		 M456.202,98.209h4.446l-1.782-4.734c-0.072-0.174-0.146-0.381-0.221-0.621c-0.075-0.24-0.148-0.498-0.221-0.774
		c-0.072,0.282-0.146,0.542-0.221,0.778s-0.146,0.445-0.211,0.625L456.202,98.209z"/>
	<path fill="#6A7072" d="M469.692,101.305h5.383v1.764h-7.488v-12.96h2.105V101.305z"/>
	<path fill="#6A7072" d="M489.168,103.069h-1.629c-0.186,0-0.336-0.046-0.45-0.14c-0.113-0.093-0.201-0.208-0.261-0.346l-1.08-2.862
		h-5.58l-1.08,2.862c-0.048,0.12-0.132,0.231-0.252,0.333s-0.27,0.153-0.45,0.153h-1.629l5.14-12.96h2.133L489.168,103.069z
		 M480.735,98.209h4.446l-1.782-4.734c-0.072-0.174-0.146-0.381-0.221-0.621c-0.075-0.24-0.148-0.498-0.221-0.774
		c-0.072,0.282-0.146,0.542-0.221,0.778s-0.146,0.445-0.211,0.625L480.735,98.209z"/>
	<path fill="#6A7072" d="M498.897,92.323c-0.066,0.108-0.136,0.188-0.207,0.239c-0.072,0.051-0.162,0.076-0.271,0.076
		c-0.114,0-0.241-0.048-0.383-0.144c-0.141-0.096-0.314-0.202-0.521-0.319s-0.451-0.225-0.733-0.324
		c-0.282-0.099-0.618-0.149-1.008-0.149c-0.36,0-0.677,0.045-0.95,0.135c-0.272,0.09-0.502,0.216-0.688,0.378
		c-0.186,0.162-0.325,0.353-0.418,0.571c-0.094,0.219-0.14,0.458-0.14,0.716c0,0.33,0.087,0.604,0.261,0.823
		c0.174,0.219,0.403,0.407,0.688,0.562c0.285,0.156,0.61,0.292,0.977,0.41s0.739,0.242,1.121,0.374
		c0.381,0.132,0.754,0.282,1.12,0.45c0.366,0.168,0.691,0.381,0.977,0.639c0.285,0.258,0.515,0.573,0.688,0.945
		s0.261,0.825,0.261,1.359c0,0.576-0.099,1.116-0.297,1.62c-0.198,0.504-0.484,0.943-0.859,1.318s-0.837,0.67-1.386,0.886
		c-0.55,0.216-1.175,0.324-1.877,0.324c-0.414,0-0.817-0.041-1.21-0.122c-0.394-0.081-0.769-0.195-1.125-0.342
		c-0.357-0.147-0.692-0.326-1.004-0.536c-0.312-0.21-0.591-0.444-0.837-0.702l0.612-1.008c0.054-0.084,0.122-0.15,0.207-0.198
		c0.084-0.048,0.177-0.072,0.278-0.072c0.138,0,0.291,0.064,0.459,0.193c0.168,0.129,0.371,0.27,0.607,0.423
		c0.237,0.153,0.523,0.294,0.859,0.423s0.738,0.193,1.206,0.193c0.763,0,1.352-0.186,1.769-0.558
		c0.417-0.372,0.626-0.885,0.626-1.539c0-0.366-0.087-0.664-0.261-0.896c-0.175-0.23-0.404-0.424-0.688-0.58
		c-0.285-0.156-0.611-0.288-0.977-0.396c-0.366-0.108-0.738-0.224-1.116-0.347s-0.75-0.267-1.116-0.432s-0.691-0.381-0.977-0.648
		s-0.515-0.597-0.688-0.99s-0.261-0.884-0.261-1.472c0-0.468,0.091-0.921,0.274-1.359c0.183-0.438,0.45-0.827,0.801-1.166
		c0.352-0.339,0.784-0.61,1.301-0.814c0.516-0.204,1.104-0.306,1.764-0.306c0.744,0,1.427,0.117,2.048,0.351
		s1.156,0.567,1.606,0.999L498.897,92.323z"/>
	<path fill="#6A7072" d="M505.483,95.653h0.604c0.228,0,0.414-0.031,0.558-0.095c0.145-0.063,0.273-0.163,0.388-0.301l3.924-4.68
		c0.138-0.174,0.28-0.295,0.428-0.364c0.146-0.069,0.331-0.104,0.553-0.104h1.801l-4.636,5.472
		c-0.126,0.156-0.247,0.287-0.364,0.391c-0.117,0.105-0.244,0.191-0.383,0.257c0.181,0.066,0.343,0.157,0.486,0.274
		c0.145,0.117,0.285,0.271,0.423,0.463l4.807,6.102h-1.837c-0.132,0-0.244-0.009-0.337-0.027s-0.174-0.045-0.243-0.081
		s-0.129-0.081-0.18-0.135c-0.052-0.054-0.098-0.114-0.14-0.18l-4.05-4.95c-0.061-0.078-0.12-0.144-0.181-0.198
		c-0.06-0.054-0.13-0.099-0.211-0.135s-0.173-0.062-0.274-0.077c-0.103-0.015-0.223-0.022-0.36-0.022h-0.774v5.805h-2.105v-12.96
		h2.105V95.653z"/>
	<path fill="#6A7072" d="M527.804,103.069h-1.629c-0.186,0-0.336-0.046-0.45-0.14c-0.113-0.093-0.201-0.208-0.261-0.346l-1.08-2.862
		h-5.58l-1.08,2.862c-0.048,0.12-0.132,0.231-0.252,0.333s-0.27,0.153-0.45,0.153h-1.629l5.14-12.96h2.133L527.804,103.069z
		 M519.371,98.209h4.446l-1.782-4.734c-0.072-0.174-0.146-0.381-0.221-0.621c-0.075-0.24-0.148-0.498-0.221-0.774
		c-0.072,0.282-0.146,0.542-0.221,0.778s-0.146,0.445-0.211,0.625L519.371,98.209z"/>
	<path fill="#6A7072" d="M439.419,114.14v3.762h3.573v1.458h-3.573v3.771h-1.575v-3.771h-3.555v-1.458h3.555v-3.762H439.419z"/>
	<path fill="#6A7072" d="M468.92,124.669h-1.629c-0.186,0-0.336-0.047-0.45-0.139c-0.113-0.094-0.201-0.209-0.261-0.348l-1.08-2.861
		h-5.58l-1.08,2.861c-0.048,0.121-0.132,0.232-0.252,0.334s-0.27,0.152-0.45,0.152h-1.629l5.14-12.959h2.133L468.92,124.669z
		 M460.487,119.81h4.446l-1.782-4.734c-0.072-0.174-0.146-0.381-0.221-0.621s-0.148-0.498-0.221-0.773
		c-0.072,0.281-0.146,0.541-0.221,0.778s-0.146,0.445-0.211,0.626L460.487,119.81z"/>
	<path fill="#6A7072" d="M473.977,119.449v5.22h-2.105V111.71h3.816c0.852,0,1.585,0.086,2.2,0.26
		c0.615,0.175,1.12,0.422,1.517,0.743c0.396,0.321,0.688,0.706,0.877,1.157c0.189,0.449,0.284,0.95,0.284,1.502
		c0,0.45-0.068,0.871-0.203,1.26c-0.135,0.391-0.33,0.744-0.585,1.062s-0.57,0.594-0.944,0.828c-0.376,0.234-0.8,0.417-1.274,0.549
		c0.265,0.156,0.489,0.375,0.676,0.657l3.501,4.94h-1.881c-0.372,0-0.643-0.143-0.811-0.432l-3.023-4.365
		c-0.103-0.149-0.214-0.258-0.333-0.324c-0.12-0.065-0.301-0.099-0.54-0.099H473.977z M473.977,117.919h1.656
		c0.48,0,0.9-0.059,1.26-0.175c0.36-0.117,0.66-0.28,0.9-0.491c0.24-0.209,0.42-0.46,0.54-0.751s0.18-0.613,0.18-0.968
		c0-0.707-0.233-1.248-0.702-1.619c-0.468-0.373-1.176-0.559-2.123-0.559h-1.711V117.919z"/>
	<path fill="#6A7072" d="M493.561,121.78c0.114,0,0.213,0.045,0.297,0.135l0.837,0.91c-0.528,0.635-1.176,1.125-1.944,1.471
		c-0.768,0.346-1.686,0.518-2.754,0.518c-0.947,0-1.804-0.164-2.569-0.49c-0.765-0.328-1.417-0.783-1.957-1.369
		c-0.54-0.584-0.956-1.281-1.247-2.092s-0.437-1.701-0.437-2.673s0.154-1.864,0.464-2.678c0.309-0.812,0.744-1.512,1.305-2.097
		c0.562-0.585,1.233-1.039,2.017-1.363c0.782-0.324,1.646-0.486,2.587-0.486c0.937,0,1.763,0.151,2.479,0.455
		c0.717,0.303,1.34,0.706,1.868,1.21l-0.693,0.981c-0.048,0.065-0.105,0.123-0.171,0.17c-0.066,0.049-0.156,0.072-0.271,0.072
		c-0.12,0-0.256-0.055-0.409-0.166s-0.348-0.234-0.585-0.369s-0.534-0.258-0.891-0.369c-0.357-0.111-0.803-0.166-1.337-0.166
		c-0.618,0-1.185,0.107-1.701,0.324c-0.516,0.215-0.96,0.53-1.332,0.944s-0.661,0.918-0.868,1.513
		c-0.207,0.594-0.311,1.269-0.311,2.024c0,0.763,0.108,1.441,0.324,2.038c0.216,0.598,0.513,1.102,0.891,1.512
		c0.378,0.412,0.822,0.725,1.332,0.941c0.51,0.215,1.059,0.324,1.647,0.324c0.359,0,0.682-0.02,0.967-0.059s0.548-0.102,0.788-0.189
		c0.239-0.086,0.466-0.197,0.68-0.328c0.213-0.133,0.424-0.295,0.634-0.486C493.32,121.835,493.44,121.78,493.561,121.78z"/>
	<path fill="#6A7072" d="M506.88,111.71v1.754h-4.041v11.205h-2.097v-11.205h-4.051v-1.754H506.88z"/>
	<path fill="#6A7072" d="M512.235,124.669h-2.115V111.71h2.115V124.669z"/>
	<path fill="#6A7072" d="M525.753,121.78c0.114,0,0.213,0.045,0.297,0.135l0.837,0.91c-0.528,0.635-1.176,1.125-1.944,1.471
		c-0.768,0.346-1.686,0.518-2.754,0.518c-0.947,0-1.804-0.164-2.569-0.49c-0.765-0.328-1.417-0.783-1.957-1.369
		c-0.54-0.584-0.956-1.281-1.247-2.092s-0.437-1.701-0.437-2.673s0.154-1.864,0.464-2.678c0.309-0.812,0.744-1.512,1.305-2.097
		c0.562-0.585,1.233-1.039,2.017-1.363c0.782-0.324,1.646-0.486,2.587-0.486c0.937,0,1.763,0.151,2.479,0.455
		c0.717,0.303,1.34,0.706,1.868,1.21l-0.693,0.981c-0.048,0.065-0.105,0.123-0.171,0.17c-0.066,0.049-0.156,0.072-0.271,0.072
		c-0.12,0-0.256-0.055-0.409-0.166s-0.348-0.234-0.585-0.369s-0.534-0.258-0.891-0.369c-0.357-0.111-0.803-0.166-1.337-0.166
		c-0.618,0-1.185,0.107-1.701,0.324c-0.516,0.215-0.96,0.53-1.332,0.944s-0.661,0.918-0.868,1.513
		c-0.207,0.594-0.311,1.269-0.311,2.024c0,0.763,0.108,1.441,0.324,2.038c0.216,0.598,0.513,1.102,0.891,1.512
		c0.378,0.412,0.822,0.725,1.332,0.941c0.51,0.215,1.059,0.324,1.647,0.324c0.359,0,0.682-0.02,0.967-0.059s0.548-0.102,0.788-0.189
		c0.239-0.086,0.466-0.197,0.68-0.328c0.213-0.133,0.424-0.295,0.634-0.486C525.513,121.835,525.633,121.78,525.753,121.78z"/>
	<path fill="#6A7072" d="M428.357,141.579v4.689h-2.105V133.31h4.032c0.846,0,1.579,0.098,2.2,0.297
		c0.621,0.197,1.134,0.475,1.539,0.832s0.706,0.787,0.904,1.287c0.198,0.502,0.297,1.055,0.297,1.66
		c0,0.619-0.104,1.184-0.314,1.697c-0.21,0.512-0.522,0.953-0.937,1.322s-0.929,0.658-1.543,0.865
		c-0.615,0.205-1.331,0.309-2.146,0.309H428.357z M428.357,139.915h1.927c0.468,0,0.88-0.061,1.237-0.18
		c0.356-0.121,0.654-0.289,0.891-0.51c0.237-0.219,0.416-0.484,0.536-0.795c0.119-0.312,0.18-0.66,0.18-1.045
		c0-0.377-0.059-0.717-0.176-1.018c-0.117-0.299-0.292-0.555-0.526-0.764c-0.234-0.211-0.529-0.371-0.887-0.482
		c-0.356-0.111-0.775-0.166-1.255-0.166h-1.927V139.915z"/>
	<path fill="#6A7072" d="M440.787,144.505h5.383v1.764h-7.488V133.31h2.105V144.505z"/>
	<path fill="#6A7072" d="M460.263,146.269h-1.629c-0.186,0-0.336-0.047-0.45-0.139c-0.113-0.094-0.201-0.209-0.261-0.348
		l-1.08-2.861h-5.58l-1.08,2.861c-0.048,0.121-0.132,0.232-0.252,0.334s-0.27,0.152-0.45,0.152h-1.629l5.14-12.959h2.133
		L460.263,146.269z M451.83,141.409h4.446l-1.782-4.734c-0.072-0.174-0.146-0.381-0.221-0.621s-0.148-0.498-0.221-0.773
		c-0.072,0.281-0.146,0.541-0.221,0.777c-0.075,0.238-0.146,0.447-0.211,0.627L451.83,141.409z"/>
	<path fill="#6A7072" d="M464.542,133.323c0.063,0.008,0.122,0.025,0.176,0.049s0.104,0.061,0.153,0.107
		c0.048,0.049,0.099,0.109,0.152,0.18l7.128,9.154c-0.018-0.186-0.031-0.369-0.04-0.549s-0.014-0.348-0.014-0.504v-8.451h1.845
		v12.959h-1.07c-0.162,0-0.301-0.027-0.414-0.086c-0.114-0.057-0.223-0.15-0.324-0.283l-7.119-9.143
		c0.019,0.174,0.031,0.346,0.041,0.518c0.009,0.17,0.013,0.328,0.013,0.471v8.523h-1.854V133.31h1.098
		C464.402,133.31,464.479,133.313,464.542,133.323z"/>
	<path fill="#6A7072" d="M479.796,133.323c0.063,0.008,0.122,0.025,0.176,0.049s0.104,0.061,0.153,0.107
		c0.048,0.049,0.099,0.109,0.152,0.18l7.128,9.154c-0.018-0.186-0.031-0.369-0.04-0.549s-0.014-0.348-0.014-0.504v-8.451h1.845
		v12.959h-1.07c-0.162,0-0.301-0.027-0.414-0.086c-0.114-0.057-0.223-0.15-0.324-0.283l-7.119-9.143
		c0.019,0.174,0.031,0.346,0.041,0.518c0.009,0.17,0.013,0.328,0.013,0.471v8.523h-1.854V133.31h1.098
		C479.656,133.31,479.733,133.313,479.796,133.323z"/>
	<path fill="#6A7072" d="M495.839,146.269h-2.115V133.31h2.115V146.269z"/>
	<path fill="#6A7072" d="M501.684,133.323c0.063,0.008,0.122,0.025,0.176,0.049s0.104,0.061,0.153,0.107
		c0.048,0.049,0.099,0.109,0.152,0.18l7.128,9.154c-0.018-0.186-0.031-0.369-0.04-0.549s-0.014-0.348-0.014-0.504v-8.451h1.845
		v12.959h-1.07c-0.162,0-0.301-0.027-0.414-0.086c-0.114-0.057-0.223-0.15-0.324-0.283l-7.119-9.143
		c0.019,0.174,0.031,0.346,0.041,0.518c0.009,0.17,0.013,0.328,0.013,0.471v8.523h-1.854V133.31h1.098
		C501.544,133.31,501.621,133.313,501.684,133.323z"/>
	<path fill="#6A7072" d="M521.723,146.413c-1.051,0-2-0.164-2.849-0.49c-0.85-0.328-1.574-0.783-2.174-1.369
		c-0.6-0.584-1.062-1.281-1.386-2.092s-0.486-1.701-0.486-2.674c0-0.977,0.156-1.873,0.468-2.686
		c0.312-0.812,0.76-1.512,1.342-2.098c0.581-0.584,1.283-1.037,2.105-1.357c0.822-0.322,1.746-0.482,2.772-0.482
		c0.521,0,1.006,0.041,1.453,0.121c0.447,0.082,0.862,0.193,1.246,0.338c0.385,0.145,0.738,0.318,1.062,0.521
		c0.324,0.205,0.621,0.432,0.891,0.684l-0.603,0.965c-0.097,0.148-0.22,0.242-0.369,0.277c-0.15,0.037-0.312,0-0.486-0.107
		c-0.174-0.102-0.358-0.209-0.553-0.324c-0.195-0.113-0.419-0.221-0.671-0.318c-0.252-0.1-0.543-0.182-0.873-0.244
		s-0.72-0.094-1.17-0.094c-0.685,0-1.301,0.111-1.85,0.338c-0.549,0.225-1.019,0.545-1.408,0.963c-0.391,0.416-0.69,0.922-0.9,1.516
		s-0.314,1.258-0.314,1.988c0,0.775,0.11,1.467,0.333,2.076c0.222,0.607,0.536,1.125,0.944,1.547
		c0.408,0.424,0.901,0.746,1.48,0.969c0.579,0.221,1.226,0.332,1.939,0.332c0.534,0,1.01-0.057,1.427-0.17
		c0.417-0.115,0.826-0.273,1.229-0.479v-2.574h-1.809c-0.139,0-0.246-0.037-0.324-0.111c-0.078-0.076-0.117-0.172-0.117-0.293
		v-1.197h4.149v5.131C524.933,145.948,523.433,146.413,521.723,146.413z"/>
</g>
<rect x="624.509" y="42.549" fill="none" width="203.334" height="123.874"/>
<text transform="matrix(1 0 0 1 717.0811 55.8691)"><tspan x="0" y="0" fill="#6A7072" font-family="'Lato-Semibold'" font-size="18" letter-spacing="1">SCENARIOS  </tspan><tspan x="10.386" y="21.6" fill="#6A7072" font-family="'Lato-Semibold'" font-size="18" letter-spacing="1">NETWORK </tspan><tspan x="-11.097" y="43.2" fill="#6A7072" font-family="'Lato-Semibold'" font-size="18" letter-spacing="1">FOR ALASKA </tspan><tspan x="16.218" y="64.8" fill="#6A7072" font-family="'Lato-Semibold'" font-size="18" letter-spacing="1">+  ARCTIC </tspan><tspan x="8.298" y="86.399" fill="#6A7072" font-family="'Lato-Semibold'" font-size="18" letter-spacing="1">PLANNING</tspan></text>
</svg>
