<?xml version="1.0" encoding="utf-8"?>
<!-- Generator: Adobe Illustrator 16.0.0, SVG Export Plug-In . SVG Version: 6.00 Build 0)  -->
<!DOCTYPE svg PUBLIC "-//W3C//DTD SVG 1.1//EN" "http://www.w3.org/Graphics/SVG/1.1/DTD/svg11.dtd">
<svg version="1.1" id="Layer_1" xmlns="http://www.w3.org/2000/svg" xmlns:xlink="http://www.w3.org/1999/xlink" x="0px" y="0px"
	 width="24.911px" height="24.875px" viewBox="0 0 24.911 24.875" enable-background="new 0 0 24.911 24.875" xml:space="preserve">
<g id="Facebook" transform="translate(79.000000, 0.000000)">
	<path fill="#3B5998" d="M-79,12.438C-79,5.569-73.423,0-66.544,0s12.455,5.569,12.455,12.438s-5.576,12.438-12.455,12.438
		S-79,19.307-79,12.438z"/>
	<path id="Path_18_" fill="#FFFFFF" d="M-65.503,19.204v-6.767h1.869l0.246-2.332h-2.115l0.004-1.167
		c0-0.607,0.057-0.934,0.931-0.934h1.168V5.672h-1.868c-2.244,0-3.034,1.131-3.034,3.033v1.4h-1.398v2.333h1.398v6.766H-65.503z"/>
	<path id="reflec_28_" fill-opacity="0.08" d="M-54.089,12.438c0,6.869-5.576,12.438-12.455,12.438c-2.551,0-4.924-0.766-6.898-2.08
		l14.271-20.383C-56.089,4.677-54.089,8.324-54.089,12.438z"/>
</g>
</svg>
