<?xml version="1.0" encoding="utf-8"?>
<!-- Generator: Adobe Illustrator 16.0.0, SVG Export Plug-In . SVG Version: 6.00 Build 0)  -->
<!DOCTYPE svg PUBLIC "-//W3C//DTD SVG 1.1//EN" "http://www.w3.org/Graphics/SVG/1.1/DTD/svg11.dtd">
<svg version="1.1" id="Layer_1" xmlns="http://www.w3.org/2000/svg" xmlns:xlink="http://www.w3.org/1999/xlink" x="0px" y="0px"
	 width="88.764px" height="74.645px" viewBox="15.869 12.482 88.764 74.645" enable-background="new 15.869 12.482 88.764 74.645"
	 xml:space="preserve">
<g>
	
		<radialGradient id="SVGID_1_" cx="654.304" cy="717.0344" r="74.6919" gradientTransform="matrix(1 0 0 1 -587 -692)" gradientUnits="userSpaceOnUse">
		<stop  offset="0" style="stop-color:#FFFFFF"/>
		<stop  offset="1" style="stop-color:#5A91C2"/>
	</radialGradient>
	<path fill="url(#SVGID_1_)" stroke="#0065A4" stroke-width="0.0452" d="M96.613,49.843c0,20.579-16.68,37.262-37.26,37.262
		c-20.578,0-36.754-16.641-36.754-37.218c0-22.244,19.509-37.303,36.753-37.303C79.934,12.584,96.613,29.266,96.613,49.843z"/>
	<path fill="#FFFFFF" d="M56.398,19.773c-0.066,0.19-0.208,0.358-0.271,0.559c-0.051,0.169-0.009,0.281-0.008,0.451
		c0,0.237-0.045,0.453-0.017,0.691c0.078,0.638,0.018,1.266-0.076,1.901c-0.021,0.146-0.095,0.284-0.104,0.435
		c-0.012,0.147,0.021,0.277,0.013,0.419c-0.007,0.093-0.071,0.11-0.053,0.242c0.018,0.131,0.069,0.197,0.151,0.294
		c0.251,0.299,0.566,0.672,0.885,0.903c0.386,0.278,0.642,0.852,0.915,1.272c0.137,0.212,0.318,0.387,0.445,0.592
		c0.138,0.218,0.259,0.253,0.492,0.352c0.128,0.054,0.41,0.295,0.534,0.203c0.087-0.064,0.108-0.334,0.169-0.433
		c0.056-0.092,0.204-0.275,0.298-0.333c0.195-0.117,0.465-0.159,0.68-0.241c0.264-0.104,0.401-0.243,0.641-0.392
		c-0.162,0.271,0.017-0.127,0.042,0.004c0.018,0.099-0.718,0.708-0.843,0.747c-0.359,0.113-0.259,0.295-0.432,0.69
		c-0.104,0.242-0.205,0.673-0.061,0.932c0.126,0.226,0.547,0.423,0.783,0.519c0.364,0.147,0.683,0.428,1.012,0.652
		c0.127,0.087,0.346,0.278,0.489,0.312c0.19,0.042,0.339-0.004,0.538,0.072c0.148,0.056,0.242,0.116,0.367,0.212
		c0.135,0.101,0.181,0.207,0.288,0.314c-0.073-0.108-0.2-0.082-0.305-0.137c0.372,0.146,0.712,0.826,1.152,0.616
		c0.253-0.12,0.568-0.327,0.775-0.505c0.174-0.152,0.277-0.358,0.448-0.51c0.077-0.069,0.204-0.077,0.197-0.211
		c-0.004-0.062-0.137-0.209-0.16-0.291c-0.066-0.224,0.039-0.447,0.124-0.648c0.081-0.201,0.327-0.438,0.571-0.271
		c0.095,0.064,0.156,0.21,0.246,0.291c0.069,0.063,0.157,0.119,0.233,0.175c0.141,0.106,0.272,0.235,0.41,0.339
		c0.14,0.103,0.406,0.374,0.557,0.431c0.103,0.038,0.316,0.02,0.433,0.038c0.212,0.032,0.249,0.049,0.421,0.181
		c0.175,0.136,0.345,0.292,0.531,0.424c0.457,0.327,0.909-0.023,1.379,0.124c0.104,0.035,0.242,0.151,0.339,0.171
		c0.14,0.028,0.256-0.043,0.392-0.036c0.162,0.006,0.347,0.024,0.509,0.036c0.137,0.011,0.288,0.102,0.409,0.038
		c-0.207-0.273-0.114-0.696-0.203-1.011c-0.07-0.257-0.191-0.176-0.376-0.364c-0.102-0.104-0.187-0.263-0.258-0.386
		c0.006-0.068-0.009-0.13-0.044-0.187c-0.041-0.054-0.132-0.075-0.181-0.122c-0.106-0.105-0.186-0.25-0.279-0.356
		c-0.144-0.161-0.332-0.342-0.516-0.466c-0.157-0.106-0.345-0.127-0.495-0.248c0.15,0.017,0.185-0.045,0.287-0.114
		c0.169-0.111,0.147-0.041,0.15-0.255c0.002-0.147,0.418-0.111,0.294-0.146c0.091,0.357,0.405,0.476,0.69,0.431
		c0.299-0.048,0.405-0.151,0.441,0.149c0.014,0.114-0.237-0.365-0.146-0.296c0.108,0.082,0.336,0.235,0.46,0.247
		c0.159,0.016,0.37,0.105,0.54,0.144c0.127,0.028,0.544,0.175,0.656,0.133c0.136-0.051,0.073-0.398,0.153-0.548
		c0.124,0.022,0.261,0.131,0.395,0.174c0.147,0.045,0.299,0.073,0.453,0.119c0.245,0.072,0.51,0.062,0.762,0.106
		c0.176,0.03,0.557-0.031,0.67,0.102c0.125-0.141,0.285-0.104,0.474-0.148c0.261-0.061,0.513-0.268,0.794-0.197
		c0.227,0.056,0.463,0.318,0.618,0.478c0.081,0.08,0.164,0.114,0.218,0.225c0.028,0.064,0.019,0.251,0.073,0.291
		c0.099,0.069,0.392-0.046,0.506-0.054c0.271-0.021,0.438,0.075,0.657,0.226c0.252,0.169,0.473,0.338,0.704,0.514
		c0.148,0.113,0.369,0.114,0.545,0.134c0.171,0.02,0.348-0.012,0.511-0.066c0.232-0.083,0.73-0.243,0.905-0.417
		c0.153-0.154,0.035-0.339-0.081-0.522c-0.102-0.16-0.138-0.33-0.248-0.492c-0.188-0.271-0.438-0.638-0.479-0.979
		c-0.021-0.161-0.13-0.427-0.004-0.559c0.144-0.151,0.338,0.063,0.538-0.062c-0.136-0.312-0.841-0.481-1.13-0.661
		c-0.127-0.078-0.227-0.201-0.355-0.275c-0.144-0.084-0.297-0.097-0.443-0.167c-0.271-0.125-0.549-0.302-0.809-0.452
		c0.029,0.017,0.055,0.034,0.083,0.052c-0.202,0.022-0.311,0.038-0.492-0.042c-0.229-0.101-0.265-0.257-0.407-0.469
		c-0.176-0.267-0.235-0.288-0.549-0.238c-0.149,0.022-0.373,0.006-0.512,0.062c-0.105,0.045-0.134,0.146-0.263,0.165
		c-0.004,0.16,0.031,0.212-0.064,0.333c-0.102,0.132-0.434,0.232-0.582,0.33c-0.239-0.538,0.023-1.229-0.646-1.534
		c-0.53-0.242-1.143-0.334-1.711-0.417c0.089-0.115,0.241-0.172,0.356-0.258c0.146-0.109,0.248-0.229,0.339-0.387
		c0.072-0.129,0.279-0.302,0.293-0.433c0.023-0.187-0.187-0.358-0.312-0.467c-0.322-0.276-0.368-0.531-0.536-0.916
		c-0.089-0.205-0.312-0.605-0.498-0.731c-0.156-0.104-0.364-0.03-0.507-0.157c0.15-0.16,0.035-0.637,0.063-0.841
		c0.363-0.134,0.739-0.196,1.091-0.395c0.14-0.081,0.382-0.277,0.344-0.443c-0.036-0.142-0.273-0.267-0.379-0.347
		c-0.139-0.103-0.283-0.326-0.442-0.37c-0.176-0.049-0.445,0.045-0.621,0.069c-0.359,0.049-0.679,0.104-1.02,0.222
		c-0.303,0.104-0.757,0.017-1.022,0.186c0.059,0.084,0.123,0.233,0.212,0.296c0.153,0.106,0.351,0.021,0.526,0.001
		c-0.272-0.017-0.376,0.227-0.681,0.177c-0.145-0.022-0.288-0.162-0.439-0.14c-0.153,0.022-0.318,0.157-0.483,0.197
		c0.07,0.426-0.508,0.207-0.829,0.202c-0.175,0-0.522,0.095-0.633-0.018c-0.049-0.047-0.358,0.227-0.399,0.16
		c-0.104-0.171-0.104,0.015,0.146-0.648c0.124-0.333-0.25-0.653-0.58-0.842c-0.184-0.104-0.432-0.122-0.635-0.178
		c-0.162-0.046-0.375-0.16-0.533-0.174c-0.032,0.074-0.004,0.138,0.068,0.176c-0.173-0.195-0.489-0.214-0.729-0.255
		c-0.318-0.058-0.518,0.044-0.817,0.161c-0.098,0.037-0.327,0.136-0.398,0.21c-0.13,0.135-0.05,0.183-0.048,0.355
		c0.005,0.213-0.002,0.178-0.171,0.311c-0.081,0.062-0.141,0.185-0.233,0.157c-0.077,0.081-0.164,0.121-0.269,0.154
		c-0.106,0.01-0.212,0.021-0.318,0.032c-0.103,0.02-0.192,0.062-0.271,0.125c-0.244,0.08-0.488,0.066-0.706,0.227
		c-0.134,0.098-0.209,0.298-0.36,0.369c-0.172,0.08-0.506,0.07-0.697,0.086c0.205,0.094,0.404,0.041,0.613,0.104
		c0.205,0.06,0.457,0.072,0.646,0.176c-0.033,0.095-0.174,0.394,0.046,0.372c-0.026-0.155-0.282-0.033-0.413-0.053
		c-0.177-0.027-0.381-0.133-0.55-0.191c-0.075-0.027-0.148-0.054-0.224-0.081c-0.098-0.015-0.234,0.051-0.318,0.031
		c-0.167-0.044-0.133-0.215-0.141-0.373c-0.11,0.188-0.352,0.257-0.479,0.45c-0.136,0.208-0.093,0.312-0.153,0.523
		c-0.036,0.127-0.212,0.443-0.327,0.497c-0.26,0.123-0.677,0.053-0.947,0.017c-0.495-0.064-0.859-0.321-1.323-0.451
		c-0.43-0.119-0.918,0.023-1.354,0.084"/>
	<g>
		<path fill="#B4D88B" stroke="#616161" stroke-width="0.0452" d="M64.196,13.282c-0.046-0.027,0.108-0.132,0.137-0.115
			C64.376,13.193,64.223,13.297,64.196,13.282z"/>
		<path fill="#B4D88B" stroke="#616161" stroke-width="0.0452" d="M60.159,15.197c-0.051-0.029,0.029-0.11,0.057-0.096
			C60.265,15.131,60.186,15.213,60.159,15.197z"/>
		<path fill="#B4D88B" stroke="#616161" stroke-width="0.0452" d="M59.173,15.527c-0.021-0.146,0.542-0.247,0.348,0.077
			C59.528,15.592,59.184,15.606,59.173,15.527z"/>
		<path fill="#B4D88B" stroke="#616161" stroke-width="0.0452" d="M57.839,16.437c-0.096-0.126,0.386-0.186,0.463-0.117
			C58.46,16.458,57.84,16.438,57.839,16.437z"/>
		<path fill="#B4D88B" stroke="#616161" stroke-width="0.0452" d="M68.428,13.782c-0.049-0.03,0.033-0.113,0.059-0.098
			C68.536,13.716,68.455,13.797,68.428,13.782z"/>
		<path fill="#B4D88B" stroke="#616161" stroke-width="0.0452" d="M58.863,16.26c0.066-0.059,0.129-0.133,0.29-0.153
			c0.135-0.017,0.144,0.07,0.35,0.077c0.274,0.011,0.52-0.131,0.637-0.079c-0.01-0.003-0.048,0.197-0.02,0.252
			c0.042,0.078,0.241,0.042,0.271,0.097c0.018,0.033-0.085,0.143-0.04,0.175c0.027,0.019,0.244,0.011,0.251,0.019
			c0.111,0.127-0.045,0.246,0.001,0.328c0.021,0.04,0.35,0.083,0.348,0.078c0.056,0.187,0.051,0.583-0.076,0.676
			c-0.125,0.09-0.277,0.011-0.271,0.232c0.001,0.019,0.066,0.228,0.059,0.231c-0.013,0.008-0.386-0.01-0.443-0.134
			c-0.078-0.162,0.201-0.271,0.192-0.542c-0.003-0.079-0.175-0.42-0.214-0.521c-0.008-0.022-0.074-0.208-0.038-0.154
			c-0.059-0.086-0.114,0.012-0.175-0.04c-0.03-0.028-0.006-0.125-0.038-0.153c-0.144-0.128-0.299-0.271-0.481-0.291
			c-0.193-0.02-0.447,0.084-0.735,0.021C58.66,16.361,58.863,16.26,58.863,16.26z"/>
		<path fill="#B4D88B" stroke="#616161" stroke-width="0.0452" d="M65.878,15.078c-0.046-0.028,0.108-0.134,0.136-0.116
			C66.059,14.99,65.904,15.093,65.878,15.078z"/>
		<path fill="#B4D88B" stroke="#616161" stroke-width="0.0452" d="M74.419,15.73c-0.049-0.029,0.033-0.111,0.06-0.097
			C74.528,15.664,74.447,15.746,74.419,15.73z"/>
		<path fill="#B4D88B" stroke="#616161" stroke-width="0.0452" d="M61.089,20.222c0.02-0.005,0.098-0.16,0.212-0.135
			c0.058,0.012,0.016,0.134,0.117,0.135c0.212,0.004,0.176,0.041,0.365,0.155c0.092,0.055,0.524,0.237-0.098,0.269
			c-0.062,0.004-0.246-0.1-0.269-0.096c-0.162,0.027-0.142,0.186-0.271,0.232c0.005-0.001-0.654-0.016-0.675-0.076
			c0.005,0.017,0.064-0.337,0.076-0.35C60.622,20.291,60.91,20.272,61.089,20.222z M61.225,20.434
			c0.049,0.091,0.135-0.005,0.059-0.096c-0.045-0.051-0.165-0.083-0.078,0.019C61.22,20.374,61.213,20.414,61.225,20.434z"/>
		<path fill="#B4D88B" stroke="#616161" stroke-width="0.0452" d="M59.911,20.762c0.046-0.188,0.406,0.088,0.599,0.098
			c0.022,0.001,0.223-0.071,0.233-0.059c0.016,0.026-0.155,0.419-0.483,0.367C60.264,21.17,59.896,20.813,59.911,20.762z"/>
		<path fill="#B4D88B" stroke="#616161" stroke-width="0.0452" d="M71.89,18.089c-0.062-0.116,0.227-0.081,0.232-0.06
			C72.155,18.14,71.932,18.168,71.89,18.089z"/>
		<path fill="#B4D88B" stroke="#616161" stroke-width="0.0452" d="M57.631,22.157c-0.006-0.103,0.133-0.118,0.154-0.038
			C57.779,22.237,57.715,22.127,57.631,22.157z"/>
		<path fill="#B4D88B" stroke="#616161" stroke-width="0.0452" d="M74.865,18.494c-0.049-0.029,0.031-0.112,0.059-0.098
			C74.975,18.426,74.893,18.509,74.865,18.494z"/>
		<path fill="#B4D88B" stroke="#616161" stroke-width="0.0452" d="M59.874,24.551c0.159-0.175,0.488-0.19,0.618-0.155
			c0.023,0.006-0.122,0.231-0.097,0.271c0.116,0.172,0.383-0.159,0.405,0.309c-0.003-0.059-0.039,0.276-0.019,0.252
			c0.021-0.025-0.395,0.109-0.562,0.058c-0.036-0.011-0.098-0.188-0.135-0.211c-0.084-0.055-0.409-0.256-0.425-0.389
			C59.652,24.611,59.828,24.602,59.874,24.551z"/>
		<path fill="#B4D88B" stroke="#616161" stroke-width="0.0452" d="M72.472,21.722c0.077,0.021,0.131,0.227,0.232,0.271
			c0.067,0.029,0.067-0.095,0.058-0.097c0.183,0.02,0.439,0.178,0.562,0.271c0.035,0.028,0.093,0.191,0.135,0.212
			c0.135,0.064,0.285-0.076,0.425,0.058c0.079,0.077-0.044,0.161-0.039,0.173c0.042,0.104,0.118-0.015,0.175,0.038
			c0.066,0.062,0.02,0.241,0.077,0.311c0.031,0.038,0.179-0.084,0.136-0.115c0.054,0.037,0.142,0.333,0.078,0.309
			c0.049,0.02,0.186-0.212,0.192-0.212c0.104-0.034,0.054,0.12,0.115,0.136c0.062,0.014,0.081-0.091,0.059-0.098
			c0.095,0.031,0.043,0.067,0.115,0.136c0.006,0.005,0.508,0.379,0.503,0.366c0.105,0.213-0.267,0.193,0.002,0.328
			c0.119,0.062,0.219-0.245,0.346-0.25c0.226-0.013,0.34,0.339,0.367,0.483c-0.009-0.047-0.29,0.151-0.29,0.154
			c-0.015,0.042,0.262,0.501-0.113,0.522c-0.036,0.002-0.238-0.438-0.367-0.483c-0.057-0.019-0.297,0.037-0.328,0
			c-0.133-0.148,0.347-0.107,0.365-0.173c0.005-0.015-0.434-0.229-0.542-0.192c-0.054,0.02-0.04,0.174-0.038,0.174
			c-0.062,0.012-0.132-0.168-0.193-0.116c-0.261,0.222,0.344,0.038,0.253,0.348c0.021-0.081-0.214,0.172-0.367,0.175
			c-0.017,0-0.022-0.146-0.039-0.156c-0.084-0.048-0.268,0.09-0.329,0c0.002,0.002,0.076-0.239,0.02-0.251
			c-0.062-0.014-0.066,0.26-0.095,0.271c-0.234,0.091,0.02-0.125-0.292-0.175c-0.059-0.01-0.179,0.083-0.23,0.059
			c-0.033-0.014-0.01-0.136-0.04-0.153c-0.029-0.017-0.129,0.06-0.154,0.039c-0.029-0.025-0.007-0.134-0.038-0.155
			c-0.146-0.093-0.233-0.087-0.388-0.231c-0.276-0.263,0.196-0.062,0.561-0.058c0.196,0.001,0.127-0.189,0.388-0.098
			c0.003,0.001,0.171,0.177,0.192,0.116c0.109-0.306-0.295-0.082-0.365-0.156c-0.227-0.225-0.023-0.622-0.271-0.752
			c-0.04-0.022,0.117,0.572,0.096,0.386c0.009,0.06-0.136-0.051-0.096-0.058c-0.007,0.001,0.125,0.515-0.309,0.405
			c-0.229-0.058,0.003-0.208-0.271-0.096c0.052-0.022-0.175-0.048-0.077,0.019c-0.246-0.168-0.39-0.464-0.387-0.561
			c0,0,0.152-0.041,0.155-0.039c-0.133-0.183-0.501-0.162-0.602-0.425c-0.003-0.009-0.003-0.253,0-0.329
			c-0.001,0.018,0.013-0.231,0.021-0.251c0.019-0.048,0.108,0.024,0.097,0.058c0.042-0.12-0.014-0.014-0.02-0.076
			C71.875,21.433,72.195,21.641,72.472,21.722z M74.31,23.48c0.045,0.018-0.145,0.083-0.136,0.115
			C74.237,23.848,74.54,23.571,74.31,23.48z"/>
		<path fill="#B4D88B" stroke="#616161" stroke-width="0.0452" d="M59.199,25.46c0-0.006-0.023-0.077-0.021-0.078
			c0.12-0.047,0.47-0.067,0.463,0.213C59.636,25.919,59.139,25.736,59.199,25.46z"/>
		<path fill="#B4D88B" stroke="#616161" stroke-width="0.0452" d="M60.841,25.459c0.095-0.065,0.146-0.113,0.271,0.096
			c0.012,0.021,0.107,0.31,0.137,0.211C61.155,26.085,60.467,25.719,60.841,25.459z"/>
		<path fill="#B4D88B" stroke="#616161" stroke-width="0.0452" d="M78.289,21.661c0.13-0.218,0.585,0.195,0.404,0.309
			C78.571,22.047,78.18,21.843,78.289,21.661z"/>
		<path fill="#B4D88B" stroke="#616161" stroke-width="0.0452" d="M74.328,24.871c-0.044-0.002-0.078-0.113-0.115-0.137
			c-0.003-0.001-0.175-0.053-0.173-0.038C74.01,24.219,75.109,24.902,74.328,24.871z"/>
		<path fill="#B4D88B" stroke="#616161" stroke-width="0.0452" d="M76.28,24.136c0.181-0.172,0.06,0,0.351,0.076
			c0.052,0.015,0.086-0.076,0.056-0.096c0.202,0.142,0.237,0.284,0.271,0.426c0.003,0.007-0.152,0.027-0.153,0.038
			c-0.009,0.047,0.115,0.067,0.115,0.136c0,0.007-0.061,0.043-0.059,0.096c0.001,0.091,0.036,0.247,0,0.33
			c-0.04,0.092-0.285-0.186-0.152,0.039c0.077,0.132-0.104,0.279-0.35,0.251c-0.041-0.005-0.084-0.13-0.115-0.134
			c-0.039-0.008-0.117,0.054-0.154,0.038c-0.139-0.065-0.225-0.218-0.463-0.212c-0.061,0.002-0.057,0.172-0.04,0.174
			c-0.088-0.013-0.515-0.083-0.482-0.29c0.016-0.104,0.38-0.017,0.329-0.001c0.104-0.032-0.011-0.118,0.038-0.173
			c0.013-0.016,0.133,0.052,0.173,0.039c0.017-0.004,0.063-0.101,0.136-0.117c0.005,0-0.065,0.164-0.038,0.175
			c0.265,0.098,0.568-0.125,0.6-0.23C76.386,24.531,76.124,24.287,76.28,24.136z"/>
		<path fill="#B4D88B" stroke="#616161" stroke-width="0.0452" d="M74.231,24.813c0.01,0.003,0.168,0.179,0.194,0.116
			c-0.029,0.067-0.329,0.292-0.502,0.29c-0.001,0-0.118-0.202-0.137-0.213c0.022,0.013-0.493,0.013-0.366-0.154
			c0.059-0.076,0.449-0.116,0.463-0.117C73.828,24.737,74.213,24.803,74.231,24.813z"/>
		<path fill="#B4D88B" stroke="#616161" stroke-width="0.0452" d="M74.986,24.542c-0.006-0.103,0.136-0.116,0.154-0.039
			C75.135,24.625,75.071,24.513,74.986,24.542z"/>
		<path fill="#B4D88B" stroke="#616161" stroke-width="0.0452" d="M79.529,25.951c-0.006,0.02-0.085,0.262-0.098,0.27
			c-0.082,0.061-0.273,0-0.252-0.018c-0.016,0.012-0.062,0.262-0.019,0.25c-0.245,0.062-0.478-0.003-0.502-0.039
			c-0.061-0.084,0.009-0.326,0-0.329c-0.044-0.012-0.199,0.232-0.271,0.231c-0.016,0-0.255-0.189-0.502-0.366
			c-0.264-0.186-0.367-0.235-0.541-0.521c-0.053-0.086-0.154-0.18-0.156-0.291c-0.004-0.153,0.296-0.042,0.311-0.077
			c0.029-0.079-0.146-0.322-0.096-0.387c0.001-0.003,0.23,0.081,0.25,0.019c-0.016,0.053-0.467-0.227-0.193-0.442
			c0.062-0.05,0.434-0.1,0.482-0.04c0.005,0.005-0.062,0.173-0.04,0.173c0.128,0.008,0.159-0.19,0.291-0.154
			c0.044,0.013,0.082,0.2,0.137,0.213c0.09,0.021,0.017-0.169,0.038-0.175c0.021-0.005,0.185,0.153,0.193,0.116
			c0.039-0.155-0.235-0.395,0.23-0.387c0.019,0,0.231,0.088,0.193,0.115c0.16-0.12-0.273-0.354,0.154-0.366
			c0.051,0,0.188-0.078,0.233-0.059c0.07,0.032,0.094,0.269,0.154,0.289c0.033,0.015,0.056-0.247,0.192-0.211
			c0.062,0.017-0.05,0.12-0.057,0.097c0.029,0.095,0.129,0.077,0.19,0.115c0.108,0.067,0.138,0.182,0.329,0
			c0.01-0.01,0.133-0.105,0.135-0.115c0.004-0.022-0.052-0.141-0.04-0.154c0.064-0.057,0.263-0.012,0.312-0.077
			c0.004-0.007-0.016-0.249,0.018-0.251c0.11-0.01,0.043,0.105,0.116,0.134c0.03,0.012,0.133-0.057,0.154-0.038
			c0.033,0.027,0.006,0.129,0.039,0.155c0.066,0.049,0.1,0.001,0.173,0.039c0.032,0.016,0.009,0.136,0.039,0.154
			c0.032,0.018,0.127-0.059,0.156-0.039c-0.034-0.023-0.003,0.229,0.153,0.289c0.03,0.014,0.251-0.01,0.251,0.02
			c-0.005,0.4-0.552-0.027-0.656,0.328c-0.064,0.219,0.252,0.014,0.348,0.078c0.086,0.058,0.046,0.272,0.155,0.289
			c0.098,0.015,0.009-0.151,0.038-0.174c0.021-0.017,0.13,0.045,0.175,0.039c0.192-0.023,0.38-0.176,0.364-0.175
			c0.016-0.001,0.024,0.146,0.04,0.154c-0.146-0.08,0.341-0.064,0.31-0.077c0.183,0.078-0.021,0.168,0.231,0.271
			c0.014,0.005,0.173,0.033,0.175,0.039c0.061,0.097-0.271,0.233-0.271,0.23c0.023-0.053,0.127,0.236,0.039,0.155
			c0.167,0.157,0.872-0.171,0.639,0.251c-0.022,0.042-0.118,0.076-0.137,0.116c-0.055,0.135,0.029,0.326-0.136,0.444
			c-0.118,0.085-0.158-0.18-0.213-0.191c0.066,0.016-0.484,0.135-0.521,0.212c-0.036,0.083,0.168,0.042,0.233,0.271
			c0.004,0.013-0.069,0.432-0.061,0.426c-0.033,0.018-0.45-0.26-0.502-0.366c-0.103-0.226,0.036-0.494-0.078-0.639
			c-0.098-0.125-0.358-0.021-0.424-0.058c-0.105-0.062-0.245-0.368-0.367-0.482c-0.191-0.181-0.214-0.179-0.544-0.194
			c-0.119-0.005-0.22-0.191-0.403,0.021c-0.243,0.278,0.076,0.022-0.328-0.001c-0.182-0.01-0.151,0.201-0.443,0.196
			c-0.012-0.002-0.124-0.104-0.175-0.042c-0.03,0.038,0.519,0.25,0.349,0.079c0.042,0.041-0.1,0.256-0.097,0.269
			C79.45,25.69,79.602,25.703,79.529,25.951z M78.292,24.618c0.02,0.104-0.468-0.245-0.33,0
			C78.084,24.834,78.313,24.728,78.292,24.618z M77.808,24.656c-0.025-0.017-0.107,0.066-0.059,0.097
			C77.775,24.77,77.856,24.685,77.808,24.656z M77.691,25.177c-0.025-0.016-0.105,0.067-0.057,0.097
			C77.661,25.291,77.742,25.208,77.691,25.177z M78.213,25.622c0.137-0.228-0.394-0.321-0.366-0.155
			C77.85,25.487,78.207,25.635,78.213,25.622z M78.388,25.661c-0.052,0.065,0.159,0.033,0.174,0.039
			C78.81,25.753,78.449,25.58,78.388,25.661z"/>
		<path fill="#B4D88B" stroke="#616161" stroke-width="0.0452" d="M49.23,31.573c-0.046-0.148,0.359-0.162,0.25,0.02
			C49.451,31.642,49.228,31.564,49.23,31.573z"/>
		<path fill="#B4D88B" stroke="#616161" stroke-width="0.0452" d="M73.343,25.529c0.009-0.028,0.124-0.179,0.214-0.135
			C73.771,25.496,73.188,26.018,73.343,25.529z"/>
		<path fill="#B4D88B" stroke="#616161" stroke-width="0.0452" d="M73.673,25.856c0.148-0.249,0.435,0.044,0.366,0.156
			C73.939,26.178,73.577,26.018,73.673,25.856z"/>
		<path fill="#B4D88B" stroke="#616161" stroke-width="0.0452" d="M75.972,25.527c0.019-0.093,0.447-0.131,0.503,0.038
			c0.002,0.006-0.171,0.343-0.348,0.252C76.139,25.824,75.995,25.405,75.972,25.527z"/>
		<path fill="#B4D88B" stroke="#616161" stroke-width="0.0452" d="M73.479,26.399c0.204-0.271,0.424,0.171,0.504,0.367
			c-0.004-0.008-0.269-0.108-0.271-0.096c-0.036,0.147,0.259,0.224,0.195,0.444c-0.025,0.081-0.197-0.033-0.176-0.038
			c-0.03,0.007-0.161,0.157-0.115,0.192C73.363,27.063,73.265,26.684,73.479,26.399z"/>
		<path fill="#B4D88B" stroke="#616161" stroke-width="0.0452" d="M62.158,29.729c0.006-0.122,0.067-0.01,0.153-0.039
			C62.318,29.792,62.177,29.807,62.158,29.729z"/>
		<path fill="#B4D88B" stroke="#616161" stroke-width="0.0452" d="M80.495,25.214c-0.006-0.102,0.133-0.116,0.152-0.038
			C80.592,25.241,80.534,25.304,80.495,25.214z"/>
		<path fill="#B4D88B" stroke="#616161" stroke-width="0.0452" d="M79.585,25.524c-0.014-0.127,0.09-0.024,0.099,0.06
			C79.695,25.709,79.596,25.608,79.585,25.524z"/>
		<path fill="#B4D88B" stroke="#616161" stroke-width="0.0452" d="M74.06,27.074c0.003-0.007-0.022-0.075-0.02-0.078
			c0.264-0.116,0.094,0.343-0.02,0.251C74.026,27.253,74.054,27.085,74.06,27.074z"/>
		<path fill="#B4D88B" stroke="#616161" stroke-width="0.0452" d="M76.766,26.396c0.139-0.076,0.04-0.117,0.172,0.039
			c0.017,0.02,0.107,0.196,0.138,0.212c0.065,0.036,0.232-0.092,0.31-0.077c0.101,0.02,0.443,0.277,0.502,0.367
			c-0.006-0.011,0.08,0.406,0.097,0.387c-0.104,0.12-0.233,0.001-0.502-0.039c-0.121-0.018-0.438,0.002-0.504-0.038
			c-0.084-0.052-0.076-0.218-0.152-0.289c0.189,0.172,0.34-0.146,0.114-0.194c-0.087-0.018-0.411,0.066-0.386-0.23
			C76.551,26.537,76.76,26.399,76.766,26.396z"/>
		<path fill="#B4D88B" stroke="#616161" stroke-width="0.0452" d="M80.475,25.467c0.168-0.28,0.62,0.168,0.503,0.365
			C80.973,25.843,80.386,25.615,80.475,25.467z"/>
		<path fill="#B4D88B" stroke="#616161" stroke-width="0.0452" d="M64.728,29.825c0.082-0.037,0.108-0.165,0.312-0.079
			c0.203,0.088,0.268,0.261-0.177,0.291c-0.173,0.013-0.285,0.029-0.346-0.078C64.47,29.88,64.669,29.851,64.728,29.825z"/>
		<path fill="#B4D88B" stroke="#616161" stroke-width="0.0452" d="M83.354,25.155c0.008-0.121,0.071-0.009,0.155-0.038
			C83.515,25.219,83.374,25.232,83.354,25.155z"/>
		<path fill="#B4D88B" stroke="#616161" stroke-width="0.0452" d="M75.452,28.368c0.192-0.035-0.068-0.641,0.251-0.312
			c0,0,0.144,0.215,0.137,0.214c0.097,0.017-0.048-0.424,0.328-0.33c0.003,0.001,0.178,0.178,0.135,0.212
			c0.24-0.194-0.492-0.514,0.172-0.288c0.158,0.052,0.325,0.211,0.368,0.153c0.053-0.067-0.473-0.326-0.502-0.367
			c-0.084-0.118,0.026-0.22,0.019-0.251c-0.006-0.021-0.202-0.229-0.213-0.192c0.005-0.019,0.222-0.208,0.192-0.213
			c0.135,0.021,0.312,0.312,0.328,0.327c0.053,0.051,0.815,0.688,1.181,0.772c0.112,0.027,0.271-0.1,0.387-0.097
			c-0.314-0.008,0.271,0.007,0.368,0.153c0.062,0.099-0.139,0.312-0.057,0.427c0.108,0.158,0.037-0.091,0.057-0.098
			c0.338-0.121,0.335,0.612-0.116,0.522c-0.479-0.098-0.068,0.261-0.173,0.619c0.004-0.019-0.14,0.119-0.136,0.113
			c-0.018,0.031-0.148,0.266-0.25,0.312c-0.233,0.104-0.096-0.139-0.291-0.174c-0.198-0.033-0.902,0.177-1.004-0.076
			c-0.073-0.177,1.155-1,0.095-0.601c-0.094,0.036-0.44,0.464-0.619,0.155c-0.021-0.041,0.164-0.425,0.137-0.443
			c-0.032-0.024-0.201,0.215-0.194,0.212c-0.104,0.026-0.05-0.112-0.115-0.135c-0.122-0.043-0.253,0.09-0.347-0.077
			c-0.008-0.015-0.062-0.229-0.058-0.232c-0.221,0.133,0.356,1.239-0.366,0.831c-0.062-0.033-0.154-0.181-0.213-0.192
			c-0.054-0.011-0.277,0.11-0.311,0.076c-0.139-0.135-0.164-0.669-0.309-0.907c-0.093-0.146-0.12-0.108-0.214-0.192
			c-0.13-0.114-0.142-0.178,0-0.329c0.253-0.271,0.232,0.029,0.58,0.02c0.104-0.004,0.192-0.218,0.27-0.231
			c-0.07,0.013,0.434,0.123,0.444,0.135C75.547,28.045,75.321,28.249,75.452,28.368z"/>
		<path fill="#B4D88B" stroke="#616161" stroke-width="0.0452" d="M81.521,27.34c-0.006-0.104,0.136-0.118,0.153-0.04
			C81.668,27.422,81.604,27.311,81.521,27.34z"/>
		<path fill="#B4D88B" stroke="#616161" stroke-width="0.0452" d="M82.949,27.146c0.006-0.12,0.069-0.008,0.153-0.039
			C83.11,27.21,82.969,27.225,82.949,27.146z"/>
		<path fill="#B4D88B" stroke="#616161" stroke-width="0.0452" d="M81.617,27.726c-0.065-0.342,0.069-0.006,0.153-0.039
			c0.085-0.03,0-0.154,0.038-0.175c0.094-0.046,0.28-0.089,0.387-0.095c0.126-0.009,0.233,0.1,0.271,0.095
			c-0.002,0,0.58-0.271,0.465,0.213c-0.029,0.12-0.385,0.119-0.387,0.099c-0.003-0.013,0.457,0.508,0.406,0.637
			c-0.032,0.08-0.192-0.032-0.177-0.04c-0.207,0.087,0.037,0.28-0.251-0.018c-0.065-0.071-0.134-0.132-0.211-0.194
			c-0.066-0.054-0.286-0.135-0.387-0.231c-0.031-0.028-0.007-0.129-0.04-0.153C81.864,27.806,81.618,27.74,81.617,27.726z"/>
		<path fill="#B4D88B" stroke="#616161" stroke-width="0.0452" d="M83.529,27.823c-0.077-0.313,0.224,0.066,0.193,0.115
			C83.701,27.976,83.538,27.86,83.529,27.823z"/>
		<path fill="#B4D88B" stroke="#616161" stroke-width="0.0452" d="M57.619,34.563c0.059-0.026,0.026-0.071,0.154-0.039
			c0.003,0.001,0.172,0.059,0.173,0.039C57.933,34.784,56.991,34.847,57.619,34.563z"/>
		<path fill="#B4D88B" stroke="#616161" stroke-width="0.0452" d="M83.202,28.151c0.001-0.103,0.053-0.049,0.076-0.02
			c-0.062-0.078,0.253,0.346,0.192,0.445C83.474,28.575,83.191,28.648,83.202,28.151z"/>
		<path fill="#B4D88B" stroke="#616161" stroke-width="0.0452" d="M38.626,39.407c0.007,0,0.014,0.066,0.019,0.075
			c0.124,0.238,0.23-0.008,0.367,0.155c0.261,0.312-0.042,0.603-0.425,0.599c-0.117,0.001,0.07-0.345-0.311-0.249
			c-0.488,0.121-0.087-0.229-0.076-0.311c0.006-0.062-0.083-0.174-0.117-0.134C38.161,39.46,38.48,39.362,38.626,39.407z"/>
		<path fill="#B4D88B" stroke="#616161" stroke-width="0.0452" d="M46.664,38.376c-0.008,0.002,0.007-0.083,0.059-0.097
			c0.036-0.009,0.275,0.103,0.212,0.192C46.779,38.698,45.815,38.624,46.664,38.376z"/>
		<path fill="#B4D88B" stroke="#616161" stroke-width="0.0452" d="M88.321,27.935c0.058-0.535,0.303,0.866,0.059,0.232
			C88.361,28.117,88.316,27.988,88.321,27.935z"/>
		<path fill="#B4D88B" stroke="#616161" stroke-width="0.0452" d="M89.057,28.244c-0.049-0.029,0.032-0.112,0.06-0.097
			C89.165,28.177,89.084,28.261,89.057,28.244z"/>
		<path fill="#B4D88B" stroke="#616161" stroke-width="0.0452" d="M52.421,37.425C52.333,37.861,51.55,37.514,52.421,37.425
			L52.421,37.425z"/>
		<path fill="#B4D88B" stroke="#616161" stroke-width="0.0452" d="M65.736,34.5c0.146-0.244,0.396,0.127,0.639,0.25
			c0.019,0.01,0.27-0.014,0.191,0.117C66.386,35.166,65.674,34.604,65.736,34.5z"/>
		<path fill="#B4D88B" stroke="#616161" stroke-width="0.0452" d="M86.236,29.771c-0.008-0.147,0.456,0.114,0.328,0.33
			C86.562,30.105,86.241,29.865,86.236,29.771z"/>
		<path fill="#B4D88B" stroke="#616161" stroke-width="0.0452" d="M66.781,36.701c0.023-0.097,0.285-0.269,0.403-0.019
			c0.045,0.093,0.186,0.44-0.173,0.29C66.955,36.948,66.776,36.711,66.781,36.701z"/>
		<path fill="#B4D88B" stroke="#616161" stroke-width="0.0452" d="M87.706,31.704c-0.012-0.005-0.084-0.301-0.078-0.309
			c0.097-0.113,0.389,0.14,0.154,0.289C87.775,31.69,87.714,31.707,87.706,31.704z"/>
		<path fill="#B4D88B" stroke="#616161" stroke-width="0.0452" d="M71.381,38.342c-0.215-0.083,0.178-0.405,0.27-0.232
			C71.684,38.171,71.486,38.384,71.381,38.342z"/>
		<path fill="#B4D88B" stroke="#616161" stroke-width="0.0452" d="M71.381,38.342c0.102,0.029,0.37,0.094,0.251,0.348
			c-0.015,0.032-0.138,0.01-0.155,0.038C71.43,38.81,71.459,38.935,71.381,39c0-0.001-0.205,0.119-0.136,0.115
			c-0.033,0.001-0.437-0.222-0.444-0.464c-0.004-0.091,0.326,0.081,0.269,0.098c0.124-0.034-0.018-0.17,0.021-0.251
			c0.013-0.027,0.153,0.083,0.174,0.038C71.287,38.488,71.228,38.299,71.381,38.342z"/>
		<path fill="#B4D88B" stroke="#616161" stroke-width="0.0452" d="M90.51,34.698c0.171-0.303,0.247,0.41-0.018,0.251
			C90.444,34.921,90.501,34.714,90.51,34.698z"/>
		<path fill="#B4D88B" stroke="#616161" stroke-width="0.0452" d="M95.656,42.115c-0.053-0.03,0.028-0.112,0.056-0.098
			C95.763,42.049,95.682,42.131,95.656,42.115z"/>
		<path fill="#B4D88B" stroke="#616161" stroke-width="0.0452" d="M95.732,42.425c-0.062-0.098,0.21-0.092,0.232-0.058
			C96.027,42.464,95.753,42.459,95.732,42.425z"/>
		<path fill="#B4D88B" stroke="#616161" stroke-width="0.0452" d="M96.273,42.616c0.021,0.078,0.04,0.154,0.06,0.232
			C96.23,42.875,96.18,42.66,96.273,42.616z"/>
		<path fill="#B4D88B" stroke="#616161" stroke-width="0.0452" d="M96.294,43.352c-0.016-0.126,0.088-0.025,0.096,0.059
			C96.402,43.536,96.303,43.435,96.294,43.352z"/>
		<path fill="#B4D88B" stroke="#616161" stroke-width="0.0452" d="M48.646,14.393c0.104-0.025,0.522-0.218,0.625-0.244
			c0.036,0.083,0.215-0.012,0.204-0.054c1.186-0.297,3.189-0.834,4.373-1.131c2.75-0.463,4.95-0.454,7.463-0.353
			c1.227,0.049,2.257,0.179,3.413,0.38c0.066,0.011,0.274-0.013,0.267,0.175c-0.037-0.008-0.089,0.144-0.138,0.113
			c-0.016-0.008,0.073-0.165,0.037-0.173c-0.083-0.019-0.469-0.002-0.83-0.038c-0.31-0.03-0.682-0.088-0.753-0.059
			c-0.118,0.05,0.077,0.375-0.251,0.31c-0.022-0.004-0.104-0.136-0.115-0.136c-0.048,0.002-0.165,0.137-0.292,0.155
			c-0.113,0.016-1.037-0.134-1.08-0.057c-0.072,0.116,0.464,0.185,0.289,0.173c0.142,0.008,1.031-0.148,1.198-0.138
			c0.074,0.007,0.174,0.085,0.271,0.099c0.111,0.013,0.22-0.038,0.327-0.001c0.19,0.062,0.506,0.406,0.484,0.29
			c0.103,0.561,0.271-0.118-0.368,0.173c-0.676,0.309,0.216,0.357,0.561,0.27c0.135-0.032-0.104-0.142,0.098-0.27
			c0.058-0.038,0.701-0.031,0.716-0.1c0.059-0.279-0.753-0.246-0.733-0.308c0.023-0.255,0.163-0.028,0.388-0.097
			c0.171-0.055,0.332-0.262,0.5-0.29c-0.009,0-0.056,0.123-0.135,0.115c0.207,0.016,0.227-0.11,0.562-0.059
			c0.18,0.028,0.548,0.134,0.868,0.192c0.155,0.027,0.277,0.028,0.427,0.058c0.272,0.054,0.365,0.111,0.695,0.155
			c0.78,0.103-0.547,0.179-0.793,0.116c0.024,0.008-0.126-0.142-0.115-0.136c0.046,0.03-0.316-0.128-0.348-0.076
			c0.003-0.007,0.395,0.266,0.481,0.29c0.229,0.062,0.516-0.046,0.733-0.021c0.079,0.008,0.171,0.084,0.271,0.096
			c0.117,0.017,0.212-0.031,0.329,0c0.035,0.011,0.084,0.13,0.115,0.137c0.188,0.032,0.289,0.004,0.289,0.173
			c0,0.009,0.182,0.162,0.136,0.213c-0.101,0.111-1.329-0.105-1.796,0.04c-0.132,0.04-0.176,0.15-0.349,0.251
			c-0.233,0.137-0.667,0.223-0.174,0.292c-0.185,0.135-0.418-0.108-0.6-0.098c-0.071,0.004-0.209,0.214-0.27,0.232
			c-0.167,0.05-0.191-0.1-0.271-0.097c-0.047,0.003-0.171,0.134-0.291,0.155c-0.118,0.02-0.162-0.046-0.252-0.021
			c-0.108,0.032-0.125,0.128-0.211,0.135c-0.178,0.02-0.162-0.071-0.271-0.095c-0.029-0.006-0.098,0.145-0.137,0.116
			c-0.013-0.01-0.026-0.156-0.039-0.155c-0.104,0.007,0.005,0.157-0.037,0.174c-0.196,0.085-0.201-0.146-0.351-0.076
			c-0.015,0.007,0.025,0.101-0.056,0.097c-0.161-0.01-0.371-0.034-0.427-0.059c-0.099-0.043-0.052-0.321-0.31-0.25
			c-0.029,0.006-0.094,0.14-0.212,0.135c0.05,0.004-0.13-0.142-0.117-0.135c-0.197-0.092-0.728,0.042-1.062,0.02
			c-0.386-0.026-0.777-0.125-1.199-0.192c0.012,0.002-0.264-0.04-0.251-0.018c-0.004-0.009,0.016-0.312,0.233-0.389
			c0.048-0.017,0.339,0.066,0.425,0.059c0.118-0.011,0.876,0.069,0.908,0.018c0.124-0.206-0.356-0.098-0.445-0.135
			c-0.049-0.02-0.085-0.183-0.135-0.212c-0.046-0.025-0.128-0.011-0.174-0.038c0.01,0.006-0.854-0.09-0.908-0.018
			c-0.039,0.051,0.446,0.044,0.426,0.059c-0.186,0.121-0.432,0.044-0.62,0.155c-0.37,0.218,0.183-0.164,0.137,0.211
			c0,0-0.122,0.189-0.271,0.232c-0.146,0.041-0.36-0.004-0.349-0.078c-0.017,0.104,0.229,0.317,0.427,0.388
			c0.029,0.01,0.252-0.007,0.251,0.018c-0.006,0.083-0.443,0.225-0.618,0.155c-0.177-0.066,0.04-0.386-0.465-0.21
			c-0.125,0.043,0.051,0.081,0.039,0.153c-0.003,0.021-0.143,0.02-0.155,0.038c-0.029,0.052,0.082,0.086,0.097,0.062
			c-0.085,0.146-0.331,0.271-0.462,0.444c-0.224,0.288,0.005-0.179-0.349-0.078c-0.052,0.014-0.268,0.234-0.387,0.426
			c0.009-0.013-0.09,0.115-0.059,0.096c-0.269,0.171-0.531,0.058-0.115,0.194c0.001,0,0.296,0.02,0.194,0.114
			c-0.12,0.11-0.676,0.26-0.986,0.33c-0.284,0.062-0.634-0.076-0.792,0.116c-0.011,0.013,0.129,0.158,0.291,0.174
			c0.045,0.004,0.375-0.014,0.328,0c0.229-0.059,0.355-0.193,0.714-0.098c0.109,0.029,0.315,0.062,0.35,0.076
			c0.045,0.022,0.018,0.2,0.058,0.233c0.188,0.152,0.752,0.274,0.793,0.54c-0.011-0.072-0.227,0.015-0.251-0.019
			c-0.002-0.002,0.055-0.176,0.038-0.175c-0.182,0.014-0.33,0.381-0.697,0.175c-0.061-0.036-0.147-0.179-0.212-0.193
			c-0.151-0.037-0.409,0.104-0.637,0.077c-0.247-0.025-0.61-0.283-0.89-0.271c-0.313,0.014-0.464,0.158-0.541,0.136
			c-0.158-0.046-0.577-0.449-0.483-0.29c-0.046-0.079-0.008-0.33,0-0.329c-0.157-0.027-0.438,0.166-0.445,0.193
			c-0.003,0.011,0.32,0.417,0.445,0.463c0.162,0.06,0.451-0.084,0.657,0c-0.017-0.008-0.061,0.248-0.02,0.252
			c0.168,0.014,0.115-0.188,0.271-0.233c0.226-0.065,0.4,0.131,0.695,0.155c0.216,0.018,0.549-0.104,0.638-0.078
			c0.092,0.026,0.208,0.307,0.33,0.329c0.015,0.003,0.148-0.048,0.153-0.04c0.177,0.359-0.481-0.179-0.521,0.214
			c0-0.008,0.285,0.134,0.211,0.193c-0.154,0.128-0.421,0.105-0.598,0.233c-0.005,0-0.128,0.13-0.136,0.113
			c0.058,0.112,0.328-0.1,0.541-0.136c-0.057,0.009,0.629-0.021,0.656-0.001c0.192,0.136-0.158,0.546-0.077,0.677
			c0.081,0.128,0.527-0.074,0.773,0.136c0.108,0.093,0.064,0.417,0.214,0.521c0.093,0.065,0.27,0.062,0.153,0.29
			c-0.052,0.101-0.195,0.147,0.001,0.327c0.098,0.091,0.049-0.025,0.075-0.02c0.125,0.029,0.042,0.154,0.137,0.213
			c0.115,0.07,0.172-0.031,0.328,0c0.184,0.037,0.42,0.3,0.425,0.386c0.013,0.203-0.348,0.006-0.327,0.001
			c-0.093,0.024-0.072,0.167-0.116,0.191c-0.085,0.051-0.212-0.064-0.252-0.02c-0.06,0.075,0.187,0.472,0.194,0.446
			c-0.027,0.094-0.431,0.271-0.423,0.271c-0.176,0.07-0.285-0.011-0.406,0.02c-0.162,0.041-0.099,0.094-0.426-0.058
			c-0.449-0.208-0.233-0.086-0.367-0.153c0.018,0.01-0.584-0.38-0.311-0.252c-0.085-0.039-0.843-0.181-0.114,0.193
			c0.065,0.035,0.232,0.021,0.271,0.098c0.014,0.03,0.015,0.313,0,0.328c-0.03,0.031-0.304,0.041-0.309,0.078
			c-0.031,0.219,0.289,0.161,0.347,0.405c-0.007-0.035-0.015,0.222-0.018,0.252c-0.01,0.064-0.287-0.094-0.291,0.155
			c-0.004,0.368,0.136,0.375,0.425,0.386c-0.029,0,0.348,0.025,0.328,0c0.059,0.081-0.161,0.256-0.154,0.367
			c0.023,0.327,0.39,0.282-0.192,0.542c-0.066,0.03-0.014-0.083-0.077,0.018c-0.163,0.258-0.119-0.15-0.388,0.099
			c0.047-0.043-0.338,0.49-0.386,0.424c0.093,0.125,0.233,0.088,0.348,0.078c0.117-0.013,0.296-0.228,0.465-0.117
			c0.03,0.019-0.113,0.217-0.097,0.271c0.033,0.104,0.273,0.139,0.31,0.25c0.007,0.021-0.065,0.301-0.098,0.272
			c0.096,0.085,0.237-0.065,0.329-0.002c0.021,0.018,0.036,0.231,0.059,0.232c0.176,0.006,0.13-0.178,0.191-0.213
			c-0.038,0.021,0.3-0.07,0.232-0.058c0.038-0.006,0.177,0.014,0.252,0.019c-0.021-0.001,0.268,0.018,0.153-0.039
			c0.248,0.118,0.231,0.311,0.39,0.562c0.179,0.287,0.384,0.514,0.444,0.792c-0.003-0.008-0.235-0.074-0.252-0.021
			c-0.073,0.274,0.035,0.422,0.156,0.619c0.124,0.202,0.543,0.202,0.852,0.443c0.062,0.05,0.083,0.159,0.134,0.213
			c0.148,0.159,0.028,0.215-0.038,0.502c-0.038,0.163-0.062,0.42-0.059,0.424c0.115,0.198,0.126-0.086,0.406-0.019
			c0.033,0.008,0.498,0.503,0.715,0.561c0.257,0.065,0.276-0.199,0.271,0.096c-0.007,0.254,0.149,0.463,0.444,0.463
			c0.064,0.001,0.002-0.462,0.191-0.54c0.205-0.086,0.206,0.251,0.601,0.423c0.177,0.077,0.528,0.049,0.601,0.096
			c0.067,0.046,0.216,0.308,0.367,0.483c0.115,0.136,0.225,0.271,0.348,0.405c0.292,0.323,0.678,0.631,0.772,0.792
			c0.056,0.094,0.021,0.316,0.098,0.388c0.081,0.074,0.206,0.098,0.368,0.153c0.261,0.095,0.447,0.183,0.696,0.483
			c0.084,0.104,0.213,0.274-0.059,0.426c-0.108,0.06-0.134-0.046-0.175-0.039c-0.052,0.012-0.076,0.099-0.056,0.099
			c-0.049,0.001-0.334-0.046-0.271-0.097c-0.062,0.052,0.028,0.251-0.078,0.347c-0.022,0.021-0.227,0.031-0.231,0.059
			c-0.008,0.04,0.187,0.276,0.154,0.292c-0.16,0.07-0.685-0.113-0.831-0.367c-0.107-0.188-0.046-0.399-0.213-0.521
			c-0.048-0.034-0.378-0.027-0.444-0.134c-0.011-0.019,0.145-0.564-0.059-0.562c-0.171,0.004-0.059,0.335-0.136,0.445
			c-0.12,0.174-0.534,0.323-0.753,0.271c-0.392-0.095-0.177-0.108-0.078,0.349c0.025,0.114-0.037,0.374-0.038,0.503
			c0,0.29,0.094,0.281-0.058,0.426c-0.222,0.209-0.422-0.193-0.714-0.232c-0.077-0.011-0.327,0.032-0.483,0.038
			c-0.358,0.018-1.662,0.166-1.913,0.562c0.006-0.013-0.127,0.087-0.059,0.096c-0.199-0.024-0.021-0.233-0.193-0.444
			c-0.03-0.036-0.441-0.196-0.541-0.191c-0.13,0.005-0.361,0.203-0.445,0.191c-0.346-0.045,0.282-0.213,0.078-0.348
			c-0.157-0.101-0.285,0.231-0.521,0.214c-0.134-0.01-0.016-0.38-0.328-0.329c-0.036,0.005-1.116,0.731-1.122,0.773
			c-0.005,0.041,0.316,0.232,0.309,0.251c-0.032,0.097-0.105,0.037-0.27,0.232c-0.204,0.244-0.143,0.637-0.233,0.715
			c-0.014,0.014-0.344-0.166-0.443-0.137c-0.244,0.076-0.149,0.568-0.327,0.658c-0.13,0.065-0.616-0.146-0.909-0.019
			c-0.218,0.096-0.276,0.466-0.367,0.502c-0.337,0.134-0.179-0.255-0.542-0.191c-0.144,0.024-0.12,0.282-0.309,0.405
			c-0.023,0.016-0.998,0.387-1.062,0.349c0.028,0.018,0.271-0.661,0.31-0.734c0.155-0.294,0.27-0.312,0.424-0.6
			c0.049-0.091,0.021-0.229,0.077-0.348c0.25-0.521,0.487-0.819,0.925-1.218c0.208-0.188,0.493-0.445,0.929-0.561
			c0.136-0.039,0.188,0.079,0.348,0.075c0.285-0.006,0.689-0.15,1.004-0.252c0.355-0.114,0.777-0.382,0.967-0.406
			c0.091-0.012,0.454,0.146,0.521,0.117c0.229-0.093,0.193-0.241,0.251-0.309c0.062-0.072,0.165-0.062,0.213-0.137
			c0.054-0.084,0.041-0.247,0.35-0.251c0.008-0.001,0.167,0.063,0.172,0.039c0.01-0.045-0.013-0.306-0.386-0.23
			c-0.243,0.048-0.182,0.374-0.31,0.404c-0.269,0.064-0.086-0.139-0.368-0.153c-0.408-0.022-0.562,0.317-0.772,0.192
			c0.069,0.041-0.025-0.261-0.039-0.155c0.026-0.223,0.041-0.075,0.195-0.212c0.394-0.354-0.081-0.303-0.522-0.444
			c-0.032-0.011-0.172-0.117-0.193-0.115c-0.226,0-1.326,0.281-1.449,0.444c-0.086,0.115,0.226,0.349,0.097,0.386
			c-0.163,0.049-0.994-0.311-1.103-0.462c-0.289-0.405,0.296-0.041,0.31-0.078c-0.002,0.005-0.322-0.613-0.407-0.638
			s-0.312,0.146-0.386,0.097c-0.07-0.046-0.171-0.309-0.368-0.481c-0.083-0.073-0.165,0.032-0.25-0.02
			c-0.069-0.042-0.098-0.241-0.155-0.29c-0.05-0.042-0.133-0.068-0.192-0.117c-0.395-0.312-0.304-0.281-0.947-0.173
			c-0.392,0.067-1.298,0.216-1.836,0.216c-0.205-0.002-0.441-0.088-0.598-0.097c-0.065-0.004-0.554-0.043-0.58-0.021
			c-0.311,0.266,0.157,0.303,0.135,0.544c0,0-0.631,0.231-0.25,0.308c0.111,0.022,0.4-0.112,0.096,0.059
			c-0.51,0.288,0.32,0.107,0.271,0.097c0.214,0.045,0.374,0.271,0.329,0.655c-0.017,0.125-0.104,0.438-0.214,0.465
			c-0.047,0.012-0.124-0.081-0.174-0.039c-0.136,0.11-0.044,0.472-0.154,0.366c0.167,0.158,0.09-0.143,0.426-0.27
			c0.127-0.049,0.315,0.026,0.405-0.021c0.212-0.107,0.209-0.292,0.404-0.347c0.045,0.188-0.141,0.275-0.23,0.386
			c-0.052,0.063-0.074,0.139-0.117,0.194c-0.051,0.063-0.152,0.066-0.211,0.134c-0.104,0.118-0.128,0.274-0.232,0.389
			c-0.089,0.097-0.273,0.146-0.348,0.252c-0.053,0.073-0.109,0.258-0.212,0.464c-0.049,0.097-0.524,1.197-0.597,1.218
			c-0.031,0.008-0.203-0.518-0.214-0.523c-0.276-0.109-0.901,0.55-0.966,0.737c-0.033,0.097,0.007,0.095-0.038,0.173
			c-0.107,0.189,0.062,0.458-0.348,0.58c0.141-0.042,0.146-0.185,0.077-0.349c-0.071-0.169-0.154-0.043-0.173-0.038
			c-0.025,0.007-0.311,0.07-0.311,0.076c-0.013-0.159,0.888-0.965,1.102-1.179c0.646-0.641,1.082-0.928,1.371-1.411
			c0.016-0.028,0.25-0.245,0.174-0.29c-0.027-0.018-0.889,0.304-1.044,0.425c-0.318,0.25-0.594,0.685-0.714,0.754
			c-0.149,0.087-0.415,0.083-0.696,0.174c-0.804,0.26-1.634,0.566-2.608,0.736c-0.592,0.104-0.621,0.078-1.083-0.06
			c-0.146-0.042-0.347-0.076-0.349-0.076c-0.006-0.008-0.009-0.529-0.057-0.56c-0.123-0.08-0.271,0.095-0.484,0.038
			c-0.018-0.006-0.023-0.156-0.039-0.156c-0.049,0.002-0.163,0.142-0.29,0.154c-0.015,0.003-0.274-0.093-0.271-0.095
			c-0.234,0.081-0.26,0.329-0.481,0.366c-0.364,0.062-0.862-0.227-1.024-0.152c-0.333,0.149-0.222,0.617-0.29,0.812
			c-0.042,0.121-0.216,0.32-0.29,0.483c-0.09,0.199-0.124,0.445-0.192,0.541c-0.111,0.158-0.589,0.699-0.965,0.734
			c-0.018,0-0.04-0.219-0.059-0.232c-0.011-0.007-0.145,0.173-0.212,0.137c-0.048-0.025-0.011-0.204-0.059-0.231
			c-0.1-0.06-0.214,0.048-0.327,0c-0.026-0.011,0.083-0.152,0.038-0.174c0.021,0.013-0.335,0.062-0.292-0.175
			c-0.003,0.029,0.214-0.136,0.214-0.135c0.002-0.003,0.044-0.178,0.04-0.173c0.116-0.105,0.382-0.052,0.521-0.213
			c0.042-0.049,0.076-0.214,0.097-0.272c0.014-0.035,0.069-0.246,0.096-0.269c0.16-0.155,0.257,0.1,0.271,0.097
			c0.142-0.038,0.279-0.327,0.288-0.483c0.017-0.286-0.279-0.46-0.175-0.694c0.103-0.229,0.281,0.016,0.328-0.001
			c0.079-0.029,0.127-0.155,0.194-0.213c-0.007,0.007,0.292-0.169,0.289-0.153c0.062-0.275-0.133-0.641-0.174-0.697
			c-0.076-0.102-0.541-0.176-0.717-0.231c0.01,0.003-0.262-0.053-0.251-0.019c-0.071-0.212,0.294-0.064,0.309-0.079
			c0.089-0.068-0.016-0.215,0.098-0.27c0.223-0.112,0.358,0.007,0.482-0.039c0.236-0.086,0.354-0.28,0.31-0.407
			c-0.104-0.299-0.561-0.133-0.928-0.095c-0.211,0.021-0.326-0.01-0.464-0.212c-0.103-0.153-0.127-0.249-0.349-0.078
			c-0.245,0.188,0.125,0.261-0.019,0.58c-0.056,0.127-0.254,0.216-0.271,0.23c-0.188,0.184-0.23,0.246,0.098,0.388
			c0.253,0.109,0.224,0.055,0.271,0.425c0.042,0.33,0.171,0.527,0,0.656c-0.12,0.093-0.448-0.388-0.6-0.422
			c0.062,0.013-0.287,0.063-0.23,0.057c-0.118,0.017-0.751,0.083-0.793,0.116c-0.224,0.175,0.035,0.203-0.038,0.503
			c-0.03,0.131-0.384,0.599-0.541,0.793c-0.15,0.187-0.166,0.313-0.25,0.638c-0.02,0.075-0.071,0.341-0.076,0.348
			c-0.047,0.079-0.186-0.271-0.156-0.289c-0.202,0.13,0.019,0.791-0.425,0.601c-0.021-0.01-0.147-0.178-0.192-0.117
			c-0.071,0.094,0.133,0.485,0.019,0.734c0.03-0.064-0.165,0.049-0.153,0.039c-0.043,0.04-0.078,0.156-0.115,0.191
			c-0.069,0.065-0.091-0.135-0.116-0.135c-0.104,0.002,0,0.137-0.04,0.174c-0.062,0.059-0.186-0.026-0.174-0.041
			c-0.298,0.296,0.127,0.165-0.251,0.312c-0.002,0.001-0.052-0.231-0.058-0.232c-0.114-0.002-0.126,0.123-0.35,0.25
			c-0.103,0.062-0.318,0.186-0.443,0.195c0.062-0.005,0-0.243,0.02-0.252c-0.128,0.062-0.036,0.226-0.097,0.271
			c-0.039,0.03-0.125-0.09-0.173-0.041c0.002,0-0.192,0.372-0.233,0.39c-0.195,0.089,0.099-0.148-0.212-0.193
			c-0.042-0.006-0.239,0.154-0.289,0.154c-0.103,0-0.09-0.21-0.136-0.212c-0.048-0.001-0.053,0.199-0.193,0.212
			c-0.229,0.022-0.2-0.229-0.386-0.231c-0.021,0-0.198,0.214-0.29,0.154c-0.073-0.044-0.112-0.204-0.156-0.289
			c-0.046-0.091-0.078-0.26-0.058-0.233c-0.154-0.21-0.337,0.117-0.232-0.271c0.002-0.007,0.095-0.212,0.116-0.191
			c-0.111-0.108-0.206,0.217-0.193,0.211c-0.141,0.042,0.017-0.134-0.039-0.153c-0.043-0.017-0.199,0.087-0.231,0.059
			c-0.076-0.065,0.037-0.173,0.038-0.173c-0.072-0.106-0.072,0.021-0.078,0.019c-0.059-0.023-0.279-0.252-0.33-0.33
			c-0.062-0.097-0.074-0.199-0.251-0.019c-0.09,0.094-0.28,0.35-0.174-0.038c0.01-0.037,0.13-0.086,0.136-0.116
			c0.004-0.032-0.057-0.128-0.04-0.156c0.116-0.162,0.321-0.113,0.348-0.25c0.024-0.12-0.148-0.155-0.154-0.29
			c-0.006-0.137,0.188-0.195-0.021-0.405c-0.07-0.071-0.08-0.005-0.174-0.039c-0.02-0.007-0.123-0.136-0.115-0.135
			c0.044,0.002-0.396,0.115-0.311,0.076c-0.125,0.058-0.437,0.345-0.521,0.542c-0.042,0.1,0.005,0.277-0.057,0.425
			c-0.098,0.23-0.25,0.419-0.328,0.657c-0.127,0.387-0.146,0.75-0.271,1.219c-0.088,0.327-0.28,0.71-0.464,1.101
			c-0.095,0.2-0.188,0.332-0.27,0.562c0,0.003-0.033,0.165-0.038,0.173c-0.04,0.06-0.109-0.048-0.097-0.059
			c0.096-0.071-0.378,0.522-0.443,0.522c-0.208-0.003-0.233-0.49-0.426-0.387c-0.021-0.077-0.039-0.154-0.06-0.232
			c-0.001-0.408,0.055-0.643,0.135-1.101c0.086-0.494,0.182-0.765,0.348-1.238c0.065-0.187,0.185-0.397,0.193-0.542
			c0.006-0.11-0.13-0.282-0.098-0.386c0.06-0.189,0.436-0.24,0.289-0.483c-0.062-0.104-0.249,0.114-0.27,0.233
			c-0.006,0.031,0.056,0.13,0.039,0.153c-0.039,0.057-0.25,0.146-0.349,0.251c0.011-0.011-0.126,0.294-0.173,0.291
			c-0.226-0.016-0.616-0.346-0.825-0.65c0,0,0.697-2.019,0.871-2.193c0,0,1.329-2.802,1.205-2.633
			c-0.086,0.117,2.082-3.049,2.074-3.153C33.535,22.897,39.581,17.409,48.646,14.393z M45.897,15.979
			c0.038,0.045,0.686-0.26,0.772-0.191c-0.043-0.034,0.606-0.26,0.329-0.33c-0.251-0.062-0.764,0.274-0.754,0.271
			C46.083,15.799,45.713,15.772,45.897,15.979z M62.611,13.186c0.044-0.056-0.515-0.135-0.173-0.039
			C62.455,13.153,62.547,13.27,62.611,13.186z M62.765,13.147c-0.022-0.016-0.105,0.066-0.058,0.098
			C62.735,13.26,62.816,13.177,62.765,13.147z M51.714,16.903c0.127-0.082,0.349-0.325,0.193-0.212
			C51.637,16.816,51.426,17.091,51.714,16.903z M51.5,17.038c-0.026-0.017-0.107,0.065-0.059,0.097
			C51.47,17.151,51.552,17.068,51.5,17.038z M55.115,16.709c-0.026-0.018-0.108,0.065-0.058,0.095
			C55.083,16.821,55.165,16.738,55.115,16.709z M49.203,18.354c-0.026-0.016-0.181,0.088-0.136,0.116
			C49.094,18.486,49.248,18.381,49.203,18.354z M63.386,14.964c-0.026-0.018-0.108,0.067-0.059,0.097
			C63.354,15.076,63.435,14.994,63.386,14.964z M55.406,17.867c0.028,0.041-0.312-0.02-0.252-0.02
			c-0.188-0.001-0.531,0.042-0.464,0.117C54.787,18.072,55.493,17.987,55.406,17.867z M56.778,18.098
			c0.488-0.153-0.293-0.044-0.155,0.04C56.641,18.147,56.757,18.105,56.778,18.098z M42.964,21.971
			c0.369,0.222,0.333-0.556,0.057-0.095C43.016,21.883,42.893,21.929,42.964,21.971z M56.45,18.756
			c-0.303,0.025-0.775-0.235-0.985,0.001C55.802,18.672,56.247,18.98,56.45,18.756z M57.764,21.053
			c0.021-0.012-0.064-0.205-0.057-0.231c0.012-0.036,0.189-0.039,0.136-0.115c-0.056-0.077-0.232,0.059-0.232,0.059
			C57.542,20.96,57.611,21.157,57.764,21.053z M57.958,21.17c-0.025-0.017-0.107,0.066-0.058,0.096
			C57.928,21.284,58.009,21.2,57.958,21.17z M49.13,25.602c-0.027-0.016-0.108,0.067-0.059,0.098
			C49.099,25.713,49.18,25.631,49.13,25.602z M52.627,25.793c-0.057,0.148,0.006,0.447,0.116,0.134
			c0.056-0.157,0.224-0.525,0.077-0.347C52.765,25.646,52.657,25.715,52.627,25.793z M51.121,27.321
			c0.085,0.033,0.352,0.136,0.31-0.077c-0.021-0.101-0.407-0.117-0.445-0.136c-0.251-0.122-0.524-0.474-0.638-0.25
			C50.569,26.865,50.937,27.247,51.121,27.321z M52.707,27.086c-0.055-0.242-0.145-0.418-0.292-0.501
			C52.358,26.855,52.547,26.905,52.707,27.086z M51.624,27.357c0.125,0.076,0.509-0.287,0.503-0.289
			c-0.125-0.05-0.269,0.14-0.291,0.154C51.811,27.24,51.546,27.311,51.624,27.357z M52.802,27.145
			c-0.026-0.017-0.108,0.067-0.058,0.098C52.771,27.259,52.851,27.174,52.802,27.145z M59.122,26.465
			c-0.028-0.017-0.107,0.066-0.059,0.096C59.09,26.577,59.171,26.495,59.122,26.465z M33.136,35.853
			C33.025,36.351,33.243,35.37,33.136,35.853L33.136,35.853z M59.238,29.228c-0.049-0.028-0.261,0.107-0.213,0.137
			C59.076,29.394,59.287,29.257,59.238,29.228z M44.459,33.178c-0.732-0.152,0.054,0.25,0.346,0.077
			C44.697,33.235,44.586,33.206,44.459,33.178z M45.328,33.372c-0.027-0.017-0.109,0.067-0.06,0.098
			C45.296,33.486,45.378,33.402,45.328,33.372z M45.869,33.565c-0.081-0.061-0.438-0.203-0.426-0.058
			C45.554,33.58,46.272,33.632,45.869,33.565z M34.528,36.491c0.145,0.108,0.291-0.49,0.058-0.098
			C34.577,36.407,34.459,36.439,34.528,36.491z M47.125,33.333c0.108-0.181-0.296-0.166-0.25-0.02
			C46.871,33.305,47.095,33.382,47.125,33.333z M46.641,33.37c-0.025-0.017-0.18,0.091-0.135,0.119
			C46.534,33.504,46.688,33.399,46.641,33.37z M48.324,33.525c0.122-0.155-0.486-0.322-0.445-0.134c0,0.001,0.075-0.023,0.078-0.021
			C48.02,33.446,48.226,33.648,48.324,33.525z M62.816,33.014C62.574,32.941,62.485,33.037,62.816,33.014L62.816,33.014z"/>
		<path fill="#B4D88B" stroke="#616161" stroke-width="0.0452" d="M93.305,55.355c-0.078-0.184-0.566-0.229-0.715-0.561
			c-0.04-0.086,0.07-0.277,0.077-0.351c0.031-0.352-0.046-0.45-0.155-0.616c-0.044-0.066-0.081-0.216-0.154-0.289
			c-0.088-0.093-0.622-0.279-0.772-0.465c-0.032-0.037-0.018-0.209-0.06-0.232c-0.161-0.086-0.321,0.121-0.503-0.037
			c-0.062-0.057,0.038-0.336-0.019-0.406c-0.138-0.172-0.479-0.102-0.56-0.27c0.007,0.014,0.118-0.191,0.018-0.254
			c-0.06-0.035-0.142,0.121-0.134,0.119c-0.085,0.026-0.655-0.326-0.659-0.328c-0.037-0.045,0.049-0.164,0.021-0.25
			c-0.039-0.119-0.222-0.383-0.29-0.504c-0.221-0.386-0.318-0.322-0.733-0.31c-0.025,0.002-0.174-0.041-0.174-0.039
			c0.057-0.094,0.17,0.705,0.425,1.045c0.014,0.015,0.151,0.023,0.174,0.037c0.068,0.045,0.065,0.162,0.136,0.211
			c0.125,0.095,0.287,0.117,0.386,0.232c0.093,0.108,0.099,0.285,0.177,0.369c0.226,0.242,0.485,0.35,0.637,0.578
			c0.176,0.27,0.188,0.608,0.388,0.891c-0.009-0.012,0.312-0.012,0.327,0c0.233,0.152,0.157,0.6,0.003,0.656
			c0.015-0.006-0.115-0.136-0.116-0.136c-0.176-0.241-0.234-0.188-0.484-0.29c-0.122-0.05-0.213-0.085-0.288-0.177
			c-0.216-0.258-0.093-0.492-0.156-0.617c-0.101-0.2-0.196-0.213-0.405-0.309c0.025,0.012-0.068,0.262-0.097,0.271
			c0.092-0.031-0.291-0.115-0.366-0.156c-0.3-0.154-0.12-0.135,0.02-0.252c0.046-0.037,0.011-0.179,0.019-0.25
			c0.044-0.396-0.151-0.379-0.367-0.482c-0.514-0.248-0.572-0.528-0.928-1.08c-0.352-0.547-0.51-0.859-0.889-0.929
			c-0.033-0.006-0.078-0.128-0.117-0.136c-0.39-0.057-0.833,0.273-0.927-0.097c-0.089-0.354-0.264-0.396-0.483-0.618
			c-0.208-0.207-0.411-0.411-0.446-0.463c-0.009-0.015-0.17-0.241-0.172-0.366c0,0.026,0.283,0.036,0.135-0.116
			c-0.179-0.185-0.161,0.165-0.387,0.097c-0.086-0.024-0.539-0.803-0.655-0.984c-0.107-0.16-0.216-0.246-0.252-0.349
			c-0.076-0.202,0.054-0.465,0-0.657c-0.093-0.31-0.442-0.577-0.563-0.927c-0.292-0.841-0.252-1.771-0.482-2.261
			c-0.043-0.09-0.136-0.052-0.193-0.116c-0.136-0.146-0.486-0.731-0.445-0.792c0.026-0.037,0.733-0.02,0.733-0.02
			c0.089-0.305-0.402-0.515-0.482-0.618c-0.092-0.117-0.071-0.217-0.156-0.289c0.04,0.034-0.081,0.199-0.113,0.191
			c0.007,0.003,0.188-0.304-0.155-0.288c0.366-0.017-0.171,0.299-0.213,0.134c0.063,0.257,0.365,0.277,0.406,0.31
			c0.062,0.05,0.083,0.167,0.135,0.213c0.022,0.02,0.274,0.065,0.213,0.193c-0.021,0.045-0.576,0.048-0.56,0.058
			c-0.027-0.018-0.027-0.228-0.059-0.232c-0.13-0.018-0.179,0.198-0.291,0.156c-0.088-0.034-0.104-0.169-0.23-0.271
			c-0.035-0.029-0.135-0.014-0.176-0.039c-0.059-0.039-0.071-0.177-0.135-0.214c-0.062-0.036-0.234,0.098-0.31,0.078
			c-0.005,0-0.125-0.204-0.136-0.212c-0.059-0.054-0.234-0.033-0.114-0.137c0.042-0.036,0.494,0.074,0.714-0.098
			c-0.284-0.247-0.532-0.05-0.734-0.309c-0.257-0.324,0-0.389-0.152-0.618c0.042,0.064-0.099,0.115-0.155,0.039
			c-0.093-0.124-0.049-0.257-0.175-0.367c-0.175-0.158-0.468-0.11-0.734-0.31c-0.075-0.055,0.041-0.229,0.02-0.251
			c-0.02-0.021-0.199,0.063-0.231,0.058c-0.267-0.052-0.001-0.317,0-0.329c0.003-0.173-0.161-0.129-0.213-0.192
			c0.038,0.044,0.029,0.281-0.02,0.25c-0.188-0.113-0.245-0.881-0.427-0.714c-0.364,0.042,0.357,0.309,0.116,0.463
			c0.038-0.023-0.269-0.095-0.271-0.095c-0.083-0.12,0.081-0.218,0-0.328c-0.023-0.034-0.314-0.438-0.483-0.291
			c-0.165,0.147,0.176,0.429,0.192,0.445c0.196,0.163,0.243,0.223,0.331,0.329c0.342,0.413,0.258,0.376-0.02,0.251
			c-0.462-0.209-0.139-0.217-0.254-0.347c-0.033-0.043-0.122,0.027-0.171-0.04c-0.166-0.227-0.144-0.182-0.252-0.348
			c0.166,0.257-0.151,0.051-0.175-0.039c-0.059-0.238,0.035-0.138,0.136-0.443c-0.035,0.109-0.035-0.14-0.019-0.077
			c-0.086-0.342-0.505-0.558-0.291-0.174c0.028,0.049,0.112,0.005,0.115,0.136c0.002,0.061-0.185,0.287-0.173,0.29
			c0.034,0.011-0.162-0.266-0.136-0.213c-0.072-0.139-0.032-0.243-0.155-0.29c0.149,0.059-0.131,0.186-0.059,0.096
			c-0.141,0.172-0.114,0.203-0.251-0.018c-0.077-0.127-0.094-0.174-0.059-0.232c-0.017,0.031,0.411,0.079,0.233-0.059
			c-0.348,0.06-0.481,0.075-0.754-0.059c-0.225-0.106-0.64-0.269-0.756-0.385c-0.091-0.091-0.024-0.162-0.136-0.212
			c0.032,0.015-0.065,0.129-0.135,0.117c-0.223-0.043-0.19-0.223-0.464-0.212c-0.367,0.011-0.55,0.203-0.715,0.098
			c-0.032-0.021-0.108-0.206-0.137-0.214c-0.08-0.02-0.235,0.113-0.311,0.079c-0.076-0.039-0.066-0.155-0.135-0.214
			c-0.192-0.168-0.276-0.001-0.426-0.059c-0.026-0.01-0.185-0.122-0.192-0.115c-0.295,0.222,0.438,0.601,0.021,0.734
			c-0.233,0.075-0.157-0.174-0.214,0.136c-0.001,0.011-0.125,0.106-0.136,0.116c-0.26,0.253-0.564,0.279-0.481,0.039
			c0.06-0.178,0.028-0.048-0.116-0.135c-0.021-0.012-0.033-0.131-0.039-0.155c-0.13-0.478,0.091-0.449,0.403-0.677
			c-0.013,0.012,0.062,0.12,0.099,0.058c0.018-0.026-0.149-0.179,0.02-0.251c-0.515,0.222-0.404,0.317-0.657,0.658
			c-0.142,0.189-0.56,0.499-0.462,0.773c0.11,0.315,0.372-0.128,0.289,0.173c-0.037,0.126-0.26,0.368-0.448,0.525
			c-0.073,0.062-0.229,0.023-0.309,0.078c-0.097,0.062-0.22,0.214-0.328,0.327c-0.287,0.294-0.725,0.868-0.984,0.987
			c-0.003,0-0.029-0.149-0.038-0.155c-0.123-0.074-0.3,0.155-0.368,0.173c-0.135,0.039-0.21-0.059-0.328,0
			c-0.073,0.037-0.016,0.191-0.192,0.212c-0.042,0.004-0.021-0.169-0.116-0.135c-0.01,0.003,0.047,0.141,0.039,0.155
			c-0.05,0.096-0.538,0.228-0.599,0.231c-0.346,0.022-0.231-0.218,0.02-0.251c0.106-0.014,0.243,0.109,0.271,0.097
			c0.022-0.011,0.379-0.594,0.578-0.639c0.002,0.001,0.173,0.111,0.194,0.117c0.346,0.08,0.231-0.042,0.271-0.232
			c0.003-0.016,0.121-0.101,0.135-0.115c0.237-0.296,0.856-0.528,0.909-0.64c0.143-0.312-0.18-0.202-0.137-0.542
			c0.021-0.183,0.343-0.344,0.039-0.173c-0.317,0.18-0.196-0.17-0.367-0.154c0.014-0.001,0.012,0.286-0.098,0.27
			c-0.161-0.023-0.102-0.091-0.211-0.193c0.023,0.022-0.267-0.2-0.214-0.192c-0.213-0.032-0.479,0.349-0.599,0.232
			c-0.046-0.044,0.153-0.331,0.153-0.367c0.001-0.059-0.131-0.534-0.137-0.541c-0.076-0.099-0.563,0.107-0.638,0.076
			c-0.074-0.03-0.031-0.334-0.097-0.385c-0.081-0.062-0.185,0.1-0.251-0.021c-0.023-0.042,0.026-0.141,0.038-0.172
			c0.064-0.194-0.041-0.172-0.154-0.29c-0.238-0.247,0.07-0.451,0.173-0.619c0.129-0.213,0.187-0.416,0.291-0.483
			c0.074-0.049,0.217,0.105,0.271,0.096c0.36-0.066-0.016-0.155,0.348-0.25c0.055-0.016,0.252,0.108,0.327,0
			c0.187-0.263-0.122-0.155-0.116-0.464c0.002-0.042,0.128-0.185,0.116-0.194c-0.24-0.211-0.335,0.195-0.521,0.213
			c-0.01,0-0.168-0.108-0.192-0.115c-0.292-0.094-0.581-0.116-0.714-0.231c-0.255-0.223,0.025-0.31-0.021-0.405
			c0,0-0.171-0.096-0.193-0.115c-0.277-0.27,0.09-0.241,0.328-0.33c0.218-0.08,0.286-0.204,0.444-0.193
			c0.078,0.006,0.146,0.353,0.174,0.366c0.043,0.025,0.534-0.032,0.561-0.057c0.062-0.064-0.153-0.29-0.155-0.292
			c-0.03-0.211,0.052-0.133-0.213-0.192c-0.284-0.063-0.188-0.271-0.366-0.481c-0.146-0.174-0.554-0.243-0.521-0.445
			c0.053-0.334,0.506-0.143,0.675-0.252c0.209-0.136,0.215-0.502,0.481-0.697c0.033-0.023,0.241-0.133,0.368-0.175
			c0.104-0.031,0.323,0.028,0.405-0.019c0.112-0.062,0.14-0.299,0.252-0.309c0.144-0.013,0.215,0.262,0.229,0.271
			c-0.028-0.017,0.065-0.133,0.138-0.116c0.053,0.013,0.059,0.207,0.135,0.212c0.095,0.009,0.308-0.136,0.388-0.096
			c0.062,0.03-0.036,0.184-0.04,0.173c0.046,0.237,0.76,0.131,1.104,0.135c0.316,0.003,0.711-0.049,0.984,0
			c0.024,0.004,0.086,0.123,0.117,0.136c0.069,0.029,0.188-0.003,0.251,0.02c0.423,0.14,0.979,0.391,1.217,0.27
			c-0.169,0.085-0.132-0.244-0.135-0.213c0.015-0.097,0.035-0.165,0.173-0.289c-0.105,0.096,0.196,0.211,0.291,0.173
			c0.04-0.017,0.206-0.453,0.211-0.464c0.216-0.526,0.153,0.373,0.311,0.249c-0.026,0.022,0.048-0.199,0.038-0.172
			c0.023-0.069,0.102-0.141,0.116-0.193c0.047-0.176-0.093-0.304,0-0.328c-0.01,0.001,0.109,0.131,0.114,0.135
			c0.131,0.087,0.347,0.267,0.562,0.27c0.054,0-0.159-0.271-0.137-0.212c-0.161-0.411,0.082-0.119,0.154-0.039
			c0.153,0.168,0.234,0.067,0.311-0.078c0.064-0.127-0.063-0.117,0.113-0.192c0.043-0.019,0.184,0.012,0.251,0.018
			c0.268,0.031,0.47,0.083,0.756,0.061c0.165-0.015,0.19-0.17,0.367-0.176c0.271-0.011,0.232,0.211,0.231,0.271
			c-0.009,0.408,0.546,0.105,0.658,0c0.182-0.176-0.06-0.348,0.229-0.389c0.312-0.043,0.438,0.356,0.656,0.329
			c0.295-0.192-0.221-0.17-0.425-0.386c-0.083-0.088-0.066-0.249-0.154-0.29c0.03,0.016-0.17,0.208-0.232,0.059
			c-0.019-0.047,0.016-0.179,0.021-0.25c0.03-0.326,0.089-0.239,0.292-0.156c0.364,0.154,0.125-0.066,0.462-0.116
			c0.026-0.003,0.21,0.133,0.271,0.095c0.001,0,0.098-0.17,0.114-0.191c0.344-0.434-0.099-0.231-0.154-0.618
			c-0.049-0.334-0.041,0.012-0.366-0.156c0.014,0.008-0.135-0.157-0.116-0.133c-0.356-0.467,0.277-0.346,0.522-0.213
			c0.062,0.034,0.021,0.258,0.075,0.31c0.09,0.082,0.195-0.011,0.252,0.02c0.204,0.109,0.224,0.383,0.405,0.31
			c0.004-0.195-0.218-0.169-0.328-0.328c-0.098-0.142-0.105-0.42-0.213-0.521c-0.154-0.15-0.194,0.152-0.329,0
			c-0.026-0.033-0.02-0.215-0.057-0.233c-0.19-0.079-0.331,0.183-0.367,0.176c-0.193-0.023-0.028-0.125-0.231-0.271
			c-0.138-0.097-0.289-0.086-0.367-0.156c-0.166-0.145-0.229-0.37-0.366-0.48c-0.4-0.32-1.14-0.438-1.18-0.773
			c-0.02-0.161,0.209-0.408,0.309-0.405c0.085,0.001,0.448,0.473,0.444,0.463c0.046,0.131-0.066,0.22,0,0.329
			c0.012,0.018,0.138-0.05,0.154-0.04c0.032,0.021,0.015,0.127,0.039,0.155c0.179,0.195,0.275,0.247,0.657,0.329
			c0.221,0.047,0.499,0.011,0.6,0.095c0.043,0.036-0.05,0.139-0.039,0.174c0.062,0.193,0.263,0.101,0.271,0.097
			c0.323-0.183,0.219,0.016,0.444,0.135c0.164,0.086,0.227,0.127,0.33,0c-0.281-0.156-0.428-0.233-0.327-0.328
			c0.202-0.202,0.764,0.262,0.811,0.29c0.552,0.33-0.029-0.235-0.192-0.445c-0.02-0.022-0.148-0.013-0.176-0.04
			c-0.056-0.054-0.081-0.233-0.153-0.29c-0.263-0.193-0.49-0.104-0.562-0.27c0-0.002,0.151-0.279,0.174-0.29
			c0.031-0.013,0.508,0.105,0.427,0.059c0.02,0.012,0.158,0.027,0.173,0.038c0.099,0.078,0.042,0.238,0.155,0.29
			c0.075,0.033,0.453,0.062,0.521,0.114c0.275,0.217,0.453,0.55,0.406,0.638c0.002-0.003-0.258-0.038-0.252-0.018
			c0.101,0.3,0.484,0.056,0.329,0.327c-0.104,0.183,0.061,0.188,0.154,0.29c0.073,0.078,0.065,0.195,0.154,0.289
			c0.101,0.108,0.285,0.131,0.387,0.23c0.107,0.106,0.193,0.277,0.271,0.426c0.045,0.085-0.111,0.23-0.078,0.35
			c0.016,0.056,0.153,0.107,0.329,0.329c-0.003-0.005-0.041,0.078,0.04,0.153c0.089,0.085,0.135,0.029,0.213,0.193
			c0.033,0.077-0.062,0.072-0.062,0.096c0,0.009,0.225,0.581,0.233,0.601c0.047,0.085,0.132,0.054,0.194,0.115
			c0.152,0.15,0.225,0.515,0.328,0.656c0.312,0.424,0.738,0.763,0.946,0.83c-0.109-0.036,0.035-0.293,0.174-0.289
			c0.127,0.004,0.194,0.224,0.328,0.326c0.111,0.088,0.388,0.233,0.388,0.233c0.032-0.004,0.012-0.209,0.02-0.25
			c0.086-0.388,1.034-0.273,1.275-0.484c0.028-0.023,0.041-0.527,0.192-0.541c0.181-0.017,0.605,0.714,0.868,0.85
			c0.017,0.008,0.545,0.069,0.603,0.097c0.02,0.01,0.191,0.117,0.191,0.117c0.148-0.154-0.011-0.064-0.175-0.366
			c-0.092-0.175-0.157-0.46-0.211-0.523c-0.043-0.049-0.213-0.055-0.27-0.096c-0.087-0.059-0.152-0.218-0.233-0.271
			c-0.173-0.11-0.465-0.157-0.562-0.27c-0.171-0.202-0.125-0.51-0.271-0.755c-0.001,0-0.146-0.168-0.232-0.271
			c-0.161-0.189-0.846-0.689-1.006-0.732c-0.234-0.062-0.277,0.098-0.405,0.019c-0.044-0.026-0.142-0.229-0.251-0.348
			c-0.1-0.106-0.236-0.259-0.328-0.328c-0.14-0.103-0.326-0.068-0.444-0.136c-0.109-0.062-0.118-0.192-0.231-0.271
			c-0.277-0.19-0.395-0.087-0.483-0.29c-0.133-0.303,0.138-0.329,0.136-0.444c-0.007-0.259-0.259-0.233-0.175-0.367
			c0.021-0.032,0.154,0.039,0.175,0.039c0.15-0.005,0.217-0.142,0.291-0.155c0.021-0.004,0.093,0.121,0.172,0.038
			c0.169-0.176-0.2-0.262,0.021-0.25c0.041,0.002,0.168,0.167,0.212,0.193c0.289,0.172,0.704,0.357,0.792,0.212
			c0.06-0.098-0.207-0.593-0.35-0.735c0,0-0.163-0.032-0.174-0.039c-0.057-0.034-0.139-0.079-0.191-0.115
			c-0.435-0.287-0.36-0.303-0.002-0.329c0.061-0.004,0.087,0.059,0.1,0.06c0.072,0,0.079-0.123,0.134-0.117
			c0.026,0.003,0.57,0.283,0.638,0.251c0.013-0.005-0.024-0.127,0.059-0.096c0.31,0.109,0.175,0.355,0.387,0.231
			c0.267-0.157,0.11-0.492,0.195-0.542c-0.033,0.019,0.145,0.265,0.212,0.193c0.037-0.042-0.107-0.261,0.018-0.251
			c0.09,0.008,0.708,0.416,0.772,0.462c0.188,0.135,0.276,0.372,0.601,0.426c-0.12-0.02-0.188-0.338-0.097-0.386
			c-0.134,0.071,0.38,0.162,0.365,0.154c0.006,0.004,0.248,0.271,0.35,0.406c0.089,0.117,0.232,0.371,0.292,0.5
			c0.06,0.138-0.039,0.195-0.003,0.33c0.117,0.402,0.477,0.798,0.1,0.387c-0.615-0.672-0.694-0.645-1.354-1.47
			c0.095,0.568,0.553,0.721,0.772,1.121c0.281,0.51,0.285,1.101,0.581,1.662c0.047,0.086,0.49,0.62,0.482,0.618
			c0.315,0.052-0.419-0.622-0.098-0.714c0.187-0.054,0.268,0.479,0.503,0.694c-0.037-0.034,0.024-0.059,0.078-0.021
			c0.163,0.121,0.315,0.33,0.443,0.136c0.022-0.233-0.199-0.045-0.173-0.039c-0.365-0.108-0.04-0.136-0.077-0.309
			c-0.078-0.341-0.461-0.705-0.369-0.812c0.047-0.053,0.176,0.096,0.193,0.116c0.176,0.204,0.167,0.444,0.213,0.522
			c-0.04-0.068,0.041-0.046,0.078-0.02c0.249,0.183,0.381,0.75,0.618,1.159c0.091,0.154,0.619,0.862,0.466,0.87
			c-0.224,0.01-0.316-0.524-0.466-0.54c0.172,0.316,0.291,0.761,0.447,1.12c0.048,0.114,0.182,0.216,0.251,0.348
			c0.21,0.405,0.395,0.937,0.503,1.024c0.24,0.2,0.077-0.292,0.252,0.018c0.27,0.484,0.268,1.201,0.521,1.76
			c0.09,0.196,0.286,0.331,0.366,0.482c0.094,0.169,0.162,0.33,0.175,0.366c0.028,0.071-0.062,0.119-0.038,0.174
			c0.131,0.294,0.439,0.428,0.194,0.443c-0.119,0.008,0.1,0.393,0.095,0.387c-0.029-0.065,0.112-0.249,0.1-0.27
			c0.065,0.096,0.044,0.377,0.134,0.539c0.067,0.122,0.235,0.203,0.33,0.329c0.145,0.197,0.318,0.619,0.387,0.89
			c0.253,0.992,0.427,2.541,0.795,3.497c0.104,0.264,0.521,0.824,0.753,1.371c0.173,0.402,0.49,1.161,0.234,1.258
			c-0.064,0.022-0.111-0.232-0.155-0.29c-0.066-0.091-0.152-0.106-0.213-0.193c-0.254-0.374-0.215-0.929-0.562-0.928
			c-0.053,0,0.003,0.26,0,0.328c-0.007,0.549-0.129,0.133-0.191,0.214c-0.111,0.141-0.101,0.453-0.154,0.694
			c-0.051,0.229-0.213,0.468-0.174,0.619c0.008,0.026,0.098,0.102,0.097,0.059c-0.007-0.188,0.196,0.382,0.194,0.444
			c-0.002,0.026-0.17-0.045-0.174-0.037c-0.029,0.047,0.076,0.176,0.059,0.229c-0.154,0.456-0.278,0.06-0.368,0.176
			c-0.023,0.033,0.067,0.188,0.059,0.231c-0.022,0.123-0.292,0.355-0.308,0.406c-0.036,0.113,0.047,0.32,0.02,0.405
			c-0.012,0.038-0.172-0.056-0.174-0.039c-0.011,0.041,0.055,0.376,0.018,0.733c-0.021,0.251-0.146,0.517-0.151,0.696
			c-0.021,0.607,0.323,1.026,0.388,1.546c0.022,0.191-0.047,0.375-0.02,0.58c0.032,0.238,0.161,0.526,0.193,0.772
			c0.062,0.479,0.516,1.699,0.851,1.761c-0.011-0.005,0.052-0.128,0.138-0.117c0.146,0.018,0.146-0.174,0.27-0.562
			c0.062-0.188,0.222-0.467,0.251-0.637c0.043-0.248-0.029-0.518-0.038-0.812c-0.016-0.524-0.048-0.854,0.02-1.237
			c0.064-0.384,0.01-0.306,0.152-0.696c0.263-0.714,0.178,0.252,0.194,0.445c0.027,0.338,0.169,0.788,0.174,1.023
			c0.003,0.173-0.063,0.302-0.058,0.426c0.02,0.46,0.047,1.044,0.135,1.196c-0.082-0.053,0.298-1.594,0.445-1.505
			c0.004,0.001-0.021,0.204-0.021,0.249c0.008,0.61-0.158,1.836-0.141,2.329c0.02,0.555-0.041-0.871-0.044-0.848
			c-0.039,0.323,0.088,0.381,0.088,0.379c0.011,0.244-0.088,1.606-0.177,1.651c0.062-0.03,0.047-1.434-0.188-0.768
			c-0.123,0.35-0.216,0.594-0.598,0.561c-0.325-0.028-0.283,0.027-0.35,0.255c-0.078,0.268-0.229,0.598-0.388,0.752
			c-0.124,0.123-0.306,0.11-0.443,0.192c-0.145,0.086-0.219,0.203-0.349,0.252c-0.173,0.066-0.542-0.092-0.753,0.271
			C93.356,55.342,93.331,55.348,93.305,55.355z M79.935,28.558c-0.023-0.017-0.105,0.067-0.057,0.097
			C79.905,28.671,79.985,28.588,79.935,28.558z M81.5,28.249c0.488-0.153-0.294-0.044-0.154,0.039
			C81.363,28.299,81.479,28.256,81.5,28.249z M80.516,29.891c0.067-0.034,0.159-0.481-0.02-0.077
			C80.504,29.795,80.398,29.955,80.516,29.891z M82.217,29.465c-0.05-0.03-0.261,0.105-0.214,0.136
			C82.055,29.63,82.265,29.494,82.217,29.465z M81.192,30.296c0.166,0.101,0.394-0.434,0.175-0.289
			C81.249,30.084,81.124,30.255,81.192,30.296z M77.136,31.807c-0.16,0.201-0.258,0.43-0.097,0.6
			c-0.461-0.483,1.729-0.938,0.253-0.31c0.038-0.018,0.19-0.069,0.229-0.058c-0.076-0.021,0.071,0.248,0.077,0.31
			c0.027,0.27-0.199,0.305,0.021,0.405c0.306,0.139,0.24-0.399,0.309-0.406c-0.013,0.001,0.155,0.293,0.213,0.194
			c0.046-0.082-0.165-0.625-0.213-0.522c0.016-0.034,0.311-0.047,0.309-0.078c-0.006-0.189-0.188-0.342-0.271-0.425
			c0.052,0.054-0.016,0.153-0.039,0.173c-0.299,0.286-0.312,0.025-0.271-0.095c0.108-0.32-0.146-0.082-0.251-0.02
			C77.374,31.592,77.171,31.76,77.136,31.807z M82.255,31.263c-0.024-0.016-0.106,0.066-0.059,0.096
			C82.225,31.374,82.306,31.293,82.255,31.263z M89.464,30.196c-0.01-0.043-0.101-0.068-0.078,0.021
			C89.397,30.258,89.485,30.283,89.464,30.196z M90.295,30.233c-0.009-0.083-0.11-0.185-0.097-0.059
			C90.208,30.258,90.307,30.36,90.295,30.233z M83.184,32.015c-0.011-0.042-0.1-0.066-0.076,0.021
			C83.116,32.078,83.206,32.104,83.184,32.015z M89.579,30.331c-0.025-0.017-0.106,0.065-0.059,0.096
			C89.549,30.444,89.631,30.36,89.579,30.331z M68.732,35.967c0.122,0.073,0.481-0.246,0.192-0.213c0.001,0,0.019,0.076,0.019,0.076
			C68.906,35.843,68.662,35.924,68.732,35.967z M83.418,32.287c-0.027-0.018-0.109,0.064-0.06,0.095
			C83.385,32.399,83.466,32.316,83.418,32.287z M75.361,36.852c-0.086,0.03-0.147-0.083-0.153,0.038
			C75.227,36.969,75.366,36.954,75.361,36.852z M76.404,37.413c-0.012-0.043-0.1-0.069-0.076,0.019
			C76.338,37.474,76.425,37.5,76.404,37.413z M76.713,37.334c-0.026-0.018-0.106,0.066-0.059,0.096
			C76.683,37.446,76.764,37.365,76.713,37.334z M88.714,34.738c0.303,0.283-0.136-0.638-0.136-0.213
			C88.578,34.623,88.67,34.698,88.714,34.738z M86.181,35.454C85.76,35.332,86.058,35.755,86.181,35.454L86.181,35.454z
			 M90.182,35.027c-0.046-0.126-0.235-0.124-0.292-0.175c-0.062-0.06-0.077-0.26-0.154-0.29c-0.134-0.053-0.142,0.199-0.192,0.213
			c-0.299,0.087-0.106-0.427-0.366-0.155c-0.2,0.208,0.011,0.346,0.078,0.639c0.165,0.694,0.046,1.344,0.291,1.487
			c-0.216-0.125,0.215-0.14,0.214-0.136c0.066-0.164-0.148-0.514-0.041-0.812c-0.016,0.044,0.078,0.162,0.116,0.137
			c0.017-0.01-0.048-0.135-0.038-0.155c0.022-0.046,0.208-0.011,0.229-0.059c0.048-0.088,0.073-0.724,0.078-0.675
			C90.111,35.098,90.208,35.104,90.182,35.027z M90.24,34.93c-0.019,0.155,0.205,0.137,0.23,0.271
			c0.017,0.084-0.124,0.313-0.134,0.443c-0.01,0.109,0.133,0.288,0.096,0.387c-0.023,0.069-0.153,0.007-0.136,0.117
			c0.037,0.204,0.221,0.414,0.31,0.578c-0.057-0.104,0.126-0.031,0.175,0.041c0.062,0.089,0.114,0.357,0.215,0.521
			c0.062,0.107,0.633,0.804,0.676,0.733c0.125-0.206-0.324-0.685-0.484-0.946c-0.181-0.298-0.45-0.648-0.561-0.927
			c-0.056-0.14,0.037-0.193,0-0.329c-0.092-0.341-0.262-0.46,0.115-0.521c0.003,0,0.138,0.265,0.153,0.29
			c-0.15-0.228,0.213,0.254,0.232,0.27c-0.032-0.025,0.068-0.135,0.136-0.115c0.141,0.037,0.151,0.502,0.231,0.271
			c0.025-0.071-0.071-0.366-0.115-0.463c-0.107-0.234-0.536-0.58-0.581-0.676c0.003,0.006,0.266-0.034,0.253,0.018
			c0.038-0.137-0.064-0.4-0.116-0.463c-0.128-0.155-0.38,0.004-0.406,0.02C90.521,34.45,90.251,34.836,90.24,34.93z M86.317,35.667
			c-0.095-0.057-0.284,0.123-0.291,0.154C86.004,35.973,86.414,35.724,86.317,35.667z M86.433,35.803
			c-0.025-0.017-0.107,0.067-0.057,0.095C86.402,35.915,86.482,35.833,86.433,35.803z M91.806,36.263
			c0.004,0.104-0.143,0.504-0.019,0.579c0.261,0.158,0.179-0.508,0.153-0.695c-0.039-0.293-0.193-0.904-0.271-0.753
			C91.687,35.657,91.793,35.924,91.806,36.263z M79.613,39.729c-0.023-0.016-0.106,0.066-0.058,0.098
			C79.582,39.841,79.663,39.759,79.613,39.729z M81.432,41.408c0.089,0.217,0.41-0.237,0.137-0.115
			C81.518,41.314,81.404,41.343,81.432,41.408z M96.415,52.686c-0.027-0.016-0.107,0.066-0.06,0.097
			C96.384,52.797,96.465,52.717,96.415,52.686z"/>
		<path fill="#B4D88B" stroke="#616161" stroke-width="0.0452" d="M66.886,17.782c0.003,0-0.045-0.147-0.039-0.154
			c-0.044,0.046-0.059,0.247-0.097,0.27c-0.147,0.094-0.199-0.091-0.271-0.097c0.043,0.003-0.487,0.2-0.579-0.018
			c0-0.001,0.114-0.365,0.425-0.271c0.025,0.007,0.284,0.182,0.291,0.173c0.095-0.164-0.202-0.167-0.312-0.25
			c-0.03-0.023-0.004-0.132-0.038-0.155c-0.011-0.007-0.843-0.278-0.252-0.348c-0.055,0.006,0.266,0.027,0.254,0.021
			c0.023,0.012,0.237,0.664,0.364,0.152c0.017-0.061-0.026-0.222,0.02-0.25c0.15-0.092,0.6,0.256,0.58,0.347
			c0,0.01-0.156,0.202-0.211,0.136c0.1,0.119,0.189-0.05,0.326-0.002c0.159,0.055,0.488,0.653,0.116,0.465
			c-0.008-0.003-0.124-0.137-0.115-0.135c-0.068-0.012-0.189,0.145-0.291,0.154c-0.051,0.005-0.099-0.058-0.095-0.059
			c-0.058,0.01-0.071,0.099-0.06,0.097C66.813,17.867,66.841,17.79,66.886,17.782z"/>
		<path fill="#B4D88B" stroke="#616161" stroke-width="0.0452" d="M75.735,17.701c-0.154,0.021-0.474-0.03-0.599-0.096
			c-0.048-0.025-0.015-0.197-0.059-0.231c-0.101-0.078-0.226-0.055-0.367-0.156c-0.164-0.113-0.454-0.202-0.734-0.307
			c0.005,0-0.652-0.334-0.541-0.522c0.063-0.107,0.879,0.26,1.16,0.367c0.384,0.144,0.646,0.302,1.043,0.559
			c0.138,0.09,0.292,0.247,0.192,0.445C75.798,17.829,75.728,17.701,75.735,17.701z M75.795,17.605
			c-0.058,0.026-0.095-0.114-0.117-0.137c0.023,0.025-0.004,0.121-0.058,0.096c0.046,0.022-0.046-0.223-0.04-0.155
			c0.003,0.025,0.017,0.052,0.02,0.078C75.648,17.754,75.749,17.626,75.795,17.605z"/>
		<path fill="#B4D88B" stroke="#616161" stroke-width="0.0452" d="M74.054,17.875c0.148-0.154,0.312,0.056,0.522,0.116
			c0.263,0.074,0.533,0.12,0.791,0.211c0.17,0.062,0.327,0.199,0.581,0.348c0.106,0.062,0.288,0.087,0.366,0.155
			c0.04,0.032,0.013,0.208,0.058,0.23c0.053,0.027,0.174-0.071,0.231-0.058s0.209,0.105,0.366,0.154
			c0.144,0.045,0.216,0.041,0.351,0.077c0.035,0.012,0.084,0.131,0.113,0.137c0.041,0.006,0.119-0.057,0.156-0.039
			c0.03,0.014,0.008,0.141,0.04,0.154c0.142,0.065,0.313,0.013,0.443,0.136c0.054,0.052-0.015,0.19-0.038,0.173
			c0.104,0.073,0.047-0.025,0.075-0.02c0.159,0.038,0.251,0.133,0.389,0.232c0.136,0.1,0.295,0.183,0.482,0.29
			c0.087,0.052,0.309-0.021,0.502,0.04c0.079,0.022,0.14,0.161,0.212,0.19c0.056,0.025,0.197-0.012,0.254,0.021
			c0.03,0.018,0.006,0.135,0.037,0.153c0.028,0.018,0.129-0.06,0.153-0.037c0.067,0.053,0.062,0.179,0.136,0.212
			c0.06,0.024,0.173-0.071,0.233-0.059c0.04,0.009,0.083,0.131,0.115,0.137c0.044,0.006,0.111-0.054,0.154-0.04
			c0.033,0.011,0.088,0.13,0.114,0.135c0.04,0.007,0.12-0.057,0.156-0.04c0.03,0.017,0.008,0.135,0.039,0.155
			c0.027,0.016,0.147,0.026,0.173,0.038c0.043,0.02,0.327,0.146,0.387,0.231c0.066,0.096-0.032,0.167-0.019,0.251
			c0.028,0.155,0.231,0.269,0.231,0.271c0.028,0.148-0.139-0.025-0.152,0.039c-0.02,0.069,0.099,0.165,0.113,0.136
			c-0.005,0.012-0.159,0.109-0.135,0.115c-0.014-0.004-0.142-0.133-0.116-0.136c-0.096,0.011-0.005,0.163-0.038,0.175
			c-0.084,0.026-0.153-0.119-0.193-0.116c-0.146,0.014-0.25,0.17-0.367,0.175c-0.077,0.001-0.228-0.098-0.27-0.096
			c-0.175,0.006-0.454,0.164-0.639,0.076c-0.036-0.018-0.11-0.206-0.137-0.211c-0.114-0.026-0.108,0.109-0.136,0.116
			c-0.097,0.021-0.534-0.13-0.522-0.116c-0.058-0.055-0.058-0.255-0.173-0.367c0.015,0.013-0.065,0.096,0.039,0.154
			c0.039,0.021-0.043,0.04-0.078,0.021c-0.068-0.041-0.2-0.271-0.327-0.33c-0.085-0.037-0.255,0.021-0.329,0
			c-0.008-0.001-0.235-0.088-0.192-0.115c-0.141,0.088,0.033,0.132,0.038,0.155c0.03,0.138-0.096,0.425-0.27,0.233
			c-0.076-0.083-0.065-0.515-0.388-0.233c-0.065,0.059-0.018,0.079,0.039,0.155c-0.024-0.035,0.205,0.193,0.136,0.211
			c-0.13,0.035-0.224-0.162-0.541-0.191c-0.28-0.028-0.67,0.119-0.793,0.115c-0.066-0.003-0.085-0.145-0.193-0.115
			c-0.002,0-0.288,0.17-0.502,0.288c-0.009,0.005-0.133,0.11-0.136,0.118c-0.047,0.178,0.508,0.522,0.35,0.732
			c-0.134,0.176-0.264-0.097-0.271-0.097c-0.08,0.005-0.255,0.185-0.193,0.213c-0.232-0.112-0.22-0.557-0.387-0.561
			c-0.021,0,0.169,0.555-0.368,0.503c-0.225-0.021-0.01-0.102-0.231-0.271c-0.059-0.045-0.226-0.046-0.271-0.097
			c-0.044-0.049-0.01-0.189-0.057-0.23c-0.187-0.155-0.545-0.353-0.581-0.348c-0.185,0.021,0.229,0.376-0.194,0.212
			c-0.057-0.021-0.292-0.156-0.387-0.231c-0.032-0.027-0.097-0.194-0.136-0.212c-0.105-0.049-0.32,0.062-0.404,0.02
			c-0.049-0.027-0.059-0.161-0.233-0.271c-0.028-0.018-0.266-0.077-0.271-0.098c-0.033-0.108,0.271-0.149,0.174-0.29
			c-0.168-0.239-0.477,0.256-0.366-0.154c0.095-0.352-0.066,0.021-0.251-0.019c-0.172-0.038-0.051-0.325-0.174-0.366
			c-0.147-0.052-0.134,0.143-0.039,0.174c0.021,0.006-0.163,0.151-0.231,0.058c-0.053-0.074,0.062-0.229,0.02-0.252
			c-0.049-0.027-0.229,0.087-0.404,0.021c-0.078-0.029-0.36-0.267-0.427-0.387c-0.072-0.127,0.026-0.217,0.021-0.251
			c-0.029-0.128-0.268-0.257,0.113-0.193c0.15,0.024,0.201,0.008,0.465,0.213c0.095,0.073,0.058,0.22,0.214,0.192
			c0.16-0.028-0.807-0.617-0.446-0.464c-0.092-0.037-0.449,0.052-0.02-0.077c0.729-0.216-1.021-0.077-0.87-0.521
			c0.063-0.188,0.465,0.044,0.504,0.038c0.058-0.01,0.1-0.151,0.212-0.136c-0.103-0.014,0.646,0.256,0.348,0.077
			c-0.05-0.032-0.083-0.068-0.172-0.039c0.356-0.125,0.883-0.106,0.887-0.388c0.003-0.058-0.177-0.11-0.037-0.155
			c0.146-0.045,0.156-0.081,0.327,0c0.144,0.067,0.182,0.215,0.291,0.174c0.156-0.059-0.08-0.308-0.078-0.309
			c0.079-0.097,0.333-0.05,0.368-0.174c0.018-0.062-0.188-0.174-0.019-0.078c-0.009-0.004,0.122,0.062,0.096,0.058
			c0.158,0.024,0.264-0.104,0.387-0.096c0.139,0.008,0.225,0.167,0.291,0.172c0.052,0.007,0.063-0.116,0.136-0.114
			c-0.011,0,0.246,0.021,0.252,0.019c0-0.001,0.172-0.316,0.251-0.309c0.286,0.026,0.308,0.195,0.327,0.328
			c0.015,0.088,0.192,0.331,0.251,0.348c0.118,0.033-0.085-0.172-0.059-0.231c0.006-0.011,0.156-0.033,0.155-0.04
			C74.39,17.95,74.18,17.914,74.054,17.875z M73.358,18.378c0.03-0.05-0.104-0.262-0.134-0.214
			C73.194,18.216,73.329,18.428,73.358,18.378z M72.818,18.186c-0.026-0.016-0.107,0.067-0.059,0.098
			C72.786,18.298,72.867,18.216,72.818,18.186z M73.533,18.417c0.07,0.249,0.423-0.303,0.114-0.193
			c-0.005,0.002,0.023,0.073,0.021,0.078C73.619,18.335,73.511,18.339,73.533,18.417z M74.056,18.532
			c0.042-0.057-0.517-0.137-0.175-0.038C73.897,18.5,73.991,18.617,74.056,18.532z M74.847,18.417
			c-0.001,0.007-0.205,0.075-0.136,0.116c0.26,0.155,0.348-0.168,0.098-0.271c-0.185-0.075-0.08,0.026-0.078,0.02
			C74.708,18.346,74.857,18.369,74.847,18.417z M70.519,20.158C70.945,20.491,70.29,19.979,70.519,20.158L70.519,20.158z
			 M80.626,21.814c-0.025-0.016-0.106,0.066-0.059,0.098C80.596,21.927,80.679,21.844,80.626,21.814z"/>
		<path fill="#B4D88B" stroke="#616161" stroke-width="0.0452" d="M74.812,24.833c0.016-0.042-0.022-0.252,0.115-0.193
			C75.013,24.674,74.708,25.134,74.812,24.833z"/>
		<path fill="#B4D88B" stroke="#616161" stroke-width="0.0452" d="M75.508,25.972c-0.117-0.079-0.412-0.22-0.365-0.155
			c-0.054-0.075,0.119-0.077,0.136-0.115c0.008-0.019-0.108-0.094-0.116-0.135c0.011,0.053,0.074-0.193,0.038-0.174
			c0.044-0.023,1.156,0.327,0.832,0.695c-0.188,0.21-0.293-0.227-0.388-0.231c-0.036-0.002-0.152,0.179-0.117,0.193
			C75.423,26.009,75.509,25.972,75.508,25.972z"/>
		<path fill="#B4D88B" stroke="#616161" stroke-width="0.0452" d="M74.406,26.167c0.156-0.12,0.509,0.268,0.639,0.249
			c0.05-0.005,0.014-0.206-0.059-0.231c0.339,0.123,0.704,0.25,0.464,0.541c-0.052,0.062-0.156,0.219-0.153,0.367
			c0.002,0.091,0.086,0.407-0.252,0.311c-0.159-0.046,0.036-0.329-0.252-0.349c-0.062-0.004-0.063,0.238-0.02,0.252
			c0.003,0.001-0.333,0.076-0.404,0.02c-0.007-0.005,0.042-0.142,0.039-0.176c0.003,0.031-0.119-0.237-0.039-0.152
			c-0.157-0.168-0.092,0.034-0.138-0.212c-0.038-0.202-0.217-0.292,0.291-0.155c0.27,0.073,0.334,0.155,0.366,0.154
			c-0.029,0.001,0.214-0.147,0.213-0.137C75.12,26.545,74.498,26.455,74.406,26.167z"/>
		<path fill="#B4D88B" stroke="#616161" stroke-width="0.0452" d="M40.598,41.047c-0.049-0.015,0.023-0.102,0.059-0.096
			c-0.184-0.029-0.304,0.004-0.445-0.136c-0.028-0.026-0.188-0.107-0.193-0.114c-0.056-0.099,0.22-0.354-0.02-0.407
			c-0.284-0.062-0.054,0.287-0.154,0.366c0.004-0.002-0.702,0.056-0.734,0.021c-0.014-0.015-0.096-0.373-0.038-0.482
			c0.032-0.064,0.438-0.128,0.425-0.271c-0.011-0.107-0.087-0.149-0.137-0.213c-0.018-0.022-0.103-0.193-0.136-0.213
			c-0.048-0.03-0.35,0.032-0.501-0.039c-0.185-0.082-0.163-0.25-0.232-0.271c-0.024-0.007-0.139,0.18-0.213,0.136
			c-0.201-0.116-0.283-0.598-0.328,0c-0.027,0.363-0.151,0.521-0.561,0.717c-0.019,0.008-0.501,0.258-0.619,0.152
			c0.033,0.031-0.004-0.436-0.02-0.405c0.096-0.188,0.491-0.254,0.638-0.405c0.075-0.076,0.196-0.354,0.173-0.289
			c0.063-0.189-0.251,0.287-0.386,0.097c-0.101-0.145,0.262-0.471,0.289-0.482c0.204-0.09,0.39,0.138,0.445,0.136
			c0.169-0.008,0.137-0.196,0.192-0.214c-0.013,0.005,1.064,0.058,1.179,0.115c0.11,0.055,0.323,0.322,0.445,0.465
			c0.124,0.142,0.241,0.465,0.367,0.481c0.108,0.015,0.417-0.214,0.581-0.31c0.281-0.162,0.27-0.252,0.521-0.213
			c0.353,0.057-0.294,0.072-0.27,0.231c0.026,0.174,0.538,0.183,1.023,0.154c0.231-0.013,0.839-0.333,1.005-0.58
			c0.045-0.067,0.04-0.311,0.077-0.348c0.062-0.062,0.281-0.125,0.366-0.176c0.083-0.047,0.136-0.135,0.291-0.153
			c0.154-0.019-0.113,0.374,0.212,0.193c-0.013,0.006,0.125-0.124,0.155-0.039c0.066,0.187-0.405,1.126-0.579,1.295
			c-0.075,0.073-0.225,0.11-0.289,0.154c-0.079,0.053-0.142,0.111-0.214,0.135c-0.131,0.044-0.27-0.035-0.328,0.001
			c-0.177,0.11-0.135,0.226-0.309,0.405c-0.199,0.204-0.58,0.243-0.694,0.504c-0.003,0.004-0.031,0.256-0.021,0.25
			c-0.192,0.125-0.412,0.085-0.639,0.077c0.016,0,0.245-0.195,0.252-0.31c0.014-0.208-0.156,0.151-0.291,0.155
			c0,0-0.061-0.136-0.116-0.136c-0.086-0.001-0.254,0.126-0.211,0.136C40.522,41.104,40.571,41.039,40.598,41.047z"/>
		<path fill="#B4D88B" stroke="#616161" stroke-width="0.0452" d="M46.084,38.686c-0.204,0.052-0.385-0.192-0.618-0.174
			c-0.179,0.016-0.451,0.306-0.599,0.234c-0.074-0.038-0.141-0.595-0.155-0.62c-0.191-0.31-0.119,0.131-0.347-0.077
			c-0.151-0.137-0.112-0.495-0.175-0.037c0-0.009-0.027,0.258-0.019,0.25c0.007-0.006-0.43-0.107-0.445-0.134
			c0.007,0.014,0.097-0.458,0.348-0.582c0.154-0.076,0.233,0.043,0.329,0c0.203-0.092,0.131-0.334,0.387-0.097
			c0.204,0.189,0.338-0.076,0.656-0.328c0.091-0.07,0.481-0.435,0.562-0.388c-0.045-0.026,0,0.279,0,0.328
			c-0.004,0.27-0.17,0.78,0.098,1.044c-0.016-0.017,0.371,0.231,0.349,0.077c0.031,0.216-0.367,0.398-0.387,0.424
			c-0.032,0.047,0.074,0.083,0.097,0.059C46.072,38.765,46.158,38.668,46.084,38.686z"/>
		<path fill="#B4D88B" stroke="#616161" stroke-width="0.0452" d="M47.998,38.453c-0.187,0.09-0.392,0.057-0.562,0.059
			c-0.43,0.005-0.311,0.105,0.06-0.097c0.074-0.041,0.178-0.188,0.386-0.097c-0.002-0.001,0.183,0.176,0.193,0.114
			C48.051,38.564,48.022,38.44,47.998,38.453z"/>
		<path fill="#B4D88B" stroke="#616161" stroke-width="0.0452" d="M66.474,40.722c0.058-0.045-0.021-0.216,0.021-0.251
			c0.043-0.039,0.25,0.024,0.25,0.021c0.04,0.316-0.986,0.438-0.502,0.288C66.3,40.763,66.427,40.758,66.474,40.722z"/>
		<path fill="#B4D88B" stroke="#616161" stroke-width="0.0452" d="M78.842,40.58c-0.201-0.143-0.235-0.104-0.446-0.463
			c-0.037-0.065-0.165-0.146-0.152-0.29c0.003-0.042,0.716,0.308,0.327,0c0.156,0.123,0,0.164,0.116,0.464
			c0.04,0.103,0.127-0.017,0.174,0.038c0.077,0.089-0.045,0.146-0.039,0.173C78.845,40.599,79.171,40.812,78.842,40.58z"/>
		<path fill="#B4D88B" stroke="#616161" stroke-width="0.0452" d="M79.711,40.115c0.003,0.007-0.136-0.086-0.021-0.077
			C79.802,40.045,79.915,40.577,79.711,40.115z"/>
		<path fill="#B4D88B" stroke="#616161" stroke-width="0.0452" d="M96.08,43.487c-0.028-0.042-0.082-0.047-0.115-0.135
			c-0.009-0.021-0.069-0.218-0.058-0.23C95.962,43.056,96.254,43.742,96.08,43.487z"/>
		<path fill="#B4D88B" stroke="#616161" stroke-width="0.0452" d="M96.141,47.003c-0.083-0.354-0.113-0.704-0.098-1.043
			c0.017-0.31,0.058-0.731,0.153-1.024c0.082-0.248,0.041-0.356,0.095-0.643c0.003-0.004-0.146-0.737,0-0.269
			c0.079,0.248,0.015,0.114,0.021,0.58c0.004,0.203,0.185,0.604,0.156,0.737c-0.015,0.072-0.098-0.153-0.116-0.117
			c-0.07,0.128,0.065,0.405-0.02,0.58c-0.066,0.137-0.278,0.182-0.193,0.542c0.029,0.127,0.156,0.15,0.155,0.289
			c0,0.018-0.146,0.021-0.155,0.039c-0.137,0.339,0.304,0.179,0.021,0.407C96.072,47.151,96.073,47.095,96.141,47.003z"/>
	</g>
	
		<linearGradient id="SVGID_2_" gradientUnits="userSpaceOnUse" x1="640.1965" y1="727.052" x2="634.7224" y2="790.5783" gradientTransform="matrix(1 0 0 1 -587 -692)">
		<stop  offset="0" style="stop-color:#FFFFFF"/>
		<stop  offset="0.1456" style="stop-color:#FBFCFD"/>
		<stop  offset="0.3021" style="stop-color:#EEF3F9"/>
		<stop  offset="0.4639" style="stop-color:#D8E5F1"/>
		<stop  offset="0.6292" style="stop-color:#BAD1E6"/>
		<stop  offset="0.7973" style="stop-color:#93B7D7"/>
		<stop  offset="0.9654" style="stop-color:#6598C6"/>
		<stop  offset="1" style="stop-color:#5A91C2"/>
	</linearGradient>
	<path fill="url(#SVGID_2_)" stroke="#0065A4" stroke-width="0.0452" d="M60.353,87.068l0.021-0.526l-0.493-4.82l-6.708-5.059
		c-0.646,3.143-2.191,9.446-2.116,9.471C54.571,87.146,60.353,87.068,60.353,87.068z M77.147,82.617
		c0.938-7.109,1.642-14.435-1.402-19.244c-7.317-11.566-24.64-14.148-29.973-16.637c1.122-3.296,0.421-5.82,7.574-5.188
		c0.612-0.592,2.342-4.011,1.964-4.771c-1.979-1.009-6.803-2.104-6.803-2.104s-1.025-1.435-2.316-1.962
		c-2.842-1.168-5.885-1.373-9.062-0.117c-0.323-0.186-1.616-0.727-2.707-0.203c-1.758,0.849-1.419,2.246-1.414,2.303
		c-0.346,0.279-0.413,0.422-0.699,0.73c-2.056,2.217-3.466,4.609-4.654,7.369c-0.22,0.512-2.742,5.57-3.723,9.384
		c-0.557,2.17-0.523,2.227-0.765,4.189C25.744,72.07,37.072,79.57,37.072,79.57l0.275-6.557l-1.471-1.646l0.134-0.453l2.01,1.641
		l1.083,8.498c2.273,1.342,5.483,3.107,10.249,4.668c1.521-4.039,2.757-5.652,2.424-11.783l0.618,1.427
		c-0.019,0.346,0.83,1.268,0.837,1.297l7.166,4.69l1.073,5.635C61.471,86.986,69.073,86.885,77.147,82.617z"/>
	<path fill="none" stroke="#0065A4" stroke-width="0.0904" d="M96.692,49.789c0,20.577-16.681,37.357-37.259,37.26
		C38.457,86.951,22.681,70.41,22.681,49.832c0-22.244,19.508-37.305,36.752-37.305C80.012,12.529,96.692,29.21,96.692,49.789z"/>
	<g>
		<path stroke="#FFFFFF" stroke-width="0.0452" d="M16.22,74.223l0.005-30.43l-0.327-1.426h5.393l-0.322,1.431v30.425l0.322,1.42
			h-5.393L16.22,74.223z"/>
		<path stroke="#FFFFFF" stroke-width="0.0452" stroke-linecap="round" stroke-linejoin="round" d="M52.616,75.643l-5.637-0.014
			c0,0,0.02-1.172-0.09-1.479c-0.351-0.981-2.992-7.832-3.819-9.889c-0.192-0.482-0.387-0.969-0.578-1.453
			c-0.521-0.016-9.184-0.086-11.399-0.024c-0.849,0.022-0.858,0.028-1.179,0.815c-0.209,0.521-0.419,1.039-0.627,1.562
			c-0.312,0.78-2.697,6.414-3.754,8.983c-0.181,0.439-0.269,1.527-0.269,1.527l-3.31-0.027l14.148-33.299l1.47-0.013
			C37.574,42.333,52.68,75.666,52.616,75.643 M31.158,60.58c3.557,0,7.098,0.129,10.655,0c-1.792-4.103-3.583-8.201-5.375-12.304
			C34.677,52.379,32.918,56.479,31.158,60.58"/>
		<path stroke="#FFFFFF" stroke-width="0.0452" stroke-linecap="round" d="M53.926,74.223l0.018-30.431l-0.34-1.424
			c0,0,9.122,0.026,10.965,0.003c3.175-0.039,6.979,0.432,9.078,3.109c1.92,2.451,1.767,6.613,0.055,9.15
			c-1.667,2.145-3.552,3.119-5.485,4.193C70.397,61.547,84.1,80.388,84.1,80.388s-1.171,0.687-2.712-0.744
			C81.24,79.52,66.029,63.047,62.873,59.682l0,0l-4.59,0.002c0,0.826,0.254,10.797,0.352,14.537l0.393,1.426l-5.426-0.004
			L53.926,74.223z M58.234,58.02c3.149-0.035,10.122-0.549,11.947-4.449c1.78-3.8-0.201-8.191-4.34-9.145
			c-1.356-0.312-7.447-0.594-7.447-0.594C58.378,43.848,58.234,57.869,58.234,58.02"/>
		<path stroke="#FFFFFF" stroke-width="0.0452" d="M94.387,76.211c-2.525,0-5.722-0.357-7.865-1.07
			c-2.145-0.711-3.99-1.799-5.541-3.254c-1.553-1.459-2.768-3.24-3.646-5.348c-0.882-2.107-1.319-4.508-1.319-7.201
			s0.438-5.094,1.319-7.203c0.88-2.104,2.109-3.89,3.693-5.345c1.584-1.458,3.479-2.565,5.687-3.328
			c2.206-0.76,4.638-1.142,7.293-1.142c2.11,0,4.038,0.216,5.78,0.643c1.744,0.427,4.631,1.545,4.631,1.545s0.521,2.922-0.784,5.702
			c-0.313-0.489-1.188-2.288-1.765-3.032c-0.488-0.563-1.336-1.083-2.104-1.529c-0.768-0.442-1.633-0.814-2.592-1.117
			c-0.96-0.301-2.016-0.452-3.167-0.452c-1.887,0-3.641,0.303-5.255,0.902c-1.615,0.604-3.021,1.53-4.222,2.781
			c-1.199,1.251-2.134,2.837-2.808,4.753c-0.67,1.918-1.006,4.191-1.006,6.822c0,2.629,0.334,4.902,1.006,6.82
			c0.672,1.916,1.607,3.502,2.808,4.752c1.199,1.254,2.605,2.18,4.222,2.78c1.614,0.604,4.229,0.904,6.117,0.904
			c1.15,0,2.214-0.145,3.189-0.43s1.872-0.623,2.688-1.021c0.815-0.397,1.552-0.824,2.207-1.285s1.654-1.211,1.654-1.211
			s-0.221,3.187-1.606,3.824C100.507,75.857,97.388,76.209,94.387,76.211z"/>
	</g>
</g>
</svg>
