<?xml version="1.0" encoding="utf-8"?>
<!-- Generator: Adobe Illustrator 16.0.0, SVG Export Plug-In . SVG Version: 6.00 Build 0)  -->
<!DOCTYPE svg PUBLIC "-//W3C//DTD SVG 1.1//EN" "http://www.w3.org/Graphics/SVG/1.1/DTD/svg11.dtd">
<svg version="1.1" id="Layer_1" xmlns="http://www.w3.org/2000/svg" xmlns:xlink="http://www.w3.org/1999/xlink" x="0px" y="0px"
	 width="24.912px" height="24.875px" viewBox="0 0 24.912 24.875" enable-background="new 0 0 24.912 24.875" xml:space="preserve">
<g id="Twitter">
	<path fill="#4099FF" d="M0,12.438C0,5.569,5.577,0,12.456,0c6.879,0,12.456,5.569,12.456,12.438
		c0,6.869-5.577,12.437-12.456,12.437C5.577,24.875,0,19.307,0,12.438z"/>
	<path id="Path_17_" fill="#FFFFFF" d="M12.147,9.904l0.026,0.431l-0.436-0.053c-1.583-0.202-2.966-0.887-4.141-2.038L7.023,7.673
		L6.875,8.094c-0.313,0.94-0.113,1.933,0.54,2.6c0.348,0.37,0.269,0.422-0.331,0.202c-0.208-0.07-0.391-0.123-0.409-0.097
		c-0.061,0.062,0.148,0.861,0.312,1.177c0.227,0.439,0.688,0.869,1.192,1.124l0.427,0.202l-0.505,0.01
		c-0.487,0-0.504,0.008-0.452,0.191c0.174,0.572,0.861,1.178,1.627,1.441l0.54,0.185l-0.47,0.28
		c-0.696,0.404-1.514,0.633-2.332,0.65c-0.392,0.009-0.713,0.045-0.713,0.07c0,0.088,1.061,0.58,1.679,0.772
		c1.854,0.571,4.054,0.325,5.708-0.649c1.174-0.693,2.349-2.072,2.897-3.408c0.296-0.711,0.592-2.011,0.592-2.635
		c0-0.404,0.025-0.457,0.513-0.939c0.287-0.281,0.557-0.588,0.608-0.676c0.088-0.167,0.079-0.167-0.365-0.018
		c-0.74,0.263-0.844,0.228-0.479-0.167c0.27-0.281,0.591-0.791,0.591-0.94c0-0.026-0.13,0.018-0.278,0.097
		c-0.157,0.088-0.505,0.219-0.766,0.299l-0.47,0.149l-0.426-0.29c-0.235-0.158-0.565-0.334-0.74-0.386
		c-0.443-0.123-1.123-0.106-1.523,0.035C12.756,7.77,12.069,8.788,12.147,9.904z"/>
	<path id="reflec_27_" fill-opacity="0.08" d="M24.912,12.438c0,6.869-5.577,12.437-12.456,12.437c-2.551,0-4.923-0.766-6.898-2.08
		L19.83,2.413C22.912,4.677,24.912,8.324,24.912,12.438z"/>
</g>
</svg>
