<?xml version="1.0" encoding="utf-8"?>
<!-- Generator: Adobe Illustrator 16.0.0, SVG Export Plug-In . SVG Version: 6.00 Build 0)  -->
<!DOCTYPE svg PUBLIC "-//W3C//DTD SVG 1.1//EN" "http://www.w3.org/Graphics/SVG/1.1/DTD/svg11.dtd">
<svg version="1.1" id="Layer_1" xmlns="http://www.w3.org/2000/svg" xmlns:xlink="http://www.w3.org/1999/xlink" x="0px" y="0px"
	 width="84px" height="75px" viewBox="0 -2.656 84 75" enable-background="new 0 -2.656 84 75" xml:space="preserve">
<g>
	<path fill="#00558B" d="M6.358,42.358v4.051c0,1.015-0.767,1.823-2.028,1.823c-0.966,0-1.965-0.548-1.965-1.979v-3.764l1.081-0.131
		v3.739c0,0.491,0.09,1.097,0.934,1.097c0.752,0,0.9-0.515,0.9-1.187v-3.519L6.358,42.358z"/>
	<polygon fill="#00558B" points="9.684,48.232 9.684,42.358 9.708,42.358 13.062,45.752 13.062,42.489 14.144,42.358 14.144,48.232 
		14.119,48.232 10.763,44.877 10.763,48.103 	"/>
	<polygon fill="#00558B" points="17.52,48.167 17.52,42.489 18.599,42.358 18.599,48.103 	"/>
	<polygon fill="#00558B" points="23.676,45.884 25.052,42.358 26.141,42.489 23.684,48.232 23.668,48.232 21.279,42.489 
		22.433,42.358 	"/>
	<polygon fill="#00558B" points="28.788,48.103 28.788,42.489 31.805,42.489 31.985,43.526 29.866,43.526 29.866,44.65 31.57,44.65 
		31.57,45.687 29.866,45.687 29.866,47.063 32.249,47.063 31.905,48.103 	"/>
	<path fill="#00558B" d="M35.173,42.489h1.8c1.079,0,1.931,0.523,1.931,1.725c0,0.696-0.417,1.263-1.081,1.475l1.53,2.26
		l-1.177,0.285l-1.908-2.936h-0.017v2.807l-1.08,0.065L35.173,42.489L35.173,42.489L35.173,42.489z M36.254,45.031h0.394
		c0.532,0,1.048-0.154,1.048-0.787c0-0.644-0.491-0.72-1.024-0.72h-0.417V45.031z"/>
	<path fill="#00558B" d="M42.43,46.588c0.277,0.311,0.474,0.604,1.079,0.604c0.386,0,0.72-0.303,0.72-0.646
		c0-1.112-2.445-0.484-2.445-2.473c0-1.072,0.803-1.719,1.914-1.719c0.559,0,1.236,0.309,1.572,0.761l-0.671,0.788
		c-0.264-0.277-0.663-0.508-0.966-0.508c-0.378,0-0.721,0.163-0.721,0.679c0,0.957,2.447,0.269,2.447,2.479
		c0,1.023-0.852,1.678-1.907,1.678c-0.701,0-1.291-0.294-1.768-0.874L42.43,46.588z"/>
	<polygon fill="#00558B" points="48.46,48.167 48.46,42.489 49.54,42.358 49.54,48.103 	"/>
	<polygon fill="#00558B" points="52.547,42.489 56.295,42.489 56.295,43.526 54.896,43.526 54.896,48.103 53.814,48.167 
		53.814,43.526 52.284,43.526 	"/>
	<polygon fill="#00558B" points="58.702,42.651 59.751,42.358 61.05,44.944 62.155,42.358 63.22,42.651 60.714,48.232 
		59.603,48.004 60.52,46.088 	"/>
	<path fill="#00558B" d="M72.968,42.358c1.62,0,2.963,1.309,2.963,2.938c0,1.627-1.343,2.936-2.963,2.936
		c-1.621,0-2.965-1.31-2.965-2.936C70.003,43.666,71.347,42.358,72.968,42.358 M72.968,47.128c0.997,0,1.832-0.835,1.832-1.833
		c0-0.999-0.835-1.833-1.832-1.833c-0.999,0-1.834,0.834-1.834,1.833C71.134,46.293,71.969,47.128,72.968,47.128"/>
	<polygon fill="#00558B" points="78.978,42.489 81.867,42.489 82.104,43.526 80.059,43.526 80.059,44.812 81.573,44.812 
		81.573,45.851 80.059,45.851 80.059,48.103 78.978,48.232 	"/>
	<path fill="#00558B" d="M1.978,62.561l6.275-12.676h0.035L14.8,62.561l-2.564,0.381l-1.492-3.165H5.959l-1.455,3.165L1.978,62.561z
		 M6.906,57.668h2.801l-1.437-3.382L6.906,57.668z"/>
	<polygon fill="#00558B" points="18.433,62.652 18.433,50.175 20.833,49.885 20.833,60.34 25.379,60.34 24.779,62.652 	"/>
	<path fill="#00558B" d="M28.133,62.561l6.274-12.676h0.037l6.511,12.676l-2.564,0.381l-1.493-3.165h-4.783l-1.456,3.165
		L28.133,62.561z M33.061,57.668h2.8l-1.435-3.382L33.061,57.668z"/>
	<path fill="#00558B" d="M45.521,59.287c0.616,0.692,1.052,1.344,2.398,1.344c0.855,0,1.601-0.672,1.601-1.436
		c0-2.474-5.438-1.073-5.438-5.49c0-2.387,1.782-3.82,4.257-3.82c1.237,0,2.745,0.692,3.492,1.692l-1.492,1.744
		c-0.582-0.618-1.474-1.128-2.146-1.128c-0.838,0-1.603,0.363-1.603,1.512c0,2.125,5.438,0.6,5.438,5.509
		c0,2.273-1.89,3.728-4.235,3.728c-1.563,0-2.873-0.653-3.927-1.945L45.521,59.287z"/>
	<polygon fill="#00558B" points="63.422,49.885 65.731,50.829 61.694,56.012 65.877,62.05 63.404,62.942 59.04,56.213 
		59.002,56.213 59.002,62.652 56.603,62.797 56.603,50.175 59.002,49.885 59.002,55.668 59.04,55.668 	"/>
	<path fill="#00558B" d="M68.672,62.561l6.274-12.676h0.036l6.512,12.676l-2.566,0.381l-1.49-3.165h-4.782l-1.456,3.165
		L68.672,62.561z M73.6,57.668H76.4l-1.438-3.382L73.6,57.668z"/>
	<polygon fill="#00558B" points="2.157,65.961 5.366,65.961 5.631,67.116 3.357,67.116 3.357,68.542 5.04,68.542 5.04,69.698 
		3.357,69.698 3.357,72.199 2.157,72.344 	"/>
	<path fill="#00558B" d="M9.513,72.156l3.137-6.341h0.018l3.255,6.341l-1.282,0.188l-0.745-1.583h-2.392l-0.727,1.583L9.513,72.156z
		 M11.978,69.707h1.4l-0.719-1.69L11.978,69.707z"/>
	<polygon fill="#00558B" points="20.941,72.272 20.941,65.961 22.143,65.816 22.143,72.199 	"/>
	<path fill="#00558B" d="M27.948,65.961h2c1.201,0,2.147,0.581,2.147,1.918c0,0.772-0.465,1.402-1.203,1.637l1.702,2.51l-1.31,0.318
		l-2.119-3.265h-0.02v3.12l-1.199,0.071V65.961L27.948,65.961z M29.148,68.788h0.437c0.592,0,1.165-0.171,1.165-0.873
		c0-0.719-0.545-0.799-1.137-0.799h-0.464V68.788L29.148,68.788z"/>
	<path fill="#00558B" d="M37.651,65.961h2.146c1.492,0,1.817,1.119,1.817,1.709c0,0.572-0.317,1.047-0.835,1.282
		c0.683,0.237,1.153,0.773,1.153,1.529c0,0.944-0.734,1.719-1.927,1.719h-2.355V65.961L37.651,65.961z M38.852,68.516h0.664
		c0.475,0,0.801-0.299,0.801-0.7c0-0.4-0.326-0.699-0.801-0.699h-0.664V68.516z M38.852,71.044h0.627
		c0.818,0,1.109-0.246,1.109-0.782c0-0.537-0.291-0.782-1.109-0.782h-0.627V71.044z"/>
	<path fill="#00558B" d="M46.437,72.156l3.136-6.341h0.02l3.256,6.341l-1.281,0.188l-0.745-1.583H48.43L47.7,72.344L46.437,72.156z
		 M48.901,69.707h1.401l-0.719-1.69L48.901,69.707z"/>
	<polygon fill="#00558B" points="57.811,72.344 57.811,65.816 57.839,65.816 61.566,69.59 61.566,65.961 62.767,65.816 
		62.767,72.344 62.74,72.344 59.013,68.617 59.013,72.199 	"/>
	<polygon fill="#00558B" points="71.941,65.816 73.096,66.288 71.077,68.879 73.168,71.899 71.933,72.344 69.748,68.979 
		69.73,68.979 69.73,72.199 68.529,72.272 68.529,65.961 69.73,65.816 69.73,68.707 69.748,68.707 	"/>
	<path fill="#00558B" d="M78.652,70.517c0.309,0.346,0.525,0.672,1.199,0.672c0.428,0,0.799-0.335,0.799-0.718
		c0-1.234-2.718-0.538-2.718-2.747c0-1.189,0.891-1.909,2.128-1.909c0.617,0,1.372,0.346,1.745,0.846l-0.746,0.873
		c-0.292-0.31-0.734-0.563-1.073-0.563c-0.419,0-0.799,0.183-0.799,0.754c0,1.064,2.719,0.301,2.719,2.757
		c0,1.136-0.946,1.862-2.118,1.862c-0.783,0-1.439-0.327-1.965-0.975L78.652,70.517z"/>
	<polygon fill="#00558B" points="68.827,38.431 61.868,38.431 55.201,16.95 55.201,-2.035 83.252,-2.035 83.252,6.935 68.928,6.935 
		68.928,10.482 79.905,10.482 79.905,19.539 68.827,19.539 	"/>
	<polygon fill="none" stroke="#FFFFFF" stroke-width="0.9093" stroke-miterlimit="3.864" points="68.827,38.431 61.868,38.431 
		55.201,16.95 55.201,-2.035 83.252,-2.035 83.252,6.935 68.928,6.935 68.928,10.482 79.905,10.482 79.905,19.539 68.827,19.539 	
		"/>
	<path fill="#00558B" d="M13.463-2.077l0.001,26.719c0,0-0.135,1.776,1.354,1.778c1.657,0.001,1.502-1.769,1.502-1.769L16.308-2.077
		h12.535V16.08l-7.56,22.309h1c-1.716,0.294-3.877,0.479-6.6,0.479c-14.198,0-14.936-4.623-14.936-4.623V-2.077H13.463z"/>
	<path fill="none" stroke="#FFFFFF" stroke-width="0.9093" stroke-miterlimit="3.864" d="M13.463-2.077l0.001,26.719
		c0,0-0.135,1.776,1.354,1.778c1.657,0.001,1.502-1.769,1.502-1.769L16.308-2.077h12.535V16.08l-7.56,22.309h1
		c-1.716,0.294-3.877,0.479-6.6,0.479c-14.198,0-14.936-4.623-14.936-4.623V-2.077H13.463z"/>
	<polygon fill="#00558B" points="21.333,38.418 61.734,38.422 49.136,-2.032 34.968,-2.032 	"/>
	<polygon fill="none" stroke="#FFFFFF" stroke-width="0.9093" stroke-miterlimit="3.864" points="21.333,38.418 61.734,38.422 
		49.136,-2.032 34.968,-2.032 	"/>
	<path fill="#FFFFFF" d="M53.453,36.115h6.021l-0.358-1.146h-5.452c0.097-0.559,0.201-1.201,0.298-1.89h4.562l-0.357-1.149h-4.053
		c0.075-0.613,0.139-1.25,0.188-1.889h3.272l-0.359-1.147h-2.841c0.103-2.292-0.05-4.473-0.794-5.653
		c-2.558-4.042-8.224-5.414-11.093-6.35l-0.333,1.18l-1.043-0.392l0.33-1.175c0.454-1.334,0.171-2.356,3.067-2.102
		c0.247-0.24,0.948-1.623,0.795-1.931c-0.804-0.41-2.758-0.852-2.758-0.852s-0.413-0.582-0.937-0.796
		c-1.151-0.472-2.383-0.556-3.67-0.046c-0.13-0.076-0.654-0.296-1.097-0.083c-0.711,0.343-0.573,0.91-0.573,0.934
		c-0.139,0.111-0.166,0.171-0.281,0.294c-0.832,0.897-1.404,1.868-1.884,2.984c-0.09,0.208-1.11,2.255-1.509,3.8
		c-0.782,3.05-0.802,5.482,0,8.072c0.231,0.742,0.329,1.456,0.434,2.152h-6.996l-0.393,1.148h7.592
		c0.141,0.631,0.351,1.257,0.737,1.89H24.99l-0.394,1.148h10.239c0.384,0.455,0.841,0.966,1.219,1.387
		c0.934-0.446,1.529-1.21,1.873-2.277l-0.612-4.568l-0.682-0.441l0.852-0.923l0.813,0.665l0.696,5.355
		c-0.344,1.152-0.79,1.99-1.488,2.577H23.99l-0.393,1.148h11.397l-6.123,2.319h27.381l-3.003-1.245
		C53.25,37.115,53.333,36.742,53.453,36.115 M45.922,34.956l0.916-1.766l-0.393-1.915l-2.284-0.952
		c-0.269,1.309-0.687,2.632-1.247,4.11l-1.202,0.122c1.354-3.156,1.923-6.257,1.727-9.313l1.045,0.163
		c0.088,1.38,0.043,2.63-0.138,3.864l3.018,1.257l1.037,5.247L45.922,34.956z"/>
	<polygon fill="#00558B" points="72.164,35.731 72.802,35.731 72.802,37.664 73.254,37.636 73.254,35.731 73.836,35.731 
		73.836,35.298 72.271,35.298 	"/>
	<polygon fill="#00558B" points="74.334,37.689 74.511,36.501 74.518,36.501 75.101,37.689 75.107,37.689 75.681,36.501 
		75.688,36.501 75.876,37.689 76.316,37.636 75.874,35.242 75.864,35.242 75.102,36.811 74.344,35.242 74.338,35.242 73.901,37.636 
			"/>
</g>
</svg>
